<?xml version="1.0" encoding="UTF-8"?>
<!DOCTYPE svg PUBLIC "-//W3C//DTD SVG 1.1//EN" "http://www.w3.org/Graphics/SVG/1.1/DTD/svg11.dtd">
<!-- Creator: CorelDRAW X8 -->
<svg xmlns="http://www.w3.org/2000/svg" xml:space="preserve" width="1920px" height="1484px" version="1.1" shape-rendering="geometricPrecision" text-rendering="geometricPrecision" image-rendering="optimizeQuality" fill-rule="evenodd" clip-rule="evenodd"
viewBox="0 0 1920 1484"
 xmlns:xlink="http://www.w3.org/1999/xlink">
 <g id="Capa_x0020_1">
  <metadata id="CorelCorpID_0Corel-Layer"/>
  <path fill="#008DD2" d="M0 740c0,-254 73,-435 181,-546 121,-130 332,-194 636,-194l285 0c302,0 516,64 637,194 107,111 181,292 181,546 0,255 -74,439 -181,550 -121,127 -335,194 -637,194l-285 0c-304,0 -515,-67 -636,-194 -108,-111 -181,-295 -181,-550zm1018 -408l-117 0c-14,0 -26,7 -31,18 -4,5 -6,12 -6,19l0 23c0,20 17,37 37,37l117 0c15,0 26,-8 32,-17 3,-7 6,-13 6,-20l0 -23c0,-21 -17,-37 -38,-37zm-117 817c39,0 78,0 117,0 22,0 38,-16 38,-37l0 -20c0,-20 -17,-36 -37,-36 -39,0 -79,-1 -119,0 -19,0 -36,16 -36,36l0 20c0,21 16,37 37,37l0 0zm245 -915c50,4 93,44 93,95l0 727 61 0c20,-4 37,-18 37,-38 0,-151 0,-303 0,-455 0,-20 17,-37 37,-37l20 0c20,0 37,17 37,37 0,165 0,330 0,495 0,44 -31,84 -71,95l-121 0 0 3c0,50 -40,90 -90,90 -126,0 -252,0 -378,0 -51,0 -91,-40 -91,-90l0 -727 -60 0c-20,0 -37,17 -37,37 0,150 0,301 0,452 0,20 -17,40 -37,40l-20 0c-20,0 -37,-20 -37,-40 0,-164 0,-328 0,-492 0,-44 30,-84 70,-94l121 0 0 -3c0,-51 40,-91 91,-95l375 0 0 0zm191 158l0 -23c0,-20 17,-37 37,-37l20 0c20,0 37,17 37,37l0 23c0,20 -17,37 -37,37l-20 0c-20,0 -37,-17 -37,-37zm-848 724l0 -24c0,-20 17,-36 37,-36l20 0c20,0 37,16 37,36l0 24c0,20 -17,37 -37,37l-20 0c-20,0 -37,-17 -37,-37zm657 -590c0,144 0,288 0,432 -124,0 -248,0 -372,0 0,-144 0,-288 0,-432 124,0 248,0 372,0z"/>
 </g>
</svg>
