<?xml version="1.0" encoding="UTF-8"?>
<!DOCTYPE svg PUBLIC "-//W3C//DTD SVG 1.1//EN" "http://www.w3.org/Graphics/SVG/1.1/DTD/svg11.dtd">
<!-- Creator: CorelDRAW X8 -->
<svg xmlns="http://www.w3.org/2000/svg" xml:space="preserve" width="1920px" height="415px" version="1.1" shape-rendering="geometricPrecision" text-rendering="geometricPrecision" image-rendering="optimizeQuality" fill-rule="evenodd" clip-rule="evenodd"
viewBox="0 0 1920 415"
 xmlns:xlink="http://www.w3.org/1999/xlink">
 <g id="Capa_x0020_1">
  <metadata id="CorelCorpID_0Corel-Layer"/>
  <g id="_2602289839488">
   <g id="_2602293469936">
    <path fill="#008DD2" d="M0 207c0,-71 21,-122 51,-153 33,-36 92,-54 178,-54l80 0c84,0 144,18 178,54 30,31 51,82 51,153 0,72 -21,123 -51,154 -34,36 -94,54 -178,54l-80 0c-86,0 -145,-18 -178,-54 -30,-31 -51,-82 -51,-154zm285 -114l-33 0c-4,0 -7,2 -9,5 0,1 -1,3 -1,5l0 7c0,6 4,10 10,10l33 0c4,0 7,-2 9,-5 1,-2 1,-3 1,-5l0 -7c0,-5 -4,-10 -10,-10zm-33 229c11,0 22,0 33,0 6,0 10,-5 10,-10l0 -6c0,-6 -4,-10 -10,-11 -11,0 -22,0 -33,0 -5,1 -10,5 -10,11l0 6c0,5 4,10 10,10l0 0zm69 -256c14,1 26,12 26,26l0 203 17 0c5,-1 10,-4 10,-10 0,-42 0,-85 0,-127 0,-6 5,-11 10,-11l6 0c6,0 10,5 10,11 0,46 0,92 0,139 0,12 -8,23 -19,26l-34 0 0 1c0,14 -11,25 -25,25 -36,0 -71,0 -106,0 -14,0 -26,-11 -26,-25l0 -204 -17 0c-5,0 -10,5 -10,10 0,43 0,85 0,127 0,6 -5,11 -10,11l-6 0c-5,0 -10,-5 -10,-11 0,-46 0,-92 0,-138 0,-12 8,-23 20,-26l33 0 0 -1c0,-14 12,-25 26,-26l105 0 0 0zm53 44l0 -7c0,-5 5,-10 10,-10l6 0c6,0 10,5 10,10l0 7c0,5 -4,10 -10,10l-6 0c-5,0 -10,-5 -10,-10zm-237 202l0 -6c0,-6 5,-11 10,-11l6 0c5,0 10,5 10,11l0 6c0,6 -5,11 -10,11l-6 0c-5,0 -10,-5 -10,-11zm184 -165c0,41 0,81 0,121 -35,0 -69,0 -104,0 0,-40 0,-80 0,-121 35,0 69,0 104,0z"/>
    <path fill="#008DD2" fill-rule="nonzero" d="M676 211l31 0c14,0 25,-5 32,-12 8,-8 11,-17 11,-28 0,-28 -15,-43 -46,-43l-28 0 0 83 0 0zm103 93l-21 0 -47 -78 -6 0 -29 0 0 78 -17 0 0 -191 43 0c22,0 39,5 49,15 12,11 17,25 17,43 0,13 -4,24 -10,33 -8,10 -17,15 -29,19l50 81 0 0 0 0z"/>
    <polygon id="_1" fill="#008DD2" fill-rule="nonzero" points="826,287 912,287 912,304 809,304 809,113 910,113 910,129 826,129 826,201 900,201 900,217 826,217 "/>
    <path id="_2" fill="#008DD2" fill-rule="nonzero" d="M1081 121l0 18c-8,-4 -15,-7 -21,-9 -7,-2 -15,-2 -26,-2 -23,0 -41,7 -56,21 -14,15 -21,35 -21,58 0,25 7,45 21,60 14,15 34,22 57,22 19,0 35,-5 47,-14l0 19c-11,8 -27,12 -47,12 -29,0 -52,-9 -70,-27 -18,-17 -26,-41 -26,-72 0,-29 8,-51 27,-69 18,-18 40,-27 68,-27 18,0 34,3 47,10l0 0 0 0z"/>
    <path id="_3" fill="#008DD2" fill-rule="nonzero" d="M1147 235l73 0 -4 -12 -31 -95c-3,7 -14,39 -34,95l-4 12 0 0zm97 69l-18 -54 -85 0 -17 54 -20 0 67 -191 26 0 65 191 -18 0 0 0 0 0z"/>
    <path id="_4" fill="#008DD2" fill-rule="nonzero" d="M1313 211l31 0c14,0 24,-5 32,-12 7,-8 11,-17 11,-28 0,-28 -15,-43 -46,-43l-28 0 0 83 0 0zm103 93l-20 0 -48 -78 -6 0 -29 0 0 78 -17 0 0 -191 42 0c23,0 40,5 51,15 11,11 16,25 16,43 0,13 -4,24 -10,33 -8,10 -17,15 -29,19l50 81 0 0 0 0z"/>
    <path id="_5" fill="#008DD2" fill-rule="nonzero" d="M1590 199l0 91c-15,10 -34,16 -57,16 -28,0 -52,-9 -69,-27 -18,-16 -27,-41 -27,-71 0,-29 9,-52 26,-70 17,-19 40,-28 66,-28 22,0 40,4 55,13l0 20c-15,-11 -33,-15 -53,-15 -23,0 -41,7 -55,21 -14,15 -20,35 -20,59 0,26 6,44 20,59 14,15 33,21 57,21 15,0 29,-3 40,-9l0 -64 -45 0 0 -16 62 0 0 0 0 0z"/>
    <path id="_6" fill="#008DD2" fill-rule="nonzero" d="M1663 235l74 0 -5 -12 -31 -95c-3,7 -14,39 -33,95l-5 12 0 0zm97 69l-18 -54 -85 0 -17 54 -19 0 66 -191 26 0 66 191 -19 0 0 0z"/>
    <path id="_7" fill="#008DD2" fill-rule="nonzero" d="M1909 120l0 20c-5,-3 -11,-6 -18,-8 -8,-3 -14,-4 -22,-4 -12,0 -22,3 -30,10 -7,5 -11,14 -11,23 0,5 1,10 3,13 2,5 6,8 10,12 5,2 9,5 12,7 4,2 10,5 16,8 7,2 12,4 15,6 4,2 8,4 13,8 6,3 10,7 13,9 2,4 4,9 7,13 2,6 3,12 3,17 0,17 -6,29 -17,39 -11,8 -25,13 -42,13 -20,0 -37,-5 -50,-13l0 -19c6,4 12,8 22,10 8,3 18,5 27,5 13,0 23,-3 31,-10 7,-5 11,-14 11,-24 0,-8 -3,-15 -8,-21 -6,-4 -14,-10 -25,-15 -2,0 -4,-1 -10,-3 -5,-3 -8,-4 -10,-5 -2,-1 -6,-3 -10,-6 -4,-2 -7,-3 -9,-5 -3,-2 -5,-4 -8,-7 -3,-3 -5,-5 -6,-8 -2,-3 -3,-7 -4,-11 -1,-3 -2,-7 -2,-12 0,-16 6,-28 17,-37 12,-9 25,-13 42,-13 16,0 29,2 40,8l0 0 0 0z"/>
   </g>
  </g>
 </g>
</svg>
