<?xml version="1.0" encoding="UTF-8"?>
<!DOCTYPE svg PUBLIC "-//W3C//DTD SVG 1.1//EN" "http://www.w3.org/Graphics/SVG/1.1/DTD/svg11.dtd">
<!-- Creator: CorelDRAW X8 -->
<svg xmlns="http://www.w3.org/2000/svg" xml:space="preserve" width="1920px" height="1396px" version="1.1" shape-rendering="geometricPrecision" text-rendering="geometricPrecision" image-rendering="optimizeQuality" fill-rule="evenodd" clip-rule="evenodd"
viewBox="0 0 1920 1396"
 xmlns:xlink="http://www.w3.org/1999/xlink">
 <g id="Capa_x0020_1">
  <metadata id="CorelCorpID_0Corel-Layer"/>
  <g id="_2602289840864">
   <g id="_2602163563808">
    <path fill="#008DD2" d="M400 432c0,-148 43,-254 105,-319 71,-76 194,-113 372,-113l166 0c176,0 301,37 372,113 62,65 105,171 105,319 0,148 -43,256 -105,320 -71,75 -196,114 -372,114l-166 0c-178,0 -301,-39 -372,-114 -62,-64 -105,-172 -105,-320zm594 -239l-68 0c-8,0 -15,5 -19,11 -1,3 -2,7 -2,11l0 14c0,12 9,21 21,21l68 0c8,0 15,-4 19,-10 1,-3 2,-7 2,-11l0 -14c0,-12 -9,-22 -21,-22zm-68 477c23,0 45,0 68,0 13,0 21,-9 21,-21l0 -12c0,-11 -9,-21 -21,-21 -23,0 -45,-1 -68,0 -12,0 -21,10 -21,21l0 12c0,12 8,21 21,21zm143 -533c29,2 54,25 54,55l0 424 35 0c12,-2 22,-10 22,-22 0,-89 0,-177 0,-266 0,-11 10,-21 21,-21l12 0c12,0 21,10 21,21 0,97 0,193 0,290 0,25 -17,49 -41,54l-70 0 0 2c0,29 -23,53 -53,53 -73,0 -147,0 -220,0 -30,0 -53,-24 -53,-53l0 -424 -35 0c-12,0 -22,10 -22,22 0,88 0,176 0,264 0,11 -10,23 -21,23l-12 0c-12,0 -21,-12 -21,-23 0,-96 0,-192 0,-288 0,-25 17,-48 41,-55l70 0 0 -1c0,-30 23,-53 53,-55l219 0 0 0zm111 92l0 -14c0,-12 10,-22 21,-22l12 0c12,0 21,10 21,22l0 14c0,11 -9,21 -21,21l-12 0c-11,0 -21,-10 -21,-21zm-494 422l0 -14c0,-11 9,-21 21,-21l12 0c11,0 21,10 21,21l0 14c0,12 -10,21 -21,21l-12 0c-12,0 -21,-9 -21,-21zm383 -344c0,84 0,168 0,252 -73,0 -145,0 -218,0 0,-84 0,-168 0,-252 73,0 145,0 218,0z"/>
    <path fill="#008DD2" fill-rule="nonzero" d="M27 1252l46 0c22,0 38,-7 49,-18 12,-12 18,-27 18,-44 0,-42 -24,-64 -72,-64l-41 0 0 126 0 0zm156 141l-32 0 -72 -118 -9 0 -43 0 0 118 -27 0 0 -289 65 0c34,0 59,6 76,22 17,16 25,37 25,65 -1,19 -6,37 -16,51 -10,13 -25,23 -44,28l77 123 0 0 0 0z"/>
    <polygon id="_1" fill="#008DD2" fill-rule="nonzero" points="254,1368 385,1368 385,1393 228,1393 228,1104 383,1104 383,1128 254,1128 254,1236 367,1236 367,1261 254,1261 "/>
    <path id="_2" fill="#008DD2" fill-rule="nonzero" d="M644 1115l0 28c-13,-6 -24,-12 -34,-14 -10,-3 -23,-4 -40,-4 -33,0 -61,11 -83,34 -22,22 -34,51 -34,87 0,38 12,68 33,91 22,23 51,34 87,34 29,0 53,-7 71,-23l0 30c-17,12 -41,18 -71,18 -44,0 -80,-13 -106,-40 -27,-27 -41,-63 -41,-110 0,-44 14,-78 41,-106 28,-27 63,-41 104,-41 28,0 53,5 73,16l0 0 0 0z"/>
    <path id="_3" fill="#008DD2" fill-rule="nonzero" d="M743 1288l112 0 -6 -18 -49 -144c-4,11 -21,60 -50,144l-7 18 0 0 0 0zm148 105l-28 -81 -129 0 -27 81 -29 0 102 -289 39 0 100 289 -28 0 0 0 0 0z"/>
    <path id="_4" fill="#008DD2" fill-rule="nonzero" d="M996 1252l47 0c22,0 38,-7 50,-18 11,-12 17,-27 17,-44 0,-42 -24,-64 -72,-64l-42 0 0 126zm157 141l-32 0 -72 -118 -9 0 -44 0 0 118 -26 0 0 -289 65 0c34,0 59,6 77,22 16,16 25,37 25,65 -1,19 -7,37 -17,51 -10,13 -24,23 -45,28l78 123 0 0z"/>
    <path id="_5" fill="#008DD2" fill-rule="nonzero" d="M1418 1233l0 139c-23,16 -52,24 -86,24 -44,0 -80,-13 -106,-40 -27,-25 -40,-62 -40,-109 0,-43 12,-78 39,-107 26,-28 59,-42 99,-42 34,0 62,6 84,20l0 30c-22,-16 -49,-23 -80,-23 -34,0 -62,11 -83,34 -22,22 -33,51 -33,88 0,39 11,68 33,90 21,22 49,32 87,32 23,0 42,-4 59,-13l0 -99 -68 0 0 -24 95 0 0 0 0 0z"/>
    <path id="_6" fill="#008DD2" fill-rule="nonzero" d="M1529 1288l112 0 -6 -18 -49 -144c-4,11 -20,60 -50,144l-7 18 0 0zm147 105l-26 -81 -129 0 -28 81 -29 0 102 -289 38 0 102 289 -30 0 0 0z"/>
    <path id="_7" fill="#008DD2" fill-rule="nonzero" d="M1903 1113l0 30c-6,-5 -16,-9 -27,-12 -11,-2 -22,-5 -33,-5 -18,0 -34,5 -45,14 -12,9 -18,21 -18,36 0,8 2,15 5,21 3,5 8,11 16,16 6,5 13,9 18,12 6,3 14,6 24,11 10,4 18,8 23,10 5,2 12,7 20,11 8,5 13,11 18,15 5,5 8,12 11,20 3,8 5,17 5,26 0,25 -8,45 -25,58 -17,13 -40,20 -65,20 -29,0 -56,-7 -76,-19l0 -30c8,6 20,12 33,17 14,4 28,5 42,5 20,0 36,-4 47,-13 11,-8 17,-21 17,-37 0,-13 -4,-23 -13,-31 -8,-8 -21,-16 -38,-23 -1,-1 -7,-4 -14,-6 -8,-4 -13,-6 -17,-7 -2,-2 -8,-5 -14,-8 -7,-3 -12,-7 -15,-10 -3,-2 -7,-5 -11,-9 -5,-5 -8,-9 -10,-13 -2,-4 -3,-10 -6,-16 -1,-5 -2,-11 -2,-19 0,-24 9,-43 26,-56 18,-14 39,-20 64,-20 24,0 44,4 60,12l0 0 0 0z"/>
   </g>
  </g>
 </g>
</svg>
