<?xml version="1.0" encoding="UTF-8"?>
<!DOCTYPE svg PUBLIC "-//W3C//DTD SVG 1.1//EN" "http://www.w3.org/Graphics/SVG/1.1/DTD/svg11.dtd">
<!-- Creator: CorelDRAW X8 -->
<svg xmlns="http://www.w3.org/2000/svg" xml:space="preserve" width="1920px" height="414px" version="1.1" shape-rendering="geometricPrecision" text-rendering="geometricPrecision" image-rendering="optimizeQuality" fill-rule="evenodd" clip-rule="evenodd"
viewBox="0 0 1920 414"
 xmlns:xlink="http://www.w3.org/1999/xlink">
 <g id="Capa_x0020_1">
  <metadata id="CorelCorpID_0Corel-Layer"/>
  <g id="_2602289826240">
   <g id="_2602293472560">
    <g id="_2198169171680">
     <path fill="#008DD2" fill-rule="nonzero" d="M680 235l73 0 -3 -12 -33 -96c-2,8 -14,39 -33,96l-4 12 0 0 0 0zm97 68l-18 -53 -84 0 -19 53 -19 0 67 -190 26 0 65 190 -18 0 0 0 0 0z"/>
     <path id="_1" fill="#008DD2" fill-rule="nonzero" d="M829 303l0 -190 23 0 49 81 53 88c0,-19 -1,-49 -1,-88l0 -81 18 0 0 190 -24 0 -48 -80 -53 -89c0,19 0,49 0,89l0 80 -17 0 0 0 0 0z"/>
     <path id="_2" fill="#008DD2" fill-rule="nonzero" d="M1134 231l0 -118 17 0 0 118c0,25 -6,43 -18,55 -11,12 -28,19 -50,19 -21,0 -37,-7 -49,-19 -12,-12 -18,-30 -18,-53l0 -120 18 0 0 120c0,19 5,33 13,42 9,8 21,13 36,13 34,0 51,-18 51,-57l0 0 0 0z"/>
     <path id="_3" fill="#008DD2" fill-rule="nonzero" d="M1196 303l0 -190 24 0 49 81 53 88c0,-19 -1,-49 -1,-88l0 -81 18 0 0 190 -24 0 -48 -80 -53 -89c0,19 0,49 0,89l0 80 -18 0 0 0 0 0z"/>
     <path id="_4" fill="#008DD2" fill-rule="nonzero" d="M1519 121l0 18c-9,-4 -16,-7 -23,-9 -7,-2 -15,-3 -26,-3 -22,0 -40,8 -55,22 -14,15 -22,34 -22,58 0,24 8,45 22,59 15,15 33,22 57,22 18,0 34,-5 47,-14l0 19c-12,8 -28,12 -47,12 -29,0 -53,-8 -70,-26 -17,-18 -27,-41 -27,-72 0,-29 10,-52 28,-69 18,-18 41,-28 68,-28 17,0 33,4 48,11l0 0 0 0z"/>
     <polygon id="_5" fill="#008DD2" fill-rule="nonzero" points="1554,303 1554,113 1572,113 1572,303 "/>
     <path id="_6" fill="#008DD2" fill-rule="nonzero" d="M1609 207c0,-30 8,-54 23,-71 15,-18 35,-27 61,-27 26,0 46,9 60,27 15,16 23,41 23,71 0,30 -8,54 -23,72 -15,18 -34,26 -60,26 -25,0 -45,-9 -60,-27 -16,-18 -24,-41 -24,-71zm18 0c0,25 7,45 18,60 12,14 28,21 48,21 21,0 37,-7 48,-21 11,-14 17,-35 17,-60 0,-25 -6,-45 -18,-60 -11,-14 -27,-21 -47,-21 -21,0 -37,7 -48,22 -11,14 -18,34 -18,59l0 0z"/>
     <path id="_7" fill="#008DD2" fill-rule="nonzero" d="M1909 120l0 20c-5,-3 -11,-6 -18,-8 -7,-3 -14,-4 -22,-4 -12,0 -22,3 -30,10 -7,5 -11,12 -11,23 0,5 1,9 3,13 2,5 5,8 10,11 5,3 9,6 12,8 4,2 10,5 16,7 7,3 12,5 15,7 4,2 8,3 13,7 6,3 10,7 13,10 2,3 4,7 7,13 2,5 3,11 3,17 0,16 -6,28 -17,38 -11,8 -25,13 -42,13 -20,0 -36,-5 -50,-13l0 -19c6,4 13,8 22,10 8,3 18,5 27,5 13,0 24,-3 31,-9 7,-6 11,-14 11,-24 0,-9 -3,-15 -8,-21 -6,-6 -14,-10 -25,-15 -1,-1 -4,-2 -10,-4 -5,-3 -8,-4 -10,-5 -2,0 -6,-2 -10,-5 -4,-2 -7,-4 -9,-6 -3,-1 -4,-3 -7,-6 -4,-3 -6,-6 -7,-9 -2,-2 -3,-6 -4,-10 -1,-4 -2,-8 -2,-12 0,-16 6,-28 17,-38 12,-8 25,-13 42,-13 16,0 29,3 40,9l0 0 0 0z"/>
     <path fill="#008DD2" d="M0 207c0,-71 21,-122 50,-153 34,-36 93,-54 178,-54l80 0c84,0 144,18 178,54 29,31 50,82 50,153 0,71 -21,122 -50,153 -34,36 -94,54 -178,54l-80 0c-85,0 -144,-18 -178,-54 -29,-31 -50,-82 -50,-153zm373 -50c0,-6 5,-10 11,-10l5 0c6,0 10,4 10,10 0,11 0,88 0,99 0,6 -4,11 -10,11l-5 0c-6,0 -11,-5 -11,-11 0,-11 0,-88 0,-99zm-183 109l0 46c0,5 -5,10 -10,10l-7 0c-6,0 -10,-5 -10,-10l0 -46 -1 0c-14,0 -25,-12 -25,-26l0 -67c0,-14 11,-26 25,-26l79 0 60 -73 5 -3 0 0 0 0 1 -1 0 0 0 0 0 0 0 0 0 0 0 0 1 0 0 0 0 -1 0 0 0 0 0 0 1 0 0 0 0 0 0 0 0 0 1 0 0 -1 0 0 0 0 0 0 0 0 1 0 0 0 0 0 0 0 0 0 0 0 1 0 0 -1 0 0 0 0 1 0 0 0 0 0 0 0 0 0 1 0 0 0 0 0 0 0 0 0 0 -1 0 0 0 0 0 0 0 0 0 0 1 0 0 0 0 0 0 0 0 0 1 0 0 0 0 0 0 0 0 0 0 0 1 0 0 0 0 0 0 0 0 0 1 0 0 0 0 0 0 0 0 0 1 0 0 0 0 0 0 0 0 0 1 0 0 0 0 0 0 0 0 0 1 0 0 0 0 0 0 0 1 0 0 0 0 0 0 0 0 0 0 0 1 0 0 0 0 0 0 0 1 0 0 0 0 0 0 0 0 0 1 0 0 0 0 0 0 0 0 0 0 0 1 0 0 0 0 0 0 0 1 0 0 0 0 0 0 0 0 0 0 0 1 0 0 0 0 0 0 0 0 0 1 0 0 0 0 1 0 0 0 0 0 0 0 0 0 0 0 0 0 0 1 0 0 0 0 0 0 0 0 0 1 1 0 0 0 0 0 0 0 0 0 0 1 0 0 0 0 0 0 0 0 0 0 0 1 1 0 0 0 0 0 0 0 0 1 0 0 0 0 0 0 0 0 0 0 1 1 0 0 0 0 0 0 0 0 0 0 0 0 0 1 0 0 1 0 0 0 0 0 0c6,5 10,12 10,21l0 81 0 34 0 0 0 1 0 33 0 81c0,9 -4,17 -10,21l0 0 0 0 0 0 0 0 -1 0 0 0 0 0 0 0 0 1 0 0 0 0 -1 0 0 0 0 0 0 0 0 0 0 0 -1 0 0 1 0 0 0 0 0 0 -1 0 0 0 0 0 0 0 0 0 0 0 -1 1 0 0 0 0 0 0 0 0 0 0 -1 0 0 0 0 0 0 0 0 0 -1 0 0 1 0 0 0 0 0 0 0 0 0 0 0 0 0 0 0 0 -1 0 0 0 0 0 0 0 0 0 -1 0 0 0 0 0 0 1 0 0 0 0 -1 0 0 0 0 0 0 0 -1 0 0 0 0 0 0 0 0 0 0 0 -1 0 0 0 0 0 0 0 0 0 -1 0 0 0 0 0 0 0 -1 0 0 0 0 0 0 0 0 0 0 0 -1 0 0 0 0 0 0 0 -1 0 0 0 0 0 0 0 0 0 -1 0 0 0 0 0 0 0 0 0 -1 0 0 0 0 0 0 0 0 0 -1 0 0 0 0 0 0 0 0 0 -1 0 0 0 0 0 0 0 0 0 0 0 -1 0 0 -1 0 0 0 0 0 0 -1 0 0 0 0 0 0 0 0 0 0 0 0 0 0 0 0 0 0 0 0 0 -1 0 0 0 0 -1 0 0 0 0 -1 0 0 0 0 0 0 0 -1 0 0 0 0 0 0 0 0 0 0 -1 -1 0 0 0 0 0 0 0 0 0 0 0 -1 0 0 0 0 0 0 -1 0 0 -1 0 0 0 0 0 0 0 0 0 0 0 -1 0 0 0 0 -1 0 0 0 0 0 0 0 0 -1 0 0 0 0 0 -5 -3 -60 -74 -51 0 0 0z"/>
    </g>
   </g>
  </g>
 </g>
</svg>
