<?xml version="1.0" encoding="UTF-8"?>
<!DOCTYPE svg PUBLIC "-//W3C//DTD SVG 1.1//EN" "http://www.w3.org/Graphics/SVG/1.1/DTD/svg11.dtd">
<!-- Creator: CorelDRAW X8 -->
<svg xmlns="http://www.w3.org/2000/svg" xml:space="preserve" width="1920px" height="465px" version="1.1" shape-rendering="geometricPrecision" text-rendering="geometricPrecision" image-rendering="optimizeQuality" fill-rule="evenodd" clip-rule="evenodd"
viewBox="0 0 1920 465"
 xmlns:xlink="http://www.w3.org/1999/xlink">
 <g id="Capa_x0020_1">
  <metadata id="CorelCorpID_0Corel-Layer"/>
  <g id="_2602359423312">
   <g id="_2602293471600">
    <g id="_2233301009296">
     <path fill="#008DD2" d="M0 232c0,-80 23,-136 57,-171 38,-41 104,-61 199,-61l89 0c95,0 162,20 200,61 33,35 57,91 57,171 0,80 -24,138 -57,172 -38,40 -105,61 -200,61l-89 0c-95,0 -161,-21 -199,-61 -34,-34 -57,-92 -57,-172zm213 99c16,0 29,13 29,30 0,17 -13,29 -29,29 -17,0 -30,-12 -30,-29 0,-17 13,-30 30,-30l-19 0 -6 0 0 0 -6 0 0 0 0 0c-3,0 -5,0 -7,-1l0 0 -1 0 0 0 0 0 -1 0c0,0 0,0 -1,0l0 0 0 0 0 -1 0 0 -1 0 0 0 0 0 0 0 -1 0 0 0 0 -1 -1 0 0 0 0 0 -1 0 0 0 0 0 0 0 -1 -2 0 0 0 0 0 0 -1 0 0 0 0 -1 0 0 0 0 -1 0 0 0 0 0 0 -1 -1 0 0 0 0 0 0 0 -1 -1 0 0 0 0 0 0 0 0 0 0 -1 -1 0 0 0 0 -1 0 0 -1 0 0c0,0 -1,0 -1,-1l0 0 0 0 0 0 0 0 0 -1 -1 0 0 0 0 0 0 0 0 0c-1,-1 -1,-2 -1,-2l0 0c-4,-5 -5,-9 -5,-16l0 -18 0 -40 0 0 0 0 0 -110 0 -29 -19 0c-6,0 -11,-5 -11,-12l0 -7c0,-6 5,-12 11,-12l31 0 6 0 0 0 0 0 0 0 1 0 0 0 0 0 0 0 0 0 0 0 0 0 1 0 0 0 0 0 0 0 0 0 0 1 1 0 0 0 0 0 0 0 0 0 1 0 0 0 0 0 0 0 0 0 1 0 0 0 0 0 0 0 0 1 0 0 1 0 0 0 0 0 0 0 0 0 0 0 1 0 0 1 0 0 0 0 0 0 1 0 0 2 0 0 0 0 0 0 0 0 1 0 0 1 0 0 0 0 0 0 0 0 2 1 0 0 0 0 0 0 0 1 0 0 0 0 0 0 0 1 1 0 0 0 0 0 0 1 0 0 0 0 0 0 0 1 0 0 0 0 0 1 0 0 0 0 0 0 0 7 0 12c76,-1 160,0 236,0l1 0 0 0c16,0 28,14 28,29l0 108c0,16 -12,30 -28,30l0 0 -1 0 -213 0 -12 0c-6,0 -11,5 -11,11l0 1 0 6c0,7 5,12 11,12l12 0 231 0c6,0 11,6 11,12l0 6c0,6 -5,12 -11,12l-49 0c17,0 31,13 31,30 0,17 -14,29 -31,29 -16,0 -29,-12 -29,-29 0,-17 13,-30 29,-30l-175 0 0 0 0 0z"/>
     <path fill="#008DD2" fill-rule="nonzero" d="M879 135l0 20c-9,-4 -17,-7 -24,-9 -8,-2 -17,-3 -30,-3 -25,0 -45,8 -62,24 -15,17 -24,39 -24,65 0,27 9,50 24,66 16,17 38,25 64,25 21,0 39,-5 53,-15l0 21c-13,9 -31,13 -54,13 -31,0 -58,-9 -77,-29 -21,-20 -30,-46 -30,-81 0,-32 10,-58 31,-78 19,-20 46,-30 75,-30 21,0 39,4 54,11l0 0 0 0z"/>
     <path id="_1" fill="#008DD2" fill-rule="nonzero" d="M908 232c0,-33 9,-60 25,-80 17,-20 40,-29 68,-29 30,0 53,9 69,29 17,19 25,47 25,80 0,34 -8,61 -25,81 -17,20 -39,29 -69,29 -27,0 -50,-10 -67,-30 -17,-20 -26,-46 -26,-80l0 0zm20 0c0,28 7,50 20,67 14,16 31,24 53,24 24,0 41,-8 55,-24 13,-16 19,-39 19,-67 0,-28 -6,-50 -20,-67 -13,-16 -30,-23 -54,-23 -23,0 -40,7 -53,24 -14,16 -20,38 -20,66l0 0 0 0z"/>
     <path id="_2" fill="#008DD2" fill-rule="nonzero" d="M1134 340l15 -213 27 0 28 78 37 108c15,-40 28,-76 40,-108l29 -78 28 0 17 213 -20 0 -7 -85 -8 -103c-13,36 -26,69 -38,103l-30 79 -23 0 -27 -79 -36 -101c-2,33 -4,66 -6,101l-6 85 -20 0 0 0 0 0z"/>
     <path id="_3" fill="#008DD2" fill-rule="nonzero" d="M1423 322l54 0c15,0 25,-3 33,-10 7,-6 11,-17 11,-30 0,-13 -4,-23 -12,-30 -10,-8 -22,-12 -37,-12l-49 0 0 82 0 0zm0 -178l0 80 38 0c19,0 32,-5 41,-12 9,-8 13,-19 13,-30 0,-11 -4,-20 -13,-27 -8,-7 -21,-11 -36,-11l-43 0 0 0 0 0zm-19 -17l59 0c21,0 39,4 52,15 13,9 21,23 21,40 0,12 -4,24 -12,32 -6,10 -15,15 -27,17 13,2 23,7 31,16 9,9 14,21 14,36 0,17 -6,31 -17,41 -11,11 -27,16 -48,16l-73 0 0 -213 0 0 0 0z"/>
     <path id="_4" fill="#008DD2" fill-rule="nonzero" d="M1572 232c0,-33 8,-60 25,-80 17,-20 40,-29 68,-29 29,0 53,9 68,29 17,19 25,47 25,80 0,34 -8,61 -25,81 -17,20 -39,29 -67,29 -28,0 -51,-10 -68,-30 -18,-20 -26,-46 -26,-80l0 0zm19 0c0,28 8,50 22,67 12,16 30,24 53,24 23,0 41,-8 54,-24 12,-16 19,-39 19,-67 0,-28 -7,-50 -19,-67 -14,-16 -32,-23 -55,-23 -23,0 -41,7 -53,24 -13,16 -21,38 -21,66l0 0 0 0z"/>
     <path id="_5" fill="#008DD2" fill-rule="nonzero" d="M1907 134l0 22c-5,-3 -11,-6 -19,-8 -9,-3 -16,-4 -25,-4 -13,0 -25,3 -33,10 -9,7 -13,15 -13,26 0,6 1,11 3,15 2,6 7,9 12,13 5,3 9,6 14,8 4,2 10,5 17,9 8,3 13,5 17,7 5,2 9,4 15,8 6,3 10,8 14,11 3,4 5,8 8,15 2,6 3,12 3,18 0,20 -6,33 -19,44 -12,9 -28,14 -47,14 -22,0 -41,-5 -56,-14l0 -21c7,4 14,8 24,11 10,3 20,5 31,5 14,0 26,-4 35,-10 8,-6 12,-16 12,-28 0,-9 -3,-16 -9,-22 -6,-7 -16,-12 -28,-17 -2,-2 -5,-3 -11,-5 -5,-3 -10,-4 -12,-5 -2,-1 -6,-3 -10,-6 -6,-2 -9,-4 -11,-6 -3,-3 -5,-5 -8,-8 -4,-3 -6,-6 -7,-9 -3,-3 -4,-7 -5,-12 -1,-4 -2,-8 -2,-13 0,-18 7,-32 19,-42 14,-10 29,-15 47,-15 18,0 33,3 44,9l0 0 0 0z"/>
    </g>
   </g>
  </g>
 </g>
</svg>
