<?xml version="1.0" encoding="UTF-8"?>
<!DOCTYPE svg PUBLIC "-//W3C//DTD SVG 1.1//EN" "http://www.w3.org/Graphics/SVG/1.1/DTD/svg11.dtd">
<!-- Creator: CorelDRAW X8 -->
<svg xmlns="http://www.w3.org/2000/svg" xml:space="preserve" width="1920px" height="837px" version="1.1" shape-rendering="geometricPrecision" text-rendering="geometricPrecision" image-rendering="optimizeQuality" fill-rule="evenodd" clip-rule="evenodd"
viewBox="0 0 1920 838"
 xmlns:xlink="http://www.w3.org/1999/xlink">
 <g id="Capa_x0020_1">
  <metadata id="CorelCorpID_0Corel-Layer"/>
  <g id="_2602289837696">
   <g id="_2602356714720">
    <g id="_2601969130624">
     <path fill="#A2D9F7" fill-rule="nonzero" d="M0 832l0 -515 261 0c73,0 125,15 154,47 28,29 44,82 44,158l0 104c0,76 -16,130 -44,159 -29,32 -81,47 -154,47l-261 0 0 0 0 0zm138 -116l102 0c32,0 53,-4 63,-16 10,-12 15,-39 15,-83l0 -84c0,-44 -5,-72 -15,-84 -10,-12 -31,-18 -63,-18l-102 0 0 285 0 0zm409 116l0 -515 386 0 0 114 -249 0 0 90 242 0 0 99 -242 0 0 96 255 0 0 116 -392 0 0 0z"/>
     <path fill="#008DD2" fill-rule="nonzero" d="M1460 660c0,-61 18,-104 44,-130 29,-31 80,-47 152,-47l68 0c73,0 124,16 153,47 25,26 43,69 43,130 0,62 -18,104 -43,131 -29,32 -80,47 -153,47l-68 0c-72,0 -123,-15 -152,-47 -26,-27 -44,-69 -44,-131zm218 -56c-32,0 -53,6 -63,17 -6,7 -12,20 -12,39 0,20 6,33 12,40 10,12 31,16 63,16l25 0c32,0 52,-4 62,-16 6,-7 12,-20 12,-40 0,-19 -6,-32 -12,-39 -10,-11 -30,-17 -62,-17l-25 0z"/>
     <polygon fill="#008DD2" fill-rule="nonzero" points="1134,832 1134,431 1001,431 1001,317 1405,317 1405,431 1273,431 1273,832 "/>
     <polygon fill="#008DD2" fill-rule="nonzero" points="1621,431 1489,431 1489,317 1892,317 1892,431 1761,431 "/>
     <polygon fill="#51B8E9" fill-rule="nonzero" points="1621,273 1489,273 1489,158 1892,158 1892,273 1761,273 "/>
     <polygon fill="#A2D9F7" fill-rule="nonzero" points="1621,114 1489,114 1489,0 1892,0 1892,114 1761,114 "/>
    </g>
   </g>
  </g>
 </g>
</svg>
