<?xml version="1.0" encoding="UTF-8"?>
<!DOCTYPE svg PUBLIC "-//W3C//DTD SVG 1.1//EN" "http://www.w3.org/Graphics/SVG/1.1/DTD/svg11.dtd">
<!-- Creator: CorelDRAW X8 -->
<svg xmlns="http://www.w3.org/2000/svg" xml:space="preserve" width="1533px" height="1920px" version="1.1" shape-rendering="geometricPrecision" text-rendering="geometricPrecision" image-rendering="optimizeQuality" fill-rule="evenodd" clip-rule="evenodd"
viewBox="0 0 1390 1741"
 xmlns:xlink="http://www.w3.org/1999/xlink">
 <g id="Capa_x0020_1">
  <metadata id="CorelCorpID_0Corel-Layer"/>
  <g id="_2602289826656">
   <g id="_2602356651264">
    <g id="_2602289832544">
     <g id="_2521284609952">
      <path fill="#2466A0" d="M609 601c-171,19 -356,-161 -340,-334 6,-37 57,-124 88,-124 -43,34 -39,110 -13,165 55,124 166,210 308,259l-43 34 0 0z"/>
      <path fill="#265C8E" d="M677 609c-64,9 -190,-20 -247,-55 37,-14 69,-30 88,-51 42,25 85,47 134,64l25 42 0 0 0 0 0 0z"/>
      <path fill="#2775B3" d="M701 605c-12,-49 -30,-185 -51,-232 -32,-75 -73,-143 -118,-185 -73,-72 -153,-68 -194,-39 -22,16 -63,81 -67,110 -2,4 -2,6 -2,10 61,-86 155,-49 208,-6 45,35 79,92 112,155 24,45 53,149 75,195l37 -8 0 0 0 0 0 0z"/>
      <path fill="#4C99D3" d="M607 285c-24,-38 -49,-71 -75,-97 -73,-72 -153,-68 -194,-39 -22,16 -63,81 -67,110 -2,4 -2,6 -2,10 61,-86 155,-49 208,-6 33,26 61,65 86,108 14,-22 28,-53 44,-86l0 0 0 0 0 0 0 0z"/>
      <path fill="#68ACDE" d="M457 139c-25,-9 -49,-11 -70,-9 -10,35 -18,66 -26,88 28,0 57,8 81,22 4,-30 8,-65 15,-101l0 0 0 0z"/>
      <path fill="#4C99D3" d="M709 616c-43,-231 -269,-371 -536,-243 19,39 -8,69 31,98 165,-92 322,-82 469,136l36 9 0 0 0 0z"/>
      <path fill="#68ACDE" d="M349 324c-27,2 -56,8 -86,14l18 96c33,-10 63,-16 96,-16 -8,-31 -16,-61 -28,-94l0 0 0 0 0 0 0 0z"/>
      <path fill="#2E7FC1" d="M709 616c-16,-78 -51,-147 -104,-198 -16,14 -34,34 -55,55 41,30 82,73 123,134l12 25 24 -16 0 0 0 0z"/>
      <path fill="#2466A0" d="M671 546c-47,-177 93,-391 264,-393 37,-2 129,45 137,73 -45,-38 -114,-26 -165,8 -110,74 -188,223 -208,379l-28 -67 0 0 0 0z"/>
      <path fill="#265C8E" d="M671 607c-17,-63 -11,-189 14,-252 20,36 41,69 63,85 -24,51 -41,116 -47,167l-30 0 0 0 0 0z"/>
      <path fill="#2775B3" d="M715 618c114,-15 269,-49 369,-190 61,-82 47,-145 -24,-220 -21,-18 -88,-53 -118,-55 -2,0 -7,-2 -9,0 92,53 106,145 72,204 -70,136 -214,169 -308,236l18 25 0 0 0 0z"/>
      <path fill="#2466A0" d="M866 167c23,-8 45,-12 69,-14 37,-2 129,45 137,73 -45,-38 -114,-26 -165,8 -8,6 -18,13 -29,19l-12 -86 0 0 0 0 0 0z"/>
      <path fill="#4596D1" d="M1060 461c8,-11 16,-21 24,-33 61,-82 47,-145 -24,-220 -21,-18 -88,-53 -118,-55 -2,0 -7,-2 -9,0 92,53 106,145 72,204 -10,24 -27,45 -43,63 31,16 63,30 98,41l0 0 0 0z"/>
      <path fill="#2466A0" d="M984 204c-26,4 -55,14 -77,30 -2,2 -6,2 -8,6l-17 -57c0,0 41,7 102,21l0 0 0 0z"/>
      <path fill="#68ACDE" d="M1123 338c2,-34 -12,-69 -41,-106 -32,-10 -61,-18 -87,-26 24,34 30,73 26,108 35,10 69,18 102,24l0 0 0 0 0 0z"/>
      <path fill="#4C99D3" d="M787 510c10,-15 18,-35 22,-51 10,-35 23,-80 23,-110 0,-64 -27,-113 -47,-170 -25,-61 -51,-118 -68,-179 -36,26 -57,102 -85,122 47,123 114,137 136,261 6,27 6,63 -12,116l31 11 0 0 0 0z"/>
      <path fill="#68ACDE" d="M781 173c-11,-28 -23,-57 -33,-85 -27,44 -49,106 -57,132 -2,2 -2,4 -2,4 10,16 22,29 32,45l60 -96 0 0z"/>
      <path fill="#3C8BCA" d="M691 613c116,-75 145,-193 141,-277 0,-16 -5,-32 -9,-45 -8,31 -30,64 -55,86 9,47 2,88 -12,122 -18,51 -51,88 -65,114l0 0 0 0 0 0 0 0z"/>
      <polygon fill="#B49AC9" points="695,530 1382,671 1370,1577 695,1741 "/>
      <polygon fill="#8560A5" points="695,530 8,654 20,1575 695,1741 "/>
      <polygon fill="#653F7E" points="695,530 1382,671 1380,842 695,754 "/>
      <polygon fill="#653F7E" points="695,530 8,654 10,827 695,754 "/>
      <polygon fill="#A07FB8" points="695,528 1390,671 1386,830 695,734 "/>
      <polygon fill="#734F98" points="695,528 0,654 4,819 695,734 "/>
      <path fill="#BCA7D1" d="M689 530l2 204 4 0 4 0 0 -204 -4 0 -6 0 0 0 0 0zm2 224l4 987 2 -987 -2 0 -4 0z"/>
      <polygon fill="#2E7FC1" fill-rule="nonzero" points="375,591 261,609 259,1635 373,1663 "/>
      <polygon fill="#2E7FC1" fill-rule="nonzero" points="1009,593 1123,616 1123,1637 1009,1665 "/>
     </g>
    </g>
   </g>
  </g>
 </g>
</svg>
