<?xml version="1.0" encoding="UTF-8"?>
<!DOCTYPE svg PUBLIC "-//W3C//DTD SVG 1.1//EN" "http://www.w3.org/Graphics/SVG/1.1/DTD/svg11.dtd">
<!-- Creator: CorelDRAW X8 -->
<svg xmlns="http://www.w3.org/2000/svg" xml:space="preserve" width="1920px" height="1705px" version="1.1" shape-rendering="geometricPrecision" text-rendering="geometricPrecision" image-rendering="optimizeQuality" fill-rule="evenodd" clip-rule="evenodd"
viewBox="0 0 1920 1705"
 xmlns:xlink="http://www.w3.org/1999/xlink">
 <g id="Capa_x0020_1">
  <metadata id="CorelCorpID_0Corel-Layer"/>
  <g id="_2602289825312">
   <g id="_2602351942208">
    <g id="_2602293828864">
     <g id="_2521273965056">
      <path fill="#DC951D" d="M1298 317c-39,-20 -206,-111 -162,-188 24,-43 75,-84 106,-79 -69,85 20,189 119,278l-63 -11 0 0z"/>
      <path fill="#F3C219" d="M1408 332c-7,-174 -47,-244 -108,-287 -17,-12 -34,-18 -59,-6 -24,10 -51,27 -74,48 -11,12 -22,26 -31,42 39,-50 104,-36 148,23 34,44 86,113 77,176l47 4 0 0 0 0z"/>
      <path fill="#F6D30E" d="M1289 39c-14,-8 -27,-10 -48,0 -24,10 -51,27 -74,48 -11,12 -22,26 -31,42 14,-19 31,-29 51,-31 37,-28 77,-55 102,-59l0 0 0 0 0 0z"/>
      <path fill="#DD9C1B" d="M1411 346c15,-6 116,-41 173,-83 63,-46 81,-80 66,-111 -21,-45 -77,-90 -112,-83 31,38 58,59 35,103 -28,52 -82,103 -188,155l26 19 0 0 0 0 0 0z"/>
      <path fill="#E6B30C" d="M1359 333c-7,-64 59,-237 126,-282 40,-27 88,8 119,36 12,11 31,41 41,55 -47,-58 -99,-50 -165,40 -27,39 -72,105 -97,170l-24 -19z"/>
      <path fill="#F4D300" d="M1508 42c17,-3 35,3 52,12 7,14 17,30 29,45 2,2 4,5 7,8 -14,-5 -31,-2 -48,7l-40 -72 0 0 0 0 0 0z"/>
      <path fill="#DC951D" d="M1454 340c41,9 213,47 230,-29 1,-6 4,-12 4,-20 0,-8 -3,-16 -4,-25 -5,-29 -19,-58 -38,-68 21,109 -107,122 -246,113l54 29 0 0 0 0z"/>
      <path fill="#F4C836" d="M1364 333c19,-42 170,-175 227,-181 22,-3 38,2 53,24 14,20 29,45 36,71 4,13 8,30 8,44 -11,-67 -49,-71 -134,-28 -35,18 -100,39 -140,74l-50 -4 0 0z"/>
      <path fill="#F8D85B" d="M1583 153c3,-1 5,-1 8,-1 6,0 12,0 18,0 12,19 24,55 32,83 -14,-2 -32,4 -56,13 -1,-35 -5,-74 -2,-95l0 0z"/>
      <path fill="#DD9C1B" d="M1364 333c13,-28 83,-95 145,-140 -8,22 -31,73 -60,119 -13,7 -24,16 -35,25l-50 -4 0 0 0 0z"/>
      <path fill="#DD9C1B" d="M1300 364c-30,4 -163,-2 -212,-41 -5,-5 -10,-10 -13,-15 -6,-9 -10,-19 -9,-27 6,-48 38,-104 70,-116 -16,48 -23,64 9,96 14,16 52,35 81,46 36,13 57,26 106,30l-32 27 0 0 0 0 0 0z"/>
      <path fill="#E6B30C" d="M1375 325c-9,-36 -56,-104 -107,-151 -44,-39 -92,-63 -123,-33 -23,21 -49,53 -64,89 -6,15 -11,30 -15,47 30,-101 118,-83 262,66l47 -18 0 0z"/>
      <path fill="#EEC800" d="M1221 140c-14,-9 -28,-12 -42,-12l-65 89c16,-5 35,-4 57,4 1,-6 2,-12 6,-18 16,-27 30,-49 44,-63l0 0 0 0 0 0z"/>
      <path fill="#DD9C1B" d="M1355 328c-7,-13 -69,-126 -85,-193 -20,-73 5,-101 30,-116 38,-20 100,-26 120,0 -56,-8 -63,-4 -71,44 -6,55 36,197 51,271l-45 -6 0 0 0 0z"/>
      <path fill="#F5C917" d="M1406 336c0,-19 14,-43 24,-73 22,-70 48,-162 32,-214 -14,-45 -63,-50 -98,-49 -15,1 -42,10 -56,16 62,-13 79,18 77,126 0,46 -6,123 -4,192l25 2 0 0 0 0z"/>
      <path fill="#F8D85B" d="M1447 25c-20,-22 -56,-26 -83,-25 -15,1 -42,10 -56,16 22,-5 37,-5 49,1 32,-2 66,-5 85,5 2,0 4,2 5,3l0 0 0 0 0 0z"/>
      <path fill="#F4BA12" d="M1406 336c0,-19 14,-43 24,-73 19,-60 40,-134 37,-189 -16,-16 -50,-25 -88,-16 5,21 8,48 6,84 0,46 -6,123 -4,192l25 2 0 0 0 0 0 0z"/>
      <path fill="#F4AA0E" d="M1406 336c0,-19 14,-43 24,-73 15,-46 31,-102 35,-150 0,0 0,-1 0,-3 -4,-20 -42,-36 -82,-29 2,17 2,37 2,61 0,46 -6,123 -4,192l25 2 0 0z"/>
      <path fill="#F8D85B" d="M1250 158c-12,-9 -21,-16 -32,-21 -19,25 -41,59 -54,82 15,5 30,13 45,23 11,-21 29,-55 41,-84l0 0 0 0z"/>
      <polygon fill="#3670A3" points="1360,470 1900,552 1853,1541 1361,1662 "/>
      <polygon fill="#315D8A" points="1360,470 846,546 887,1539 1361,1662 "/>
      <polygon fill="#30405F" points="1360,470 1900,552 1898,580 1360,532 "/>
      <polygon fill="#30405F" points="1360,470 846,546 848,582 1360,532 "/>
      <polygon fill="#4E7BAB" points="1359,307 1920,393 1910,568 1360,520 1359,520 "/>
      <polygon fill="#31547D" points="1359,307 827,400 832,573 840,573 1359,520 "/>
      <polygon fill="#DBAE15" points="1122,348 1012,368 1042,1579 1153,1610 "/>
      <polygon fill="#F5C917" points="1622,346 1731,363 1700,1579 1593,1607 "/>
      <path fill="#819BC1" d="M1352 308l3 213 5 -1 4 0 0 -213 -5 0 -7 1 0 0zm3 225l6 790 0 -791 -1 0 -5 1 0 0z"/>
      <path fill="#2466A0" d="M472 827c-134,14 -276,-126 -264,-259 4,-28 45,-95 68,-97 -34,29 -30,85 -11,129 44,97 128,162 240,198l-33 29 0 0 0 0z"/>
      <path fill="#265C8E" d="M521 834c-47,5 -146,-17 -189,-44 29,-12 53,-24 68,-40 32,20 66,36 105,48l16 36 0 0 0 0z"/>
      <path fill="#2775B3" d="M541 829c-10,-38 -22,-143 -38,-178 -26,-60 -57,-111 -91,-144 -59,-54 -119,-53 -151,-29 -17,12 -48,62 -51,84 -2,2 -2,5 -2,8 47,-65 119,-38 160,-4 34,26 62,69 86,117 19,36 42,117 59,152l28 -6 0 0 0 0z"/>
      <path fill="#4C99D3" d="M469 582c-19,-30 -38,-55 -57,-75 -59,-54 -119,-53 -151,-29 -17,12 -48,62 -51,84 -2,2 -2,5 -2,8 47,-65 119,-38 160,-4 25,19 48,49 67,83 11,-18 21,-41 34,-67l0 0 0 0 0 0z"/>
      <path fill="#68ACDE" d="M351 469c-18,-6 -36,-8 -52,-6 -8,26 -15,50 -20,67 22,0 42,7 62,18 3,-24 8,-49 10,-79l0 0 0 0 0 0z"/>
      <path fill="#4C99D3" d="M547 838c-33,-179 -206,-288 -413,-187 13,28 -7,53 22,74 128,-69 250,-63 364,106l27 7 0 0 0 0z"/>
      <path fill="#68ACDE" d="M270 613c-22,1 -44,5 -66,11l14 74c24,-9 48,-13 72,-15 -5,-22 -12,-46 -20,-70l0 0 0 0 0 0 0 0z"/>
      <path fill="#2E7FC1" d="M547 838c-12,-61 -39,-115 -80,-153 -12,12 -27,25 -43,41 33,24 65,59 96,105l9 20 18 -13 0 0z"/>
      <path fill="#2466A0" d="M517 785c-36,-138 74,-303 205,-306 28,0 99,35 105,59 -34,-31 -88,-22 -125,5 -86,57 -146,172 -161,292l-24 -50 0 0 0 0z"/>
      <path fill="#265C8E" d="M517 832c-12,-49 -6,-149 12,-197 15,29 30,54 48,66 -18,40 -30,91 -35,131l-25 0 0 0 0 0 0 0z"/>
      <path fill="#2775B3" d="M551 839c89,-11 207,-37 287,-147 47,-62 36,-112 -20,-170 -14,-14 -67,-41 -91,-43 -2,0 -5,0 -6,0 71,42 82,111 55,159 -54,105 -166,130 -238,182l13 19 0 0 0 0z"/>
      <path fill="#2466A0" d="M668 490c17,-6 35,-9 54,-11 28,0 99,35 105,59 -34,-31 -88,-22 -125,5 -9,5 -16,9 -23,15l-11 -68z"/>
      <path fill="#4596D1" d="M818 717c8,-8 14,-16 20,-25 47,-62 36,-112 -20,-170 -14,-14 -67,-41 -91,-43 -2,0 -5,0 -6,0 71,42 82,111 55,159 -8,19 -20,35 -33,48 24,13 49,23 75,31l0 0 0 0z"/>
      <path fill="#2466A0" d="M759 520c-20,2 -41,11 -57,23 -4,1 -6,3 -8,3l-12 -41c0,0 31,3 77,15l0 0 0 0z"/>
      <path fill="#68ACDE" d="M867 624c2,-28 -9,-54 -31,-82 -25,-8 -48,-15 -67,-20 18,26 23,56 19,81 27,9 54,16 79,21l0 0 0 0z"/>
      <path fill="#4C99D3" d="M608 754c8,-9 14,-25 18,-39 7,-24 16,-59 16,-83 0,-50 -20,-86 -37,-131 -18,-48 -38,-93 -52,-139 -28,21 -42,80 -66,95 38,93 90,104 107,201 4,19 5,49 -10,89l24 7 0 0 0 0z"/>
      <path fill="#68ACDE" d="M603 495c-9,-22 -17,-42 -26,-64 -18,34 -36,81 -44,101 -1,1 -1,2 -1,2 9,14 18,24 27,36l44 -75 0 0 0 0z"/>
      <path fill="#3C8BCA" d="M533 835c91,-58 112,-149 109,-214 0,-12 -3,-25 -6,-35 -6,26 -24,49 -43,67 7,36 1,67 -9,94 -15,39 -40,68 -51,88l0 0 0 0z"/>
      <polygon fill="#B49AC9" points="537,772 1066,880 1058,1580 537,1705 "/>
      <polygon fill="#8560A5" points="537,772 8,868 15,1578 537,1705 "/>
      <polygon fill="#653F7E" points="537,772 1066,880 1065,1011 537,944 "/>
      <polygon fill="#653F7E" points="537,772 8,868 8,1002 537,944 "/>
      <polygon fill="#A07FB8" points="537,770 1072,880 1070,1002 537,929 "/>
      <polygon fill="#734F98" points="537,770 0,868 3,996 537,929 "/>
      <path fill="#BCA7D1" d="M532 772l1 157 4 0 2 0 2 -157 -4 -1 -5 1 0 0 0 0 0 0zm1 173l4 760 1 -760 -1 -1 -4 1z"/>
      <polygon fill="#2E7FC1" fill-rule="nonzero" points="290,819 201,832 200,1624 287,1646 "/>
      <polygon fill="#2E7FC1" fill-rule="nonzero" points="779,820 867,838 867,1626 779,1647 "/>
     </g>
    </g>
   </g>
  </g>
 </g>
</svg>
