<?xml version="1.0" encoding="UTF-8"?>
<!DOCTYPE svg PUBLIC "-//W3C//DTD SVG 1.1//EN" "http://www.w3.org/Graphics/SVG/1.1/DTD/svg11.dtd">
<!-- Creator: CorelDRAW X8 -->
<svg xmlns="http://www.w3.org/2000/svg" xml:space="preserve" width="1920px" height="1698px" version="1.1" shape-rendering="geometricPrecision" text-rendering="geometricPrecision" image-rendering="optimizeQuality" fill-rule="evenodd" clip-rule="evenodd"
viewBox="0 0 1920 1698"
 xmlns:xlink="http://www.w3.org/1999/xlink">
 <g id="Capa_x0020_1">
  <metadata id="CorelCorpID_0Corel-Layer"/>
  <g id="_2602363869168">
   <g id="_2602350025632">
    <g id="_2521273950048">
     <path fill="#E03138" fill-rule="nonzero" d="M1004 374c-37,-115 -143,-231 -224,-250 -33,-6 -65,-6 -89,15 -11,11 -27,27 -30,47 128,-41 276,88 315,198 8,0 28,7 28,-10l0 0 0 0z"/>
     <path fill="#E55057" fill-rule="nonzero" d="M940 251c-48,-65 -109,-116 -160,-127 -3,-1 -6,-1 -10,-1 -20,16 -34,37 -31,58 58,8 116,42 161,87 16,-3 28,-9 40,-17l0 0 0 0z"/>
     <path fill="#EB748D" d="M830 145c-7,-3 -14,-7 -21,-10 -23,8 -33,29 -38,52 8,3 16,7 24,10 1,-3 3,-7 4,-10 8,-14 19,-28 31,-42l0 0z"/>
     <path fill="#C62727" fill-rule="nonzero" d="M920 397c-137,-4 -235,-61 -273,-127 -21,-39 -8,-89 51,-136 -29,33 -8,85 13,113 56,75 189,131 283,137 -18,4 -56,11 -74,13l0 0 0 0 0 0z"/>
     <path fill="#BF2728" fill-rule="nonzero" d="M679 310c-13,-12 -24,-26 -32,-40 -21,-39 -8,-89 51,-136 -29,33 -8,85 13,113 0,1 1,1 2,1 -12,24 -23,45 -34,62l0 0 0 0z"/>
     <path fill="#E95056" d="M996 393c40,-11 80,-30 117,-52 74,-47 131,-114 133,-165 1,-32 -4,-60 -35,-82 -14,-11 -38,-27 -61,-29 60,53 19,138 -38,200 -37,39 -87,89 -132,103 1,7 -3,25 16,25l0 0z"/>
     <path fill="#EC646D" fill-rule="nonzero" d="M1057 372c19,-10 37,-20 56,-31 39,-25 74,-56 97,-87 -8,-16 -29,-32 -55,-47 -11,20 -27,41 -43,58 -23,24 -50,51 -77,73 6,15 14,26 22,34l0 0 0 0z"/>
     <path fill="#EB748D" d="M1134 326c16,-10 29,-22 43,-34 -15,-12 -33,-29 -50,-44 -5,5 -11,12 -15,17 -5,5 -9,10 -15,15 9,17 24,34 37,46l0 0 0 0 0 0z"/>
     <path fill="#C02A2A" fill-rule="nonzero" d="M951 375c-9,-47 -7,-114 4,-168 9,-40 22,-74 35,-95 16,-25 38,-46 62,-59 41,-21 102,-9 166,46 -45,-27 -98,-7 -126,13 -75,52 -112,179 -100,268 -4,9 -34,12 -41,-5l0 0z"/>
     <path fill="#C62727" fill-rule="nonzero" d="M1012 83c12,-13 26,-22 40,-30 41,-21 102,-9 166,46 -45,-27 -98,-7 -126,13 -1,1 -2,1 -2,1 -29,-10 -55,-19 -78,-30l0 0 0 0 0 0z"/>
     <path fill="#BF2728" fill-rule="nonzero" d="M1041 58c4,-1 8,-4 11,-5 10,-6 22,-9 35,-10 30,15 51,31 67,44 -10,2 -21,4 -30,9 -24,-15 -52,-26 -83,-38l0 0 0 0z"/>
     <path fill="#D3272A" fill-rule="nonzero" d="M972 374c0,-36 32,-73 68,-91 32,-18 66,-25 97,-21 64,10 119,42 165,98l-66 47c0,0 -59,-82 -131,-90 -16,-1 -32,0 -45,4 -52,15 -63,58 -63,58l-25 -5 0 0 0 0z"/>
     <path fill="#DD3137" fill-rule="nonzero" d="M1075 267c21,-6 42,-7 62,-5 47,8 90,27 128,59 -17,14 -44,31 -72,41 -24,-21 -55,-41 -88,-45 -10,-1 -20,-1 -28,0 -8,-14 -10,-31 -2,-50l0 0 0 0z"/>
     <path fill="#E85259" fill-rule="nonzero" d="M1189 276c17,7 36,16 51,28 -18,12 -45,32 -64,44 -10,-8 -22,-14 -33,-20 9,-14 26,-32 46,-52l0 0 0 0 0 0z"/>
     <path fill="#C02A2A" fill-rule="nonzero" d="M829 14l74 -14c-23,131 -40,221 72,388l-44 -12c-56,-52 -88,-118 -107,-187 -16,-60 -12,-121 5,-175l0 0 0 0 0 0z"/>
     <path fill="#CA2627" fill-rule="nonzero" d="M829 14l74 -14c-15,80 -26,145 -7,221 -14,11 -32,24 -48,33 -9,-22 -17,-43 -24,-65 -16,-60 -12,-121 5,-175l0 0 0 0 0 0z"/>
     <path fill="#D3272A" fill-rule="nonzero" d="M893 58c-6,40 -9,77 -5,117 -18,7 -42,14 -61,20l-3 -6c-10,-39 -13,-78 -7,-116l76 -15 0 0z"/>
     <path fill="#DD464B" fill-rule="nonzero" d="M888 90c0,13 -1,25 -1,38 -16,6 -45,17 -69,24 -3,-16 -4,-31 -3,-45l73 -17z"/>
     <polygon fill="#47B8BA" points="967,426 1367,498 1333,1559 967,1646 "/>
     <path fill="#59BCBF" d="M967 426l26 5 367 306 -2 47 -391 -327 0 -31 0 0zm149 27l73 13 175 147 -1 46 -247 -206 0 0zm240 414l-2 48 -387 -324 0 -48 389 324 0 0zm-4 132l-2 47 -383 -321 0 -48 385 322 0 0zm-5 129l-1 46 -379 -315 0 -48 380 317 0 0zm-4 131l-1 47 -375 -313 0 -49 376 315 0 0zm-5 131l-1 46 -370 -309 0 -48 371 311 0 0zm-4 130l-1 39 -8 1 -358 -299 0 -48 367 307 0 0zm-133 70l-234 -195 0 -49 279 233 -45 11 0 0 0 0zm-125 30l-109 -91 0 -48 154 128 -45 11 0 0 0 0z"/>
     <polygon fill="#329899" points="967,426 587,487 614,1560 967,1646 "/>
     <path fill="#22A0A3" d="M967 426l-27 4 -347 290 1 47 373 -312 0 -29 0 0 0 0zm-147 23l-70 12 -160 133 1 48 229 -193 0 0zm-223 402l1 48 369 -310 0 -48 -370 310 0 0zm3 133l1 46 366 -307 0 -48 -367 309 0 0zm2 130l2 47 363 -304 0 -48 -365 305 0 0 0 0zm4 132l2 46 359 -300 0 -49 -361 303 0 0 0 0zm4 130l1 47 356 -298 0 -48 -357 299zm3 131l1 47 353 -295 0 -48 -354 296 0 0zm120 82l234 -197 0 -47 -279 233 45 11 0 0 0 0zm124 30l110 -91 0 -49 -155 129 45 11z"/>
     <polygon fill="#319A96" points="967,426 1367,498 1367,538 967,479 "/>
     <polygon fill="#2A7773" points="967,426 587,487 589,527 967,479 "/>
     <polygon fill="#5ABDB3" points="967,370 1376,444 1375,531 967,469 "/>
     <polygon fill="#398C83" points="967,370 573,434 578,521 582,521 967,469 "/>
     <path fill="#86CBC9" d="M962 371l2 98 3 0 4 0 1 -98 -5 -1 -5 1 0 0zm2 109l1 1166 2 0 3 -1167 -3 0 -3 1z"/>
     <polygon fill="#B5283A" points="710,411 770,402 799,1605 740,1592 "/>
     <polygon fill="#BB273C" points="770,402 772,495 713,503 710,412 "/>
     <polygon fill="#E73A5C" points="1225,416 1167,405 1138,1605 1195,1592 "/>
     <polygon fill="#E94D6C" points="1167,405 1165,498 1222,507 1225,416 "/>
     <path fill="#DC951D" d="M1448 677c-29,-16 -156,-85 -122,-144 19,-32 57,-63 81,-59 -53,65 14,143 90,212l-49 -9 0 0z"/>
     <path fill="#F3C219" d="M1532 688c-4,-133 -35,-185 -81,-218 -14,-9 -26,-13 -44,-5 -20,8 -40,20 -56,37 -10,9 -18,19 -25,31 29,-38 78,-27 113,17 25,36 64,86 58,136l35 2 0 0z"/>
     <path fill="#F6D30E" d="M1442 465c-11,-5 -21,-7 -35,0 -20,8 -40,20 -56,37 -10,9 -18,19 -25,31 11,-15 24,-21 39,-23 27,-21 58,-41 77,-45l0 0 0 0 0 0z"/>
     <path fill="#DD9C1B" d="M1534 698c12,-4 88,-32 131,-64 48,-33 62,-58 51,-83 -16,-34 -58,-68 -85,-62 23,28 44,44 26,77 -21,39 -61,78 -142,119l19 13 0 0 0 0z"/>
     <path fill="#E6B30C" d="M1495 689c-6,-48 45,-180 95,-214 31,-20 68,6 91,26 9,9 24,32 31,43 -36,-44 -75,-39 -124,30 -22,30 -56,80 -75,129l-18 -14 0 0 0 0z"/>
     <path fill="#F4D300" d="M1608 469c13,-3 28,1 40,8 4,11 12,23 21,34 2,2 3,4 5,6 -11,-3 -23,-1 -35,6l-31 -54 0 0z"/>
     <path fill="#DC951D" d="M1567 694c31,7 162,35 174,-23 1,-4 2,-9 2,-14 0,-6 -1,-12 -2,-19 -4,-23 -14,-44 -28,-52 15,83 -81,92 -187,84l41 24 0 0z"/>
     <path fill="#F4C836" d="M1499 688c14,-31 129,-132 172,-137 16,-2 28,2 39,19 11,14 23,33 28,53 3,11 5,23 5,34 -7,-52 -36,-55 -101,-22 -26,14 -75,31 -105,56l-38 -3 0 0 0 0z"/>
     <path fill="#F8D85B" d="M1664 553c3,0 5,-2 7,-2 4,-1 10,-1 14,0 9,15 19,42 24,63 -12,-1 -24,3 -43,10 -1,-26 -3,-55 -2,-71l0 0 0 0z"/>
     <path fill="#DD9C1B" d="M1499 688c9,-21 63,-72 110,-106 -6,18 -24,56 -45,91 -10,5 -20,12 -27,18l-38 -3 0 0 0 0z"/>
     <path fill="#DD9C1B" d="M1451 711c-23,3 -125,-1 -161,-31 -4,-2 -8,-6 -11,-10 -4,-7 -7,-15 -6,-21 5,-36 29,-79 53,-87 -12,36 -17,48 7,72 10,12 40,27 62,35 26,10 42,19 80,22l-24 20 0 0 0 0z"/>
     <path fill="#E6B30C" d="M1507 682c-8,-27 -43,-79 -81,-114 -33,-31 -70,-48 -93,-26 -18,16 -36,41 -49,68 -5,12 -8,24 -10,36 23,-76 89,-63 198,50l35 -14 0 0z"/>
     <path fill="#EEC800" d="M1391 542c-12,-6 -22,-9 -32,-9l-49 68c12,-4 26,-3 43,3 1,-4 1,-10 4,-13 12,-21 22,-38 34,-49l0 0 0 0 0 0z"/>
     <path fill="#DD9C1B" d="M1493 686c-6,-11 -53,-96 -66,-147 -15,-56 4,-77 24,-88 28,-15 75,-21 91,-1 -43,-5 -48,-3 -54,34 -5,41 27,150 39,206l-34 -4 0 0z"/>
     <path fill="#F5C917" d="M1532 690c0,-13 9,-32 17,-56 16,-52 36,-121 24,-161 -10,-34 -49,-37 -74,-36 -11,0 -32,8 -43,11 47,-11 60,13 59,96 0,35 -4,92 -4,146l21 0 0 0 0 0z"/>
     <path fill="#F8D85B" d="M1562 455c-16,-18 -42,-19 -63,-18 -11,0 -32,8 -43,11 17,-3 28,-3 38,1 23,-2 50,-4 65,4 1,0 2,2 3,2l0 0 0 0z"/>
     <path fill="#F4BA12" d="M1532 690c0,-13 9,-32 17,-56 15,-43 30,-101 27,-141 -11,-13 -37,-20 -65,-13 4,15 5,36 4,64 0,35 -4,92 -4,146l21 0z"/>
     <path fill="#F4AA0E" d="M1532 690c0,-13 9,-32 17,-56 11,-33 23,-76 27,-112 0,-1 0,-1 -1,-2 -3,-16 -31,-27 -62,-22 2,12 2,27 2,46 0,35 -4,92 -4,146l21 0z"/>
     <path fill="#F8D85B" d="M1411 556c-8,-7 -15,-11 -24,-16 -13,19 -30,46 -40,62 11,4 23,9 35,17 9,-15 21,-41 29,-63l0 0 0 0 0 0z"/>
     <polygon fill="#3670A3" points="1495,791 1905,854 1870,1605 1497,1696 "/>
     <polygon fill="#315D8A" points="1495,791 1106,851 1137,1604 1497,1696 "/>
     <polygon fill="#30405F" points="1495,791 1905,854 1903,876 1495,839 "/>
     <polygon fill="#30405F" points="1495,791 1106,851 1108,877 1495,839 "/>
     <polygon fill="#4E7BAB" points="1495,669 1920,734 1913,867 1496,830 1495,830 "/>
     <polygon fill="#31547D" points="1495,669 1092,739 1096,871 1102,871 1495,830 "/>
     <polygon fill="#DBAE15" points="1314,700 1233,714 1255,1632 1338,1655 "/>
     <polygon fill="#F5C917" points="1695,698 1777,711 1753,1633 1673,1653 "/>
     <path fill="#819BC1" d="M1489 670l2 161 4 -1 3 0 0 -161 -3 0 -6 1 0 0zm4 170l4 599 0 -600 -2 0 -2 1z"/>
     <path fill="#2466A0" d="M357 1032c-101,11 -208,-95 -199,-195 2,-22 34,-73 51,-74 -25,22 -22,65 -8,98 32,72 97,123 181,150l-25 21 0 0 0 0z"/>
     <path fill="#265C8E" d="M396 1038c-36,3 -112,-13 -144,-33 21,-9 40,-18 52,-30 24,15 49,27 78,36l14 27 0 0 0 0z"/>
     <path fill="#2775B3" d="M411 1036c-8,-30 -19,-110 -30,-136 -20,-46 -44,-85 -69,-109 -44,-41 -90,-40 -114,-23 -13,9 -37,47 -39,64 -1,2 -1,3 -1,6 36,-50 90,-29 122,-3 25,20 46,53 64,89 15,28 31,88 45,115l22 -3 0 0 0 0z"/>
     <path fill="#4C99D3" d="M355 847c-14,-23 -28,-41 -43,-56 -44,-41 -90,-40 -114,-23 -13,9 -37,47 -39,64 -1,2 -1,3 -1,6 36,-50 90,-29 122,-3 18,15 35,37 49,62 9,-12 17,-30 26,-50l0 0 0 0 0 0z"/>
     <path fill="#68ACDE" d="M267 763c-15,-6 -28,-8 -40,-6 -7,19 -12,38 -16,50 16,0 33,6 48,14 2,-18 5,-37 8,-58l0 0 0 0z"/>
     <path fill="#4C99D3" d="M415 1041c-25,-134 -157,-218 -314,-142 10,21 -5,41 18,56 96,-51 189,-47 275,81l21 5z"/>
     <path fill="#68ACDE" d="M205 871c-17,1 -34,4 -50,8l10 57c18,-8 37,-11 55,-12 -4,-16 -9,-35 -15,-53l0 0 0 0 0 0z"/>
     <path fill="#2E7FC1" d="M415 1041c-9,-46 -31,-87 -61,-116 -9,8 -20,19 -33,32 25,18 49,44 73,79l7 14 14 -9 0 0 0 0z"/>
     <path fill="#2466A0" d="M392 1001c-28,-105 56,-229 155,-232 22,0 75,27 79,44 -24,-22 -66,-15 -95,5 -64,42 -109,130 -122,221l-17 -38z"/>
     <path fill="#265C8E" d="M392 1036c-9,-37 -6,-112 9,-148 12,21 24,40 36,50 -13,30 -23,68 -26,98l-19 0 0 0z"/>
     <path fill="#2775B3" d="M418 1042c67,-8 158,-28 217,-111 35,-48 28,-85 -14,-129 -11,-11 -52,-32 -70,-33 -2,0 -4,0 -5,0 54,31 63,85 43,121 -42,79 -127,98 -181,138l10 14 0 0z"/>
     <path fill="#2466A0" d="M506 778c14,-5 27,-8 41,-9 22,0 75,27 79,44 -24,-22 -66,-15 -95,5 -6,3 -11,6 -17,12l-8 -52z"/>
     <path fill="#4596D1" d="M621 950c5,-6 9,-12 14,-19 35,-48 28,-85 -14,-129 -11,-11 -52,-32 -70,-33 -2,0 -4,0 -5,0 54,31 63,85 43,121 -7,14 -16,26 -25,37 17,9 37,17 57,23l0 0 0 0z"/>
     <path fill="#2466A0" d="M576 800c-16,2 -31,8 -45,18 -2,1 -3,1 -5,2l-9 -32c0,0 23,3 59,12l0 0 0 0 0 0z"/>
     <path fill="#68ACDE" d="M657 879c1,-22 -7,-41 -24,-62 -19,-6 -35,-11 -51,-15 15,19 19,41 16,61 20,7 40,12 59,16l0 0 0 0z"/>
     <path fill="#4C99D3" d="M461 978c6,-7 10,-18 13,-30 6,-19 13,-44 13,-63 0,-37 -16,-66 -29,-99 -13,-35 -29,-71 -39,-106 -21,17 -32,61 -49,72 26,71 67,79 80,153 3,15 4,37 -8,67l19 6 0 0z"/>
     <path fill="#68ACDE" d="M457 781c-6,-16 -12,-33 -20,-49 -13,26 -28,63 -33,77 0,1 0,2 -1,2 6,10 14,19 21,28l33 -58 0 0z"/>
     <path fill="#3C8BCA" d="M405 1039c68,-44 84,-113 82,-162 -2,-10 -3,-20 -5,-26 -5,19 -18,37 -33,50 6,27 1,51 -7,71 -11,30 -29,52 -37,67l0 0 0 0z"/>
     <polygon fill="#B49AC9" points="407,992 808,1073 801,1604 407,1698 "/>
     <polygon fill="#8560A5" points="407,992 5,1064 11,1603 407,1698 "/>
     <polygon fill="#653F7E" points="407,992 808,1073 807,1173 407,1122 "/>
     <polygon fill="#653F7E" points="407,992 5,1064 6,1165 407,1122 "/>
     <polygon fill="#A07FB8" points="407,990 813,1073 811,1166 407,1110 "/>
     <polygon fill="#734F98" points="407,990 0,1064 2,1160 407,1110 "/>
     <path fill="#BCA7D1" d="M403 992l1 119 3 -1 2 1 0 -119 -2 -1 -4 1zm2 130l2 576 1 -576 -1 0 -2 0z"/>
     <polygon fill="#2E7FC1" fill-rule="nonzero" points="219,1027 152,1036 151,1636 219,1653 "/>
     <polygon fill="#2E7FC1" fill-rule="nonzero" points="590,1028 657,1041 657,1639 590,1654 "/>
    </g>
   </g>
  </g>
 </g>
</svg>
