<?xml version="1.0" encoding="UTF-8"?>
<!DOCTYPE svg PUBLIC "-//W3C//DTD SVG 1.1//EN" "http://www.w3.org/Graphics/SVG/1.1/DTD/svg11.dtd">
<!-- Creator: CorelDRAW X8 -->
<svg xmlns="http://www.w3.org/2000/svg" xml:space="preserve" width="1920px" height="1920px" version="1.1" shape-rendering="geometricPrecision" text-rendering="geometricPrecision" image-rendering="optimizeQuality" fill-rule="evenodd" clip-rule="evenodd"
viewBox="0 0 1920 1920"
 xmlns:xlink="http://www.w3.org/1999/xlink">
 <g id="Capa_x0020_1">
  <metadata id="CorelCorpID_0Corel-Layer"/>
  <path fill="#008DD2" d="M960 0c-538,0 -960,422 -960,960 0,518 422,960 960,960 518,0 960,-442 960,-960 0,-538 -442,-960 -960,-960zm0 288c154,0 288,134 288,288 0,154 -134,288 -288,288 -154,0 -288,-134 -288,-288 0,-154 134,-288 288,-288zm0 1363c-250,0 -461,-134 -576,-307 0,-192 384,-307 576,-307 192,0 557,115 576,307 -134,173 -346,307 -576,307z"/>
 </g>
</svg>
