<?xml version="1.0" encoding="UTF-8"?>
<!DOCTYPE svg PUBLIC "-//W3C//DTD SVG 1.1//EN" "http://www.w3.org/Graphics/SVG/1.1/DTD/svg11.dtd">
<!-- Creator: CorelDRAW X8 -->
<svg xmlns="http://www.w3.org/2000/svg" xml:space="preserve" width="1920px" height="1920px" version="1.1" shape-rendering="geometricPrecision" text-rendering="geometricPrecision" image-rendering="optimizeQuality" fill-rule="evenodd" clip-rule="evenodd"
viewBox="0 0 1920 1920"
 xmlns:xlink="http://www.w3.org/1999/xlink">
 <g id="Capa_x0020_1">
  <metadata id="CorelCorpID_0Corel-Layer"/>
  <g id="_2602357245536">
   <g id="_2551969706304">
    <path fill="#008DD2" d="M1405 706l-380 0 0 190 444 0 0 -127c0,-34 -29,-63 -64,-63l0 0zm-890 0c-35,0 -64,29 -64,63l0 127 445 0 0 -190 -381 0 0 0zm0 255l0 444c0,35 29,64 64,64l317 0 0 -508 -381 0 0 0 0 0zm826 508c36,0 64,-29 64,-64l0 -444 -380 0 0 508 316 0zm-382 -828l2 0c0,0 0,0 0,0l64 0c58,0 137,0 189,0 88,0 127,-41 127,-95 0,-52 -39,-95 -127,-95 -83,0 -147,37 -190,81 -20,-13 -42,-19 -67,-19 -21,0 -43,6 -62,17 -44,-43 -108,-79 -189,-79 -88,0 -127,43 -127,95 0,54 39,95 127,95 52,0 134,0 190,0l65 0c0,0 -2,0 -2,0l0 0 0 0zm320 -95c0,27 -36,33 -65,33l-144 0c-1,0 -1,-3 -1,-3 32,-32 80,-61 145,-61 29,0 65,6 65,31l0 0zm-638 0c0,-25 36,-31 65,-31 63,0 111,28 144,58 -2,2 -2,3 -4,6l-140 0c-29,0 -65,-6 -65,-33l0 0z"/>
    <path fill="#008DD2" fill-rule="nonzero" d="M961 0c264,0 504,108 677,282 174,174 282,413 282,679 0,264 -108,504 -282,677 -173,174 -413,282 -677,282 -266,0 -506,-108 -679,-282 -174,-173 -282,-413 -282,-677 0,-266 108,-506 282,-679 173,-174 413,-282 679,-282zm564 395c-146,-143 -345,-232 -564,-232 -221,0 -420,89 -564,234 -145,144 -234,343 -234,564 0,219 89,418 232,564 146,143 345,234 566,234 219,0 418,-91 564,-234 143,-146 234,-345 234,-564 0,-221 -91,-420 -234,-566z"/>
   </g>
  </g>
 </g>
</svg>
