<?xml version="1.0" encoding="UTF-8"?>
<!DOCTYPE svg PUBLIC "-//W3C//DTD SVG 1.1//EN" "http://www.w3.org/Graphics/SVG/1.1/DTD/svg11.dtd">
<!-- Creator: CorelDRAW X8 -->
<svg xmlns="http://www.w3.org/2000/svg" xml:space="preserve" width="1920px" height="1920px" version="1.1" shape-rendering="geometricPrecision" text-rendering="geometricPrecision" image-rendering="optimizeQuality" fill-rule="evenodd" clip-rule="evenodd"
viewBox="0 0 1920 1920"
 xmlns:xlink="http://www.w3.org/1999/xlink">
 <g id="Capa_x0020_1">
  <metadata id="CorelCorpID_0Corel-Layer"/>
  <path fill="#008DD2" d="M960 0c-526,0 -960,434 -960,960 0,526 434,960 960,960 526,0 960,-434 960,-960 0,-526 -434,-960 -960,-960zm666 573l-279 0c-31,-108 -77,-232 -139,-341 186,62 325,186 418,341zm-666 -372c77,109 139,233 186,372l-372 0c47,-139 109,-263 186,-372zm-743 960c-16,-62 -31,-139 -31,-201 0,-62 15,-124 31,-186l325 0c0,62 -16,124 -16,186 0,62 16,124 16,201l-325 0zm77 186l279 0c31,124 77,232 139,341 -170,-62 -325,-186 -418,-341l0 0zm279 -774l-279 0c93,-155 248,-279 418,-341 -62,109 -108,233 -139,341l0 0zm387 1161c-77,-124 -139,-248 -186,-387l372 0c-47,139 -109,263 -186,387zm232 -573l-449 0c-15,-77 -15,-139 -15,-201 0,-62 0,-124 15,-186l449 0c0,62 16,124 16,186 0,62 -16,124 -16,201zm16 527c62,-109 108,-217 139,-341l279 0c-93,155 -232,279 -418,341zm170 -527c16,-77 16,-139 16,-201 0,-62 0,-124 -16,-186l325 0c16,62 31,124 31,186 0,62 -15,139 -31,201l-325 0z"/>
 </g>
</svg>
