<?xml version="1.0" encoding="UTF-8"?>
<!DOCTYPE svg PUBLIC "-//W3C//DTD SVG 1.1//EN" "http://www.w3.org/Graphics/SVG/1.1/DTD/svg11.dtd">
<!-- Creator: CorelDRAW X8 -->
<svg xmlns="http://www.w3.org/2000/svg" xml:space="preserve" width="1903px" height="1919px" version="1.1" shape-rendering="geometricPrecision" text-rendering="geometricPrecision" image-rendering="optimizeQuality" fill-rule="evenodd" clip-rule="evenodd"
viewBox="0 0 1886 1902"
 xmlns:xlink="http://www.w3.org/1999/xlink">
 <g id="Capa_x0020_1">
  <metadata id="CorelCorpID_0Corel-Layer"/>
  <path fill="#008DD2" fill-rule="nonzero" d="M958 0l16 0c61,0 106,46 106,107 0,15 -15,45 -30,60 -46,46 -92,107 -122,168 -15,61 -30,137 -30,197 0,153 60,274 152,381 91,91 228,152 365,152 61,0 122,-15 167,-30 61,-16 107,-46 152,-77 46,-30 107,-30 137,16 15,15 15,45 15,76 -15,228 -136,441 -304,593 -167,152 -395,259 -639,259 -258,0 -487,-107 -669,-289 -168,-168 -274,-411 -274,-670 0,-258 106,-487 274,-669 182,-168 411,-274 669,-274l15 0 0 0zm-197 259l15 -46c-137,30 -259,106 -365,198 -137,137 -213,334 -213,532 0,213 76,396 213,533 137,137 334,228 532,228 198,0 381,-76 517,-198 77,-76 153,-182 198,-289l-15 0c-76,30 -152,30 -228,30 -198,0 -381,-76 -502,-197 -137,-137 -213,-320 -213,-518 0,-91 15,-182 61,-273l0 0z"/>
 </g>
</svg>
