<?xml version="1.0" encoding="UTF-8"?>
<!DOCTYPE svg PUBLIC "-//W3C//DTD SVG 1.1//EN" "http://www.w3.org/Graphics/SVG/1.1/DTD/svg11.dtd">
<!-- Creator: CorelDRAW X8 -->
<svg xmlns="http://www.w3.org/2000/svg" xml:space="preserve" width="1920px" height="1641px" version="1.1" shape-rendering="geometricPrecision" text-rendering="geometricPrecision" image-rendering="optimizeQuality" fill-rule="evenodd" clip-rule="evenodd"
viewBox="0 0 1920 1641"
 xmlns:xlink="http://www.w3.org/1999/xlink">
 <g id="Capa_x0020_1">
  <metadata id="CorelCorpID_0Corel-Layer"/>
  <path fill="#008DD2" d="M1100 0c-454,0 -821,367 -821,820l-279 0 349 349 18 18 366 -367 -279 0c0,-349 279,-645 646,-645 349,0 628,296 628,645 0,349 -279,629 -628,629 -192,0 -349,-70 -454,-175l-140 122c157,157 367,245 594,245 453,0 820,-367 820,-821 0,-453 -367,-820 -820,-820l0 0zm-105 454l0 454 401 227 53 -105 -314 -192 0 -384 -140 0z"/>
 </g>
</svg>
