<?xml version="1.0" encoding="UTF-8"?>
<!DOCTYPE svg PUBLIC "-//W3C//DTD SVG 1.1//EN" "http://www.w3.org/Graphics/SVG/1.1/DTD/svg11.dtd">
<!-- Creator: CorelDRAW X8 -->
<svg xmlns="http://www.w3.org/2000/svg" xml:space="preserve" width="2047px" height="443px" version="1.1" style="shape-rendering:geometricPrecision; text-rendering:geometricPrecision; image-rendering:optimizeQuality; fill-rule:evenodd; clip-rule:evenodd"
viewBox="0 0 2047 443"
 xmlns:xlink="http://www.w3.org/1999/xlink">
 <defs>
  <style type="text/css">
   <![CDATA[
    .fil0 {fill:#008DD2}
    .fil1 {fill:#008DD2;fill-rule:nonzero}
   ]]>
  </style>
 </defs>
 <g id="Capa_x0020_1">
  <metadata id="CorelCorpID_0Corel-Layer"/>
  <g id="_2196876483808">
   <path class="fil0" d="M0 221c0,-76 22,-130 54,-163 36,-39 99,-58 190,-58l85 0c90,0 154,19 190,58 32,33 54,87 54,163 0,76 -22,131 -54,164 -36,38 -100,58 -190,58l-85 0c-91,0 -154,-20 -190,-58 -32,-33 -54,-88 -54,-164zm342 -151c15,1 28,13 28,28l0 217 18 0c6,-1 11,-5 11,-11l0 -6 0 -8 0 -20 0 -102c0,-6 5,-11 11,-11l6 0c6,0 11,5 11,11l0 102 0 20 0 26c0,13 -9,25 -21,28l-36 0 0 1c0,15 -12,27 -27,27l0 0 -1 0c-75,0 -36,0 -111,0l-1 0 0 0c-15,0 -27,-12 -27,-27l0 -217 -18 0c-6,0 -11,5 -11,11l0 6 0 8 0 19 0 102c0,6 -5,12 -11,12l-6 0c-6,0 -11,-6 -11,-12l0 -102 0 -19 0 -26c0,-13 9,-25 21,-28l36 0 0 -1c0,-15 12,-27 27,-28l112 0zm57 47l0 -7c0,-6 5,-11 11,-11l6 0c6,0 11,5 11,11l0 7c0,6 -5,11 -11,11l-6 0c-6,0 -11,-5 -11,-11zm-253 216l0 -7c0,-6 5,-11 11,-11l6 0c6,0 11,5 11,11l0 7c0,6 -5,11 -11,11l-6 0c-6,0 -11,-5 -11,-11zm168 -11c0,1 -1,2 -1,4l0 7c0,1 1,2 1,4 -2,4 -6,6 -10,6l-11 0c-1,1 -2,1 -3,1l-7 0c-1,0 -2,0 -3,-1l-11 0c-6,0 -11,-5 -11,-11l0 -6c0,-6 5,-11 11,-11l12 0c1,0 2,0 2,0l7 0c0,0 1,0 1,0l13 0c4,0 8,3 10,7zm-55 -201c0,-1 1,-3 1,-4l0 -7c0,-2 -1,-3 -1,-4 1,-4 5,-7 10,-7l6 0 23 0 6 0c6,0 11,5 11,11l0 7c0,6 -5,11 -11,11l-6 0 -23 0 -6 0c-5,0 -9,-3 -10,-7zm0 36c76,-1 -21,0 55,0l1 0 0 0 15 0 12 0 0 11 0 17 0 73 0 16 0 12 -12 0 -15 0 0 0 -1 0c-76,0 21,0 -55,0l-1 0 0 0 -16 0 -11 0 0 -12 0 -16 0 -73 0 -17 0 -11 11 0 16 0 0 0 1 0z"/>
   <path class="fil1" d="M721 225l33 0c15,0 26,-5 34,-13 8,-8 12,-18 12,-30 0,-30 -16,-45 -50,-45l-29 0 0 88zm110 99l-23 0 -50 -83 -6 0 -31 0 0 83 -18 0 0 -203 45 0c24,0 42,5 53,16 12,11 18,26 18,45 0,14 -4,26 -11,36 -8,10 -18,16 -31,20l54 86z"/>
   <polygon id="1" class="fil1" points="881,306 972,306 972,324 862,324 862,121 970,121 970,138 881,138 881,214 960,214 960,231 881,231 "/>
   <path id="2" class="fil1" d="M1153 129l0 19c-9,-4 -16,-7 -23,-9 -7,-2 -16,-3 -28,-3 -24,0 -43,8 -59,23 -15,16 -23,37 -23,62 0,26 8,48 23,63 15,16 36,24 61,24 20,0 37,-5 50,-15l0 20c-12,9 -29,13 -51,13 -30,0 -55,-9 -74,-28 -19,-19 -28,-44 -28,-77 0,-31 9,-55 29,-74 19,-19 43,-29 72,-29 20,0 37,4 51,11z"/>
   <path id="3" class="fil1" d="M1223 251l78 0 -4 -13 -34 -102c-3,8 -15,42 -36,102l-4 13zm103 73l-19 -57 -90 0 -19 57 -21 0 72 -203 27 0 70 203 -20 0z"/>
   <path id="4" class="fil1" d="M1400 225l33 0c15,0 26,-5 34,-13 8,-8 12,-18 12,-30 0,-30 -16,-45 -49,-45l-30 0 0 88zm110 99l-22 0 -51 -83 -6 0 -31 0 0 83 -18 0 0 -203 45 0c24,0 42,5 54,16 11,11 17,26 17,45 0,14 -4,26 -11,36 -8,10 -18,16 -31,20l54 86z"/>
   <path id="5" class="fil1" d="M1695 212l0 97c-16,11 -36,17 -60,17 -31,0 -56,-9 -74,-28 -19,-18 -29,-44 -29,-76 0,-31 10,-56 28,-75 18,-20 42,-30 70,-30 24,0 43,5 59,14l0 21c-16,-11 -35,-16 -57,-16 -24,0 -43,8 -58,23 -15,16 -22,37 -22,63 0,27 7,47 22,63 15,15 35,22 61,22 16,0 30,-3 42,-9l0 -69 -48 0 0 -17 66 0z"/>
   <path id="6" class="fil1" d="M1773 251l79 0 -5 -13 -34 -102c-3,8 -14,42 -35,102l-5 13zm103 73l-19 -57 -90 0 -19 57 -20 0 71 -203 27 0 71 203 -21 0z"/>
   <path id="7" class="fil1" d="M2035 128l0 21c-5,-3 -11,-6 -19,-8 -8,-3 -15,-4 -23,-4 -13,0 -24,3 -32,10 -8,6 -12,15 -12,25 0,5 1,10 3,14 2,5 6,8 11,12 5,3 9,6 13,8 4,2 10,5 17,8 7,3 12,5 16,7 4,2 8,4 14,8 6,3 10,7 13,10 3,4 5,9 8,14 2,6 3,12 3,18 0,18 -6,31 -18,41 -12,9 -27,14 -45,14 -21,0 -39,-5 -53,-14l0 -20c6,4 13,8 23,11 9,3 19,5 29,5 14,0 25,-3 33,-10 8,-6 12,-15 12,-26 0,-9 -3,-16 -9,-22 -6,-5 -15,-11 -26,-16 -2,-1 -5,-2 -11,-4 -5,-3 -9,-4 -11,-5 -2,-1 -6,-3 -10,-6 -5,-2 -8,-4 -10,-6 -3,-2 -5,-4 -8,-7 -4,-3 -6,-6 -7,-9 -2,-3 -3,-7 -4,-11 -1,-4 -2,-8 -2,-13 0,-17 6,-30 18,-40 13,-9 27,-14 45,-14 17,0 31,3 42,9z"/>
  </g>
 </g>
</svg>
