<?xml version="1.0" encoding="UTF-8"?>
<!DOCTYPE svg PUBLIC "-//W3C//DTD SVG 1.1//EN" "http://www.w3.org/Graphics/SVG/1.1/DTD/svg11.dtd">
<!-- Creator: CorelDRAW X8 -->
<svg xmlns="http://www.w3.org/2000/svg" xml:space="preserve" width="2149px" height="1563px" version="1.1" style="shape-rendering:geometricPrecision; text-rendering:geometricPrecision; image-rendering:optimizeQuality; fill-rule:evenodd; clip-rule:evenodd"
viewBox="0 0 2149 1563"
 xmlns:xlink="http://www.w3.org/1999/xlink">
 <defs>
  <style type="text/css">
   <![CDATA[
    .fil1 {fill:#008DD2}
    .fil0 {fill:#008DD2;fill-rule:nonzero}
   ]]>
  </style>
 </defs>
 <g id="Capa_x0020_1">
  <metadata id="CorelCorpID_0Corel-Layer"/>
  <path class="fil0" d="M30 1401l52 0c24,0 42,-7 55,-20 13,-13 19,-30 19,-49 0,-47 -26,-71 -80,-71l-46 0 0 140zm175 158l-36 0 -81 -132 -9 0 -49 0 0 132 -30 0 0 -324 73 0c38,0 66,8 85,25 19,18 28,42 28,73 -1,22 -7,41 -18,57 -12,15 -28,26 -49,32l86 137z"/>
  <polygon id="1" class="fil0" points="285,1531 431,1531 431,1559 255,1559 255,1235 428,1235 428,1262 285,1262 285,1383 411,1383 411,1411 285,1411 "/>
  <path id="2" class="fil0" d="M721 1248l0 31c-15,-7 -27,-13 -38,-16 -11,-3 -26,-4 -45,-4 -37,0 -68,12 -93,38 -25,25 -38,57 -38,98 0,42 13,76 37,101 25,26 57,38 98,38 32,0 58,-8 79,-25l0 33c-19,14 -46,21 -80,21 -49,0 -89,-15 -119,-45 -30,-30 -45,-71 -45,-123 0,-49 15,-88 46,-119 31,-30 70,-46 116,-46 31,0 59,6 82,18z"/>
  <path id="3" class="fil0" d="M832 1442l125 0 -7 -20 -55 -162c-4,13 -23,67 -56,162l-7 20zm165 117l-31 -90 -144 0 -31 90 -32 0 114 -324 44 0 112 324 -32 0z"/>
  <path id="4" class="fil0" d="M1115 1401l53 0c24,0 42,-7 55,-20 12,-13 19,-30 19,-49 0,-47 -27,-71 -80,-71l-47 0 0 140zm175 158l-35 0 -81 -132 -10 0 -49 0 0 132 -29 0 0 -324 73 0c38,0 66,8 85,25 18,18 28,42 28,73 -1,22 -7,41 -19,57 -11,15 -27,26 -49,32l86 137z"/>
  <path id="5" class="fil0" d="M1587 1380l0 155c-26,18 -58,28 -96,28 -50,0 -90,-15 -119,-45 -30,-29 -45,-70 -45,-122 0,-48 14,-88 44,-120 29,-31 66,-47 111,-47 38,0 69,7 94,23l0 33c-25,-18 -55,-26 -90,-26 -38,0 -69,12 -93,38 -24,25 -36,58 -36,99 0,43 12,76 36,101 24,24 56,36 98,36 25,0 47,-5 66,-15l0 -111 -77 0 0 -27 107 0z"/>
  <path id="6" class="fil0" d="M1711 1442l126 0 -7 -20 -55 -162c-4,13 -23,67 -56,162l-8 20zm165 117l-30 -90 -144 0 -31 90 -32 0 114 -324 43 0 113 324 -33 0z"/>
  <path id="7" class="fil0" d="M2130 1246l0 33c-7,-5 -18,-9 -30,-13 -13,-3 -25,-5 -37,-5 -21,0 -38,5 -51,15 -13,10 -19,24 -19,40 0,9 1,17 5,24 3,6 9,12 17,18 8,6 15,10 21,13 6,3 15,7 27,12 11,5 20,9 25,12 6,2 14,7 23,12 9,6 15,12 20,17 5,6 9,13 12,22 4,9 6,19 6,29 0,28 -9,50 -28,65 -19,15 -44,22 -73,22 -33,0 -62,-7 -85,-21l0 -33c9,7 22,13 37,18 15,5 31,7 47,7 22,0 40,-5 53,-15 12,-9 19,-24 19,-42 0,-14 -5,-26 -15,-35 -9,-9 -23,-17 -42,-25 -2,-1 -8,-4 -16,-7 -9,-4 -15,-7 -19,-8 -3,-2 -9,-5 -16,-9 -7,-3 -13,-7 -16,-10 -4,-3 -8,-6 -13,-11 -5,-5 -9,-10 -11,-15 -2,-4 -4,-10 -6,-17 -2,-6 -3,-13 -3,-21 0,-27 10,-48 29,-63 20,-16 44,-23 72,-23 27,0 49,5 67,14z"/>
  <path class="fil1" d="M447 484c0,-166 49,-285 118,-357 79,-85 218,-127 417,-127l185 0c199,0 338,42 417,127 69,72 118,191 118,357 0,167 -49,286 -118,358 -79,85 -218,127 -417,127l-185 0c-199,0 -338,-42 -417,-127 -69,-72 -118,-191 -118,-358zm748 -330c33,1 63,28 63,61l0 474 39 0c13,-1 23,-10 23,-24l0 -13 0 -18 0 -42 0 -224c0,-13 11,-24 25,-24l13 0c14,0 25,11 25,24l0 224 0 42 0 57c0,29 -20,55 -47,61l-78 0 0 2c0,33 -27,60 -60,61l0 0 -1 0c-166,0 -79,0 -245,0l-1 0 0 0c-33,-1 -60,-28 -60,-61l0 -474 -39 0c-13,0 -23,10 -23,23l0 14 0 18 0 42 0 223c0,14 -11,25 -25,25l-13 0c-14,0 -25,-11 -25,-25l0 -223 0 -42 0 -58c0,-28 20,-54 47,-61l78 0 0 -1c0,-33 27,-60 60,-61l244 0zm125 102l0 -15c0,-14 11,-25 25,-25l13 0c14,0 25,11 25,25l0 15c0,13 -11,24 -25,24l-13 0c-14,0 -25,-11 -25,-24zm-554 472l0 -15c0,-13 11,-24 25,-24l13 0c14,0 25,11 25,24l0 15c0,13 -11,24 -25,24l-13 0c-14,0 -25,-11 -25,-24zm369 -24c-1,3 -2,6 -2,9l0 15c0,3 1,6 2,9 -4,8 -12,15 -22,15l-25 0c-2,0 -4,0 -7,0l-13 0c-3,0 -5,0 -7,0l-24 0c-14,0 -25,-11 -25,-25l0 -13c0,-14 11,-25 25,-25l27 0c1,0 2,0 4,0l13 0c2,0 3,0 4,0l28 0c10,0 18,6 22,15zm-121 -439c1,-3 2,-6 2,-9l0 -15c0,-4 -1,-7 -2,-10 4,-8 12,-15 22,-15l14 0 49 0 14 0c13,0 24,11 24,25l0 15c0,13 -11,24 -24,24l-14 0 -49 0 -14 0c-10,0 -18,-6 -22,-15zm1 79c165,-2 -46,0 119,0l2 0 0 0 35 0 24 0 0 24 0 37 0 159 0 36 0 25 -24 0 -35 0 0 0 -2 0c-165,0 46,0 -119,0l-2 0 0 0 -35 0 -24 0 0 -25 0 -36 0 -159 0 -37 0 -24 24 0 35 0 0 0 2 0z"/>
 </g>
</svg>
