<?xml version="1.0" encoding="UTF-8"?>
<!DOCTYPE svg PUBLIC "-//W3C//DTD SVG 1.1//EN" "http://www.w3.org/Graphics/SVG/1.1/DTD/svg11.dtd">
<!-- Creator: CorelDRAW X8 -->
<svg xmlns="http://www.w3.org/2000/svg" xml:space="preserve" width="1920px" height="1920px" version="1.1" shape-rendering="geometricPrecision" text-rendering="geometricPrecision" image-rendering="optimizeQuality" fill-rule="evenodd" clip-rule="evenodd"
viewBox="0 0 1920 1920"
 xmlns:xlink="http://www.w3.org/1999/xlink">
 <defs>
   <linearGradient id="id0" gradientUnits="userSpaceOnUse" x1="558.002" y1="1918.71" x2="1920" y2="1920">
    <stop offset="0" stop-opacity="1" stop-color="#008DD2"/>
    <stop offset="1" stop-opacity="1" stop-color="#A2D9F7"/>
   </linearGradient>
   <linearGradient id="id1" gradientUnits="userSpaceOnUse" x1="1362" y1="1.29331" x2="2.20552e-11" y2="-3.62661e-11">
    <stop offset="0" stop-opacity="1" stop-color="#008DD2"/>
    <stop offset="1" stop-opacity="1" stop-color="#A2D9F7"/>
   </linearGradient>
   <mask id="id2">
     <linearGradient id="id3" gradientUnits="userSpaceOnUse" x1="755.805" y1="1918.57" x2="657.769" y2="444.926">
      <stop offset="0" stop-opacity="0.501961" stop-color="white"/>
      <stop offset="1" stop-opacity="0" stop-color="white"/>
     </linearGradient>
    <rect fill="url(#id3)" x="258" y="442" width="652" height="1479"/>
   </mask>
   <linearGradient id="id4" gradientUnits="userSpaceOnUse" x1="951.956" y1="590.866" x2="-122.81" y2="1772.63">
    <stop offset="0" stop-opacity="1" stop-color="#51B8E9"/>
    <stop offset="1" stop-opacity="1" stop-color="#008DD2"/>
   </linearGradient>
   <linearGradient id="id5" gradientUnits="userSpaceOnUse" x1="-161.581" y1="1647.57" x2="539.966" y2="1231.48">
    <stop offset="0" stop-opacity="1" stop-color="#0068BA"/>
    <stop offset="1" stop-opacity="1" stop-color="#008DD2"/>
   </linearGradient>
   <mask id="id6">
     <linearGradient id="id7" gradientUnits="userSpaceOnUse" x1="1164.2" y1="1.43748" x2="1262.23" y2="1475.08">
      <stop offset="0" stop-opacity="0.501961" stop-color="white"/>
      <stop offset="1" stop-opacity="0" stop-color="white"/>
     </linearGradient>
    <rect fill="url(#id7)" x="1010" y="-1" width="652" height="1479"/>
   </mask>
   <linearGradient id="id8" gradientUnits="userSpaceOnUse" x1="1941.57" y1="1329.14" x2="866.81" y2="147.378">
    <stop offset="0" stop-opacity="1" stop-color="#51B8E9"/>
    <stop offset="1" stop-opacity="1" stop-color="#008DD2"/>
   </linearGradient>
   <linearGradient id="id9" gradientUnits="userSpaceOnUse" x1="1087.23" y1="787.985" x2="1788.78" y2="1204.08">
    <stop offset="0" stop-opacity="1" stop-color="#0068BA"/>
    <stop offset="1" stop-opacity="1" stop-color="#008DD2"/>
   </linearGradient>
 </defs>
 <g id="Capa_x0020_1">
  <metadata id="CorelCorpID_0Corel-Layer"/>
  <path fill="url(#id0)" d="M1920 1090l-1 0c-17,215 -569,387 -789,387l-575 0 0 443 1365 0 0 -830z"/>
  <path fill="url(#id1)" d="M0 830l1 0c17,-215 569,-387 789,-387l575 0 0 -443 -1365 0 0 830z"/>
  <path fill="#008DD2" mask="url(#id2)" d="M909 443c-93,11 -175,53 -237,115 -70,70 -114,165 -117,271l0 26 0 30 0 1035 -296 0 0 -1035 0 -21c0,-231 189,-421 420,-421l230 0z"/>
  <path fill="url(#id4)" d="M790 443c-92,11 -175,53 -237,115 -70,70 -114,165 -117,271l0 26 0 30 0 1035 -296 0 0 -1035 0 -21c0,-231 190,-421 421,-421l229 0z"/>
  <path fill="url(#id5)" d="M671 443c-92,11 -175,53 -237,115 -70,70 -114,165 -117,271l0 26 0 30 0 1035 -317 0 0 -1035 0 -21c0,-231 189,-421 420,-421l251 0z"/>
  <path fill="#008DD2" mask="url(#id6)" d="M1011 1477c93,-11 175,-53 237,-115 70,-70 114,-165 117,-271l0 -26 0 -30 0 -1035 296 0 0 1035 0 21c0,231 -189,421 -420,421l-230 0z"/>
  <path fill="url(#id8)" d="M1130 1477c92,-11 175,-53 237,-115 70,-70 114,-165 117,-271l0 -26 0 -30 0 -1035 296 0 0 1035 0 21c0,231 -190,421 -421,421l-229 0z"/>
  <path fill="url(#id9)" d="M1249 1477c92,-11 175,-53 237,-115 70,-70 114,-165 117,-271l0 -26 0 -30 0 -1035 317 0 0 1035 0 21c0,231 -189,421 -420,421l-251 0z"/>
  <path fill="#008DD2" d="M691 960c0,-71 21,-122 51,-153 34,-36 93,-54 178,-54l80 0c85,0 144,18 178,54 30,31 51,82 51,153 0,71 -21,122 -51,153 -34,36 -93,54 -178,54l-80 0c-85,0 -144,-18 -178,-54 -30,-31 -51,-82 -51,-153zm321 -142c14,1 27,12 27,26l0 204 16 0c6,-1 10,-5 10,-10l0 -6 0 -8 0 -18 0 -96c0,-5 5,-10 11,-10l6 0c5,0 10,5 10,10l0 96 0 18 0 25c0,12 -8,23 -20,26l-33 0 0 1c0,14 -12,25 -26,26l0 0 -1 0c-71,0 -33,0 -104,0l-1 0 0 0c-14,-1 -26,-12 -26,-26l0 -204 -16 0c-6,1 -10,5 -10,10l0 6 0 8 0 18 0 96c0,5 -5,10 -11,10l-6 0c-5,0 -10,-5 -10,-10l0 -96 0 -18 0 -25c0,-12 8,-23 20,-26l33 0 0 -1c0,-14 12,-25 26,-26l105 0zm53 44l0 -6c0,-6 5,-11 11,-11l6 0c5,0 10,5 10,11l0 6c0,6 -5,10 -10,10l-6 0c-6,0 -11,-4 -11,-10zm-237 202l0 -6c0,-6 5,-10 10,-10l6 0c6,0 11,4 11,10l0 6c0,6 -5,11 -11,11l-6 0c-5,0 -10,-5 -10,-11zm158 -10c-1,1 -1,3 -1,4l0 6c0,2 0,3 1,4 -2,4 -5,6 -10,6l-10 0c-1,1 -2,1 -3,1l-6 0c-1,0 -2,0 -3,-1l-10 0c-6,0 -11,-4 -11,-10l0 -6c0,-6 5,-10 11,-10l11 0c1,0 1,0 2,0l6 0c1,0 1,0 2,0l11 0c5,0 8,2 10,6zm-52 -188c1,-1 1,-3 1,-4l0 -6c0,-2 0,-3 -1,-4 2,-4 5,-7 10,-7l6 0 20 0 6 0c6,0 11,5 11,11l0 6c0,6 -5,10 -11,10l-6 0 -20 0 -6 0c-5,0 -8,-2 -10,-6zm0 34c71,-1 -19,0 52,0l0 0 0 0 15 0 11 0 0 10 0 16 0 68 0 16 0 10 -11 0 -15 0 0 0 0 0c-71,0 19,0 -52,0l0 0 0 0 -15 0 -11 0 0 -10 0 -16 0 -68 0 -16 0 -10 11 0 15 0 0 0 0 0z"/>
 </g>
</svg>
