<?xml version="1.0" encoding="UTF-8"?>
<!DOCTYPE svg PUBLIC "-//W3C//DTD SVG 1.1//EN" "http://www.w3.org/Graphics/SVG/1.1/DTD/svg11.dtd">
<!-- Creator: CorelDRAW X8 -->
<svg xmlns="http://www.w3.org/2000/svg" xml:space="preserve" width="1254px" height="969px" version="1.1" style="shape-rendering:geometricPrecision; text-rendering:geometricPrecision; image-rendering:optimizeQuality; fill-rule:evenodd; clip-rule:evenodd"
viewBox="0 0 1254 969"
 xmlns:xlink="http://www.w3.org/1999/xlink">
 <defs>
  <style type="text/css">
   <![CDATA[
    .fil0 {fill:#008DD2}
   ]]>
  </style>
 </defs>
 <g id="Capa_x0020_1">
  <metadata id="CorelCorpID_0Corel-Layer"/>
  <path class="fil0" d="M0 484c0,-166 49,-285 117,-357 80,-85 219,-127 417,-127l186 0c198,0 337,42 417,127 68,72 117,191 117,357 0,167 -49,286 -117,358 -80,84 -219,127 -417,127l-186 0c-198,0 -337,-43 -417,-127 -68,-72 -117,-191 -117,-358zm748 -330c33,1 62,28 62,61l0 474 40 0c13,-1 23,-10 23,-24l0 -13 0 -18 0 -42 0 -224c0,-13 11,-24 24,-24l14 0c13,0 24,11 24,24l0 224 0 42 0 57c0,29 -19,55 -46,61l-79 0 0 2c0,33 -26,60 -59,61l0 0 -2 0c-165,0 -79,0 -244,0l-2 0 0 0c-33,-1 -59,-28 -59,-61l0 -474 -40 0c-13,0 -23,10 -23,23l0 14 0 18 0 42 0 223c0,14 -11,25 -24,25l-14 0c-13,0 -24,-11 -24,-25l0 -223 0 -42 0 -58c0,-28 19,-54 46,-61l79 0 0 -1c0,-33 26,-60 59,-61l245 0zm125 102l0 -15c0,-14 11,-25 24,-25l14 0c13,0 24,11 24,25l0 15c0,13 -11,24 -24,24l-14 0c-13,0 -24,-11 -24,-24zm-554 472l0 -15c0,-13 11,-24 24,-24l14 0c13,0 24,11 24,24l0 15c0,13 -11,24 -24,24l-14 0c-13,0 -24,-11 -24,-24zm369 -24c-2,3 -2,6 -2,9l0 15c0,3 0,6 1,9 -3,8 -12,15 -22,15l-25 0c-2,0 -4,0 -6,0l-14 0c-2,0 -4,0 -6,0l-25 0c-13,0 -24,-11 -24,-25l0 -13c0,-14 11,-25 24,-25l27 0c1,0 3,0 4,0l14 0c1,0 3,0 4,0l27 0c10,0 19,6 23,15zm-122 -439c2,-3 2,-6 2,-9l0 -15c0,-4 0,-7 -2,-10 4,-8 13,-15 23,-15l14 0 48 0 14 0c13,0 25,11 25,25l0 15c0,13 -12,24 -25,24l-14 0 -48 0 -14 0c-10,0 -19,-6 -23,-15zm1 79c166,-2 -46,0 120,0l1 0 0 0 35 0 25 0 0 24 0 37 0 159 0 36 0 25 -25 0 -35 0 0 0 -1 0c-166,0 46,0 -120,0l-1 0 0 0 -35 0 -25 0 0 -25 0 -36 0 -159 0 -37 0 -24 25 0 35 0 0 0 1 0z"/>
 </g>
</svg>
