<?xml version="1.0" encoding="UTF-8"?>
<!DOCTYPE svg PUBLIC "-//W3C//DTD SVG 1.1//EN" "http://www.w3.org/Graphics/SVG/1.1/DTD/svg11.dtd">
<!-- Creator: CorelDRAW X8 -->
<svg xmlns="http://www.w3.org/2000/svg" xml:space="preserve" width="1920px" height="1920px" version="1.1" shape-rendering="geometricPrecision" text-rendering="geometricPrecision" image-rendering="optimizeQuality" fill-rule="evenodd" clip-rule="evenodd"
viewBox="0 0 1920 1920"
 xmlns:xlink="http://www.w3.org/1999/xlink">
 <g id="Capa_x0020_1">
  <metadata id="CorelCorpID_0Corel-Layer"/>
  <path fill="#008DD2" d="M375 820c164,304 398,561 702,702l234 -234c24,-24 70,-24 117,-24 117,47 234,71 375,71 70,0 117,46 117,93l0 375c0,70 -47,117 -117,117 -1007,0 -1803,-820 -1803,-1803 0,-70 47,-117 117,-117l351 0c71,0 117,47 117,117 0,117 24,258 47,375 24,23 24,70 -23,93l-234 235 0 0z"/>
 </g>
</svg>
