<?xml version="1.0" encoding="UTF-8"?>
<!DOCTYPE svg PUBLIC "-//W3C//DTD SVG 1.1//EN" "http://www.w3.org/Graphics/SVG/1.1/DTD/svg11.dtd">
<!-- Creator: CorelDRAW X8 -->
<svg xmlns="http://www.w3.org/2000/svg" xml:space="preserve" width="1920px" height="1920px" version="1.1" shape-rendering="geometricPrecision" text-rendering="geometricPrecision" image-rendering="optimizeQuality" fill-rule="evenodd" clip-rule="evenodd"
viewBox="0 0 1920 1920"
 xmlns:xlink="http://www.w3.org/1999/xlink">
 <g id="Capa_x0020_1">
  <metadata id="CorelCorpID_0Corel-Layer"/>
  <path fill="#008DD2" d="M867 1254l186 0 0 186 -186 0 0 -186zm0 -774l186 0 0 573 -186 0 0 -573zm93 -480c-526,0 -960,434 -960,960 0,526 434,960 960,960 526,0 960,-434 960,-960 0,-526 -434,-960 -960,-960zm0 1734c-418,0 -774,-340 -774,-774 0,-418 356,-774 774,-774 434,0 774,356 774,774 0,434 -340,774 -774,774z"/>
 </g>
</svg>
