<?xml version="1.0" encoding="UTF-8"?>
<!DOCTYPE svg PUBLIC "-//W3C//DTD SVG 1.1//EN" "http://www.w3.org/Graphics/SVG/1.1/DTD/svg11.dtd">
<!-- Creator: CorelDRAW X8 -->
<svg xmlns="http://www.w3.org/2000/svg" xml:space="preserve" width="1083px" height="1920px" version="1.1" shape-rendering="geometricPrecision" text-rendering="geometricPrecision" image-rendering="optimizeQuality" fill-rule="evenodd" clip-rule="evenodd"
viewBox="0 0 2319 4110"
 xmlns:xlink="http://www.w3.org/1999/xlink">
 <g id="Capa_x0020_1">
  <metadata id="CorelCorpID_0Corel-Layer"/>
  <path fill="#008DD2" d="M1265 1792c-527,-141 -703,-281 -703,-492 0,-246 246,-422 633,-422 386,0 526,211 562,492l491 0c0,-386 -245,-738 -737,-878l0 -492 -668 0 0 492c-457,105 -808,386 -808,808 0,527 457,808 1089,948 562,141 668,352 668,563 0,140 -106,386 -597,386 -492,0 -668,-211 -703,-457l-492 0c35,492 386,773 843,844l0 526 668 0 0 -491c456,-106 808,-352 808,-808 0,-668 -562,-879 -1054,-1019z"/>
 </g>
</svg>
