<?xml version="1.0" encoding="UTF-8"?>
<!DOCTYPE svg PUBLIC "-//W3C//DTD SVG 1.1//EN" "http://www.w3.org/Graphics/SVG/1.1/DTD/svg11.dtd">
<!-- Creator: CorelDRAW X8 -->
<svg xmlns="http://www.w3.org/2000/svg" xml:space="preserve" width="1920px" height="1445px" version="1.1" shape-rendering="geometricPrecision" text-rendering="geometricPrecision" image-rendering="optimizeQuality" fill-rule="evenodd" clip-rule="evenodd"
viewBox="0 0 1920 1445"
 xmlns:xlink="http://www.w3.org/1999/xlink">
 <g id="Capa_x0020_1">
  <metadata id="CorelCorpID_0Corel-Layer"/>
  <path fill="#008DD2" d="M1765 0l-1600 0c-92,0 -165,73 -165,165l0 1115c0,91 73,165 165,165l1600 0c82,0 155,-74 155,-165l0 -1115c0,-92 -73,-165 -155,-165zm-1125 238c137,0 238,109 238,247 0,128 -101,237 -238,237 -128,0 -238,-109 -238,-237 0,-138 110,-247 238,-247zm485 960l-960 0 0 -73c0,-165 320,-247 475,-247 165,0 485,82 485,247l0 73 0 0zm301 -320l137 0 119 164 -155 156c-110,-73 -183,-183 -220,-320 -18,-46 -27,-101 -27,-156 0,-55 9,-109 27,-164 37,-128 110,-238 220,-320l155 164 -119 156 -137 0c-18,55 -27,109 -27,164 0,55 9,110 27,156z"/>
 </g>
</svg>
