<?xml version="1.0" encoding="UTF-8"?>
<!DOCTYPE svg PUBLIC "-//W3C//DTD SVG 1.1//EN" "http://www.w3.org/Graphics/SVG/1.1/DTD/svg11.dtd">
<!-- Creator: CorelDRAW X8 -->
<svg xmlns="http://www.w3.org/2000/svg" xml:space="preserve" width="1920px" height="1665px" version="1.1" shape-rendering="geometricPrecision" text-rendering="geometricPrecision" image-rendering="optimizeQuality" fill-rule="evenodd" clip-rule="evenodd"
viewBox="0 0 1920 1665"
 xmlns:xlink="http://www.w3.org/1999/xlink">
 <g id="Capa_x0020_1">
  <metadata id="CorelCorpID_0Corel-Layer"/>
  <path fill="#008DD2" d="M952 357c254,0 441,187 441,425 0,51 -17,119 -34,170l255 254c136,-119 238,-254 306,-424 -153,-374 -527,-646 -968,-646 -119,0 -238,17 -340,51l187 187c51,-17 102,-17 153,-17l0 0zm-867 -238l204 187 34 51c-136,102 -255,255 -323,425 153,390 527,662 952,662 135,0 271,-34 390,-85l34 51 255 255 119 -119 -1546 -1546 -119 119 0 0zm493 476l119 136c0,17 0,34 0,51 0,153 119,271 255,271 33,0 50,-17 67,-17l136 136c-68,34 -119,51 -204,51 -237,0 -424,-204 -424,-441 0,-68 17,-136 51,-187l0 0 0 0zm374 -68l271 272 0 -17c0,-136 -119,-255 -271,-255l0 0z"/>
 </g>
</svg>
