<?xml version="1.0" encoding="UTF-8"?>
<!DOCTYPE svg PUBLIC "-//W3C//DTD SVG 1.1//EN" "http://www.w3.org/Graphics/SVG/1.1/DTD/svg11.dtd">
<!-- Creator: CorelDRAW X8 -->
<svg xmlns="http://www.w3.org/2000/svg" xml:space="preserve" width="1920px" height="1656px" version="1.1" shape-rendering="geometricPrecision" text-rendering="geometricPrecision" image-rendering="optimizeQuality" fill-rule="evenodd" clip-rule="evenodd"
viewBox="0 0 1920 1656"
 xmlns:xlink="http://www.w3.org/1999/xlink">
 <g id="Capa_x0020_1">
  <metadata id="CorelCorpID_0Corel-Layer"/>
  <path fill="#4D4D4D" d="M953 352c249,0 439,190 439,439 0,44 -14,103 -29,147l249 264c132,-117 235,-249 308,-411 -147,-395 -528,-659 -967,-659 -118,0 -235,15 -337,59l190 190c44,-15 103,-29 147,-29l0 0zm-865 -235l205 191 29 44c-146,117 -249,264 -322,439 147,382 528,645 953,645 146,0 263,-29 381,-73l44 44 249 249 117 -117 -1539 -1539 -117 117 0 0zm484 469l132 147c0,14 0,29 0,58 0,132 117,250 249,250 29,0 44,0 58,0l132 132c-44,29 -117,43 -190,43 -235,0 -425,-190 -425,-425 0,-73 14,-146 44,-205l0 0zm366 -58l278 263 0 0c0,-146 -117,-263 -263,-263l-15 0z"/>
 </g>
</svg>
