<?xml version="1.0" encoding="UTF-8"?>
<!DOCTYPE svg PUBLIC "-//W3C//DTD SVG 1.1//EN" "http://www.w3.org/Graphics/SVG/1.1/DTD/svg11.dtd">
<!-- Creator: CorelDRAW X8 -->
<svg xmlns="http://www.w3.org/2000/svg" xml:space="preserve" width="1920px" height="1660px" version="1.1" shape-rendering="geometricPrecision" text-rendering="geometricPrecision" image-rendering="optimizeQuality" fill-rule="evenodd" clip-rule="evenodd"
viewBox="0 0 1920 1660"
 xmlns:xlink="http://www.w3.org/1999/xlink">
 <g id="Capa_x0020_1">
  <metadata id="CorelCorpID_0Corel-Layer"/>
  <path fill="#ADB0BB" d="M955 347c249,0 444,195 444,434 0,54 -21,108 -32,163l249 249c130,-108 239,-249 304,-412 -152,-380 -521,-651 -965,-651 -120,0 -239,22 -348,65l196 185c43,-22 97,-33 152,-33l0 0zm-868 -239l195 207 43 32c-141,119 -260,260 -325,434 152,391 521,662 955,662 141,0 271,-33 390,-76l33 32 249 261 119 -120 -1551 -1540 -108 108 0 0zm477 489l141 130c0,21 -11,32 -11,54 0,152 120,260 261,260 21,0 43,0 65,0l130 131c-54,32 -119,43 -195,43 -239,0 -434,-195 -434,-434 0,-65 21,-130 43,-184l0 0 0 0zm380 -76l271 282 0 -22c0,-141 -109,-260 -260,-260l-11 0z"/>
 </g>
</svg>
