<?xml version="1.0" encoding="UTF-8"?>
<!DOCTYPE svg PUBLIC "-//W3C//DTD SVG 1.1//EN" "http://www.w3.org/Graphics/SVG/1.1/DTD/svg11.dtd">
<!-- Creator: CorelDRAW X8 -->
<svg xmlns="http://www.w3.org/2000/svg" xml:space="preserve" width="2191px" height="1563px" version="1.1" style="shape-rendering:geometricPrecision; text-rendering:geometricPrecision; image-rendering:optimizeQuality; fill-rule:evenodd; clip-rule:evenodd"
viewBox="0 0 2191 1563"
 xmlns:xlink="http://www.w3.org/1999/xlink">
 <defs>
  <style type="text/css">
   <![CDATA[
    .fil1 {fill:#008DD2}
    .fil0 {fill:#008DD2;fill-rule:nonzero}
   ]]>
  </style>
 </defs>
 <g id="Capa_x0020_1">
  <metadata id="CorelCorpID_0Corel-Layer"/>
  <path class="fil0" d="M73 1442l125 0 -7 -20 -55 -162c-4,12 -23,67 -56,162l-7 20zm165 117l-31 -90 -144 0 -31 90 -32 0 114 -324 44 0 112 324 -32 0z"/>
  <path id="1" class="fil0" d="M327 1559l0 -324 40 0 83 137 91 152c0,-34 0,-84 0,-152l0 -137 29 0 0 324 -41 0 -82 -136 -92 -153c1,34 1,85 1,152l0 137 -29 0z"/>
  <path id="2" class="fil0" d="M848 1437l0 -202 30 0 0 201c0,42 -10,73 -31,95 -20,21 -48,32 -85,32 -36,0 -65,-11 -85,-32 -20,-21 -30,-51 -30,-91l0 -205 30 0 0 204c0,33 8,57 23,72 15,15 36,23 62,23 57,0 86,-33 86,-97z"/>
  <path id="3" class="fil0" d="M955 1559l0 -324 40 0 83 137 92 152c-1,-34 -1,-84 -1,-152l0 -137 29 0 0 324 -40 0 -83 -136 -92 -153c1,34 1,85 1,152l0 137 -29 0z"/>
  <path id="4" class="fil0" d="M1505 1248l0 31c-14,-8 -27,-13 -38,-16 -11,-3 -26,-4 -45,-4 -37,0 -68,12 -93,37 -25,25 -37,58 -37,99 0,42 12,76 36,101 25,25 58,38 98,38 32,0 59,-8 80,-25l0 33c-20,14 -47,21 -81,21 -49,0 -89,-15 -119,-45 -30,-30 -45,-71 -45,-123 0,-49 15,-89 47,-119 31,-31 69,-46 115,-46 32,0 59,6 82,18z"/>
  <polygon id="5" class="fil0" points="1566,1559 1566,1235 1596,1235 1596,1559 "/>
  <path id="6" class="fil0" d="M1661 1395c0,-51 12,-91 38,-122 25,-30 60,-45 103,-45 45,0 80,15 105,45 25,30 38,71 38,122 0,51 -13,92 -38,122 -26,30 -60,46 -104,46 -43,0 -77,-16 -103,-46 -26,-31 -39,-71 -39,-122zm30 0c0,43 11,77 31,101 20,25 47,38 81,38 36,0 63,-13 82,-37 19,-25 29,-59 29,-102 0,-43 -10,-77 -29,-102 -19,-24 -47,-36 -83,-36 -34,0 -61,12 -81,36 -20,25 -30,59 -30,102z"/>
  <path id="7" class="fil0" d="M2172 1246l0 33c-7,-5 -18,-9 -30,-13 -13,-3 -25,-5 -37,-5 -21,0 -38,5 -51,15 -13,10 -19,24 -19,40 0,9 1,17 5,23 3,7 9,13 17,19 8,5 15,10 21,13 6,3 15,7 27,12 11,5 20,9 25,11 6,3 14,7 23,13 9,6 15,12 20,17 5,6 9,13 12,22 4,9 6,18 6,29 0,28 -9,50 -28,65 -19,15 -43,22 -73,22 -33,0 -62,-7 -85,-21l0 -33c10,7 22,13 37,18 15,5 31,7 47,7 22,0 40,-5 53,-15 12,-10 19,-24 19,-43 0,-14 -5,-25 -15,-34 -9,-9 -23,-17 -42,-25 -2,-1 -8,-4 -16,-8 -9,-3 -15,-6 -19,-8 -3,-1 -9,-4 -16,-8 -7,-4 -13,-7 -16,-10 -3,-3 -8,-7 -13,-11 -5,-5 -9,-10 -11,-15 -2,-5 -4,-10 -6,-17 -2,-6 -3,-13 -3,-21 0,-27 10,-48 29,-64 20,-15 44,-22 72,-22 27,0 49,4 67,14z"/>
  <path class="fil1" d="M469 484c0,-166 49,-285 117,-357 79,-85 218,-127 417,-127l185 0c199,0 338,42 417,127 68,72 117,191 117,357 0,167 -49,285 -117,358 -79,84 -218,127 -417,127l-185 0c-199,0 -338,-43 -417,-127 -68,-73 -117,-191 -117,-358zm872 -116c0,-13 11,-24 25,-24l13 0c14,0 25,11 25,24 0,26 0,206 0,232 0,14 -11,25 -25,25l-13 0c-14,0 -25,-11 -25,-25 0,-26 0,-206 0,-232zm-429 254l0 106c0,13 -11,24 -24,24l-14 0c-13,0 -24,-11 -24,-24l0 -106 -3 0c-33,-1 -60,-28 -60,-61l0 -156c0,-33 27,-60 60,-61l186 0 141 -172 10 -6 0 0 1 0 0 -1 1 0 0 0 0 0 1 -1 0 0 0 0 1 0 0 -1 1 0 0 0 0 0 1 -1 0 0 0 0 1 0 0 0 1 -1 0 0 0 0 1 0 0 -1 1 0 0 0 0 0 1 0 0 0 0 -1 1 0 0 0 0 0 1 0 0 -1 1 0 1 0 0 0 0 0 1 -1 0 0 1 0 0 0 1 0 0 0 0 0 1 -1 0 0 1 0 0 0 1 0 0 0 0 0 1 0 0 0 0 -1 1 0 0 0 1 0 1 0 0 0 0 0 0 0 1 0 0 0 0 0 1 0 1 -1 0 0 0 0 1 0 0 0 0 0 1 0 1 0 0 0 0 0 1 0 0 0 0 0 0 0 2 0 0 0 0 0 1 0 0 0 1 0 1 0 0 0 0 0 1 0 0 0 1 0 0 0 1 0 0 0 0 0 1 0 0 0 1 0 0 0 1 0 0 0 0 0 1 1 0 0 0 0 1 0 1 0 0 0 0 0 0 0 1 0 0 0 1 0 1 0 0 1 0 0 1 0 0 0 0 0 1 0 0 0 1 0 0 0 0 1 1 0 0 0 1 0 0 0 0 0 1 0 1 1 0 0 0 0 1 0 0 0 1 1 0 0 1 0 0 0 1 0 0 1 0 0 1 0 0 0 0 0 1 0 0 1 0 0 1 0 0 0 1 1 0 0 1 0 0 0 0 0 1 1 0 0 0 0 1 0 0 1 0 0 1 0 0 0 1 1 0 0 0 0 0 0 1 1 0 0 0 0 0 0c15,11 25,29 25,49l0 189 0 80 0 0 0 1 0 80 0 189c0,20 -10,37 -25,49l0 0 0 0 0 0 -1 0 0 1 0 0 0 0 -1 0 0 1 -1 0 0 0 0 0 -1 0 0 1 0 0 -1 0 0 0 0 0 -1 1 0 0 -1 0 0 1 -1 0 0 0 0 0 -1 0 0 0 0 1 -1 0 0 0 0 0 -1 0 0 0 -1 1 0 0 -1 0 0 0 -1 1 0 0 0 0 -1 0 -1 0 0 0 0 1 -1 0 0 0 -1 0 0 0 0 0 -1 0 0 0 -1 1 0 0 0 0 -1 0 0 0 0 0 -1 0 -1 0 0 0 -1 1 0 0 0 0 0 0 -1 0 -1 0 0 0 0 0 -1 0 0 0 0 0 -1 0 0 0 -1 0 0 0 -1 1 0 0 0 0 -1 0 0 0 -1 0 0 0 -1 0 0 0 0 0 -1 0 -1 0 0 0 -1 0 0 0 0 0 -2 0 0 0 0 0 0 0 -1 0 0 0 0 0 -1 -1 -1 0 0 0 0 0 -1 0 0 0 0 0 -1 0 -1 0 0 0 0 0 -1 0 0 0 0 0 0 0 -1 -1 -1 0 0 0 -1 0 0 0 0 0 -1 0 0 0 0 0 -1 -1 0 0 -1 0 0 0 -1 0 0 0 0 0 -1 0 0 -1 -1 0 0 0 -1 0 0 0 0 0 -1 -1 -1 0 0 0 -1 0 0 -1 0 0 -1 0 0 0 0 0 -1 0 0 -1 0 0 -1 0 0 0 -1 0 0 0 0 -1 -1 0 0 0 -1 -1 0 0 0 0 -1 0 0 0 0 -1 -1 0 0 0 -1 0 0 0 0 -1 -1 0 0 0 0 0 -1 -1 0 0 -1 0 0 0 -10 -7 -141 -174 -121 0z"/>
 </g>
</svg>
