<?xml version="1.0" encoding="UTF-8"?>
<!DOCTYPE svg PUBLIC "-//W3C//DTD SVG 1.1//EN" "http://www.w3.org/Graphics/SVG/1.1/DTD/svg11.dtd">
<!-- Creator: CorelDRAW X8 -->
<svg xmlns="http://www.w3.org/2000/svg" xml:space="preserve" width="2052px" height="443px" version="1.1" style="shape-rendering:geometricPrecision; text-rendering:geometricPrecision; image-rendering:optimizeQuality; fill-rule:evenodd; clip-rule:evenodd"
viewBox="0 0 2052 443"
 xmlns:xlink="http://www.w3.org/1999/xlink">
 <defs>
  <style type="text/css">
   <![CDATA[
    .fil1 {fill:#008DD2}
    .fil0 {fill:#008DD2;fill-rule:nonzero}
   ]]>
  </style>
 </defs>
 <g id="Capa_x0020_1">
  <metadata id="CorelCorpID_0Corel-Layer"/>
  <g id="_2198169171680">
   <path class="fil0" d="M727 251l78 0 -4 -13 -35 -102c-2,8 -14,42 -35,102l-4 13zm103 73l-19 -57 -90 0 -20 57 -20 0 72 -203 27 0 70 203 -20 0z"/>
   <path id="1" class="fil0" d="M886 324l0 -203 25 0 52 86 57 95c0,-21 -1,-53 -1,-95l0 -86 19 0 0 203 -26 0 -51 -86 -57 -95c0,21 0,53 0,95l0 86 -18 0z"/>
   <path id="2" class="fil0" d="M1212 247l0 -126 18 0 0 126c0,26 -6,46 -19,59 -12,13 -30,20 -53,20 -23,0 -40,-7 -53,-20 -13,-13 -19,-32 -19,-57l0 -128 19 0 0 128c0,20 5,35 14,45 10,9 23,14 39,14 36,0 54,-20 54,-61z"/>
   <path id="3" class="fil0" d="M1278 324l0 -203 26 0 52 86 57 95c0,-21 -1,-53 -1,-95l0 -86 19 0 0 203 -26 0 -51 -86 -57 -95c0,21 0,53 0,95l0 86 -19 0z"/>
   <path id="4" class="fil0" d="M1623 129l0 19c-9,-4 -17,-7 -24,-9 -7,-2 -16,-3 -28,-3 -23,0 -43,8 -58,23 -16,16 -24,37 -24,62 0,26 8,48 23,63 16,16 36,24 62,24 19,0 36,-5 49,-15l0 20c-12,9 -29,13 -50,13 -31,0 -56,-9 -75,-28 -18,-19 -28,-44 -28,-77 0,-31 10,-55 29,-74 20,-19 44,-29 73,-29 19,0 36,4 51,11z"/>
   <polygon id="5" class="fil0" points="1661,324 1661,121 1680,121 1680,324 "/>
   <path id="6" class="fil0" d="M1720 221c0,-32 8,-57 24,-76 16,-19 38,-28 65,-28 28,0 50,9 65,28 16,18 24,44 24,76 0,32 -8,58 -24,77 -16,19 -37,28 -65,28 -26,0 -48,-10 -64,-29 -17,-19 -25,-44 -25,-76zm19 0c0,27 7,48 19,64 13,15 30,23 51,23 23,0 40,-8 52,-23 12,-15 18,-37 18,-64 0,-27 -6,-48 -19,-64 -12,-15 -29,-22 -51,-22 -22,0 -39,7 -51,23 -12,15 -19,36 -19,63z"/>
   <path id="7" class="fil0" d="M2040 128l0 21c-5,-3 -11,-6 -19,-8 -8,-3 -15,-4 -23,-4 -13,0 -24,3 -32,10 -8,6 -12,14 -12,25 0,5 1,10 3,14 2,5 6,8 11,12 5,3 9,6 13,8 4,2 10,5 17,8 7,3 12,5 16,7 4,2 8,4 14,8 6,3 10,7 13,10 3,4 5,8 8,14 2,6 3,12 3,18 0,18 -6,31 -18,41 -12,9 -27,14 -45,14 -21,0 -39,-5 -53,-14l0 -20c6,4 13,8 23,11 9,3 19,5 29,5 14,0 25,-3 33,-10 8,-6 12,-15 12,-26 0,-9 -3,-16 -9,-22 -6,-6 -15,-11 -26,-16 -2,-1 -5,-2 -11,-4 -5,-3 -9,-4 -11,-5 -2,-1 -6,-3 -10,-6 -5,-2 -8,-4 -10,-6 -3,-2 -5,-4 -8,-7 -4,-3 -6,-6 -7,-9 -2,-3 -3,-7 -4,-11 -1,-4 -2,-8 -2,-13 0,-17 6,-30 18,-40 13,-9 27,-14 45,-14 17,0 31,3 42,9z"/>
   <path class="fil1" d="M0 221c0,-76 22,-130 54,-163 36,-39 99,-58 190,-58l85 0c90,0 154,19 190,58 32,33 54,87 54,163 0,76 -22,131 -54,164 -36,38 -100,58 -190,58l-85 0c-91,0 -154,-20 -190,-58 -32,-33 -54,-88 -54,-164zm399 -53c0,-6 5,-11 11,-11l6 0c6,0 11,5 11,11 0,12 0,94 0,106 0,6 -5,11 -11,11l-6 0c-6,0 -11,-5 -11,-11 0,-12 0,-94 0,-106zm-196 116l0 49c0,6 -5,11 -11,11l-7 0c-6,0 -11,-5 -11,-11l0 -49 -1 0c-15,0 -27,-13 -27,-28l0 -71c0,-15 12,-28 27,-28l85 0 64 -78 5 -3 0 0 0 0 1 -1 0 0 0 0 0 0 0 0 0 0 0 0 1 0 0 0 0 -1 0 0 0 0 0 0 1 0 0 0 0 0 0 0 0 0 1 0 0 -1 0 0 0 0 0 0 0 0 1 0 0 0 0 0 0 0 0 0 0 0 1 0 0 -1 0 0 0 0 1 0 0 0 0 0 0 0 0 0 1 0 0 0 0 0 0 0 0 0 1 -1 0 0 0 0 0 0 0 0 0 0 1 0 0 0 0 0 0 0 0 0 1 0 0 0 0 0 0 0 0 0 0 0 1 0 0 0 0 0 0 0 0 0 1 0 0 0 0 -1 0 0 0 0 1 0 0 0 0 0 0 0 0 0 1 0 0 0 0 0 0 0 0 0 1 0 0 0 0 0 0 0 1 0 0 0 0 0 0 0 0 0 0 0 1 0 0 0 0 0 0 0 1 0 0 0 0 0 0 0 0 1 1 0 0 0 0 0 0 0 0 0 0 0 1 0 0 0 0 0 0 0 1 0 0 0 0 0 0 0 0 0 0 0 1 0 0 0 0 0 0 0 0 0 1 0 0 0 0 1 0 0 0 0 0 0 1 0 0 0 0 0 0 0 1 0 0 0 0 0 0 0 0 0 1 1 0 0 0 0 0 0 0 0 0 0 1 0 0 0 0 0 0 0 0 0 0 0 1 1 0 0 0 0 0 0 0 0 1 0 0 0 0 0 0 0 0 0 0 1 1 0 0 0 0 0 0 0 0 0 0 0 0 0 1 0 0 1 0 0 0 0 0 0c7,5 11,13 11,22l0 87 0 36 0 0 0 1 0 36 0 86c0,10 -4,18 -11,23l0 0 0 0 0 0 0 0 -1 0 0 0 0 0 0 0 0 1 0 0 0 0 -1 0 0 0 0 0 0 0 0 0 0 0 -1 0 0 1 0 0 0 0 0 0 -1 0 0 0 0 0 0 0 0 0 0 0 -1 1 0 0 0 0 0 0 0 0 0 0 -1 0 0 0 0 0 0 0 0 0 -1 0 0 1 0 0 0 0 -1 0 0 0 0 0 0 0 0 0 0 0 -1 0 0 0 0 0 0 0 0 0 -1 0 0 0 0 0 0 1 0 0 0 0 -1 0 0 0 0 0 0 0 -1 0 0 0 0 0 0 0 0 0 0 0 -1 0 0 0 0 0 0 0 0 0 -1 0 0 0 0 0 0 0 -1 0 0 0 0 0 0 0 0 0 0 0 -1 0 0 0 0 0 0 0 -1 0 0 0 0 0 0 0 0 0 -1 0 0 0 0 0 0 0 0 0 -1 0 0 0 0 0 0 0 0 0 -1 0 0 0 0 0 0 0 0 0 -1 0 0 0 0 0 0 0 0 0 0 0 -1 0 0 -1 0 0 0 0 0 0 -1 0 0 0 0 0 0 0 0 0 0 0 -1 0 0 0 0 0 0 0 0 0 -1 0 0 0 0 -1 0 0 0 0 -1 0 0 0 0 0 0 0 -1 0 0 0 0 0 0 0 0 0 0 -1 -1 0 0 0 0 0 0 0 0 0 0 0 -1 0 0 0 0 0 0 -1 0 0 -1 0 0 0 0 0 0 0 0 0 0 0 -1 0 0 0 0 -1 0 0 0 0 0 0 0 0 -1 0 0 0 0 0 -5 -3 -64 -80 -55 0z"/>
  </g>
 </g>
</svg>
