<?xml version="1.0" encoding="UTF-8"?>
<!DOCTYPE svg PUBLIC "-//W3C//DTD SVG 1.1//EN" "http://www.w3.org/Graphics/SVG/1.1/DTD/svg11.dtd">
<!-- Creator: CorelDRAW X8 -->
<svg xmlns="http://www.w3.org/2000/svg" xml:space="preserve" width="1920px" height="1920px" version="1.1" shape-rendering="geometricPrecision" text-rendering="geometricPrecision" image-rendering="optimizeQuality" fill-rule="evenodd" clip-rule="evenodd"
viewBox="0 0 1920 1920"
 xmlns:xlink="http://www.w3.org/1999/xlink">
 <g id="Capa_x0020_1">
  <metadata id="CorelCorpID_0Corel-Layer"/>
  <g id="_2602357248704">
   <g>
    <path fill="#008DD2" d="M960 227c126,0 253,101 253,253 0,126 -127,253 -253,253 -152,0 -253,-127 -253,-253 0,-152 101,-253 253,-253l0 0zm0 1087c354,0 733,151 733,252l0 127 -1466 0 0 -127c0,-101 379,-252 733,-252l0 0 0 0zm0 -1314c-278,0 -480,202 -480,480 0,253 202,480 480,480 253,0 480,-227 480,-480 0,-278 -227,-480 -480,-480zm0 1086c-328,0 -960,152 -960,480l0 354 1920 0 0 -354c0,-328 -657,-480 -960,-480l0 0 0 0z"/>
   </g>
  </g>
 </g>
</svg>
