<?xml version="1.0" encoding="UTF-8"?>
<!DOCTYPE svg PUBLIC "-//W3C//DTD SVG 1.1//EN" "http://www.w3.org/Graphics/SVG/1.1/DTD/svg11.dtd">
<!-- Creator: CorelDRAW X8 -->
<svg xmlns="http://www.w3.org/2000/svg" xml:space="preserve" width="1920px" height="1920px" version="1.1" shape-rendering="geometricPrecision" text-rendering="geometricPrecision" image-rendering="optimizeQuality" fill-rule="evenodd" clip-rule="evenodd"
viewBox="0 0 1920 1920"
 xmlns:xlink="http://www.w3.org/1999/xlink">
 <g id="Capa_x0020_1">
  <metadata id="CorelCorpID_0Corel-Layer"/>
  <path fill="#008DD2" d="M1069 0l-218 0 0 1069 218 0 0 -1069zm524 240l-153 131c153,153 262,349 262,589 0,415 -327,742 -742,742 -415,0 -742,-327 -742,-742 0,-240 109,-436 262,-589l-153 -131c-196,175 -327,436 -327,720 0,524 436,960 960,960 524,0 960,-436 960,-960 0,-284 -131,-545 -327,-720l0 0z"/>
 </g>
</svg>
