<?xml version="1.0" encoding="UTF-8"?>
<!DOCTYPE svg PUBLIC "-//W3C//DTD SVG 1.1//EN" "http://www.w3.org/Graphics/SVG/1.1/DTD/svg11.dtd">
<!-- Creator: CorelDRAW X8 -->
<svg xmlns="http://www.w3.org/2000/svg" xml:space="preserve" width="1920px" height="1920px" version="1.1" shape-rendering="geometricPrecision" text-rendering="geometricPrecision" image-rendering="optimizeQuality" fill-rule="evenodd" clip-rule="evenodd"
viewBox="0 0 1920 1920"
 xmlns:xlink="http://www.w3.org/1999/xlink">
 <g id="Capa_x0020_1">
  <metadata id="CorelCorpID_0Corel-Layer"/>
  <g id="_2602377472240">
   <path fill="#008DD2" d="M960 0c-529,0 -960,431 -960,960 0,529 431,960 960,960 529,0 960,-431 960,-960 0,-529 -431,-960 -960,-960zm0 1725c-417,0 -765,-334 -765,-765 0,-417 348,-765 765,-765 431,0 765,348 765,765 0,431 -334,765 -765,765z"/>
   <path fill="#008DD2" d="M1127 974c0,-97 -70,-167 -167,-167 -83,0 -167,70 -167,167 0,83 84,167 167,167 97,0 167,-84 167,-167zm-320 -515l-97 98 -153 0c-56,0 -112,55 -112,111l0 612c0,56 56,97 112,97l820 0c56,0 98,-41 98,-97l0 -612c0,-56 -42,-111 -98,-111l-167 0 -97 -98 -306 0 0 0zm153 765c-139,0 -250,-111 -250,-250 0,-139 111,-264 250,-264 139,0 264,125 264,264 0,139 -125,250 -264,250z"/>
  </g>
 </g>
</svg>
