<?xml version="1.0" encoding="UTF-8"?>
<!DOCTYPE svg PUBLIC "-//W3C//DTD SVG 1.1//EN" "http://www.w3.org/Graphics/SVG/1.1/DTD/svg11.dtd">
<!-- Creator: CorelDRAW X8 -->
<svg xmlns="http://www.w3.org/2000/svg" xml:space="preserve" width="1920px" height="1920px" version="1.1" shape-rendering="geometricPrecision" text-rendering="geometricPrecision" image-rendering="optimizeQuality" fill-rule="evenodd" clip-rule="evenodd"
viewBox="0 0 1920 1920"
 xmlns:xlink="http://www.w3.org/1999/xlink">
 <g id="Capa_x0020_1">
  <metadata id="CorelCorpID_0Corel-Layer"/>
  <g id="_2602357249696">
   <circle fill="white" cx="960" cy="960" r="881"/>
   <path fill="#008DD2" d="M960 0c-532,0 -960,428 -960,960 0,532 428,960 960,960 532,0 960,-428 960,-960 0,-532 -428,-960 -960,-960zm0 1728c-419,0 -768,-340 -768,-768 0,-419 349,-768 768,-768 428,0 768,349 768,768 0,428 -340,768 -768,768z"/>
   <path fill="#008DD2" d="M1126 969c0,-88 -70,-166 -166,-166 -87,0 -166,78 -166,166 0,87 79,166 166,166 96,0 166,-79 166,-166zm-314 -515l-96 105 -166 0c-53,0 -105,43 -105,104l0 611c0,61 52,105 105,105l820 0c61,0 105,-44 105,-105l0 -611c0,-61 -44,-104 -105,-104l-157 0 -96 -105 -305 0 0 0zm148 768c-140,0 -253,-114 -253,-253 0,-140 113,-253 253,-253 140,0 262,113 262,253 0,139 -122,253 -262,253z"/>
  </g>
 </g>
</svg>
