<?xml version="1.0" encoding="UTF-8"?>
<!DOCTYPE svg PUBLIC "-//W3C//DTD SVG 1.1//EN" "http://www.w3.org/Graphics/SVG/1.1/DTD/svg11.dtd">
<!-- Creator: CorelDRAW X8 -->
<svg xmlns="http://www.w3.org/2000/svg" xml:space="preserve" width="1920px" height="1920px" version="1.1" shape-rendering="geometricPrecision" text-rendering="geometricPrecision" image-rendering="optimizeQuality" fill-rule="evenodd" clip-rule="evenodd"
viewBox="0 0 1920 1920"
 xmlns:xlink="http://www.w3.org/1999/xlink">
 <g id="Capa_x0020_1">
  <metadata id="CorelCorpID_0Corel-Layer"/>
  <path fill="#008DD2" d="M522 875l-522 0 0 170 522 0 0 -170 0 0zm198 -282l-198 -184 -113 113 184 198 127 -127 0 0zm325 -593l-170 0 0 522 170 0 0 -522zm480 522l-127 -113 -184 184 113 127 198 -198 0 0zm-127 353l0 170 522 0 0 -170 -522 0zm-438 -169c-141,0 -254,113 -254,254 0,141 113,268 254,268 141,0 268,-127 268,-268 0,-141 -127,-254 -268,-254zm254 621l184 198 127 -127 -198 -184 -113 113 0 0zm-805 71l113 127 198 -198 -127 -113 -184 184 0 0zm466 522l170 0 0 -522 -170 0 0 522z"/>
 </g>
</svg>
