<?xml version="1.0" encoding="UTF-8"?>
<!DOCTYPE svg PUBLIC "-//W3C//DTD SVG 1.1//EN" "http://www.w3.org/Graphics/SVG/1.1/DTD/svg11.dtd">
<!-- Creator: CorelDRAW X8 -->
<svg xmlns="http://www.w3.org/2000/svg" xml:space="preserve" width="1920px" height="1920px" version="1.1" shape-rendering="geometricPrecision" text-rendering="geometricPrecision" image-rendering="optimizeQuality" fill-rule="evenodd" clip-rule="evenodd"
viewBox="0 0 1920 1920"
 xmlns:xlink="http://www.w3.org/1999/xlink">
 <g id="Capa_x0020_1">
  <metadata id="CorelCorpID_0Corel-Layer"/>
  <path fill="#008DD2" d="M960 0c-530,0 -960,430 -960,960 0,530 430,960 960,960 530,0 960,-430 960,-960 0,-530 -430,-960 -960,-960zm0 1728c-424,0 -768,-344 -768,-768 0,-424 344,-768 768,-768 424,0 768,344 768,768 0,424 -344,768 -768,768z"/>
  <path fill="#008DD2" d="M1252 574c121,0 218,98 218,218 0,120 -97,217 -218,217 -120,0 -217,-97 -217,-217 0,-120 97,-218 217,-218z"/>
  <path fill="#008DD2" d="M1317 584c247,77 256,565 -80,842l-131 -131c107,-90 171,-194 194,-291l17 -420z"/>
  <path fill="#008DD2" d="M641 574c120,0 217,98 217,218 0,120 -97,217 -217,217 -120,0 -218,-97 -218,-217 0,-120 98,-218 218,-218z"/>
  <path fill="#008DD2" d="M705 584c248,77 257,565 -80,842l-131 -131c108,-90 172,-194 195,-291l16 -420z"/>
 </g>
</svg>
