<?xml version="1.0" encoding="UTF-8"?>
<!DOCTYPE svg PUBLIC "-//W3C//DTD SVG 1.1//EN" "http://www.w3.org/Graphics/SVG/1.1/DTD/svg11.dtd">
<!-- Creator: CorelDRAW X8 -->
<svg xmlns="http://www.w3.org/2000/svg" xml:space="preserve" width="1920px" height="1920px" version="1.1" shape-rendering="geometricPrecision" text-rendering="geometricPrecision" image-rendering="optimizeQuality" fill-rule="evenodd" clip-rule="evenodd"
viewBox="0 0 1920 1920"
 xmlns:xlink="http://www.w3.org/1999/xlink">
 <g id="Capa_x0020_1">
  <metadata id="CorelCorpID_0Corel-Layer"/>
  <path fill="#008DD2" d="M1707 0l-642 0c-118,0 -213,95 -213,213l0 214 213 0 0 -214 642 0 0 1494 -642 0 0 -214 -213 0 0 214c0,118 95,213 213,213l642 0c118,0 213,-95 213,-213l0 -1494c0,-118 -95,-213 -213,-213z"/>
  <polygon fill="#008DD2" points="684,1342 533,1493 0,960 533,427 684,578 409,853 1440,853 1440,1067 409,1067 "/>
 </g>
</svg>
