<?xml version="1.0" encoding="UTF-8"?>
<!DOCTYPE svg PUBLIC "-//W3C//DTD SVG 1.1//EN" "http://www.w3.org/Graphics/SVG/1.1/DTD/svg11.dtd">
<!-- Creator: CorelDRAW X8 -->
<svg xmlns="http://www.w3.org/2000/svg" xml:space="preserve" width="1633px" height="443px" version="1.1" style="shape-rendering:geometricPrecision; text-rendering:geometricPrecision; image-rendering:optimizeQuality; fill-rule:evenodd; clip-rule:evenodd"
viewBox="0 0 1633 442"
 xmlns:xlink="http://www.w3.org/1999/xlink">
 <defs>
  <style type="text/css">
   <![CDATA[
    .fil0 {fill:#008DD2}
    .fil1 {fill:#008DD2;fill-rule:nonzero}
   ]]>
  </style>
 </defs>
 <g id="Capa_x0020_1">
  <metadata id="CorelCorpID_0Corel-Layer"/>
  <g id="_2233301003408">
   <path class="fil0" d="M0 221c0,-76 22,-130 54,-163 36,-39 99,-58 190,-58l85 0c90,0 154,19 190,58 31,33 54,87 54,163 0,76 -23,131 -54,164 -36,38 -100,57 -190,57l-85 0c-91,0 -154,-19 -190,-57 -32,-33 -54,-88 -54,-164zm173 -122l49 0 0 -29 129 0 0 29 48 0 1 0 0 0c15,0 27,13 27,28l0 34 -194 0c-6,0 -11,5 -11,12l0 6c0,6 5,11 11,11l142 0 24 0c16,0 28,12 28,28l0 26 0 72c0,15 -12,27 -27,28l0 0 -1 0 -48 0 0 28 -129 0 0 -28 -49 0 0 0 0 0c-15,-1 -27,-13 -27,-28l0 -35 194 0c6,0 11,-5 11,-11l0 -6c0,-6 -5,-11 -11,-11l-142 0 -25 0c-15,0 -27,-13 -27,-28l0 -27 0 -71c0,-15 12,-28 27,-28l0 0 0 0z"/>
   <polygon class="fil1" points="721,306 812,306 812,324 702,324 702,121 810,121 810,138 721,138 721,214 800,214 800,231 721,231 "/>
   <path id="1" class="fil1" d="M850 324l0 -203 25 0 52 86 57 95c0,-21 0,-53 0,-95l0 -86 18 0 0 203 -25 0 -52 -86 -57 -95c0,21 1,53 1,95l0 86 -19 0z"/>
   <polygon id="2" class="fil1" points="1204,121 1133,324 1107,324 1039,121 1059,121 1085,201 1120,307 1156,201 1184,121 "/>
   <path id="3" class="fil1" d="M1242 324l0 -203 19 0 0 203 -19 0zm2 -220l31 -45 24 0 -38 45 -17 0z"/>
   <path id="4" class="fil1" d="M1301 221c0,-32 8,-57 24,-76 16,-19 38,-28 65,-28 28,0 50,9 65,28 16,18 24,44 24,76 0,32 -8,58 -24,77 -16,19 -37,28 -64,28 -27,0 -49,-10 -65,-29 -17,-19 -25,-44 -25,-76zm19 0c0,27 7,48 20,64 12,15 29,23 51,23 22,0 39,-8 51,-23 12,-15 18,-37 18,-64 0,-27 -6,-48 -18,-64 -13,-15 -30,-22 -52,-22 -22,0 -39,7 -51,23 -12,15 -19,36 -19,63z"/>
   <path id="5" class="fil1" d="M1621 128l0 21c-5,-3 -11,-6 -19,-8 -8,-3 -15,-4 -23,-4 -13,0 -24,3 -32,10 -8,6 -12,14 -12,25 0,5 1,10 3,14 2,5 6,8 11,12 5,3 9,6 13,8 4,2 10,5 17,8 7,3 12,5 16,7 4,2 8,4 14,8 6,3 10,7 13,10 3,4 5,8 8,14 2,6 3,12 3,18 0,18 -6,31 -18,41 -12,9 -27,14 -45,14 -21,0 -39,-5 -53,-14l0 -20c6,4 13,8 23,11 9,3 19,5 29,5 14,0 25,-4 33,-10 8,-6 12,-15 12,-27 0,-8 -3,-16 -9,-21 -6,-6 -15,-11 -26,-16 -2,-1 -5,-2 -11,-4 -5,-3 -9,-4 -11,-5 -2,-1 -6,-3 -10,-6 -5,-2 -8,-4 -10,-6 -3,-2 -5,-4 -8,-7 -4,-3 -6,-6 -7,-9 -2,-3 -3,-7 -4,-11 -1,-4 -2,-8 -2,-13 0,-17 6,-30 18,-40 13,-9 27,-14 45,-14 17,0 31,3 42,9z"/>
  </g>
 </g>
</svg>
