<?xml version="1.0" encoding="UTF-8"?>
<!DOCTYPE svg PUBLIC "-//W3C//DTD SVG 1.1//EN" "http://www.w3.org/Graphics/SVG/1.1/DTD/svg11.dtd">
<!-- Creator: CorelDRAW X8 -->
<svg xmlns="http://www.w3.org/2000/svg" xml:space="preserve" width="1488px" height="1563px" version="1.1" style="shape-rendering:geometricPrecision; text-rendering:geometricPrecision; image-rendering:optimizeQuality; fill-rule:evenodd; clip-rule:evenodd"
viewBox="0 0 1488 1563"
 xmlns:xlink="http://www.w3.org/1999/xlink">
 <defs>
  <style type="text/css">
   <![CDATA[
    .fil1 {fill:#008DD2}
    .fil0 {fill:#008DD2;fill-rule:nonzero}
   ]]>
  </style>
 </defs>
 <g id="Capa_x0020_1">
  <metadata id="CorelCorpID_0Corel-Layer"/>
  <polygon class="fil0" points="30,1532 176,1532 176,1559 0,1559 0,1235 173,1235 173,1262 30,1262 30,1384 156,1384 156,1411 30,1411 "/>
  <path id="1" class="fil0" d="M236 1559l0 -324 41 0 82 137 92 152c-1,-33 -1,-84 -1,-151l0 -138 30 0 0 324 -41 0 -83 -136 -91 -153c0,35 1,85 1,152l0 137 -30 0z"/>
  <polygon id="2" class="fil0" points="802,1235 688,1559 648,1559 537,1235 570,1235 612,1363 668,1533 726,1363 770,1235 "/>
  <path id="3" class="fil0" d="M863 1559l0 -324 29 0 0 324 -29 0zm3 -350l50 -73 38 0 -61 73 -27 0z"/>
  <path id="4" class="fil0" d="M957 1396c0,-51 13,-92 39,-122 25,-31 60,-46 103,-46 45,0 80,15 105,45 25,30 38,71 38,123 0,51 -13,92 -38,122 -26,30 -60,45 -104,45 -43,0 -77,-15 -103,-46 -27,-30 -40,-71 -40,-121zm31 0c0,42 10,76 31,101 20,25 47,37 81,37 36,0 63,-12 82,-37 19,-24 29,-58 29,-101 0,-44 -10,-78 -29,-102 -20,-25 -47,-37 -83,-37 -34,0 -62,12 -81,37 -20,24 -30,58 -30,102z"/>
  <path id="5" class="fil0" d="M1469 1247l0 33c-7,-5 -18,-10 -30,-13 -13,-4 -25,-6 -37,-6 -21,0 -38,6 -51,16 -13,10 -19,23 -19,40 0,8 1,16 5,23 3,7 9,13 17,18 8,6 15,10 21,13 6,3 15,8 27,13 11,4 20,8 25,11 6,3 14,7 23,13 8,5 15,11 20,17 5,5 9,13 12,21 4,9 6,19 6,30 0,28 -9,49 -28,64 -19,15 -44,23 -73,23 -33,0 -62,-7 -85,-22l0 -33c9,8 22,14 37,19 15,4 31,7 47,7 22,0 40,-5 53,-15 12,-10 19,-24 19,-43 0,-14 -5,-26 -15,-34 -9,-9 -23,-18 -42,-26 -2,-1 -8,-3 -16,-7 -9,-4 -15,-6 -19,-8 -3,-2 -9,-4 -16,-8 -7,-4 -13,-7 -16,-10 -4,-3 -8,-7 -13,-12 -5,-5 -9,-9 -11,-14 -2,-5 -4,-11 -6,-17 -2,-7 -3,-14 -3,-21 0,-28 10,-49 29,-64 20,-15 44,-23 72,-23 27,0 49,5 67,15z"/>
  <path class="fil1" d="M117 484c0,-166 49,-285 117,-357 80,-85 219,-127 417,-127l186 0c198,0 337,42 417,127 68,72 117,191 117,357 0,167 -49,286 -117,358 -80,85 -219,127 -417,127l-186 0c-198,0 -337,-42 -417,-127 -68,-72 -117,-191 -117,-358zm380 -268l106 0 0 -62 282 0 0 62 106 0 2 0 0 0c33,1 59,28 59,61l0 76 -424 0c-14,0 -25,11 -25,25l0 13c0,14 11,25 25,25l310 0 53 0c34,0 61,27 61,61l0 58 0 157c0,33 -26,60 -59,61l0 0 -2 0 -106 0 0 62 -282 0 0 -62 -106 0 -2 0 0 0c-33,-1 -59,-28 -59,-61l0 -76 424 0c14,0 25,-11 25,-25l0 -13c0,-14 -11,-25 -25,-25l-310 0 -53 0c-34,0 -61,-27 -61,-61l0 -58 0 -157c0,-33 26,-60 59,-61l0 0 2 0z"/>
 </g>
</svg>
