<?xml version="1.0" encoding="UTF-8"?>
<!DOCTYPE svg PUBLIC "-//W3C//DTD SVG 1.1//EN" "http://www.w3.org/Graphics/SVG/1.1/DTD/svg11.dtd">
<!-- Creator: CorelDRAW X8 -->
<svg xmlns="http://www.w3.org/2000/svg" xml:space="preserve" width="1829px" height="1563px" version="1.1" style="shape-rendering:geometricPrecision; text-rendering:geometricPrecision; image-rendering:optimizeQuality; fill-rule:evenodd; clip-rule:evenodd"
viewBox="0 0 1829 1563"
 xmlns:xlink="http://www.w3.org/1999/xlink">
 <defs>
  <style type="text/css">
   <![CDATA[
    .fil1 {fill:#008DD2}
    .fil0 {fill:#008DD2;fill-rule:nonzero}
   ]]>
  </style>
 </defs>
 <g id="Capa_x0020_1">
  <metadata id="CorelCorpID_0Corel-Layer"/>
  <path class="fil0" d="M244 1248l0 31c-14,-8 -27,-13 -38,-16 -11,-3 -26,-4 -45,-4 -37,0 -68,12 -93,37 -25,26 -37,58 -37,99 0,42 12,76 37,101 24,26 57,38 97,38 32,0 59,-8 80,-25l0 33c-20,14 -47,21 -81,21 -49,0 -89,-15 -119,-45 -30,-30 -45,-71 -45,-123 0,-49 16,-89 47,-119 31,-30 69,-46 115,-46 32,0 59,6 82,18z"/>
  <path id="1" class="fil0" d="M288 1395c0,-51 13,-91 38,-122 26,-30 60,-45 104,-45 45,0 80,15 105,45 25,30 37,71 37,122 0,52 -12,92 -38,122 -25,31 -59,46 -103,46 -43,0 -78,-16 -104,-46 -26,-31 -39,-71 -39,-122zm31 0c0,43 10,77 30,101 21,25 48,38 82,38 35,0 62,-13 82,-37 19,-25 29,-58 29,-102 0,-43 -10,-77 -30,-102 -19,-24 -46,-36 -82,-36 -35,0 -62,12 -82,37 -19,24 -29,58 -29,101z"/>
  <path id="2" class="fil0" d="M632 1559l23 -324 41 0 42 118 57 165c23,-61 43,-116 61,-165l44 -118 41 0 28 324 -30 0 -11 -129 -13 -156c-19,53 -39,105 -57,156l-45 121 -35 0 -43 -121 -54 -153c-2,48 -6,99 -10,153l-9 129 -30 0z"/>
  <path id="3" class="fil0" d="M1072 1532l83 0c21,0 37,-5 49,-15 12,-11 18,-26 18,-45 0,-20 -7,-36 -20,-47 -14,-11 -32,-17 -56,-17l-74 0 0 124zm0 -271l0 121 59 0c28,0 48,-6 61,-18 13,-12 20,-28 20,-46 0,-16 -6,-30 -19,-41 -13,-10 -32,-16 -57,-16l-64 0zm-29 -26l90 0c33,0 59,7 80,22 20,15 30,35 30,62 0,19 -5,35 -16,49 -11,14 -24,22 -41,26 18,2 34,10 47,23 13,14 20,32 20,56 0,26 -9,46 -25,62 -17,16 -41,24 -73,24l-112 0 0 -324z"/>
  <path id="4" class="fil0" d="M1299 1395c0,-51 12,-91 38,-122 25,-30 60,-45 103,-45 45,0 80,15 105,45 25,30 38,71 38,122 0,52 -13,92 -38,122 -26,31 -60,46 -104,46 -43,0 -77,-16 -103,-46 -26,-31 -39,-71 -39,-122zm30 0c0,43 10,77 31,101 20,25 47,38 81,38 36,0 63,-13 82,-37 19,-25 29,-58 29,-102 0,-43 -10,-77 -29,-102 -20,-24 -47,-36 -83,-36 -34,0 -61,12 -81,37 -20,24 -30,58 -30,101z"/>
  <path id="5" class="fil0" d="M1810 1246l0 33c-7,-5 -18,-9 -30,-13 -13,-3 -25,-5 -37,-5 -21,0 -38,5 -51,15 -13,10 -19,24 -19,40 0,9 1,17 5,23 3,7 9,13 17,19 8,6 15,10 21,13 6,3 15,7 27,12 11,5 20,9 25,12 6,2 14,6 23,12 9,6 15,12 20,17 5,6 9,13 12,22 4,9 6,18 6,29 0,28 -9,50 -28,65 -19,15 -43,22 -73,22 -33,0 -62,-7 -85,-21l0 -33c9,7 22,13 37,18 15,5 31,7 47,7 22,0 40,-5 53,-15 12,-10 19,-24 19,-42 0,-15 -5,-26 -15,-35 -9,-9 -23,-17 -42,-25 -2,-1 -8,-4 -16,-8 -9,-3 -15,-6 -19,-7 -3,-2 -9,-5 -16,-9 -7,-3 -13,-7 -16,-10 -4,-3 -8,-6 -13,-11 -5,-5 -9,-10 -11,-15 -2,-5 -4,-10 -6,-17 -2,-6 -3,-13 -3,-21 0,-27 10,-48 29,-63 20,-16 44,-23 72,-23 27,0 49,5 67,14z"/>
  <path class="fil1" d="M288 484c0,-166 49,-285 117,-357 79,-85 218,-127 417,-127l185 0c199,0 338,42 417,127 68,72 117,191 117,357 0,167 -48,286 -117,358 -79,84 -218,127 -417,127l-185 0c-199,0 -338,-43 -417,-127 -68,-72 -117,-191 -117,-358zm443 206c35,0 63,28 63,62 0,35 -28,63 -63,63 -34,0 -62,-28 -62,-63 0,-34 28,-62 62,-62l-38 0 -14 0 0 0 -12 0 -1 0 0 0c-5,0 -9,-1 -13,-2l0 0 -1 0 -1 0 -1 0 -1 -1c0,0 -1,0 -2,-1l0 0 0 0 -1 0 0 0 -1 0 -1 0 -1 -1 0 0 -1 0 0 0 -1 -1 0 0 -1 -1 0 0 -1 0 0 0 -1 -1 0 0 -1 0 -1 -1 -1 0 0 -1 -1 0 0 0 -1 0 -1 -1 0 0 0 0 -1 -1 0 0 -1 -1 0 0 -1 0 0 -1 -1 0 0 -1 -1 0 0 0 -1 -1 0 0 0 0 -2 -2 0 0 0 0 -1 -1 -1 -1 0 0c0,0 -1,-1 -1,-2l0 0 -1 0 0 -1 0 0 -1 -1 0 0 -1 0 0 -1 0 -1 0 0c-1,-1 -2,-2 -3,-4l0 0c-6,-9 -9,-20 -9,-31l0 -38 0 -82 0 0 0 0 0 -232 0 -61 -38 0c-13,0 -24,-11 -24,-24l0 -14c0,-13 11,-24 24,-24l63 0 13 0 0 0 1 0 0 0 0 0 0 0 1 0 0 0 1 0 0 0 0 0 1 0 0 0 1 0 0 0 0 0 1 0 0 0 0 0 1 1 0 0 0 0 1 0 0 0 1 0 0 0 1 1 0 0 1 0 0 0 0 0 1 1 0 0 0 0 0 0 1 0 0 1 1 0 0 0 1 1 0 0 1 0 0 1 1 0 0 0 0 1 1 0 0 1 1 0 0 0 0 1 0 0 1 1 0 0 0 1 1 0 0 1 0 0 1 1 0 0 0 1 1 0 0 1 0 0 0 1 0 0 1 1 0 1 0 0 0 1 0 0 0 1 0 0 0 1 1 1 0 0 0 1 0 1 0 0 0 14 0 24c160,-1 335,0 493,0l1 0 0 0c33,1 60,28 60,61l0 227c0,33 -27,60 -60,61l0 0 -1 0 -445 0 -24 0c-13,0 -24,11 -24,24l0 2 0 12c0,13 11,24 24,24l24 0 481 0c14,0 25,11 25,25l0 13c0,14 -11,25 -25,25l-100 0c34,0 62,28 62,62 0,35 -28,63 -62,63 -35,0 -63,-28 -63,-63 0,-34 28,-62 63,-62l-367 0z"/>
 </g>
</svg>
