<?xml version="1.0" encoding="UTF-8"?>
<!DOCTYPE svg PUBLIC "-//W3C//DTD SVG 1.1//EN" "http://www.w3.org/Graphics/SVG/1.1/DTD/svg11.dtd">
<!-- Creator: CorelDRAW X8 -->
<svg xmlns="http://www.w3.org/2000/svg" xml:space="preserve" width="1829px" height="443px" version="1.1" style="shape-rendering:geometricPrecision; text-rendering:geometricPrecision; image-rendering:optimizeQuality; fill-rule:evenodd; clip-rule:evenodd"
viewBox="0 0 1829 443"
 xmlns:xlink="http://www.w3.org/1999/xlink">
 <defs>
  <style type="text/css">
   <![CDATA[
    .fil0 {fill:#008DD2}
    .fil1 {fill:#008DD2;fill-rule:nonzero}
   ]]>
  </style>
 </defs>
 <g id="Capa_x0020_1">
  <metadata id="CorelCorpID_0Corel-Layer"/>
  <g id="_2233301009296">
   <path class="fil0" d="M0 221c0,-76 22,-130 54,-163 36,-39 99,-58 190,-58l85 0c90,0 154,19 190,58 31,33 54,87 54,163 0,76 -23,131 -54,164 -36,38 -100,58 -190,58l-85 0c-91,0 -154,-20 -190,-58 -32,-33 -54,-88 -54,-164zm203 94c15,0 28,13 28,29 0,16 -13,28 -28,28 -16,0 -29,-12 -29,-28 0,-16 13,-29 29,-29l-18 0 -6 0 0 0 -6 0 0 0 0 0c-2,0 -4,0 -6,-1l0 0 -1 0 0 0 0 0 -1 0c0,0 0,0 -1,0l0 0 0 0 0 -1 0 0 -1 0 0 0 0 0 0 0 -1 0 0 0 0 -1 -1 0 0 0 0 0 -1 0 0 0 0 0 0 0 -1 -1 0 0 0 0 0 0 -1 0 0 0 0 -1 0 0 0 0 -1 0 0 0 0 0 0 -1 -1 0 0 0 0 0 0 0 -1 -1 0 0 0 0 0 0 0 0 0 0 -1 -1 0 0 0 0 -1 0 0 -1 0 0c0,0 -1,0 -1,-1l0 0 0 0 0 0 0 0 0 -1 -1 0 0 0 0 0 0 0 0 0c-1,-1 -1,-2 -1,-2l0 0c-3,-5 -4,-9 -4,-15l0 -17 0 -38 0 0 0 0 0 -105 0 -28 -18 0c-6,0 -11,-5 -11,-11l0 -7c0,-6 5,-11 11,-11l29 0 6 0 0 0 0 0 0 0 1 0 0 0 0 0 0 0 0 0 0 0 0 0 1 0 0 0 0 0 0 0 0 0 0 1 1 0 0 0 0 0 0 0 0 0 1 0 0 0 0 0 0 0 0 0 1 0 0 0 0 0 0 0 0 1 0 0 1 0 0 0 0 0 0 0 0 0 0 0 1 0 0 1 0 0 0 0 0 0 1 0 0 1 0 0 0 0 0 0 0 0 1 0 0 1 0 0 0 0 0 0 0 0 1 1 0 0 0 0 0 0 0 1 0 0 0 0 0 0 0 1 1 0 0 0 0 0 0 1 0 0 0 0 0 0 0 1 0 0 0 0 0 1 0 0 0 0 0 0 0 7 0 11c73,-1 153,0 225,0l1 0 0 0c15,0 27,13 27,28l0 103c0,15 -12,28 -27,28l0 0 -1 0 -203 0 -11 0c-6,0 -11,5 -11,11l0 1 0 5c0,7 5,12 11,12l11 0 220 0c6,0 11,5 11,11l0 6c0,6 -5,11 -11,11l-46 0c16,0 29,13 29,29 0,16 -13,28 -29,28 -16,0 -28,-12 -28,-28 0,-16 12,-29 28,-29l-167 0z"/>
   <path class="fil1" d="M837 129l0 19c-8,-4 -16,-7 -23,-9 -7,-2 -16,-3 -28,-3 -24,0 -43,8 -59,23 -15,16 -23,37 -23,62 0,26 8,48 23,63 15,16 36,24 61,24 20,0 37,-5 50,-15l0 20c-12,9 -29,13 -51,13 -30,0 -55,-9 -74,-28 -19,-19 -28,-44 -28,-77 0,-31 10,-55 29,-74 19,-19 44,-29 72,-29 20,0 37,4 51,11z"/>
   <path id="1" class="fil1" d="M865 221c0,-32 8,-57 24,-76 16,-19 38,-28 65,-28 28,0 50,9 65,28 16,18 24,44 24,76 0,32 -8,58 -24,77 -16,19 -37,28 -65,28 -26,0 -48,-10 -64,-29 -17,-19 -25,-44 -25,-76zm19 0c0,27 7,48 19,64 13,15 30,23 51,23 22,0 39,-8 52,-23 12,-15 18,-37 18,-64 0,-27 -6,-48 -19,-64 -12,-15 -29,-22 -51,-22 -22,0 -39,7 -51,23 -13,15 -19,36 -19,63z"/>
   <path id="2" class="fil1" d="M1080 324l15 -203 25 0 27 74 35 103c14,-38 27,-72 38,-103l28 -74 26 0 17 203 -19 0 -7 -81 -8 -98c-12,34 -24,66 -36,98l-28 75 -22 0 -26 -75 -34 -96c-2,31 -4,63 -6,96l-6 81 -19 0z"/>
   <path id="3" class="fil1" d="M1356 307l51 0c14,0 24,-3 31,-10 7,-6 11,-16 11,-28 0,-13 -4,-22 -12,-29 -9,-7 -20,-11 -35,-11l-46 0 0 78zm0 -170l0 76 36 0c18,0 30,-4 39,-11 8,-8 12,-18 12,-29 0,-10 -4,-19 -12,-25 -8,-7 -20,-11 -35,-11l-40 0zm-19 -16l57 0c20,0 37,4 49,14 13,9 20,22 20,38 0,12 -4,23 -11,31 -6,9 -15,14 -26,16 12,2 22,7 30,15 8,9 13,20 13,35 0,16 -6,29 -16,39 -11,10 -26,15 -46,15l-70 0 0 -203z"/>
   <path id="4" class="fil1" d="M1497 221c0,-32 8,-57 24,-76 16,-19 38,-28 65,-28 28,0 50,9 65,28 16,18 24,44 24,76 0,32 -8,58 -24,77 -16,19 -37,28 -64,28 -27,0 -49,-10 -65,-29 -17,-19 -25,-44 -25,-76zm19 0c0,27 7,48 20,64 12,15 29,23 51,23 22,0 39,-8 51,-23 12,-15 18,-37 18,-64 0,-27 -6,-48 -18,-64 -13,-15 -30,-22 -52,-22 -22,0 -39,7 -51,23 -12,15 -19,36 -19,63z"/>
   <path id="5" class="fil1" d="M1817 128l0 21c-5,-3 -11,-6 -19,-8 -8,-3 -15,-4 -23,-4 -13,0 -24,3 -32,10 -8,6 -12,14 -12,25 0,5 1,10 3,14 2,5 6,8 11,12 5,3 9,6 13,8 4,2 10,5 17,8 7,3 12,5 16,7 4,2 8,4 14,8 6,3 10,7 13,10 3,4 5,8 8,14 2,6 3,12 3,18 0,18 -6,31 -18,41 -12,9 -27,14 -45,14 -21,0 -39,-5 -53,-14l0 -20c6,4 13,8 23,11 9,3 19,5 29,5 14,0 25,-4 33,-10 8,-6 12,-15 12,-26 0,-9 -3,-16 -9,-22 -6,-6 -15,-11 -26,-16 -2,-1 -5,-2 -11,-4 -5,-3 -9,-4 -11,-5 -2,-1 -6,-3 -10,-6 -5,-2 -8,-4 -10,-6 -3,-2 -5,-4 -8,-7 -4,-3 -6,-6 -7,-9 -2,-3 -3,-7 -4,-11 -1,-4 -2,-8 -2,-13 0,-17 6,-30 18,-40 13,-9 27,-14 45,-14 17,0 31,3 42,9z"/>
  </g>
 </g>
</svg>
