<?xml version="1.0" encoding="UTF-8"?>
<!DOCTYPE svg PUBLIC "-//W3C//DTD SVG 1.1//EN" "http://www.w3.org/Graphics/SVG/1.1/DTD/svg11.dtd">
<!-- Creator: CorelDRAW X8 -->
<svg xmlns="http://www.w3.org/2000/svg" xml:space="preserve" width="1914px" height="835px" version="1.1" style="shape-rendering:geometricPrecision; text-rendering:geometricPrecision; image-rendering:optimizeQuality; fill-rule:evenodd; clip-rule:evenodd"
viewBox="0 0 1914 835"
 xmlns:xlink="http://www.w3.org/1999/xlink">
 <defs>
  <style type="text/css">
   <![CDATA[
    .fil1 {fill:#008DD2;fill-rule:nonzero}
    .fil2 {fill:#51B8E9;fill-rule:nonzero}
    .fil0 {fill:#A2D9F7;fill-rule:nonzero}
   ]]>
  </style>
 </defs>
 <g id="Capa_x0020_1">
  <metadata id="CorelCorpID_0Corel-Layer"/>
  <path class="fil0" d="M0 829l0 -513 261 0c72,0 123,15 152,46 29,30 44,83 44,159l0 103c0,76 -15,129 -44,159 -29,31 -80,46 -152,46l-261 0zm137 -115l103 0c31,0 52,-5 62,-16 10,-12 15,-39 15,-83l0 -84c0,-44 -5,-72 -15,-83 -10,-12 -31,-18 -62,-18l-103 0 0 284zm408 115l0 -513 385 0 0 114 -248 0 0 89 241 0 0 99 -241 0 0 96 254 0 0 115 -391 0z"/>
  <path class="fil1" d="M1456 658c0,-61 18,-104 43,-130 29,-31 80,-47 152,-47l68 0c72,0 123,16 152,47 25,26 43,69 43,130 0,61 -18,104 -43,131 -29,31 -80,46 -152,46l-68 0c-72,0 -123,-15 -152,-46 -25,-27 -43,-70 -43,-131zm216 -56c-31,0 -52,6 -62,17 -6,7 -12,20 -12,39 0,20 6,33 12,40 10,11 31,16 62,16l26 0c31,0 52,-5 62,-16 6,-7 12,-20 12,-40 0,-19 -6,-32 -12,-39 -10,-11 -31,-17 -62,-17l-26 0z"/>
  <polygon class="fil1" points="1130,829 1130,430 998,430 998,316 1400,316 1400,430 1269,430 1269,829 "/>
  <polygon class="fil1" points="1616,430 1484,430 1484,316 1886,316 1886,430 1755,430 "/>
  <polygon class="fil2" points="1616,272 1484,272 1484,158 1886,158 1886,272 1755,272 "/>
  <polygon class="fil0" points="1616,114 1484,114 1484,0 1886,0 1886,114 1755,114 "/>
 </g>
</svg>
