<?xml version="1.0" encoding="UTF-8"?>
<!DOCTYPE svg PUBLIC "-//W3C//DTD SVG 1.1//EN" "http://www.w3.org/Graphics/SVG/1.1/DTD/svg11.dtd">
<!-- Creator: CorelDRAW X8 -->
<svg xmlns="http://www.w3.org/2000/svg" xml:space="preserve" width="1539px" height="332px" version="1.1" shape-rendering="geometricPrecision" text-rendering="geometricPrecision" image-rendering="optimizeQuality" fill-rule="evenodd" clip-rule="evenodd"
viewBox="0 0 1517 327"
 xmlns:xlink="http://www.w3.org/1999/xlink">
 <g id="Capa_x0020_1">
  <metadata id="CorelCorpID_0Corel-Layer"/>
  <g id="_3113676697008">
   <g id="_2198169171680">
    <path fill="#008DD2" fill-rule="nonzero" d="M537 186l58 0 -3 -10 -26 -75c-1,5 -10,31 -26,75l-3 10 0 0zm76 53l-14 -42 -66 0 -15 42 -15 0 54 -150 20 0 51 150 -15 0 0 0z"/>
    <path id="_1" fill="#008DD2" fill-rule="nonzero" d="M655 239l0 -150 18 0 39 64 42 70c0,-15 -1,-39 -1,-70l0 -64 14 0 0 150 -19 0 -38 -63 -42 -70c0,15 0,39 0,70l0 63 -13 0 0 0z"/>
    <path id="_2" fill="#008DD2" fill-rule="nonzero" d="M896 183l0 -94 13 0 0 94c0,19 -4,34 -14,43 -9,10 -22,15 -39,15 -17,0 -30,-5 -39,-15 -10,-9 -14,-23 -14,-42l0 -95 14 0 0 95c0,15 3,26 10,33 7,7 17,11 29,11 26,0 40,-15 40,-45l0 0z"/>
    <path id="_3" fill="#008DD2" fill-rule="nonzero" d="M945 239l0 -150 19 0 38 64 42 70c0,-15 0,-39 0,-70l0 -64 14 0 0 150 -20 0 -37 -63 -42 -70c0,15 0,39 0,70l0 63 -14 0 0 0z"/>
    <path id="_4" fill="#008DD2" fill-rule="nonzero" d="M1200 95l0 14c-7,-3 -13,-5 -18,-6 -5,-2 -12,-2 -21,-2 -17,0 -32,5 -43,17 -12,11 -17,27 -17,45 0,20 5,36 17,47 11,12 26,18 45,18 14,0 27,-4 37,-11l0 14c-9,7 -22,10 -37,10 -23,0 -42,-7 -56,-21 -13,-14 -21,-32 -21,-57 0,-23 8,-40 22,-54 15,-14 32,-22 54,-22 14,0 26,3 38,8l0 0z"/>
    <polygon id="_5" fill="#008DD2" fill-rule="nonzero" points="1228,239 1228,89 1242,89 1242,239 "/>
    <path id="_6" fill="#008DD2" fill-rule="nonzero" d="M1271 163c0,-23 6,-42 18,-56 12,-14 28,-21 48,-21 21,0 37,7 48,21 12,13 18,33 18,56 0,24 -6,43 -18,57 -12,14 -27,21 -48,21 -19,0 -35,-7 -47,-21 -13,-15 -19,-33 -19,-57zm14 0c0,20 5,36 14,48 10,11 23,17 38,17 17,0 30,-6 38,-17 9,-11 14,-28 14,-48 0,-20 -5,-35 -14,-47 -9,-11 -22,-16 -38,-16 -16,0 -29,5 -38,17 -9,11 -14,26 -14,46l0 0z"/>
    <path id="_7" fill="#008DD2" fill-rule="nonzero" d="M1508 95l0 15c-4,-2 -8,-4 -14,-6 -6,-2 -11,-3 -17,-3 -10,0 -18,2 -24,8 -6,4 -9,10 -9,18 0,4 1,8 2,10 2,4 5,6 9,9 3,3 6,5 9,6 3,2 8,4 13,6 5,2 9,4 12,5 3,2 5,3 10,6 4,2 7,5 10,8 2,3 3,6 5,10 2,4 3,9 3,13 0,14 -5,23 -14,31 -9,6 -20,10 -33,10 -15,0 -29,-4 -39,-10l0 -15c4,3 10,6 17,8 7,2 14,4 21,4 11,0 19,-3 25,-8 6,-4 9,-11 9,-19 0,-7 -3,-12 -7,-16 -4,-5 -11,-8 -19,-12 -2,-1 -4,-2 -8,-3 -4,-2 -7,-3 -9,-4 -1,0 -4,-2 -7,-4 -4,-2 -6,-3 -7,-5 -3,-1 -4,-3 -6,-5 -3,-2 -5,-4 -5,-6 -2,-3 -3,-6 -3,-9 -1,-2 -2,-5 -2,-9 0,-13 5,-22 13,-30 10,-6 20,-10 34,-10 12,0 23,2 31,7l0 0z"/>
    <path fill="#008DD2" d="M0 163c0,-56 16,-96 40,-120 27,-29 73,-43 140,-43l63 0c67,0 114,14 141,43 23,24 40,64 40,120 0,57 -17,97 -40,122 -27,28 -74,42 -141,42l-63 0c-67,0 -113,-14 -140,-42 -24,-25 -40,-65 -40,-122zm295 -39c0,-4 4,-8 8,-8l4 0c5,0 9,4 9,8 0,9 0,70 0,79 0,4 -4,8 -9,8l-4 0c-4,0 -8,-4 -8,-8 0,-9 0,-70 0,-79zm-145 86l0 36c0,5 -4,8 -8,8l-5 0c-5,0 -8,-3 -8,-8l0 -36 -1 0c-11,0 -20,-10 -20,-21l0 -52c0,-11 9,-21 20,-21l63 0 47 -58 4 -2 0 0 0 0 0 -1 0 0 0 0 0 0 0 0 0 0 0 0 1 0 0 0 0 0 0 0 0 0 0 0 1 0 0 0 0 0 0 0 0 0 1 0 0 -1 0 0 0 0 0 0 0 0 0 0 0 0 0 0 0 0 0 0 0 0 1 0 0 -1 0 0 0 0 1 0 0 0 0 0 0 0 0 0 1 0 0 0 0 0 0 0 0 0 0 -1 0 0 0 0 0 0 0 0 0 0 1 0 0 0 0 0 0 0 0 0 1 0 0 0 0 0 0 0 0 0 0 0 1 0 0 0 0 0 0 0 0 0 0 0 0 0 0 0 0 0 0 0 1 0 0 0 0 0 0 0 0 0 1 0 0 0 0 0 0 0 0 0 1 0 0 0 0 0 0 0 0 0 0 0 0 0 0 0 0 0 0 0 1 0 0 0 0 0 0 0 1 0 0 0 0 0 0 0 0 0 0 0 0 0 0 0 0 0 0 0 0 0 1 0 0 0 0 0 0 0 1 0 0 0 0 0 0 0 0 0 0 0 1 0 0 0 0 0 0 0 0 0 0 0 0 0 0 1 0 0 0 0 0 0 1 0 0 0 0 0 0 0 1 0 0 0 0 0 0 0 0 0 1 1 0 0 0 0 0 0 0 0 0 0 0 0 0 0 0 0 0 0 0 0 0 0 1 1 0 0 0 0 0 0 0 0 1 0 0 0 0 0 0 0 0 0 0 0 1 0 0 0 0 0 0 0 0 0 0 0 0 0 0 0 0 1 0 0 0 0 0 0c6,4 8,10 8,16l0 65 0 26 0 0 0 1 0 27 0 63c0,8 -2,14 -8,17l0 0 0 0 0 0 0 0 0 0 0 0 0 0 0 0 0 1 0 0 0 0 -1 0 0 0 0 0 0 0 0 0 0 0 -1 0 0 1 0 0 0 0 0 0 -1 0 0 0 0 0 0 0 0 0 0 0 0 0 0 0 0 0 0 0 0 0 0 0 -1 0 0 0 0 0 0 0 0 0 -1 0 0 1 0 0 0 0 -1 0 0 0 0 0 0 0 0 0 0 0 0 0 0 0 0 0 0 0 0 0 -1 0 0 0 0 0 0 1 0 0 0 0 -1 0 0 0 0 0 0 0 -1 0 0 0 0 0 0 0 0 0 0 0 0 0 0 0 0 0 0 0 0 0 -1 0 0 0 0 0 0 0 -1 0 0 0 0 0 0 0 0 0 0 0 0 0 0 0 0 0 0 0 -1 0 0 0 0 0 0 0 0 0 -1 0 0 0 0 0 0 0 0 0 -1 0 0 0 0 0 0 0 0 0 0 0 0 0 0 0 0 0 0 0 -1 0 0 0 0 0 0 0 0 0 0 0 -1 0 0 -1 0 0 0 0 0 0 -1 0 0 0 0 0 0 0 0 0 0 0 0 0 0 0 0 0 0 0 0 0 -1 0 0 0 0 -1 0 0 0 0 -1 0 0 0 0 0 0 0 -1 0 0 0 0 0 0 0 0 0 0 0 0 0 0 0 0 0 0 0 0 0 0 0 -1 0 0 0 0 0 0 -1 0 0 -1 0 0 0 0 0 0 0 0 0 0 0 -1 0 0 0 0 -1 0 0 0 0 0 0 0 0 0 0 0 0 0 0 -4 -2 -47 -59 -41 0z"/>
   </g>
  </g>
 </g>
</svg>
