<?xml version="1.0" encoding="UTF-8"?>
<!DOCTYPE svg PUBLIC "-//W3C//DTD SVG 1.1//EN" "http://www.w3.org/Graphics/SVG/1.1/DTD/svg11.dtd">
<!-- Creator: CorelDRAW X8 -->
<svg xmlns="http://www.w3.org/2000/svg" xml:space="preserve" width="1372px" height="332px" version="1.1" shape-rendering="geometricPrecision" text-rendering="geometricPrecision" image-rendering="optimizeQuality" fill-rule="evenodd" clip-rule="evenodd"
viewBox="0 0 1280 310"
 xmlns:xlink="http://www.w3.org/1999/xlink">
 <g id="Capa_x0020_1">
  <metadata id="CorelCorpID_0Corel-Layer"/>
  <g id="_3113676925632">
   <g id="_2233301009296">
    <path fill="#008DD2" d="M0 155c0,-54 15,-91 38,-114 25,-28 69,-41 133,-41l59 0c63,0 108,13 133,41 22,23 38,60 38,114 0,53 -16,91 -38,114 -25,27 -70,41 -133,41l-59 0c-64,0 -108,-14 -133,-41 -23,-23 -38,-61 -38,-114zm142 65c11,0 20,10 20,21 0,11 -9,19 -20,19 -11,0 -20,-8 -20,-19 0,-11 9,-21 20,-21l-13 0 -4 0 0 0 -4 0 0 0 0 0c-1,0 -3,0 -4,0l0 0 -1 0 0 0 0 0 -1 0c0,0 0,0 0,0l0 0 0 0 0 -1 0 0 -1 0 0 0 0 0 0 0 -1 0 0 0 0 -1 0 0 0 0 0 0 -1 0 0 0 0 0 0 0 -1 0 0 0 0 0 0 0 0 0 0 0 0 -1 0 0 0 0 -1 0 0 0 0 0 0 -1 -1 0 0 0 0 0 0 0 -1 0 0 0 0 0 0 0 0 0 0 0 0 -1 0 0 0 0 -1 0 0 -1 0 0c0,0 -1,0 -1,-1l0 0 0 0 0 0 0 0 0 0 0 0 0 0 0 0 0 0 0 0c-1,-1 -1,-2 -1,-2l0 0c-2,-3 -3,-6 -3,-10l0 -12 0 -27 0 0 0 0 0 -73 0 -20 -12 0c-5,0 -8,-3 -8,-7l0 -5c0,-5 3,-8 8,-8l20 0 4 0 0 0 0 0 0 0 1 0 0 0 0 0 0 0 0 0 0 0 0 0 0 0 0 0 0 0 0 0 0 0 0 1 1 0 0 0 0 0 0 0 0 0 1 0 0 0 0 0 0 0 0 0 1 0 0 0 0 0 0 0 0 0 0 0 0 0 0 0 0 0 0 0 0 0 0 0 1 0 0 1 0 0 0 0 0 0 1 0 0 1 0 0 0 0 0 0 0 0 0 0 0 0 0 0 0 0 0 0 0 0 1 1 0 0 0 0 0 0 0 1 0 0 0 0 0 0 0 1 1 0 0 0 0 0 0 0 0 0 0 0 0 0 0 1 0 0 0 0 0 1 0 0 0 0 0 0 0 5 0 7c51,0 107,0 157,0l1 0 0 0c10,0 19,9 19,20l0 72c0,10 -9,20 -19,20l0 0 -1 0 -142 0 -8 0c-4,0 -7,3 -7,7l0 1 0 3c0,5 3,9 7,9l8 0 154 0c4,0 8,3 8,8l0 4c0,4 -4,7 -8,7l-32 0c11,0 20,10 20,21 0,11 -9,19 -20,19 -11,0 -20,-8 -20,-19 0,-11 9,-21 20,-21l-117 0 0 0z"/>
    <path fill="#008DD2" fill-rule="nonzero" d="M586 90l0 14c-6,-3 -11,-5 -16,-7 -5,-1 -12,-2 -20,-2 -17,0 -30,6 -41,16 -11,11 -16,26 -16,44 0,18 5,33 16,44 10,11 25,17 42,17 14,0 26,-4 35,-11l0 14c-8,6 -20,9 -35,9 -21,0 -39,-6 -52,-19 -13,-14 -20,-31 -20,-54 0,-22 7,-39 21,-52 13,-13 30,-20 50,-20 14,0 26,2 36,7l0 0z"/>
    <path id="_1" fill="#008DD2" fill-rule="nonzero" d="M605 155c0,-23 6,-40 17,-54 11,-13 27,-19 46,-19 19,0 35,6 45,19 11,13 17,31 17,54 0,22 -6,40 -17,54 -11,13 -26,19 -45,19 -19,0 -34,-7 -45,-20 -12,-13 -18,-31 -18,-53zm14 0c0,19 5,33 13,44 9,11 21,17 36,17 15,0 27,-6 36,-17 8,-10 13,-25 13,-44 0,-19 -5,-34 -14,-45 -8,-11 -20,-16 -35,-16 -16,0 -28,5 -36,17 -9,10 -13,25 -13,44l0 0z"/>
    <path id="_2" fill="#008DD2" fill-rule="nonzero" d="M756 227l10 -142 18 0 19 51 24 73c10,-27 19,-51 27,-73l19 -51 19 0 11 142 -13 0 -5 -57 -5 -69c-9,24 -17,47 -26,69l-19 53 -15 0 -19 -53 -23 -67c-2,22 -3,44 -5,67l-4 57 -13 0 0 0z"/>
    <path id="_3" fill="#008DD2" fill-rule="nonzero" d="M949 215l36 0c9,0 16,-2 21,-7 5,-4 8,-11 8,-20 0,-9 -3,-15 -8,-20 -7,-5 -14,-8 -25,-8l-32 0 0 55 0 0zm0 -119l0 53 25 0c13,0 21,-3 27,-8 6,-5 9,-12 9,-20 0,-7 -3,-13 -9,-17 -5,-5 -14,-8 -24,-8l-28 0 0 0zm-13 -11l40 0c14,0 25,2 34,9 9,7 14,16 14,27 0,8 -3,16 -8,22 -4,6 -10,10 -18,11 8,1 15,5 21,10 6,7 9,14 9,25 0,11 -4,20 -11,27 -8,7 -18,11 -32,11l-49 0 0 -142 0 0z"/>
    <path id="_4" fill="#008DD2" fill-rule="nonzero" d="M1048 155c0,-23 5,-40 16,-54 12,-13 27,-19 46,-19 20,0 35,6 45,19 12,13 17,31 17,54 0,22 -5,40 -17,54 -11,13 -25,19 -44,19 -19,0 -35,-7 -46,-20 -12,-13 -17,-31 -17,-53zm13 0c0,19 5,33 14,44 8,11 20,17 36,17 15,0 27,-6 35,-17 9,-10 13,-25 13,-44 0,-19 -4,-34 -13,-45 -9,-11 -21,-16 -36,-16 -15,0 -27,5 -36,17 -8,10 -13,25 -13,44l0 0z"/>
    <path id="_5" fill="#008DD2" fill-rule="nonzero" d="M1272 90l0 14c-4,-2 -8,-4 -14,-5 -5,-2 -10,-3 -16,-3 -9,0 -17,2 -22,7 -6,4 -9,10 -9,17 0,4 1,7 3,10 1,4 4,6 7,9 4,2 7,4 9,5 3,2 7,4 12,6 5,2 9,3 11,5 3,1 6,2 10,5 4,2 7,5 9,7 2,3 4,6 6,10 1,4 2,8 2,13 0,12 -4,21 -13,28 -8,7 -19,10 -31,10 -15,0 -27,-3 -37,-10l0 -14c4,3 9,6 16,8 6,2 13,4 20,4 10,0 18,-3 23,-7 6,-5 9,-11 9,-19 0,-6 -2,-11 -7,-15 -4,-4 -10,-8 -18,-11 -1,-1 -3,-2 -7,-3 -4,-2 -7,-3 -8,-4 -2,0 -4,-2 -7,-4 -4,-1 -6,-3 -7,-4 -2,-1 -4,-3 -6,-5 -3,-2 -4,-4 -5,-6 -1,-2 -2,-5 -2,-8 -1,-3 -2,-5 -2,-9 0,-12 4,-21 13,-28 9,-6 19,-10 31,-10 12,0 22,2 30,7l0 0z"/>
   </g>
  </g>
 </g>
</svg>
