<?xml version="1.0" encoding="UTF-8"?>
<!DOCTYPE svg PUBLIC "-//W3C//DTD SVG 1.1//EN" "http://www.w3.org/Graphics/SVG/1.1/DTD/svg11.dtd">
<!-- Creator: CorelDRAW X8 -->
<svg xmlns="http://www.w3.org/2000/svg" xml:space="preserve" width="1305px" height="569px" version="1.1" shape-rendering="geometricPrecision" text-rendering="geometricPrecision" image-rendering="optimizeQuality" fill-rule="evenodd" clip-rule="evenodd"
viewBox="0 0 1276 557"
 xmlns:xlink="http://www.w3.org/1999/xlink">
 <g id="Capa_x0020_1">
  <metadata id="CorelCorpID_0Corel-Layer"/>
  <g id="_3113676897904">
   <path fill="#A2D9F7" fill-rule="nonzero" d="M0 553l0 -342 174 0c48,0 82,10 102,30 19,20 29,56 29,106l0 69c0,51 -10,86 -29,106 -20,20 -54,31 -102,31l-174 0 0 0zm92 -77l68 0c21,0 35,-3 41,-11 7,-7 10,-26 10,-55l0 -56c0,-29 -3,-48 -10,-56 -7,-7 -20,-11 -41,-11l-68 0 0 189zm271 77l0 -342 257 0 0 76 -165 0 0 59 160 0 0 66 -160 0 0 64 169 0 0 77 -261 0 0 0z"/>
   <path fill="#008DD2" fill-rule="nonzero" d="M971 439c0,-41 12,-70 28,-87 20,-21 54,-31 102,-31l45 0c48,0 82,10 102,31 16,17 28,46 28,87 0,40 -12,69 -28,87 -20,21 -54,31 -102,31l-45 0c-48,0 -82,-10 -102,-31 -16,-18 -28,-47 -28,-87zm144 -38c-21,0 -34,4 -41,12 -4,4 -9,13 -9,26 0,13 5,22 9,26 6,8 20,11 41,11l17 0c21,0 35,-3 41,-11 5,-4 9,-13 9,-26 0,-13 -5,-22 -9,-26 -6,-8 -20,-12 -41,-12l-17 0z"/>
   <polygon fill="#008DD2" fill-rule="nonzero" points="754,553 754,287 666,287 666,211 934,211 934,287 846,287 846,553 "/>
   <polygon fill="#008DD2" fill-rule="nonzero" points="1078,287 990,287 990,211 1258,211 1258,287 1170,287 "/>
   <polygon fill="#51B8E9" fill-rule="nonzero" points="1078,182 990,182 990,105 1258,105 1258,182 1170,182 "/>
   <polygon fill="#A2D9F7" fill-rule="nonzero" points="1078,76 990,76 990,0 1258,0 1258,76 1170,76 "/>
  </g>
 </g>
</svg>
