<?xml version="1.0" encoding="UTF-8"?>
<!DOCTYPE svg PUBLIC "-//W3C//DTD SVG 1.1//EN" "http://www.w3.org/Graphics/SVG/1.1/DTD/svg11.dtd">
<!-- Creator: CorelDRAW X8 -->
<svg xmlns="http://www.w3.org/2000/svg" xml:space="preserve" width="1225px" height="331px" version="1.1" shape-rendering="geometricPrecision" text-rendering="geometricPrecision" image-rendering="optimizeQuality" fill-rule="evenodd" clip-rule="evenodd"
viewBox="0 0 966 261"
 xmlns:xlink="http://www.w3.org/1999/xlink">
 <g id="Capa_x0020_1">
  <metadata id="CorelCorpID_0Corel-Layer"/>
  <g id="_3113676882976">
   <g id="_2233301003408">
    <path fill="#008DD2" d="M0 131c0,-45 13,-77 32,-97 21,-23 58,-34 112,-34l51 0c53,0 91,11 112,34 18,20 32,52 32,97 0,45 -14,77 -32,97 -21,22 -59,33 -112,33l-51 0c-54,0 -91,-11 -112,-33 -19,-20 -32,-52 -32,-97zm102 -72l29 0 0 -18 77 0 0 18 28 0 1 0 0 0c8,0 16,7 16,16l0 20 -115 0c-4,0 -7,3 -7,7l0 4c0,3 3,6 7,6l84 0 14 0c9,0 17,7 17,17l0 15 0 43c0,9 -8,16 -16,16l0 0 -1 0 -28 0 0 17 -77 0 0 -17 -29 0 0 0 0 0c-9,0 -16,-7 -16,-16l0 -21 115 0c4,0 7,-3 7,-6l0 -4c0,-3 -3,-6 -7,-6l-84 0 -15 0c-9,0 -16,-8 -16,-17l0 -16 0 -42c0,-9 7,-16 16,-16l0 0 0 0 0 0z"/>
    <polygon fill="#008DD2" fill-rule="nonzero" points="426,181 480,181 480,192 415,192 415,72 479,72 479,82 426,82 426,127 473,127 473,137 426,137 "/>
    <path id="_1" fill="#008DD2" fill-rule="nonzero" d="M503 192l0 -120 14 0 31 50 34 57c0,-13 0,-32 0,-57l0 -50 11 0 0 120 -15 0 -31 -51 -34 -56c0,12 1,31 1,56l0 51 -11 0z"/>
    <polygon id="_2" fill="#008DD2" fill-rule="nonzero" points="712,72 670,192 655,192 614,72 626,72 642,119 662,182 684,119 700,72 "/>
    <path id="_3" fill="#008DD2" fill-rule="nonzero" d="M735 192l0 -120 11 0 0 120 -11 0zm1 -130l18 -27 14 0 -22 27 -10 0z"/>
    <path id="_4" fill="#008DD2" fill-rule="nonzero" d="M769 131c0,-19 5,-34 15,-45 9,-11 22,-17 38,-17 17,0 30,6 38,17 10,10 15,26 15,45 0,19 -5,34 -15,45 -9,11 -21,17 -37,17 -16,0 -29,-6 -39,-17 -10,-12 -15,-26 -15,-45zm12 0c0,16 4,28 11,38 8,8 18,13 31,13 13,0 23,-5 30,-13 7,-9 10,-22 10,-38 0,-16 -3,-29 -10,-38 -8,-9 -18,-13 -31,-13 -13,0 -23,4 -30,13 -7,9 -11,22 -11,38l0 0z"/>
    <path id="_5" fill="#008DD2" fill-rule="nonzero" d="M959 76l0 12c-3,-2 -7,-3 -12,-5 -4,-1 -8,-2 -13,-2 -8,0 -14,2 -19,6 -5,3 -7,8 -7,15 0,3 0,6 2,8 1,3 3,5 6,7 3,2 5,4 8,5 2,1 6,3 10,5 4,1 7,3 9,4 3,1 5,2 9,4 3,2 5,5 7,6 2,3 3,5 5,9 1,3 2,7 2,10 0,11 -4,19 -11,25 -7,5 -16,8 -26,8 -13,0 -24,-3 -32,-8l0 -12c4,2 8,4 14,6 5,2 11,3 17,3 8,0 15,-2 19,-6 5,-3 8,-9 8,-16 0,-4 -2,-9 -6,-12 -3,-4 -9,-7 -15,-10 -1,0 -3,-1 -7,-2 -3,-2 -5,-2 -6,-3 -1,-1 -4,-2 -6,-3 -3,-2 -5,-3 -6,-4 -2,-1 -3,-2 -5,-4 -2,-2 -3,-4 -4,-5 -1,-2 -2,-5 -2,-7 -1,-2 -1,-5 -1,-8 0,-10 3,-17 10,-23 8,-6 16,-9 27,-9 10,0 18,2 25,6l0 0z"/>
   </g>
  </g>
 </g>
</svg>
