<?xml version="1.0" encoding="UTF-8"?>
<!DOCTYPE svg PUBLIC "-//W3C//DTD SVG 1.1//EN" "http://www.w3.org/Graphics/SVG/1.1/DTD/svg11.dtd">
<!-- Creator: CorelDRAW X8 -->
<svg xmlns="http://www.w3.org/2000/svg" xml:space="preserve" width="3747px" height="3747px" version="1.1" style="shape-rendering:geometricPrecision; text-rendering:geometricPrecision; image-rendering:optimizeQuality; fill-rule:evenodd; clip-rule:evenodd"
viewBox="0 0 3605 3605"
 xmlns:xlink="http://www.w3.org/1999/xlink">
 <defs>
  <style type="text/css">
   <![CDATA[
    .fil0 {fill:#008DD2}
    .fil1 {fill:#008DD2;fill-rule:nonzero}
   ]]>
  </style>
 </defs>
 <g id="Capa_x0020_1">
  <metadata id="CorelCorpID_0Corel-Layer"/>
  <g id="_2552100387376">
   <path class="fil0" d="M1801 746c-582,0 -1055,473 -1055,1055 0,583 473,1055 1055,1055 583,0 1055,-472 1055,-1055 0,-582 -472,-1055 -1055,-1055zm123 986c205,0 371,157 371,352 0,193 -166,350 -371,350l-51 0 0 72c0,38 -31,70 -72,70 -38,0 -69,-32 -69,-70l0 -72 -51 0c-204,0 -371,-157 -371,-350 0,-40 31,-72 69,-72 41,0 73,32 73,72 0,117 103,211 229,211l51 0 0 -421 -51 0c-204,0 -371,-158 -371,-353 0,-195 167,-353 371,-353l51 0 0 -69c0,-38 31,-69 69,-69 41,0 72,31 72,69l0 69 51 0c205,0 371,158 371,353 0,38 -31,69 -72,69 -38,0 -69,-31 -69,-69 0,-117 -104,-211 -230,-211l-51 0 0 422 51 0zm-472 -211c0,116 103,211 229,211l51 0 0 -422 -51 0c-126,0 -229,94 -229,211zm472 774c126,0 230,-94 230,-211 0,-116 -104,-210 -230,-210l-51 0 0 421 51 0z"/>
   <path class="fil1" d="M1801 0c498,0 951,202 1275,529 328,324 529,775 529,1272 0,498 -201,951 -529,1275 -324,328 -777,529 -1275,529 -494,0 -948,-201 -1272,-529 -327,-327 -529,-777 -529,-1275 0,-497 202,-948 529,-1272 324,-327 778,-529 1272,-529zm1061 743c-271,-271 -645,-438 -1061,-438 -412,0 -787,167 -1058,438 -271,271 -438,646 -438,1058 0,416 167,790 438,1061 271,271 646,438 1058,438 416,0 790,-167 1061,-438 271,-271 438,-645 438,-1061 0,-412 -167,-787 -438,-1058z"/>
  </g>
 </g>
</svg>
