<?xml version="1.0" encoding="UTF-8"?>
<!DOCTYPE svg PUBLIC "-//W3C//DTD SVG 1.1//EN" "http://www.w3.org/Graphics/SVG/1.1/DTD/svg11.dtd">
<!-- Creator: CorelDRAW X8 -->
<svg xmlns="http://www.w3.org/2000/svg" xml:space="preserve" width="11709px" height="11709px" version="1.1" shape-rendering="geometricPrecision" text-rendering="geometricPrecision" image-rendering="optimizeQuality" fill-rule="evenodd" clip-rule="evenodd"
viewBox="0 0 11508 11508"
 xmlns:xlink="http://www.w3.org/1999/xlink">
 <g id="Capa_x0020_1">
  <metadata id="CorelCorpID_0Corel-Layer"/>
  <g id="_2477352351968">
   <g id="_2551969706304">
    <path fill="#282C34" d="M8419 4232l-2273 0 0 1140 2660 0 0 -765c0,-203 -172,-375 -387,-375l0 0zm-5329 0c-215,0 -387,172 -387,375l0 765 2669 0 0 -1140 -2282 0 0 0zm0 1527l0 2660c0,215 172,387 378,387l1904 0 0 -3047 -2282 0 0 0 0 0zm4951 3047c215,0 378,-172 378,-387l0 -2660 -2273 0 0 3047 1895 0zm-2291 -4964l9 0c0,0 0,0 0,0l387 0c347,0 820,0 1130,0 528,0 765,-245 765,-568 0,-313 -237,-571 -765,-571 -494,0 -881,224 -1139,485 -120,-77 -249,-110 -400,-110 -129,0 -258,33 -374,98 -261,-258 -648,-473 -1131,-473 -528,0 -764,258 -764,571 0,323 236,568 764,568 311,0 805,0 1140,0l387 0c0,0 -9,0 -9,0l0 0 0 0zm1916 -568c0,160 -215,194 -390,194l-860 0c-9,0 -9,-13 -9,-13 193,-193 482,-365 869,-365 175,0 390,31 390,184l0 0zm-3824 0c0,-153 215,-184 390,-184 375,0 667,163 860,344 -12,12 -12,21 -21,34l-839 0c-175,0 -390,-34 -390,-194l0 0z"/>
    <path fill="#282C34" fill-rule="nonzero" d="M5759 0c1585,0 3025,645 4060,1689 1045,1045 1689,2476 1689,4070 0,1585 -644,3025 -1689,4060 -1035,1045 -2475,1689 -4060,1689 -1594,0 -3035,-644 -4070,-1689 -1044,-1035 -1689,-2475 -1689,-4060 0,-1594 645,-3035 1689,-4070 1035,-1044 2476,-1689 4070,-1689zm3381 2368c-872,-860 -2067,-1388 -3381,-1388 -1324,0 -2519,528 -3379,1400 -872,860 -1400,2055 -1400,3379 0,1314 528,2509 1388,3381 872,860 2067,1401 3391,1401 1314,0 2509,-541 3381,-1401 860,-872 1401,-2067 1401,-3381 0,-1324 -541,-2519 -1401,-3391z"/>
   </g>
  </g>
 </g>
</svg>
