<?xml version="1.0" encoding="UTF-8"?>
<!DOCTYPE svg PUBLIC "-//W3C//DTD SVG 1.1//EN" "http://www.w3.org/Graphics/SVG/1.1/DTD/svg11.dtd">
<!-- Creator: CorelDRAW X8 -->
<svg xmlns="http://www.w3.org/2000/svg" xml:space="preserve" width="3866px" height="3866px" version="1.1" style="shape-rendering:geometricPrecision; text-rendering:geometricPrecision; image-rendering:optimizeQuality; fill-rule:evenodd; clip-rule:evenodd"
viewBox="0 0 3866 3866"
 xmlns:xlink="http://www.w3.org/1999/xlink">
 <defs>
  <style type="text/css">
   <![CDATA[
    .fil0 {fill:#008DD2}
   ]]>
  </style>
 </defs>
 <g id="Capa_x0020_1">
  <metadata id="CorelCorpID_0Corel-Layer"/>
  <path class="fil0" d="M3866 1933c0,-1068 -865,-1933 -1933,-1933 -1068,0 -1933,865 -1933,1933 0,1068 865,1933 1933,1933 1068,0 1933,-865 1933,-1933zm-1103 -601c0,0 -522,0 -677,0l0 -410c9,-181 -45,-337 -156,-337 -197,0 -191,159 -191,159 -35,563 -553,738 -553,738l0 1195 67 9c566,0 225,290 1157,290 703,0 718,-620 718,-1046 0,-426 -194,-598 -365,-598l0 0zm-1876 1494c79,0 149,-66 149,-149l0 -1192c0,-83 -70,-150 -149,-150 -83,0 -153,67 -153,150l4 1192c0,83 66,149 149,149z"/>
 </g>
</svg>
