<?xml version="1.0" encoding="UTF-8"?>
<!DOCTYPE svg PUBLIC "-//W3C//DTD SVG 1.1//EN" "http://www.w3.org/Graphics/SVG/1.1/DTD/svg11.dtd">
<!-- Creator: CorelDRAW X8 -->
<svg xmlns="http://www.w3.org/2000/svg" xml:space="preserve" width="11709px" height="11709px" version="1.1" shape-rendering="geometricPrecision" text-rendering="geometricPrecision" image-rendering="optimizeQuality" fill-rule="evenodd" clip-rule="evenodd"
viewBox="0 0 10320 10320"
 xmlns:xlink="http://www.w3.org/1999/xlink">
 <g id="Capa_x0020_1">
  <metadata id="CorelCorpID_0Corel-Layer"/>
  <g id="_1734923083152">
   <g id="_2552100432400">
    <path fill="white" d="M7605 2527l-697 0c-27,0 -81,0 -107,27l-2367 2068c-107,-27 -295,-53 -429,-53 -941,0 -1719,753 -1719,1692 0,969 778,1723 1719,1723 939,0 1720,-754 1720,-1723 0,-268 -54,-456 -134,-617l590 -187c80,-27 107,-108 107,-161l0 -647 647 -54c80,0 161,-80 161,-161l27 -777 509 -110c81,-27 134,-108 134,-188l0 -671c0,-107 -80,-161 -161,-161l0 0 0 0zm-4112 3734c217,0 378,135 459,298 26,81 53,161 53,242 0,268 -241,509 -512,509 -295,0 -510,-241 -510,-509 0,-295 215,-540 510,-540l0 0z"/>
    <path fill="white" fill-rule="nonzero" d="M5161 0c1425,0 2713,590 3654,1505 942,942 1505,2232 1505,3656 0,1425 -563,2713 -1505,3654 -941,942 -2229,1505 -3654,1505 -1424,0 -2714,-563 -3656,-1505 -915,-941 -1505,-2229 -1505,-3654 0,-1424 590,-2714 1505,-3656 942,-915 2232,-1505 3656,-1505zm3037 2122c-780,-778 -1856,-1234 -3037,-1234 -1183,0 -2258,456 -3039,1234 -778,781 -1234,1856 -1234,3039 0,1181 456,2257 1234,3037 781,778 1856,1264 3039,1264 1181,0 2257,-486 3037,-1264 778,-780 1264,-1856 1264,-3037 0,-1183 -486,-2258 -1264,-3039z"/>
   </g>
  </g>
 </g>
</svg>
