<?xml version="1.0" encoding="UTF-8"?>
<!DOCTYPE svg PUBLIC "-//W3C//DTD SVG 1.1//EN" "http://www.w3.org/Graphics/SVG/1.1/DTD/svg11.dtd">
<!-- Creator: CorelDRAW X8 -->
<svg xmlns="http://www.w3.org/2000/svg" xml:space="preserve" width="11709px" height="11709px" version="1.1" shape-rendering="geometricPrecision" text-rendering="geometricPrecision" image-rendering="optimizeQuality" fill-rule="evenodd" clip-rule="evenodd"
viewBox="0 0 8604 8604"
 xmlns:xlink="http://www.w3.org/1999/xlink">
 <g id="Capa_x0020_1">
  <metadata id="CorelCorpID_0Corel-Layer"/>
  <g id="_1734902695280">
   <g id="_2552100432400">
    <path fill="#282C34" d="M6341 2107l-582 0c-22,0 -67,0 -89,22l-1973 1725c-89,-23 -246,-45 -358,-45 -785,0 -1433,628 -1433,1411 0,808 648,1436 1433,1436 783,0 1434,-628 1434,-1436 0,-224 -45,-380 -112,-514l492 -157c67,-22 89,-89 89,-134l0 -539 539 -45c68,0 135,-67 135,-134l22 -649 425 -91c67,-23 112,-90 112,-157l0 -559c0,-89 -67,-134 -134,-134l0 0 0 0zm-3429 3113c181,0 315,112 382,248 23,67 45,135 45,202 0,223 -201,425 -427,425 -246,0 -425,-202 -425,-425 0,-246 179,-450 425,-450l0 0z"/>
    <path fill="#282C34" fill-rule="nonzero" d="M4303 0c1188,0 2261,492 3046,1255 785,785 1255,1861 1255,3048 0,1188 -470,2261 -1255,3046 -785,785 -1858,1255 -3046,1255 -1187,0 -2263,-470 -3048,-1255 -763,-785 -1255,-1858 -1255,-3046 0,-1187 492,-2263 1255,-3048 785,-763 1861,-1255 3048,-1255zm2532 1769c-651,-648 -1548,-1029 -2532,-1029 -986,0 -1883,381 -2534,1029 -648,651 -1029,1548 -1029,2534 0,984 381,1881 1029,2532 651,648 1548,1053 2534,1053 984,0 1881,-405 2532,-1053 648,-651 1053,-1548 1053,-2532 0,-986 -405,-1883 -1053,-2534z"/>
   </g>
  </g>
 </g>
</svg>
