<?xml version="1.0" encoding="UTF-8"?>
<!DOCTYPE svg PUBLIC "-//W3C//DTD SVG 1.1//EN" "http://www.w3.org/Graphics/SVG/1.1/DTD/svg11.dtd">
<!-- Creator: CorelDRAW X8 -->
<svg xmlns="http://www.w3.org/2000/svg" xml:space="preserve" width="12072px" height="12072px" version="1.1" shape-rendering="geometricPrecision" text-rendering="geometricPrecision" image-rendering="optimizeQuality" fill-rule="evenodd" clip-rule="evenodd"
viewBox="0 0 13434 13434"
 xmlns:xlink="http://www.w3.org/1999/xlink">
 <g id="Capa_x0020_1">
  <metadata id="CorelCorpID_0Corel-Layer"/>
  <path fill="#008DD2" d="M13434 6719c0,-3711 -3008,-6719 -6715,-6719 -3711,0 -6719,3008 -6719,6719 0,3707 3008,6715 6719,6715 3707,0 6715,-3008 6715,-6715zm-4942 -2963c0,-943 -820,-1767 -1773,-1767 -946,0 -1777,824 -1777,1767 0,956 831,1777 1777,1777 953,0 1773,-821 1773,-1777zm-1773 2368c-1555,0 -2963,1680 -2963,3766 0,2090 5922,2090 5922,0 0,-2086 -1398,-3766 -2963,-3766l4 0z"/>
 </g>
</svg>
