<?xml version="1.0" encoding="UTF-8"?>
<!DOCTYPE svg PUBLIC "-//W3C//DTD SVG 1.1//EN" "http://www.w3.org/Graphics/SVG/1.1/DTD/svg11.dtd">
<!-- Creator: CorelDRAW X8 -->
<svg xmlns="http://www.w3.org/2000/svg" xml:space="preserve" width="3747px" height="3747px" version="1.1" style="shape-rendering:geometricPrecision; text-rendering:geometricPrecision; image-rendering:optimizeQuality; fill-rule:evenodd; clip-rule:evenodd"
viewBox="0 0 3847 3847"
 xmlns:xlink="http://www.w3.org/1999/xlink">
 <defs>
  <style type="text/css">
   <![CDATA[
    .fil0 {fill:#008DD2}
    .fil1 {fill:#008DD2;fill-rule:nonzero}
   ]]>
  </style>
 </defs>
 <g id="Capa_x0020_1">
  <metadata id="CorelCorpID_0Corel-Layer"/>
  <g id="_2552100432400">
   <path class="fil0" d="M2835 942l-260 0c-10,0 -30,0 -40,10l-882 771c-40,-10 -110,-20 -160,-20 -351,0 -641,281 -641,631 0,361 290,642 641,642 350,0 641,-281 641,-642 0,-100 -20,-170 -50,-230l220 -70c30,-10 40,-40 40,-60l0 -241 241 -20c30,0 60,-30 60,-60l10 -290 190 -41c30,-10 50,-40 50,-70l0 -250c0,-40 -30,-60 -60,-60l0 0zm-1533 1392c81,0 141,50 171,111 10,30 20,60 20,90 0,100 -90,190 -191,190 -110,0 -190,-90 -190,-190 0,-110 80,-201 190,-201l0 0z"/>
   <path class="fil1" d="M1924 0c531,0 1011,220 1362,561 351,351 561,832 561,1363 0,531 -210,1011 -561,1362 -351,351 -831,561 -1362,561 -531,0 -1012,-210 -1363,-561 -341,-351 -561,-831 -561,-1362 0,-531 220,-1012 561,-1363 351,-341 832,-561 1363,-561zm1132 791c-291,-290 -692,-460 -1132,-460 -441,0 -842,170 -1133,460 -290,291 -460,692 -460,1133 0,440 170,841 460,1132 291,290 692,471 1133,471 440,0 841,-181 1132,-471 290,-291 471,-692 471,-1132 0,-441 -181,-842 -471,-1133z"/>
  </g>
 </g>
</svg>
