<?xml version="1.0" encoding="UTF-8"?>
<!DOCTYPE svg PUBLIC "-//W3C//DTD SVG 1.1//EN" "http://www.w3.org/Graphics/SVG/1.1/DTD/svg11.dtd">
<!-- Creator: CorelDRAW X8 -->
<svg xmlns="http://www.w3.org/2000/svg" xml:space="preserve" width="11894px" height="11894px" version="1.1" shape-rendering="geometricPrecision" text-rendering="geometricPrecision" image-rendering="optimizeQuality" fill-rule="evenodd" clip-rule="evenodd"
viewBox="0 0 13425 13425"
 xmlns:xlink="http://www.w3.org/1999/xlink">
 <g id="Capa_x0020_1">
  <metadata id="CorelCorpID_0Corel-Layer"/>
  <path fill="#008DD2" d="M6712 0c-3710,0 -6712,3002 -6712,6712 0,3711 3002,6713 6712,6713 3711,0 6713,-3002 6713,-6713 0,-3710 -3002,-6712 -6713,-6712zm3616 6712c0,0 0,0 0,0 0,57 -11,124 -29,170 -28,56 -56,102 -95,151l-2691 2681c-169,169 -452,169 -631,0 -170,-176 -170,-459 0,-628l1922 -1922 -5414 0c-247,0 -452,-208 -452,-452 0,-243 205,-441 452,-441l5414 0 -1922 -1933c-180,-169 -180,-451 0,-627 179,-170 462,-170 631,0l2684 2691c46,39 74,85 102,141 18,56 29,113 29,169l0 0 0 0 0 0z"/>
 </g>
</svg>
