<?xml version="1.0" encoding="UTF-8"?>
<!DOCTYPE svg PUBLIC "-//W3C//DTD SVG 1.1//EN" "http://www.w3.org/Graphics/SVG/1.1/DTD/svg11.dtd">
<!-- Creator: CorelDRAW X8 -->
<svg xmlns="http://www.w3.org/2000/svg" xml:space="preserve" width="3877px" height="3877px" version="1.1" style="shape-rendering:geometricPrecision; text-rendering:geometricPrecision; image-rendering:optimizeQuality; fill-rule:evenodd; clip-rule:evenodd"
viewBox="0 0 3877 3877"
 xmlns:xlink="http://www.w3.org/1999/xlink">
 <defs>
  <style type="text/css">
   <![CDATA[
    .fil0 {fill:#008DD2}
   ]]>
  </style>
 </defs>
 <g id="Capa_x0020_1">
  <metadata id="CorelCorpID_0Corel-Layer"/>
  <path class="fil0" d="M3877 1938c0,-1070 -868,-1938 -1939,-1938 -1070,0 -1938,868 -1938,1938 0,1071 868,1939 1938,1939 1071,0 1939,-868 1939,-1939zm-1344 1362c95,0 172,-78 172,-173l0 -2386c0,-95 -77,-172 -172,-172l-1198 0c-86,0 -163,77 -163,172l0 2386c0,95 77,173 163,173l1198 0zm-681 -267c0,-52 43,-95 95,-95 52,0 95,43 95,95 0,51 -43,94 -95,94 -52,0 -95,-43 -95,-94zm423 -2292c51,0 86,43 86,86 0,52 -35,86 -86,86l-164 0c-52,0 -86,-34 -86,-86 0,-43 34,-86 86,-86l164 0zm-423 86c0,52 -43,86 -86,86 -52,0 -86,-34 -86,-86 0,-43 34,-86 86,-86 43,0 86,43 86,86zm-517 259l1198 0 0 1705 -1198 0 0 -1705z"/>
 </g>
</svg>
