<?xml version="1.0" encoding="UTF-8"?>
<!DOCTYPE svg PUBLIC "-//W3C//DTD SVG 1.1//EN" "http://www.w3.org/Graphics/SVG/1.1/DTD/svg11.dtd">
<!-- Creator: CorelDRAW X8 -->
<svg xmlns="http://www.w3.org/2000/svg" xml:space="preserve" width="3863px" height="3863px" version="1.1" style="shape-rendering:geometricPrecision; text-rendering:geometricPrecision; image-rendering:optimizeQuality; fill-rule:evenodd; clip-rule:evenodd"
viewBox="0 0 3863 3863"
 xmlns:xlink="http://www.w3.org/1999/xlink">
 <defs>
  <style type="text/css">
   <![CDATA[
    .fil0 {fill:#008DD2}
   ]]>
  </style>
 </defs>
 <g id="Capa_x0020_1">
  <metadata id="CorelCorpID_0Corel-Layer"/>
  <path class="fil0" d="M3863 1932c0,-1067 -865,-1932 -1931,-1932 -1067,0 -1932,865 -1932,1932 0,1066 865,1931 1932,1931 1066,0 1931,-865 1931,-1931zm-1421 -852c0,-271 -236,-508 -510,-508 -272,0 -511,237 -511,508 0,275 239,511 511,511 274,0 510,-236 510,-511zm-510 681c-447,0 -852,483 -852,1083 0,601 1703,601 1703,0 0,-600 -402,-1083 -852,-1083l1 0z"/>
 </g>
</svg>
