<?xml version="1.0" encoding="UTF-8"?>
<!DOCTYPE svg PUBLIC "-//W3C//DTD SVG 1.1//EN" "http://www.w3.org/Graphics/SVG/1.1/DTD/svg11.dtd">
<!-- Creator: CorelDRAW X8 -->
<svg xmlns="http://www.w3.org/2000/svg" xml:space="preserve" width="11709px" height="11709px" version="1.1" shape-rendering="geometricPrecision" text-rendering="geometricPrecision" image-rendering="optimizeQuality" fill-rule="evenodd" clip-rule="evenodd"
viewBox="0 0 10647 10647"
 xmlns:xlink="http://www.w3.org/1999/xlink">
 <g id="Capa_x0020_1">
  <metadata id="CorelCorpID_0Corel-Layer"/>
  <g id="_1734902695088">
   <g id="_2551969706304">
    <path fill="#282C34" d="M7788 3916l-2102 0 0 1054 2460 0 0 -708c0,-187 -159,-346 -358,-346l0 0zm-4930 0c-198,0 -358,159 -358,346l0 708 2470 0 0 -1054 -2112 0 0 0zm0 1412l0 2460c0,199 160,358 350,358l1762 0 0 -2818 -2112 0 0 0 0 0zm4581 2818c199,0 349,-159 349,-358l0 -2460 -2102 0 0 2818 1753 0zm-2120 -4591l9 0c0,0 0,0 0,0l358 0c321,0 758,0 1045,0 489,0 708,-228 708,-526 0,-290 -219,-529 -708,-529 -457,0 -815,208 -1054,449 -111,-71 -230,-102 -369,-102 -120,0 -239,31 -347,91 -241,-239 -599,-438 -1045,-438 -489,0 -708,239 -708,529 0,298 219,526 708,526 286,0 744,0 1054,0l358 0c0,0 -9,0 -9,0l0 0 0 0zm1773 -526c0,148 -199,179 -361,179l-795 0c-9,0 -9,-11 -9,-11 179,-179 446,-339 804,-339 162,0 361,29 361,171l0 0zm-3537 0c0,-142 199,-171 361,-171 346,0 616,151 795,319 -11,11 -11,20 -20,31l-775 0c-162,0 -361,-31 -361,-179l0 0z"/>
    <path fill="#282C34" fill-rule="nonzero" d="M5328 0c1466,0 2799,597 3756,1563 966,966 1563,2290 1563,3765 0,1466 -597,2799 -1563,3756 -957,966 -2290,1563 -3756,1563 -1475,0 -2808,-597 -3765,-1563 -966,-957 -1563,-2290 -1563,-3756 0,-1475 597,-2808 1563,-3765 957,-966 2290,-1563 3765,-1563zm3128 2191c-807,-796 -1912,-1285 -3128,-1285 -1225,0 -2330,489 -3126,1296 -807,796 -1296,1901 -1296,3126 0,1216 489,2321 1285,3128 807,796 1912,1296 3137,1296 1216,0 2321,-500 3128,-1296 796,-807 1296,-1912 1296,-3128 0,-1225 -500,-2330 -1296,-3137z"/>
   </g>
  </g>
 </g>
</svg>
