<?xml version="1.0" encoding="UTF-8"?>
<!DOCTYPE svg PUBLIC "-//W3C//DTD SVG 1.1//EN" "http://www.w3.org/Graphics/SVG/1.1/DTD/svg11.dtd">
<!-- Creator: CorelDRAW X8 -->
<svg xmlns="http://www.w3.org/2000/svg" xml:space="preserve" width="11709px" height="11709px" version="1.1" shape-rendering="geometricPrecision" text-rendering="geometricPrecision" image-rendering="optimizeQuality" fill-rule="evenodd" clip-rule="evenodd"
viewBox="0 0 15215 15215"
 xmlns:xlink="http://www.w3.org/1999/xlink">
 <g id="Capa_x0020_1">
  <metadata id="CorelCorpID_0Corel-Layer"/>
  <g id="_1734923098128">
   <g id="_2551969706304">
    <path fill="white" d="M11130 5595l-3005 0 0 1507 3517 0 0 -1011c0,-268 -228,-496 -512,-496l0 0zm-7045 0c-284,0 -512,228 -512,496l0 1011 3529 0 0 -1507 -3017 0 0 0zm0 2019l0 3516c0,284 227,512 499,512l2518 0 0 -4028 -3017 0 0 0 0 0zm6546 4028c284,0 499,-228 499,-512l0 -3516 -3005 0 0 4028 2506 0zm-3030 -6562l13 0c0,0 0,0 0,0l511 0c459,0 1084,0 1494,0 699,0 1012,-325 1012,-751 0,-415 -313,-756 -1012,-756 -653,0 -1165,297 -1506,642 -158,-102 -329,-146 -528,-146 -170,0 -341,44 -495,130 -345,-341 -857,-626 -1495,-626 -698,0 -1011,341 -1011,756 0,426 313,751 1011,751 411,0 1064,0 1507,0l512 0c0,0 -13,0 -13,0l0 0 0 0zm2534 -751c0,211 -284,255 -516,255l-1137 0c-12,0 -12,-16 -12,-16 256,-256 638,-483 1149,-483 232,0 516,41 516,244l0 0zm-5055 0c0,-203 284,-244 515,-244 496,0 882,215 1137,455 -16,16 -16,28 -28,44l-1109 0c-231,0 -515,-44 -515,-255l0 0z"/>
    <path fill="white" fill-rule="nonzero" d="M7614 0c2095,0 3999,853 5368,2233 1380,1381 2233,3273 2233,5381 0,2095 -853,3999 -2233,5368 -1369,1380 -3273,2233 -5368,2233 -2108,0 -4012,-853 -5381,-2233 -1380,-1369 -2233,-3273 -2233,-5368 0,-2108 853,-4012 2233,-5381 1369,-1380 3273,-2233 5381,-2233zm4470 3131c-1153,-1137 -2733,-1836 -4470,-1836 -1751,0 -3330,699 -4467,1852 -1153,1137 -1852,2716 -1852,4467 0,1737 699,3317 1836,4470 1153,1137 2732,1852 4483,1852 1737,0 3317,-715 4470,-1852 1137,-1153 1852,-2733 1852,-4470 0,-1751 -715,-3330 -1852,-4483z"/>
   </g>
  </g>
 </g>
</svg>
