<?xml version="1.0" encoding="UTF-8"?>
<!DOCTYPE svg PUBLIC "-//W3C//DTD SVG 1.1//EN" "http://www.w3.org/Graphics/SVG/1.1/DTD/svg11.dtd">
<!-- Creator: CorelDRAW X8 -->
<svg xmlns="http://www.w3.org/2000/svg" xml:space="preserve" width="11709px" height="11709px" version="1.1" shape-rendering="geometricPrecision" text-rendering="geometricPrecision" image-rendering="optimizeQuality" fill-rule="evenodd" clip-rule="evenodd"
viewBox="0 0 12926 12926"
 xmlns:xlink="http://www.w3.org/1999/xlink">
 <g id="Capa_x0020_1">
  <metadata id="CorelCorpID_0Corel-Layer"/>
  <g id="_1734923095536">
   <g id="_2552100387376">
    <path fill="white" d="M6458 2675c-2087,0 -3783,1696 -3783,3783 0,2090 1696,3783 3783,3783 2090,0 3783,-1693 3783,-3783 0,-2087 -1693,-3783 -3783,-3783zm441 3535c735,0 1330,563 1330,1262 0,692 -595,1255 -1330,1255l-183 0 0 259c0,136 -111,251 -258,251 -137,0 -248,-115 -248,-251l0 -259 -183 0c-731,0 -1330,-563 -1330,-1255 0,-143 111,-258 248,-258 147,0 261,115 261,258 0,420 370,757 821,757l183 0 0 -1510 -183 0c-731,0 -1330,-566 -1330,-1265 0,-699 599,-1266 1330,-1266l183 0 0 -247c0,-137 111,-248 248,-248 147,0 258,111 258,248l0 247 183 0c735,0 1330,567 1330,1266 0,136 -111,247 -258,247 -136,0 -248,-111 -248,-247 0,-420 -372,-757 -824,-757l-183 0 0 1513 183 0zm-1693 -756c0,416 370,756 821,756l183 0 0 -1513 -183 0c-451,0 -821,337 -821,757zm1693 2775c452,0 824,-337 824,-757 0,-416 -372,-753 -824,-753l-183 0 0 1510 183 0z"/>
    <path fill="white" fill-rule="nonzero" d="M6458 0c1785,0 3410,724 4571,1897 1176,1162 1897,2779 1897,4561 0,1785 -721,3410 -1897,4571 -1161,1176 -2786,1897 -4571,1897 -1772,0 -3399,-721 -4561,-1897 -1173,-1172 -1897,-2786 -1897,-4571 0,-1782 724,-3399 1897,-4561 1162,-1173 2789,-1897 4561,-1897zm3804 2664c-972,-972 -2313,-1570 -3804,-1570 -1478,0 -2822,598 -3794,1570 -972,972 -1570,2316 -1570,3794 0,1491 598,2832 1570,3804 972,972 2316,1571 3794,1571 1491,0 2832,-599 3804,-1571 972,-972 1571,-2313 1571,-3804 0,-1478 -599,-2822 -1571,-3794z"/>
   </g>
  </g>
 </g>
</svg>
