<?xml version="1.0" encoding="UTF-8"?>
<!DOCTYPE svg PUBLIC "-//W3C//DTD SVG 1.1//EN" "http://www.w3.org/Graphics/SVG/1.1/DTD/svg11.dtd">
<!-- Creator: CorelDRAW X8 -->
<svg xmlns="http://www.w3.org/2000/svg" xml:space="preserve" width="11172px" height="11172px" version="1.1" shape-rendering="geometricPrecision" text-rendering="geometricPrecision" image-rendering="optimizeQuality" fill-rule="evenodd" clip-rule="evenodd"
viewBox="0 0 12409 12409"
 xmlns:xlink="http://www.w3.org/1999/xlink">
 <g id="Capa_x0020_1">
  <metadata id="CorelCorpID_0Corel-Layer"/>
  <path fill="#008DD2" d="M6208 0c-3432,0 -6208,2776 -6208,6208 0,3425 2776,6201 6208,6201 3425,0 6201,-2776 6201,-6201 0,-3432 -2776,-6208 -6201,-6208zm2876 4488l-2970 4541c-10,0 -10,0 -10,10 -14,21 -25,45 -45,66 -21,31 -53,42 -87,63 -11,14 -21,24 -32,24 -41,31 -97,52 -149,63 -10,0 -35,10 -56,10 -41,10 -86,10 -128,0 -31,0 -52,0 -87,-10 -31,-11 -62,-21 -87,-32 -31,-10 -52,-21 -73,-31 -21,-10 -34,-35 -45,-45 -10,0 -10,-11 -21,-11l-1733 -1601c-216,-205 -236,-549 -31,-764 204,-226 548,-240 774,-35l1251 1164 2612 -4006c174,-246 507,-319 754,-160 261,174 323,508 163,754l0 0 0 0z"/>
 </g>
</svg>
