<?xml version="1.0" encoding="UTF-8"?>
<!DOCTYPE svg PUBLIC "-//W3C//DTD SVG 1.1//EN" "http://www.w3.org/Graphics/SVG/1.1/DTD/svg11.dtd">
<!-- Creator: CorelDRAW X8 -->
<svg xmlns="http://www.w3.org/2000/svg" xml:space="preserve" width="11709px" height="11709px" version="1.1" shape-rendering="geometricPrecision" text-rendering="geometricPrecision" image-rendering="optimizeQuality" fill-rule="evenodd" clip-rule="evenodd"
viewBox="0 0 11870 11870"
 xmlns:xlink="http://www.w3.org/1999/xlink">
 <g id="Capa_x0020_1">
  <metadata id="CorelCorpID_0Corel-Layer"/>
  <g id="_1734923083888">
   <g id="_2552100387376">
    <path fill="#282C34" d="M5930 2456c-1916,0 -3474,1558 -3474,3474 0,1919 1558,3474 3474,3474 1919,0 3474,-1555 3474,-3474 0,-1916 -1555,-3474 -3474,-3474zm405 3247c675,0 1221,517 1221,1159 0,635 -546,1152 -1221,1152l-168 0 0 237c0,125 -102,231 -237,231 -125,0 -227,-106 -227,-231l0 -237 -168 0c-672,0 -1222,-517 -1222,-1152 0,-132 102,-237 227,-237 135,0 241,105 241,237 0,385 339,694 754,694l168 0 0 -1386 -168 0c-672,0 -1222,-520 -1222,-1162 0,-642 550,-1162 1222,-1162l168 0 0 -227c0,-126 102,-228 227,-228 135,0 237,102 237,228l0 227 168 0c675,0 1221,520 1221,1162 0,125 -102,227 -237,227 -125,0 -227,-102 -227,-227 0,-385 -342,-695 -757,-695l-168 0 0 1390 168 0zm-1554 -695c0,382 339,695 754,695l168 0 0 -1390 -168 0c-415,0 -754,310 -754,695zm1554 2548c415,0 757,-309 757,-694 0,-382 -342,-692 -757,-692l-168 0 0 1386 168 0z"/>
    <path fill="#282C34" fill-rule="nonzero" d="M5930 0c1640,0 3131,665 4198,1742 1080,1067 1742,2552 1742,4188 0,1640 -662,3131 -1742,4198 -1067,1080 -2558,1742 -4198,1742 -1627,0 -3121,-662 -4188,-1742 -1077,-1077 -1742,-2558 -1742,-4198 0,-1636 665,-3121 1742,-4188 1067,-1077 2561,-1742 4188,-1742zm3493 2446c-892,-892 -2123,-1442 -3493,-1442 -1357,0 -2591,550 -3484,1442 -892,893 -1442,2127 -1442,3484 0,1370 550,2601 1442,3493 893,893 2127,1442 3484,1442 1370,0 2601,-549 3493,-1442 893,-892 1442,-2123 1442,-3493 0,-1357 -549,-2591 -1442,-3484z"/>
   </g>
  </g>
 </g>
</svg>
