<?xml version="1.0" encoding="UTF-8"?>
<!DOCTYPE svg PUBLIC "-//W3C//DTD SVG 1.1//EN" "http://www.w3.org/Graphics/SVG/1.1/DTD/svg11.dtd">
<!-- Creator: CorelDRAW X8 -->
<svg xmlns="http://www.w3.org/2000/svg" xml:space="preserve" width="11709px" height="11709px" version="1.1" shape-rendering="geometricPrecision" text-rendering="geometricPrecision" image-rendering="optimizeQuality" fill-rule="evenodd" clip-rule="evenodd"
viewBox="0 0 12940 12940"
 xmlns:xlink="http://www.w3.org/1999/xlink">
 <g id="Capa_x0020_1">
  <metadata id="CorelCorpID_0Corel-Layer"/>
  <g id="_2477352306816">
   <g id="_2552100387376">
    <path fill="#008DD2" d="M6464 2678c-2089,0 -3786,1697 -3786,3786 0,2093 1697,3787 3786,3787 2093,0 3787,-1694 3787,-3787 0,-2089 -1694,-3786 -3787,-3786zm442 3539c736,0 1332,563 1332,1263 0,693 -596,1256 -1332,1256l-183 0 0 259c0,136 -111,251 -259,251 -136,0 -247,-115 -247,-251l0 -259 -183 0c-733,0 -1332,-563 -1332,-1256 0,-143 111,-258 248,-258 147,0 262,115 262,258 0,420 369,758 822,758l183 0 0 -1512 -183 0c-733,0 -1332,-567 -1332,-1267 0,-700 599,-1267 1332,-1267l183 0 0 -247c0,-137 111,-248 247,-248 148,0 259,111 259,248l0 247 183 0c736,0 1332,567 1332,1267 0,137 -112,248 -259,248 -136,0 -248,-111 -248,-248 0,-420 -373,-757 -825,-757l-183 0 0 1515 183 0zm-1694 -758c0,417 369,758 822,758l183 0 0 -1515 -183 0c-453,0 -822,337 -822,757zm1694 2779c452,0 825,-338 825,-758 0,-416 -373,-754 -825,-754l-183 0 0 1512 183 0z"/>
    <path fill="#008DD2" fill-rule="nonzero" d="M6464 0c1788,0 3414,725 4577,1899 1177,1163 1899,2782 1899,4565 0,1788 -722,3414 -1899,4577 -1163,1177 -2789,1899 -4577,1899 -1773,0 -3402,-722 -4565,-1899 -1174,-1174 -1899,-2789 -1899,-4577 0,-1783 725,-3402 1899,-4565 1163,-1174 2792,-1899 4565,-1899zm3809 2667c-973,-973 -2315,-1572 -3809,-1572 -1478,0 -2824,599 -3797,1572 -973,973 -1572,2319 -1572,3797 0,1494 599,2836 1572,3809 973,972 2319,1572 3797,1572 1494,0 2836,-600 3809,-1572 972,-973 1572,-2315 1572,-3809 0,-1478 -600,-2824 -1572,-3797z"/>
   </g>
  </g>
 </g>
</svg>
