<?xml version="1.0" encoding="UTF-8"?>
<!DOCTYPE svg PUBLIC "-//W3C//DTD SVG 1.1//EN" "http://www.w3.org/Graphics/SVG/1.1/DTD/svg11.dtd">
<!-- Creator: CorelDRAW X8 -->
<svg xmlns="http://www.w3.org/2000/svg" xml:space="preserve" width="3747px" height="3747px" version="1.1" style="shape-rendering:geometricPrecision; text-rendering:geometricPrecision; image-rendering:optimizeQuality; fill-rule:evenodd; clip-rule:evenodd"
viewBox="0 0 3747 3747"
 xmlns:xlink="http://www.w3.org/1999/xlink">
 <defs>
  <style type="text/css">
   <![CDATA[
    .fil0 {fill:#008DD2}
    .fil1 {fill:#008DD2;fill-rule:nonzero}
   ]]>
  </style>
 </defs>
 <g id="Capa_x0020_1">
  <metadata id="CorelCorpID_0Corel-Layer"/>
  <g id="_2551969706304">
   <path class="fil0" d="M2741 1378l-740 0 0 371 866 0 0 -249c0,-66 -56,-122 -126,-122zm-1735 0c-70,0 -126,56 -126,122l0 249 869 0 0 -371 -743 0zm0 497l0 866c0,70 56,126 123,126l620 0 0 -992 -743 0 0 0zm1612 992c70,0 123,-56 123,-126l0 -866 -740 0 0 992 617 0zm-746 -1616l3 0c0,0 0,0 0,0l126 0c113,0 267,0 368,0 172,0 249,-80 249,-185 0,-102 -77,-186 -249,-186 -161,0 -287,73 -371,158 -39,-25 -81,-36 -130,-36 -42,0 -84,11 -122,32 -85,-84 -211,-154 -368,-154 -172,0 -249,84 -249,186 0,105 77,185 249,185 101,0 262,0 371,0l126 0c0,0 -3,0 -3,0l0 0zm624 -185c0,52 -70,63 -127,63l-280 0c-3,0 -3,-4 -3,-4 63,-63 157,-119 283,-119 57,0 127,10 127,60zm-1245 0c0,-50 70,-60 127,-60 122,0 217,53 280,112 -4,4 -4,7 -7,11l-273 0c-57,0 -127,-11 -127,-63z"/>
   <path class="fil1" d="M1875 0c516,0 985,210 1322,550 340,340 550,806 550,1325 0,516 -210,985 -550,1322 -337,340 -806,550 -1322,550 -519,0 -988,-210 -1325,-550 -340,-337 -550,-806 -550,-1322 0,-519 210,-988 550,-1325 337,-340 806,-550 1325,-550zm1101 771c-284,-280 -673,-452 -1101,-452 -431,0 -820,172 -1100,456 -284,280 -456,669 -456,1100 0,428 172,817 452,1101 284,280 673,456 1104,456 428,0 817,-176 1101,-456 280,-284 456,-673 456,-1101 0,-431 -176,-820 -456,-1104z"/>
  </g>
 </g>
</svg>
