<?xml version="1.0" encoding="UTF-8"?>
<!DOCTYPE svg PUBLIC "-//W3C//DTD SVG 1.1//EN" "http://www.w3.org/Graphics/SVG/1.1/DTD/svg11.dtd">
<!-- Creator: CorelDRAW X8 -->
<svg xmlns="http://www.w3.org/2000/svg" xml:space="preserve" width="11709px" height="11709px" version="1.1" shape-rendering="geometricPrecision" text-rendering="geometricPrecision" image-rendering="optimizeQuality" fill-rule="evenodd" clip-rule="evenodd"
viewBox="0 0 12435 12435"
 xmlns:xlink="http://www.w3.org/1999/xlink">
 <g id="Capa_x0020_1">
  <metadata id="CorelCorpID_0Corel-Layer"/>
  <g id="_2477255876304">
   <g id="_2552100432400">
    <path fill="#008DD2" d="M9164 3045l-840 0c-33,0 -97,0 -130,32l-2851 2493c-129,-33 -355,-65 -517,-65 -1134,0 -2072,908 -2072,2040 0,1167 938,2075 2072,2075 1131,0 2072,-908 2072,-2075 0,-324 -65,-550 -161,-744l711 -226c97,-32 129,-129 129,-194l0 -779 779 -65c97,0 194,-97 194,-194l32 -937 614 -133c97,-32 162,-129 162,-226l0 -808c0,-129 -97,-194 -194,-194l0 0 0 0zm-4955 4500c262,0 455,161 552,358 33,97 65,194 65,291 0,324 -291,615 -617,615 -356,0 -614,-291 -614,-615 0,-355 258,-649 614,-649l0 0z"/>
    <path fill="#008DD2" fill-rule="nonzero" d="M6219 0c1717,0 3268,711 4403,1813 1135,1135 1813,2690 1813,4406 0,1717 -678,3268 -1813,4403 -1135,1135 -2686,1813 -4403,1813 -1716,0 -3271,-678 -4406,-1813 -1102,-1135 -1813,-2686 -1813,-4403 0,-1716 711,-3271 1813,-4406 1135,-1102 2690,-1813 4406,-1813zm3660 2557c-941,-938 -2237,-1487 -3660,-1487 -1425,0 -2721,549 -3662,1487 -938,941 -1487,2237 -1487,3662 0,1423 549,2719 1487,3660 941,937 2237,1522 3662,1522 1423,0 2719,-585 3660,-1522 937,-941 1522,-2237 1522,-3660 0,-1425 -585,-2721 -1522,-3662z"/>
   </g>
  </g>
 </g>
</svg>
