<?xml version="1.0" encoding="UTF-8"?>
<!DOCTYPE svg PUBLIC "-//W3C//DTD SVG 1.1//EN" "http://www.w3.org/Graphics/SVG/1.1/DTD/svg11.dtd">
<!-- Creator: CorelDRAW X8 -->
<svg xmlns="http://www.w3.org/2000/svg" xml:space="preserve" width="3575px" height="3575px" version="1.1" style="shape-rendering:geometricPrecision; text-rendering:geometricPrecision; image-rendering:optimizeQuality; fill-rule:evenodd; clip-rule:evenodd"
viewBox="0 0 3572 3572"
 xmlns:xlink="http://www.w3.org/1999/xlink">
 <defs>
  <style type="text/css">
   <![CDATA[
    .fil0 {fill:#008DD2}
   ]]>
  </style>
 </defs>
 <g id="Capa_x0020_1">
  <metadata id="CorelCorpID_0Corel-Layer"/>
  <path class="fil0" d="M1787 0c-988,0 -1787,799 -1787,1787 0,986 799,1785 1787,1785 986,0 1785,-799 1785,-1785 0,-988 -799,-1787 -1785,-1787zm828 1292l-855 1307c-3,0 -3,0 -3,3 -4,6 -7,13 -13,19 -6,9 -15,12 -25,18 -3,4 -6,7 -9,7 -12,9 -28,15 -43,18 -3,0 -10,3 -16,3 -12,3 -25,3 -37,0 -9,0 -15,0 -25,-3 -9,-3 -18,-6 -25,-9 -9,-3 -15,-6 -21,-9 -6,-3 -10,-10 -13,-13 -3,0 -3,-3 -6,-3l-499 -461c-62,-59 -68,-158 -9,-220 59,-65 158,-69 223,-10l360 335 752 -1153c50,-71 146,-92 217,-46 75,50 93,146 47,217l0 0z"/>
 </g>
</svg>
