<?xml version="1.0" encoding="UTF-8"?>
<!DOCTYPE svg PUBLIC "-//W3C//DTD SVG 1.1//EN" "http://www.w3.org/Graphics/SVG/1.1/DTD/svg11.dtd">
<!-- Creator: CorelDRAW X8 -->
<svg xmlns="http://www.w3.org/2000/svg" xml:space="preserve" width="3806px" height="3806px" version="1.1" style="shape-rendering:geometricPrecision; text-rendering:geometricPrecision; image-rendering:optimizeQuality; fill-rule:evenodd; clip-rule:evenodd"
viewBox="0 0 3806 3806"
 xmlns:xlink="http://www.w3.org/1999/xlink">
 <defs>
  <style type="text/css">
   <![CDATA[
    .fil0 {fill:#008DD2}
   ]]>
  </style>
 </defs>
 <g id="Capa_x0020_1">
  <metadata id="CorelCorpID_0Corel-Layer"/>
  <path class="fil0" d="M1903 0c-1052,0 -1903,851 -1903,1903 0,1052 851,1903 1903,1903 1052,0 1903,-851 1903,-1903 0,-1052 -851,-1903 -1903,-1903zm1025 1903c0,0 0,0 0,0 0,16 -3,35 -8,48 -8,16 -16,29 -27,43l-763 760c-48,48 -128,48 -179,0 -48,-50 -48,-130 0,-178l545 -545 -1535 0c-70,0 -128,-59 -128,-128 0,-69 58,-125 128,-125l1535 0 -545 -548c-51,-48 -51,-128 0,-178 51,-48 131,-48 179,0l761 763c13,11 21,24 29,40 5,16 8,32 8,48l0 0 0 0z"/>
 </g>
</svg>
