<?xml version="1.0" encoding="UTF-8"?>
<!DOCTYPE svg PUBLIC "-//W3C//DTD SVG 1.1//EN" "http://www.w3.org/Graphics/SVG/1.1/DTD/svg11.dtd">
<!-- Creator: CorelDRAW X8 -->
<svg xmlns="http://www.w3.org/2000/svg" xml:space="preserve" width="6716px" height="4884px" version="1.1" shape-rendering="geometricPrecision" text-rendering="geometricPrecision" image-rendering="optimizeQuality" fill-rule="evenodd" clip-rule="evenodd"
viewBox="0 0 6593 4795"
 xmlns:xlink="http://www.w3.org/1999/xlink">
 <g id="Capa_x0020_1">
  <metadata id="CorelCorpID_0Corel-Layer"/>
  <g id="_2477264420592">
   <path fill="#008DD2" fill-rule="nonzero" d="M92 4298l160 0c73,0 128,-21 168,-61 40,-40 59,-92 59,-150 0,-144 -80,-218 -246,-218l-141 0 0 429zm537 485l-110 0 -249 -405 -28 0 -150 0 0 405 -92 0 0 -994 224 0c117,0 202,25 261,77 58,55 86,129 86,224 -3,67 -22,126 -56,175 -36,46 -85,79 -150,98l264 420 0 0z"/>
   <polygon id="_1" fill="#008DD2" fill-rule="nonzero" points="874,4697 1322,4697 1322,4783 782,4783 782,3789 1313,3789 1313,3872 874,3872 874,4243 1261,4243 1261,4329 874,4329 "/>
   <path id="_2" fill="#008DD2" fill-rule="nonzero" d="M2212 3829l0 95c-46,-21 -83,-40 -116,-49 -34,-9 -80,-12 -139,-12 -113,0 -208,37 -285,116 -77,77 -116,175 -116,301 0,129 39,233 113,310 77,80 175,117 301,117 98,0 178,-25 242,-77l0 101c-58,43 -141,64 -245,64 -151,0 -273,-46 -365,-138 -92,-92 -139,-217 -139,-377 0,-150 47,-270 142,-365 95,-92 214,-141 356,-141 95,0 181,18 251,55l0 0z"/>
   <path id="_3" fill="#008DD2" fill-rule="nonzero" d="M2553 4424l383 0 -21 -61 -169 -497c-12,40 -71,205 -172,497l-21 61 0 0zm506 359l-95 -276 -442 0 -95 276 -98 0 349 -994 135 0 344 994 -98 0 0 0z"/>
   <path id="_4" fill="#008DD2" fill-rule="nonzero" d="M3421 4298l163 0c73,0 128,-21 168,-61 37,-40 59,-92 59,-150 0,-144 -83,-218 -246,-218l-144 0 0 429zm537 485l-107 0 -249 -405 -31 0 -150 0 0 405 -89 0 0 -994 224 0c117,0 202,25 261,77 55,55 86,129 86,224 -3,67 -22,126 -59,175 -33,46 -82,79 -150,98l264 420 0 0z"/>
   <path id="_5" fill="#008DD2" fill-rule="nonzero" d="M4869 4234l0 476c-80,55 -178,85 -294,85 -154,0 -277,-46 -366,-138 -92,-89 -138,-214 -138,-374 0,-147 43,-270 135,-368 89,-95 203,-144 341,-144 117,0 212,21 288,70l0 102c-76,-56 -168,-80 -276,-80 -116,0 -211,37 -285,116 -74,77 -111,178 -111,304 0,132 37,233 111,310 74,74 172,110 301,110 76,0 144,-15 202,-46l0 -340 -236 0 0 -83 328 0 0 0z"/>
   <path id="_6" fill="#008DD2" fill-rule="nonzero" d="M5250 4424l386 0 -21 -61 -169 -497c-12,40 -71,205 -172,497l-24 61 0 0zm506 359l-92 -276 -442 0 -95 276 -98 0 349 -994 132 0 347 994 -101 0 0 0z"/>
   <path id="_7" fill="#008DD2" fill-rule="nonzero" d="M6535 3823l0 101c-21,-15 -55,-27 -92,-40 -40,-9 -77,-15 -113,-15 -65,0 -117,15 -157,46 -40,31 -58,74 -58,123 0,27 3,52 15,73 9,19 28,37 52,56 25,18 46,30 65,39 18,10 46,22 83,37 33,16 61,28 76,37 19,6 43,22 71,37 27,18 46,37 61,52 16,18 28,40 37,68 12,27 18,58 18,88 0,86 -27,154 -85,200 -59,46 -135,67 -224,67 -102,0 -191,-21 -261,-64l0 -101c27,21 67,40 113,55 46,15 95,21 144,21 68,0 123,-15 163,-46 37,-27 58,-73 58,-128 0,-43 -15,-80 -46,-108 -27,-27 -70,-52 -129,-77 -6,-3 -24,-12 -49,-21 -27,-12 -46,-21 -58,-25 -9,-6 -28,-15 -49,-27 -21,-9 -40,-22 -49,-31 -12,-9 -25,-18 -40,-34 -15,-15 -28,-30 -34,-46 -6,-12 -12,-30 -18,-52 -6,-18 -9,-40 -9,-64 0,-83 30,-147 89,-193 61,-50 135,-71 221,-71 82,0 150,15 205,43l0 0z"/>
   <path fill="#008DD2" d="M1371 1485c0,-509 151,-874 362,-1095 243,-261 669,-390 1280,-390l568 0c610,0 1037,129 1279,390 212,221 362,586 362,1095 0,512 -150,877 -362,1098 -242,261 -669,390 -1279,390l-568 0c-611,0 -1037,-129 -1280,-390 -211,-221 -362,-586 -362,-1098zm2295 -1013c102,4 194,86 194,188l0 1454 119 0c40,-3 71,-31 71,-74l0 -40 0 -55 0 -129 0 -687c0,-40 34,-74 77,-74l40 0c42,0 76,34 76,74l0 687 0 129 0 175c0,89 -61,169 -144,187l-239 0 0 6c0,102 -83,184 -184,188l0 0 -3 0c-510,0 -243,0 -752,0l-3 0 0 0c-101,-4 -184,-86 -184,-188l0 -1454 -120 0c-40,0 -71,31 -71,71l0 43 0 55 0 129 0 684c0,43 -33,77 -76,77l-40 0c-43,0 -77,-34 -77,-77l0 -684 0 -129 0 -178c0,-86 62,-166 144,-187l240 0 0 -3c0,-102 83,-184 184,-188l748 0 0 0zm384 313l0 -46c0,-43 34,-76 77,-76l40 0c42,0 76,33 76,76l0 46c0,40 -34,74 -76,74l-40 0c-43,0 -77,-34 -77,-74l0 0zm-1700 1449l0 -46c0,-40 34,-74 77,-74l40 0c43,0 76,34 76,74l0 46c0,39 -33,73 -76,73l-40 0c-43,0 -77,-34 -77,-73l0 0zm1132 -74c-3,9 -6,18 -6,28l0 46c0,9 3,18 6,27 -12,25 -36,46 -67,46l-77 0c-6,0 -12,0 -21,0l-40 0c-9,0 -16,0 -22,0l-73 0c-43,0 -77,-34 -77,-76l0 -40c0,-43 34,-77 77,-77l82 0c4,0 7,0 13,0l40 0c6,0 9,0 12,0l86 0c31,0 55,18 67,46l0 0zm-371 -1347c3,-9 6,-18 6,-28l0 -46c0,-12 -3,-21 -6,-30 12,-25 37,-46 68,-46l43 0 150 0 43 0c40,0 73,33 73,76l0 46c0,40 -33,74 -73,74l-43 0 -150 0 -43 0c-31,0 -56,-18 -68,-46l0 0zm3 242c506,-6 -141,0 365,0l6 0 0 0 108 0 73 0 0 74 0 114 0 487 0 111 0 77 -73 0 -108 0 0 0 -6 0c-506,0 141,0 -365,0l-6 0 0 0 -107 0 -74 0 0 -77 0 -111 0 -487 0 -114 0 -74 74 0 107 0 0 0 6 0 0 0z"/>
  </g>
 </g>
</svg>
