<?xml version="1.0" encoding="UTF-8"?>
<!DOCTYPE svg PUBLIC "-//W3C//DTD SVG 1.1//EN" "http://www.w3.org/Graphics/SVG/1.1/DTD/svg11.dtd">
<!-- Creator: CorelDRAW X8 -->
<svg xmlns="http://www.w3.org/2000/svg" xml:space="preserve" width="2508px" height="1305px" version="1.1" shape-rendering="geometricPrecision" text-rendering="geometricPrecision" image-rendering="optimizeQuality" fill-rule="evenodd" clip-rule="evenodd"
viewBox="0 0 2750 1431"
 xmlns:xlink="http://www.w3.org/1999/xlink">
 <g id="Capa_x0020_1">
  <metadata id="CorelCorpID_0Corel-Layer"/>
  <g id="_2477352307072">
   <path fill="#DDE0E4" fill-opacity="0.501961" d="M694 0c-2,0 -3,0 -3,1 -1,1 -4,1 -8,1 -3,-1 -8,-1 -11,0 -3,2 -7,2 -9,2 -3,0 -8,6 -9,13 0,1 -6,2 -13,2 -9,-1 -13,0 -12,3 0,2 -3,3 -9,4 -5,0 -11,1 -12,2 -1,1 -7,2 -13,2l-11 0 11 2c6,1 10,3 9,4 -1,1 1,4 5,7 6,3 8,4 12,1 2,-2 6,-2 9,0 15,7 30,6 45,-1 11,-6 16,-7 19,-5 4,5 -3,10 -24,17 -14,4 -21,5 -25,3 -8,-3 -17,-1 -17,3 0,5 22,15 28,13 7,-2 10,3 4,7 -6,5 -36,1 -36,-5 0,-3 -3,-6 -6,-8 -2,-2 -4,-6 -3,-8 1,-3 1,-4 -1,-4 -3,1 -13,-3 -19,-6 -9,-6 -13,-7 -18,-5 -4,2 -4,3 -1,5 5,3 4,3 -7,4 -2,0 -5,2 -7,4 -4,6 3,12 14,12 5,0 10,1 13,3 3,2 2,3 -6,5 -8,1 -9,2 -5,4 2,2 4,4 3,6 -1,1 3,2 10,2 8,0 14,-2 17,-6 5,-4 7,-5 10,-2 2,2 8,5 13,8 5,2 10,6 10,7 1,5 -9,5 -14,1 -3,-3 -4,-5 -2,-5 2,0 4,1 5,3 1,2 4,3 7,3 4,0 3,-1 -2,-5 -6,-4 -9,-4 -15,-1 -8,3 -8,4 -3,6 6,3 4,9 -2,9 -2,-1 -2,-2 1,-3 3,-2 3,-3 2,-3 -5,0 -13,5 -10,7 1,1 14,3 28,3 15,1 28,2 28,3 3,2 4,2 15,-2 11,-4 14,-9 5,-6 -8,1 -23,-5 -20,-8 1,-2 5,-3 9,-2 4,1 12,0 17,-3 6,-2 12,-5 14,-7 3,-1 5,-3 6,-5 1,-3 -1,-4 -6,-2 -4,1 -9,1 -10,0 -3,-4 5,-10 13,-10 4,0 6,-1 5,-3 -3,-4 4,-5 14,-2 8,3 10,3 12,-1 2,-2 14,-9 27,-15 13,-6 22,-10 20,-11 -2,0 -6,0 -9,-1 -4,-2 -5,-1 -2,1 4,2 2,3 -5,6 -10,3 -15,0 -9,-5 2,-2 10,-5 18,-7 18,-6 30,-11 30,-14 0,-1 -3,-4 -8,-6 -6,-3 -11,-4 -17,-2 -11,3 -19,1 -16,-3 3,-4 -13,-6 -31,-5 -9,1 -22,0 -30,-1 -4,-1 -7,-1 -10,-1 -1,0 -1,0 -2,0l0 0zm290 0c-8,0 -14,2 -12,4 3,5 -7,6 -17,1 -7,-4 -12,-4 -17,-2 -4,2 -8,2 -10,0 -4,-4 -13,-1 -13,5 0,6 5,6 8,0 1,-4 3,-4 9,2 5,4 6,8 4,10 -2,3 -17,3 -33,1 -11,-2 -21,0 -19,4 2,6 -4,8 -8,3 -5,-5 -10,-5 -9,-1 1,3 -4,4 -17,3 -18,-1 -38,5 -33,9 3,3 -6,11 -10,10 -3,-1 -5,-1 -6,1 -1,1 -4,2 -6,1 -5,-2 -28,9 -24,11 2,1 7,1 13,-1 12,-3 14,1 6,12 -5,6 -10,9 -16,9 -4,0 -9,1 -10,3 -1,1 -3,2 -5,1 -4,-3 -24,4 -24,7 0,3 4,4 26,4 6,0 12,2 13,4 2,4 -1,5 -19,8 -11,2 -11,2 -5,4 5,1 7,3 7,4 -3,4 9,7 16,5 4,-1 17,-2 31,-3 13,0 25,-1 26,-2 2,0 5,3 7,7 2,4 7,11 11,14 3,3 6,7 6,8 0,2 3,6 6,9 4,3 5,7 4,13 -1,10 4,12 7,3 1,-6 2,-6 6,-3 10,8 7,18 -6,21 -4,1 -3,2 3,2 6,0 12,3 15,5 5,5 5,6 -1,11 -6,5 -6,5 -1,9 5,3 5,4 -3,7 -5,1 -8,4 -8,6 0,2 1,2 4,0 7,-6 12,-1 6,6 -3,3 -4,5 -2,5 1,0 0,2 -3,4 -4,3 -4,5 -2,6 1,1 2,4 1,5 -2,3 -1,3 2,0 6,-4 10,-1 6,5 -2,2 1,8 6,16 12,16 20,23 30,23 4,0 8,2 9,4 0,2 0,4 0,5 1,4 19,-9 19,-13 1,-2 0,-7 0,-11 0,-3 1,-7 3,-8 2,-1 3,-4 3,-7 0,-6 27,-30 31,-27 2,1 7,0 12,-2 9,-3 13,-9 13,-17 0,-3 2,-4 4,-4 3,1 7,-2 10,-5 5,-4 10,-5 26,-5 11,0 22,-1 28,-4 5,-3 14,-6 20,-7l10 -2 -10 -2c-6,-2 -14,-2 -18,-1 -7,2 -12,-4 -5,-7 2,-1 4,-3 4,-6 -1,-3 2,-5 7,-6 7,0 9,1 11,5 2,8 10,8 10,1 0,-6 -17,-16 -25,-13 -8,2 -13,-1 -9,-6 3,-3 2,-5 -3,-7 -8,-5 -4,-10 6,-8 7,2 9,1 8,-3 0,-7 10,-7 21,1 5,4 11,7 13,7 4,0 4,-1 -1,-5 -9,-5 -6,-10 6,-10 9,0 9,0 3,-4 -3,-2 -4,-4 -2,-5 1,0 -1,-1 -6,-2 -12,-2 -12,-7 0,-9l9 -2 -10 0c-5,-1 -11,-2 -12,-3 -3,-5 10,-9 20,-7 8,1 10,1 8,-2 -1,-2 -3,-3 -4,-2 -3,3 -14,-4 -12,-8 1,-2 0,-5 -2,-7 -2,-2 -1,-4 5,-6 5,-2 8,-5 8,-7 0,-3 3,-6 6,-8 4,-2 4,-3 -3,-1 -10,1 -13,-1 -9,-6 2,-3 10,-4 17,-4 9,0 13,-1 13,-4 -1,-2 2,-4 6,-4 4,-1 11,-3 15,-5l8 -4 -13 -2c-6,-1 -14,-1 -17,1 -8,4 -20,5 -25,2 -2,-1 -8,0 -13,2 -9,5 -15,2 -11,-4 2,-2 -5,-2 -20,-2 -16,1 -28,4 -42,9 -10,5 -21,8 -24,7 -7,-3 -2,-6 24,-16 15,-6 29,-9 39,-9 8,0 20,-2 25,-5l10 -4 -17 2c-18,2 -25,-2 -15,-8 6,-3 -23,-2 -56,3 -10,2 -19,2 -21,1 -4,-2 3,-7 15,-9 11,-3 10,-3 -6,-3 -10,0 -21,0 -25,-1 0,0 0,0 0,0 0,0 0,0 0,0l0 0 -9 0zm-75 5c-3,0 -6,3 -5,5 1,2 3,3 5,3 4,0 6,-5 3,-7 -1,-1 -2,-1 -3,-1l0 0zm-14 3c0,1 0,1 0,1 0,1 0,2 0,2 1,2 3,2 5,1 -1,-1 -2,-1 -4,-1l-1 -3zm258 17c-3,0 -6,3 -4,5 1,2 3,3 4,3 4,0 7,-5 3,-7 -1,-1 -2,-1 -3,-1l0 0zm573 3c-2,0 -3,2 -2,6 0,1 -1,2 -4,1 -6,-2 -9,1 -4,6 3,3 9,4 8,0 0,0 0,0 0,-1 0,0 0,0 0,0 0,-1 1,-3 3,-5 2,-3 3,-5 1,-6 -1,-1 -2,-1 -2,-1l0 0zm29 3c-3,0 -6,2 -5,5 1,2 3,3 5,3 4,0 6,-5 3,-7 -1,-1 -2,-1 -3,-1l0 0zm-924 2c4,0 8,3 6,5 -2,4 -9,4 -12,0 -1,-1 0,-3 2,-4 1,-1 2,-1 4,-1zm828 1c-1,0 -1,0 -1,1 0,0 1,1 1,2 1,1 3,2 5,1 -1,-1 -2,-2 -4,-2l-1 -2zm295 2c-4,0 -6,3 -5,5 1,2 3,3 5,3 4,0 6,-5 3,-7 -1,-1 -2,-1 -3,-1l0 0zm-260 1c-3,0 -5,1 -8,2 -2,1 -5,1 -6,-1 -1,-1 -3,-2 -4,-1 0,1 1,1 2,1 1,0 1,0 2,-1 1,2 3,2 4,1 2,-1 4,0 5,1 1,2 3,3 5,2 7,0 12,-4 10,-7 -1,-1 -2,-2 -5,-2l-5 5zm14 0c-1,0 -1,1 -1,1 0,1 1,2 1,2 1,2 3,2 5,1 1,-1 2,-3 1,-4 -1,-1 -2,-2 -4,-2l-2 2zm-1036 2c-2,1 -6,3 -15,7 -14,8 -9,8 9,2 5,-2 8,-5 8,-6 0,-2 0,-3 -1,-3l-1 0zm77 0c-2,0 -4,1 -5,2 -3,2 -1,3 4,2 4,-1 5,-3 3,-4 0,0 0,0 0,0 0,0 0,0 0,0l-2 0zm1221 2c-3,0 -6,2 -11,5 -9,5 -10,6 -5,9 6,4 26,2 30,-3 1,-1 -2,-5 -6,-7 -4,-3 -6,-4 -8,-4l0 0zm-228 2c-2,0 -3,0 -4,1 -2,1 -5,2 -6,2 -1,0 -2,1 -2,2l0 5c0,1 1,0 3,-2 2,-1 5,-2 7,-1 5,1 9,-4 5,-7 -1,0 -2,0 -3,0l0 0zm-126 1c-5,0 -14,3 -16,6 -2,3 8,10 14,11 1,0 3,1 4,2 3,3 8,-1 6,-4 -1,-1 -3,-2 -4,-1 -2,1 -4,-1 -4,-3 -1,-2 0,-5 3,-6 3,-1 4,-2 2,-4 -1,-1 -3,-1 -5,-1l0 0zm20 0c-2,-1 -3,0 -6,2 -5,4 -5,5 -1,9 2,3 4,6 4,7 -1,1 0,2 2,2 1,0 3,1 5,2 3,3 8,-1 5,-4 -1,-2 -3,-2 -4,-1 -1,1 -3,0 -4,-1 -1,-2 1,-4 5,-5 9,-2 10,-2 10,1 0,5 4,7 9,4 3,-3 5,-3 6,-1 1,2 4,2 8,0 5,-2 5,-4 3,-6 -2,-2 -4,-2 -7,0 -4,3 -5,3 -7,-1 -1,-3 -3,-4 -4,-3 -1,1 -3,0 -5,-1 -3,-2 -5,-2 -6,0 -2,2 -4,2 -8,-1 -2,-2 -3,-3 -5,-3zm84 0c-4,0 -15,7 -13,10 1,1 3,2 4,2 4,0 13,-10 11,-12 -1,0 -1,0 -2,0zm-35 2c-1,0 -1,0 -2,1 -1,0 -1,3 0,5 1,1 2,4 3,5 0,1 0,3 0,4 1,1 4,0 7,-3 6,-5 6,-12 0,-9 -2,1 -4,0 -5,-1 0,0 0,0 -1,0 0,0 0,0 0,0l-2 -2zm-251 11c-3,0 -3,1 -3,2 0,3 -3,6 -5,8 -3,2 -5,3 -3,1 2,-5 -3,-8 -14,-9 -8,-1 -9,0 -6,4 4,3 3,5 -1,9 -5,4 -6,4 -9,0 -6,-7 -12,-8 -17,-1 -4,4 -7,5 -11,3 -6,-2 -6,-2 0,-6 6,-4 4,-5 -10,-2 -5,1 -10,3 -10,4 0,2 2,2 3,1 7,-4 10,2 5,8 -3,2 -7,4 -9,3 -2,-1 -1,0 1,3 4,5 11,4 7,-2 -1,-2 1,-1 5,2 6,5 7,5 12,1 7,-6 16,-7 18,-3 1,2 -2,5 -6,7 -9,3 -11,6 -3,5 8,-1 6,7 -2,10 -4,1 -6,2 -3,2 3,0 7,2 9,4 5,7 8,6 12,-4 2,-5 7,-12 10,-16 5,-6 6,-6 13,-2 4,2 8,3 9,2 1,-2 1,0 -1,4 -3,6 -3,7 6,6 5,-1 10,-2 11,-3 1,-1 -14,-9 -24,-12 -3,-1 -5,-3 -4,-4 1,-2 -2,-4 -5,-5 -6,-1 -6,-2 -3,-5 2,-2 7,-2 20,0 16,4 17,3 28,-3l11 -7 -10 -2c-12,-2 -18,-3 -21,-3l0 0zm71 2c-1,0 -3,0 -4,0 -2,2 -2,4 -1,5 2,4 9,4 12,0 1,-3 -3,-5 -7,-5zm34 0c0,1 0,1 0,1 0,1 0,2 0,2 1,2 3,2 5,1 -1,-1 -2,-1 -4,-1l-1 -3zm168 0c0,1 0,1 0,1 0,1 0,2 0,2 1,2 3,2 5,1 -1,-1 -2,-1 -4,-1l-1 -3zm247 1c-1,0 -3,0 -5,0 -4,2 -5,2 -2,4 6,3 11,3 13,0 2,-2 -1,-4 -6,-4l0 0zm23 1c-4,0 -10,2 -16,5l-10 5 17 4c9,2 21,6 25,8 9,4 10,4 11,-8 1,-13 -2,-16 -9,-8l-5 7 -2 -6c-1,-5 -5,-7 -11,-7zm-1462 1c0,0 0,0 0,0 0,0 0,0 0,0 -2,1 -1,4 1,6 2,2 4,3 6,3 2,-1 1,-4 -1,-6 -1,-2 -4,-3 -5,-3l-1 0zm621 6c-1,0 -1,1 -1,1 0,1 1,1 1,2 1,2 3,2 5,1 1,-1 2,-3 1,-4 -1,-1 -2,-2 -4,-2l-2 2zm-660 3c-4,1 -5,2 0,5 3,1 4,4 3,5 -1,2 1,3 5,2 6,-2 11,0 18,6 13,11 18,9 10,-2 -4,-5 -12,-10 -21,-13 -5,-1 -10,-2 -13,-3l-2 0zm1553 3c-5,0 -9,3 -13,8 -5,6 -8,11 -8,11 0,1 5,0 11,-2 7,-2 15,-4 18,-4 10,0 11,-3 5,-8 -5,-3 -9,-5 -13,-5l0 0zm-552 2c-4,0 -7,3 -5,5 1,2 3,3 5,3 4,0 6,-5 3,-7 -1,-1 -2,-1 -3,-1l0 0zm-18 3c0,1 0,1 0,2 0,0 0,1 1,2 1,1 3,2 4,1 2,-1 2,-3 2,-5 -1,-1 -3,-1 -4,-1l-3 1zm501 6c0,1 0,1 0,1 0,1 0,2 1,2 1,2 3,2 4,1 2,-1 2,-3 1,-4 0,-1 -2,-2 -3,-2l-3 2zm98 0c0,1 0,1 0,1 0,1 0,2 0,2 1,2 3,2 5,1 2,-1 2,-3 1,-4 -1,-1 -2,-2 -3,-2l-3 2zm-1621 1c-1,1 -6,1 -11,1 -5,0 -9,1 -8,2 1,2 6,2 12,2 5,-1 7,0 4,1 -11,2 -20,7 -18,10 2,3 4,3 15,-4 6,-3 10,-7 9,-9 0,-2 -2,-3 -3,-3l0 0zm93 1c-1,0 0,1 3,4 4,5 8,6 11,2 1,-2 0,-3 -1,-3 -2,0 -6,-1 -9,-2 -2,-1 -3,-1 -4,-1l0 0zm599 4c0,0 0,1 0,1 0,1 1,2 1,2 1,2 3,2 5,1 -1,-1 -2,-2 -4,-1l-2 -3zm822 0c0,0 0,1 0,1 0,1 0,2 0,2 1,2 4,2 5,1 2,-1 2,-3 1,-4 -1,-1 -2,-2 -3,-2l-3 2zm-1548 2c-1,0 -1,1 -1,3 0,1 1,3 3,3 2,0 2,-2 1,-3 -1,-2 -2,-3 -3,-3zm70 4c0,0 0,0 0,1 0,1 0,1 0,2 1,1 3,2 5,1 2,-1 2,-3 1,-5 -1,-1 -2,-1 -3,-1l-3 2zm1463 0c0,0 0,0 0,1 0,1 0,1 0,2 1,1 3,2 5,1 1,-1 2,-3 1,-5 -1,-1 -2,-1 -3,-1l-3 2zm102 0c-4,0 -7,2 -11,6 -5,6 -6,9 -4,11 5,5 1,8 -8,6 -4,-1 -12,0 -18,3 -8,4 -13,4 -16,2 -4,-2 -10,-2 -22,1 -9,2 -21,4 -26,4 -10,0 -27,6 -29,10 -1,1 1,3 4,6 6,3 5,12 -1,9 -2,-1 -12,-2 -23,-3 -19,-1 -20,0 -20,6 0,4 2,7 5,7 7,0 17,10 18,18 0,7 -1,9 -6,9 -4,0 -6,-2 -5,-7 0,-7 -2,-9 -13,-13 -10,-4 -15,-4 -18,-2 -3,2 -5,2 -7,0 -3,-2 -4,-2 -4,0 0,1 4,5 8,8 11,7 5,12 -8,6 -6,-3 -10,-8 -12,-14 -1,-5 -3,-7 -3,-5 0,3 -2,7 -5,9 -3,2 -4,5 -3,8 2,4 3,10 4,18 0,1 4,2 9,2 9,0 22,10 22,18 0,3 2,6 5,7 4,1 4,2 2,5 -4,4 -16,-2 -16,-9 0,-6 -6,-12 -11,-12 -3,0 -6,5 -9,11 -3,6 -9,14 -14,18 -9,6 -10,6 -20,1 -6,-2 -10,-6 -9,-7 3,-4 13,-4 16,0 9,15 20,-36 11,-52 -2,-2 -2,-7 0,-11 4,-8 0,-12 -12,-12 -5,0 -8,2 -10,9 -2,4 -7,10 -11,13 -6,4 -7,5 -4,11 3,3 7,8 10,10 3,2 5,5 5,8 0,7 -9,8 -16,2 -4,-4 -14,-7 -23,-8 -15,-2 -16,-2 -23,6 -5,5 -9,7 -13,6 -4,-2 -5,-3 -1,-7 3,-4 2,-4 -5,1 -5,3 -14,7 -19,9 -10,3 -11,2 -12,-2 -2,-5 -2,-6 -10,-2 -5,3 -12,5 -16,5 -3,0 -11,4 -17,8 -11,10 -17,11 -22,5 -3,-4 -3,-5 3,-7 6,-2 6,-3 -5,-7 -11,-6 -12,-5 -7,9 4,11 -1,19 -9,15 -5,-3 -23,7 -20,11 0,1 -1,4 -3,6 -4,2 -7,2 -14,-1 -10,-5 -13,-3 -4,3 4,2 5,4 2,7 -5,5 -22,-5 -25,-14 -1,-4 -4,-10 -8,-13 -6,-4 -6,-5 -1,-7 2,-1 9,1 14,3 16,8 43,4 43,-7 0,-4 -35,-23 -44,-23 -2,0 -6,-2 -8,-4 -3,-4 -7,-4 -18,-3 -16,2 -24,-3 -12,-7 7,-3 7,-3 -1,-3 -4,0 -9,-2 -10,-3 -1,-2 -3,-3 -5,-3 -2,0 -2,2 -1,4 2,2 2,3 -2,0 -3,-3 -6,-3 -8,-1 -2,2 -4,2 -5,0 -2,-3 -2,-3 1,-2 3,2 3,2 2,-1 -1,-2 -4,-2 -8,0 -3,1 -6,2 -8,1 -1,-1 -1,-1 0,1 3,5 -7,9 -16,6 -7,-2 -7,-2 -3,3 2,3 3,4 1,3 -1,-1 -4,-1 -6,1 -3,2 -5,2 -5,1 0,-1 -2,-1 -4,1 -2,2 -6,3 -8,3 -10,-1 -13,0 -9,4 4,5 -1,12 -8,12 -4,0 -6,2 -6,6 0,3 -1,5 -2,4 -1,-1 -5,2 -9,5 -4,4 -9,6 -10,5 -1,-2 -2,0 -1,2 2,4 1,6 -1,7 -15,4 -16,5 -12,7 3,2 5,6 5,10 0,9 -7,14 -14,10 -6,-3 -9,-3 -8,1 0,1 -2,4 -5,6 -16,9 -18,14 -13,25 1,2 1,8 1,13 -1,7 0,9 7,10 5,0 11,-2 17,-7l10 -8 4 8c3,5 6,14 8,20 6,16 6,17 14,12 4,-3 11,-5 14,-5 5,0 6,-1 5,-6 -2,-8 3,-20 9,-20 2,0 4,-1 3,-2 -1,-2 0,-4 1,-5 3,-1 2,-4 -3,-8 -5,-6 -6,-9 -4,-18 3,-10 8,-15 25,-23 2,-1 4,-5 4,-8 0,-13 19,-22 27,-12 4,5 3,6 -15,25 -10,9 -11,12 -10,22 2,16 6,18 21,13 14,-5 31,-5 37,-1 8,7 1,10 -37,11 -5,1 -7,10 -2,14 4,2 4,12 0,14 -2,1 -6,0 -8,-3 -6,-8 -14,0 -12,10 2,6 0,9 -8,14 -7,5 -10,6 -13,3 -4,-3 -8,-2 -20,4 -15,8 -16,8 -17,2 -2,-4 -3,-5 -11,-2 -7,2 -10,2 -15,-2 -4,-3 -5,-7 -4,-10 4,-11 4,-15 -1,-14 -6,1 -6,6 -4,24 1,8 1,9 -8,9 -6,0 -13,2 -16,5 -3,2 -6,4 -8,3 -1,-1 -2,0 -2,3 0,7 -5,13 -12,13 -3,0 -7,3 -9,6 -4,6 -20,15 -24,13 -2,-1 -4,1 -4,4 -2,5 -4,6 -10,4 -10,-2 -10,4 0,8 8,2 16,17 16,28 1,10 -8,18 -16,16 -10,-2 -36,-3 -40,-2 -2,1 -3,6 -2,15 1,8 0,16 -2,20 -5,8 2,21 11,21 4,0 8,2 10,5 2,4 4,4 10,1 4,-2 10,-4 14,-5 12,-2 20,-8 20,-16 1,-4 1,-8 1,-9 1,-1 6,-5 13,-8 9,-4 12,-8 12,-13 0,-9 8,-14 18,-12 5,1 11,0 14,-3 9,-6 16,-5 22,4 9,11 25,25 31,26 8,1 16,12 14,19 -1,4 -1,5 2,3 2,-1 3,-5 2,-10 -2,-9 0,-12 6,-8 3,2 4,2 4,0 0,-1 -6,-6 -14,-9 -9,-5 -16,-11 -20,-17 -3,-6 -7,-13 -9,-15 -3,-4 -3,-6 1,-10 5,-5 5,-5 7,0 1,2 3,4 5,3 1,-1 4,2 7,6 3,4 11,11 18,16 10,6 15,12 16,18 3,10 16,28 22,28 2,0 3,-1 2,-3 -1,-2 -3,-2 -5,-1 -2,1 -2,1 -1,-2 2,-2 3,-2 7,0 5,4 3,9 -4,9 -2,0 -4,2 -4,4 0,6 1,6 10,0 10,-6 10,-9 1,-16 -6,-4 -5,-13 1,-10 1,1 3,0 4,-3 1,-3 5,-4 14,-3 9,1 12,0 15,-4 3,-4 3,-7 1,-10 -4,-5 10,-31 21,-38 7,-6 10,-6 15,-4 5,3 6,4 3,7 -2,3 -1,5 4,8 10,4 17,1 9,-5 -3,-2 -4,-5 -2,-6 4,-4 23,-10 26,-8 3,2 2,8 -3,14 -3,3 -1,6 12,15 17,13 20,17 14,24 -6,6 -24,6 -39,-1 -14,-6 -20,-6 -30,0 -4,2 -10,4 -14,4 -4,0 -7,2 -8,5 -1,2 -4,4 -6,4 -9,-2 -11,0 -10,9 1,5 1,10 2,10 0,1 0,2 1,4 0,3 4,7 7,7 1,0 5,2 8,3 3,1 7,1 8,-1 2,-2 7,-2 14,0 7,2 12,2 18,0 11,-5 12,0 5,25 -8,26 -15,34 -27,28 -5,-3 -10,-3 -16,-1 -7,2 -13,2 -31,-5 -34,-11 -33,-11 -43,7 -3,8 -11,7 -31,-5 -10,-7 -21,-12 -24,-12 -3,0 -8,-3 -12,-6 -5,-5 -5,-7 -3,-11 4,-7 1,-20 -5,-22 -2,-1 -12,0 -21,2 -9,1 -19,2 -21,1 -3,-1 -16,2 -30,7 -28,9 -37,11 -40,6 -4,-5 -7,-3 -10,6 -2,4 -8,11 -13,13 -9,5 -12,12 -10,22 2,7 -7,20 -15,24 -5,2 -13,11 -18,20 -5,8 -11,16 -13,16 -5,2 -7,11 -6,38 1,16 -1,28 -4,35 -4,9 -4,10 2,15 3,3 6,6 6,8 0,1 5,8 11,15 5,7 10,15 9,17 -1,7 10,20 25,29 12,7 14,8 27,4 8,-1 18,-2 22,-1 5,1 15,-1 25,-4 9,-4 20,-6 23,-6 7,0 18,7 20,14 1,2 4,2 11,0 14,-3 19,3 17,23 -3,29 -2,35 6,43 7,7 14,20 13,24 0,1 2,4 5,7 3,3 5,9 5,13 0,4 1,11 2,15 2,5 1,11 -3,18 -2,5 -6,16 -8,24 -3,12 -3,16 3,27 7,14 9,22 11,38 3,20 8,34 20,57 13,23 14,28 8,30 -7,3 10,16 18,14 3,-1 15,-3 27,-4 22,-3 31,-7 41,-19 16,-20 23,-32 24,-44 0,-10 2,-13 11,-19 9,-6 10,-8 9,-19 0,-7 -2,-15 -4,-18 -2,-4 -1,-7 7,-14 5,-5 13,-10 18,-13 8,-4 15,-12 17,-19 0,-1 1,-3 1,-5 2,-7 -1,-34 -5,-39 -2,-3 -4,-9 -4,-14 0,-4 -1,-10 -3,-13 -5,-10 20,-49 40,-63 5,-4 14,-12 19,-18 11,-14 30,-49 31,-60 0,-4 3,-9 6,-10 7,-3 1,-2 -29,4 -19,4 -20,4 -28,-1 -5,-3 -8,-7 -7,-8 1,-2 0,-4 -2,-5 -1,-1 -6,-7 -10,-13 -5,-6 -11,-14 -14,-17 -3,-3 -6,-8 -6,-10 0,-2 -3,-5 -6,-7 -5,-3 -6,-6 -6,-17 0,-7 -2,-16 -4,-19 -3,-3 -5,-9 -6,-13 -1,-4 -7,-14 -13,-23 -6,-8 -11,-17 -11,-19 0,-7 6,-8 9,-1 2,6 2,6 5,1 2,-5 2,-5 8,1 7,9 15,25 15,33 0,2 2,5 4,5 6,0 11,9 11,19 0,9 5,18 18,31 5,5 8,11 8,18 1,24 6,31 19,24 3,-1 16,-7 28,-13 13,-5 28,-13 33,-15 11,-6 33,-24 29,-24 -1,0 1,-2 5,-5 3,-3 6,-6 5,-7 -2,-1 0,-5 3,-8 5,-5 5,-6 -7,-13 -7,-4 -13,-10 -15,-14l-2 -8 -4 6c-5,7 -24,16 -28,13 -2,-1 -3,-3 -3,-5 0,-2 -2,-6 -5,-8 -3,-2 -5,-5 -5,-8 0,-3 -4,-11 -9,-18 -8,-11 -9,-13 -4,-16 7,-5 16,-2 21,7 7,13 22,22 34,19 9,-1 11,-1 12,4 2,8 12,10 42,11 22,0 25,1 31,8 3,4 10,8 15,9 10,3 13,7 7,9 -4,1 -4,3 -2,6 5,6 11,5 13,-2 3,-11 8,-3 8,13 0,8 1,16 1,19 1,2 3,10 5,18 3,7 6,14 7,15 1,1 3,4 3,7 0,3 4,14 10,24l11 20 5 -7c7,-11 10,-25 10,-42 0,-12 1,-15 7,-18 9,-5 44,-37 46,-44 1,-3 5,-5 12,-5 5,0 12,-2 15,-4 5,-5 6,-4 12,5 3,5 9,12 12,16 5,6 7,10 6,20 -1,10 0,12 4,12 3,0 8,-3 11,-6 7,-7 8,-6 11,13 1,8 4,16 5,18 2,2 2,12 2,22 -2,16 -1,20 4,26 3,4 6,9 6,12 0,13 20,41 26,36 1,-1 -1,-8 -3,-17 -2,-10 -6,-17 -11,-21 -5,-4 -9,-10 -11,-14 -1,-4 -4,-8 -6,-10 -4,-3 -4,-5 0,-17 4,-13 5,-14 13,-14 13,2 16,3 16,9 0,3 3,7 7,9 3,2 6,6 6,11 0,7 0,7 15,-5l15 -13 -1 -16c0,-13 -3,-19 -10,-29 -5,-6 -10,-14 -13,-17 -3,-5 -3,-7 7,-16 11,-10 12,-10 17,-6 5,4 6,4 7,1 1,-3 5,-5 8,-5 3,0 7,-1 8,-3 2,-1 9,-3 16,-4 11,-2 16,-5 27,-16 7,-7 13,-15 14,-17 0,-2 3,-8 7,-13 9,-11 10,-15 3,-17 -5,-2 -5,-3 0,-6 5,-4 5,-5 1,-5 -8,0 -10,-6 -3,-7 6,-2 6,-2 -3,-15 -9,-12 -9,-13 -4,-20 3,-4 10,-9 15,-11l10 -5 -14 2c-14,1 -28,-4 -28,-11 0,-7 29,-25 33,-21 3,2 3,4 -1,9 -3,4 -4,8 -3,9 1,1 3,-1 5,-4 4,-7 12,-8 22,-3 4,2 5,4 2,8 -2,4 -1,6 5,10 5,3 7,6 6,16 -1,11 0,11 7,8 14,-5 14,-6 6,-25l-8 -18 7 -8c4,-4 12,-12 18,-19 9,-9 12,-10 15,-8 7,5 13,2 26,-13 25,-29 35,-50 35,-79 0,-10 -8,-19 -13,-15 -5,4 -17,4 -17,0 0,-1 -3,-4 -7,-5 -6,-2 -6,-3 -2,-8 2,-4 15,-15 29,-26 24,-19 37,-25 44,-18 3,3 24,1 29,-3 2,-2 6,-1 10,1 9,5 31,6 27,1 -4,-5 24,-26 36,-27 10,0 16,4 10,7 -2,1 -3,4 -3,6 0,4 1,4 7,-1 4,-4 9,-7 11,-7 2,0 3,-1 3,-3 0,-6 8,-12 12,-10 5,3 -6,20 -13,22 -3,0 -12,8 -20,16 -9,9 -18,16 -20,16 -2,0 -5,4 -8,8 -6,10 -7,31 -1,48l3 12 8 -10c4,-5 9,-9 11,-9 2,0 3,-1 2,-3 -3,-5 8,-18 13,-16 4,1 4,0 3,-3 -2,-6 3,-16 7,-14 2,1 3,0 3,-1 0,-2 -1,-4 -3,-5 -1,-1 -2,-3 -1,-5 1,-1 0,-4 -1,-6 -5,-5 7,-23 13,-21 2,1 6,0 8,-3 2,-2 5,-4 7,-3 2,0 7,-1 12,-2 6,-2 10,-1 13,2 5,4 6,4 15,-2 16,-12 42,-22 49,-18 3,1 6,1 8,0 3,-4 -6,-21 -11,-21 -6,0 -12,-8 -8,-10 1,-1 6,-1 11,1 10,4 17,1 17,-7 0,-9 6,-12 8,-5 2,7 2,7 10,4 4,-3 7,-2 11,2 3,4 7,6 9,6 2,0 5,2 7,4 5,5 11,6 8,2 -2,-4 7,-15 12,-15 2,0 5,-1 7,-3 3,-3 1,-5 -9,-9 -15,-6 -16,-6 -19,1 -1,7 -8,5 -8,-3 0,-13 -40,-31 -74,-33 -14,-2 -28,-4 -31,-5 -5,-3 -5,-2 -3,6 2,11 -2,13 -14,7 -8,-4 -16,-6 -32,-5 -25,0 -35,-2 -35,-10 0,-8 -7,-9 -34,-7 -20,1 -24,1 -26,-3 -1,-2 -3,-4 -6,-3 -4,1 -9,-4 -9,-9 0,-5 -11,-5 -21,1 -11,7 -17,5 -9,-3 4,-4 3,-5 -13,-5 -10,0 -20,0 -22,-1 -3,0 -5,2 -5,8 0,7 -1,9 -7,9 -3,0 -7,1 -8,2 -1,1 -6,0 -10,-2 -6,-3 -9,-3 -14,-1 -4,3 -7,3 -11,0 -5,-3 -6,-2 -8,2 -3,11 -10,10 -26,-3 -15,-13 -17,-17 -6,-17 5,0 5,-1 2,-5 -2,-4 -7,-5 -19,-5 -9,0 -17,1 -18,4 -5,5 -37,3 -36,-2 1,-5 -27,-5 -32,0 -3,2 -5,1 -8,-4 -2,-4 -4,-8 -4,-9 0,-4 -3,-4 -14,-2 -8,2 -9,2 -3,3 8,0 23,8 16,8 -1,0 -4,-1 -5,-2 -1,-2 -5,-3 -10,-3 -8,0 -8,0 -2,4 6,4 6,4 0,6 -3,1 -8,3 -11,4 -6,3 -23,2 -23,-1 0,-2 5,-5 10,-8 6,-3 13,-7 16,-9 3,-3 8,-5 11,-5 9,0 21,-7 17,-10 -3,-2 -3,-3 0,-7 4,-3 4,-4 0,-3 -3,1 -7,0 -10,-2 -4,-3 -8,-4 -19,-1 -9,2 -16,2 -19,0 -3,-1 -8,-3 -12,-4 -6,-2 -6,-2 0,-6 5,-3 4,-4 -4,-5 -1,-1 -3,-1 -4,-1l0 0 0 0zm-1452 3c0,0 0,0 0,1 0,0 0,1 0,2 1,1 3,2 5,1 2,-1 2,-3 1,-5 -1,-1 -2,-1 -3,-1l-3 2zm1396 0c-1,0 -1,0 -1,1 0,0 1,1 1,2 1,1 3,2 5,1 -1,-1 -2,-2 -4,-2l-1 -2zm-1592 1c-1,0 -3,1 -4,3 -2,2 -7,3 -11,3 -4,0 -13,4 -19,9 -9,8 -10,9 -4,8 4,-1 8,-1 9,1 1,2 4,-1 8,-6 4,-7 7,-8 10,-6 3,2 5,1 9,-3 3,-5 4,-9 2,-9l0 0zm265 1c-1,0 -2,0 -2,1 -1,1 1,1 4,1 3,0 4,-1 2,-2 0,0 -1,0 -1,0 0,0 0,0 0,0l-3 0zm1275 1c0,0 0,1 0,1 0,1 0,2 0,2 1,2 3,2 5,1 2,-1 2,-3 1,-4 -1,-1 -2,-2 -3,-2l-3 2zm137 0c0,0 0,1 0,1 0,1 0,2 1,2 1,2 3,2 4,1 0,-1 -2,-1 -3,-1l-2 -3zm-1655 3c0,0 0,1 0,1 0,1 0,1 0,2 1,2 4,2 5,1 -1,-1 -2,-2 -3,-1l-2 -3zm315 0c0,0 -1,1 -1,1 0,1 1,1 1,2 1,2 3,2 5,1 -1,-1 -2,-2 -4,-1l-1 -3zm730 3c-1,0 -1,1 -1,1 0,1 1,1 1,2 1,1 3,2 5,1 1,-1 2,-3 1,-4 -1,-2 -2,-2 -4,-2l-2 2zm922 0c0,0 0,1 0,1 0,1 0,1 0,2 1,1 3,2 5,1 -1,-1 -2,-2 -3,-1l-2 -3zm-1834 2c-2,0 -3,1 -2,3 1,2 7,4 15,5 11,1 14,3 15,9 1,7 4,8 20,9 4,1 8,2 9,3 2,2 13,2 24,1 12,-1 26,-1 32,-1 6,-1 9,-2 8,-4 -1,-1 0,-5 2,-7 4,-5 4,-5 0,-2 -3,2 -8,3 -13,3 -4,0 -19,1 -33,1 -27,2 -40,-2 -40,-10 0,-2 -5,-5 -11,-6 -7,0 -16,-2 -21,-3 -2,-1 -4,-1 -5,-1l0 0zm1446 1c0,0 0,0 0,1 0,1 0,1 0,2 1,1 4,2 5,1 -1,-1 -2,-2 -3,-2l-2 -2zm-215 0c-3,0 -10,2 -17,5 -8,3 -18,5 -24,4 -5,0 -15,1 -22,4 -8,3 -18,6 -23,6 -8,0 -9,0 -6,3 3,3 2,6 -6,12 -6,5 -8,8 -5,9 11,3 12,5 5,4 -10,-2 -12,-1 -19,10 -5,7 -5,9 -1,7 5,-2 13,5 10,9 -1,1 5,2 13,3 8,0 12,-1 10,-2 -6,-2 -13,-9 -13,-15 0,-6 24,-31 35,-36 5,-2 11,-4 14,-4 6,0 41,-10 48,-14 6,-3 5,-4 1,-5l0 0zm-1325 2c-2,0 -3,2 -2,7 0,7 -1,8 -7,9 -4,1 -10,-1 -14,-3 -3,-2 -12,-5 -19,-6 -11,-2 -12,-2 -12,5 0,7 6,10 9,5 2,-3 17,0 17,4 0,2 -3,4 -6,5 -7,1 -6,2 2,2 6,0 14,-1 19,-3 4,-2 14,-4 20,-5 7,-1 13,-3 13,-5 1,-2 -1,-3 -5,-3 -5,1 -7,0 -9,-6 -2,-4 -4,-6 -6,-6l0 0zm59 0c1,0 1,0 1,0 0,0 0,0 1,0 -5,2 -5,3 2,11 10,10 20,10 20,0 0,-7 -9,-12 -17,-12l-7 1zm-22 1c0,0 0,0 0,1 0,0 0,1 1,2 1,1 3,2 5,1 1,-1 2,-3 1,-5 -1,-1 -2,-1 -4,-1l-3 2zm1915 0c0,0 0,0 0,1 0,0 0,1 1,2 1,1 3,2 4,1 0,-1 -2,-2 -3,-2l-2 -2zm-1894 3c2,-1 4,1 6,2 2,3 2,5 0,6 -1,1 -4,0 -6,-2 -2,-3 -2,-5 -1,-6l1 0zm1792 2c-1,0 -1,0 -1,0 -5,2 -6,11 -3,15 3,3 13,2 15,-1 1,-2 5,-2 10,0 10,4 11,3 7,-2 -2,-2 -3,-5 -2,-7 1,-2 1,-3 -1,-3 -1,0 -4,2 -5,3 -1,2 -4,2 -9,-2 -4,-2 -9,-3 -11,-3l0 0zm-20 1c-3,0 -5,4 -2,7 1,2 3,2 5,0 3,-2 3,-4 0,-6 -1,-1 -2,-1 -3,-1l0 0zm58 1c-7,0 -7,1 -4,4 4,5 4,5 10,3 7,-2 3,-7 -6,-7l0 0zm-1961 1c0,1 0,1 0,1 0,1 1,2 1,2 1,2 3,2 5,1 -1,-1 -2,-1 -4,-1l-2 -3zm159 0c0,1 0,1 0,1 0,1 0,2 1,2 1,2 3,2 4,1 0,-1 -2,-1 -3,-1l-2 -3zm-43 1c0,0 0,0 0,0 0,0 0,0 0,0 -2,1 -2,3 1,5 2,3 4,4 6,3 2,-1 1,-4 -1,-6 -1,-2 -4,-3 -5,-3l-1 1zm636 2c0,1 0,1 0,1 0,1 0,2 0,2 1,2 3,2 5,1 -1,-1 -2,-1 -3,-1l-2 -3zm1233 2c-1,0 0,1 3,3 2,1 8,2 12,2l7 0 -7 -2c-4,-1 -10,-3 -12,-3 -1,0 -2,0 -3,0l0 0zm-1881 1c0,0 0,1 0,1 0,1 0,2 1,2 1,2 3,2 4,1 2,-1 2,-3 1,-4 0,-1 -2,-2 -3,-2l-3 2zm1396 0c0,0 0,1 0,1 0,1 0,2 0,2 1,2 4,2 5,1 2,-1 2,-3 1,-4 -1,-1 -2,-2 -3,-2l-3 2zm-1325 0c0,0 0,0 0,0 0,0 0,0 0,0 -2,0 -3,1 -4,2 -2,2 -2,4 1,6 5,3 10,2 12,-3 1,-2 -3,-5 -7,-5l-2 0zm586 3c0,0 0,1 0,1 0,1 0,1 0,2 1,2 3,2 5,1 2,-1 2,-3 1,-4 -1,-2 -2,-2 -3,-2l-3 2zm272 3c0,0 0,1 0,1 0,1 0,1 0,2 1,1 3,2 5,1 -1,-1 -2,-2 -4,-2l-1 -2zm867 6c0,0 0,0 0,1 0,0 0,1 1,2 1,1 3,2 4,1 -1,-1 -2,-2 -3,-2l-2 -2zm43 1c-2,1 -3,3 -3,8 -1,6 1,7 10,7 6,0 10,-1 9,-3 -1,-2 -4,-3 -7,-3 -2,0 -5,-2 -6,-4 -1,-3 -2,-5 -3,-5l0 0zm-1961 1c-8,0 -16,3 -16,8 1,10 -1,15 -7,17 -5,2 -6,3 -2,3 3,0 7,3 9,6 4,5 13,5 18,-2 2,-2 6,-4 8,-4 2,0 4,-1 4,-3 0,-1 4,-4 9,-7 12,-5 17,-5 7,0 -5,2 -7,4 -5,4 5,0 12,-5 13,-10 0,-5 -10,-10 -20,-9 -5,0 -10,-1 -12,-2 -2,-1 -4,-1 -6,-1l0 0zm1432 3c0,1 0,1 0,1 0,1 1,2 1,2 1,2 3,2 5,1 -1,-1 -2,-1 -4,-1l-2 -3zm-1217 1c-7,0 -16,2 -18,4 -2,1 -2,7 -1,13 2,9 3,10 6,7 3,-2 4,-5 3,-6 -1,-1 1,-3 4,-4 8,-3 16,-10 14,-13 0,-1 -4,-2 -8,-1l0 0zm-41 0c-1,0 -3,1 -6,3 -5,2 -11,4 -13,4 -3,0 -3,1 0,4 5,6 -1,8 -10,4 -9,-4 -4,1 11,11 7,5 13,8 14,6 0,-1 3,-2 6,-2 8,0 9,-6 2,-12 -4,-4 -5,-7 -2,-9 1,-2 2,-5 1,-7 0,-1 -1,-2 -3,-2l0 0zm1298 2c0,1 0,1 0,1 0,1 0,2 1,2 1,2 3,2 4,1 2,-1 2,-3 1,-4 0,-1 -2,-2 -3,-2l-3 2zm-1357 2c-2,0 -3,2 -2,3 0,2 -3,4 -6,5 -5,1 -7,3 -7,8 0,8 -6,12 -8,6 -1,-3 -6,-6 -11,-9 -7,-3 -8,-3 -10,1 -1,3 -3,3 -7,0 -4,-3 -5,-3 -7,1 -4,7 -10,3 -7,-4 1,-3 0,-5 -1,-5 -1,0 -18,8 -25,13 0,0 1,4 3,8 3,8 4,8 17,7 15,-2 27,2 24,7 -1,1 -11,2 -23,2 -19,1 -19,1 -9,4 6,1 14,5 16,8 6,6 24,5 43,-3 11,-4 14,-4 26,-1 7,2 15,5 18,7 4,3 4,3 0,-2 -6,-6 -4,-10 7,-14 2,0 0,-1 -5,-1 -5,-1 -12,-2 -15,-4 -7,-5 -14,-26 -11,-30 4,-3 4,-7 0,-7l0 0zm193 0c-4,0 -7,1 -7,4 0,6 4,8 11,6 3,-1 9,-1 12,-1 6,-1 6,-1 -1,-5 -5,-2 -10,-4 -15,-4l0 0zm-54 3c-9,0 -23,10 -23,18 0,8 10,22 15,22 3,0 19,1 36,1 21,1 34,3 42,7 7,2 15,5 18,5 9,1 13,6 8,12 -4,5 -4,5 1,2 4,-4 5,-3 8,2 2,3 3,7 3,10 0,2 3,3 8,2 9,-1 12,3 6,8 -4,3 -5,3 -10,-1 -5,-4 -6,-4 -12,0 -6,4 -6,5 -3,9 2,2 2,4 0,4 -1,0 -8,0 -16,1 -10,0 -14,1 -15,5 0,4 1,5 6,5 4,0 9,-1 12,-2 4,-3 28,6 28,11 0,1 3,3 8,4 6,2 7,3 4,5 -3,1 -2,2 5,2 5,0 15,2 21,5 16,8 15,8 9,1 -6,-6 -6,-6 0,-7 10,-3 7,-13 -8,-27 -13,-12 -13,-12 -8,-16 8,-6 9,-6 21,4 7,7 10,8 14,6 2,-2 3,-5 2,-6 -1,-2 1,-4 5,-5 6,-1 6,-2 1,-7 -3,-2 -6,-4 -9,-3 -2,0 -6,-2 -9,-5 -3,-3 -9,-6 -14,-6 -10,0 -18,-10 -11,-13 3,-2 4,-4 3,-6 -3,-3 -20,-11 -23,-10 -2,0 -5,0 -8,-1 -4,-2 -4,-2 1,-6 5,-4 5,-4 1,-4 -3,0 -6,1 -7,3 -1,1 -4,2 -7,0 -3,-1 -7,-3 -8,-3 -2,0 -3,-2 -3,-3 0,-6 -11,-11 -20,-9 -5,0 -9,2 -8,4 3,4 -7,6 -12,2 -2,-2 -6,-3 -7,-2 -4,3 -8,-4 -7,-12 0,-5 -1,-6 -6,-6 -4,0 -10,2 -12,4 -5,4 -7,19 -3,24 2,2 2,4 0,5 -6,3 -12,-7 -12,-19l0 -10 2 12c2,10 3,10 4,4 3,-9 -3,-20 -11,-20l0 0 0 0zm465 4c-2,0 -2,0 -2,1 0,0 3,2 7,3 9,4 9,4 7,1 -2,-2 -9,-5 -12,-5l0 0zm-16 17c1,0 2,1 3,2 1,1 0,3 -1,4 -2,1 -4,1 -5,-1 1,0 1,0 1,0l2 -5zm1579 3c-1,0 -1,0 -2,1 -1,0 -2,2 -1,4 1,1 3,2 5,1 1,-1 2,-3 1,-4 -1,-2 -2,-2 -3,-2l0 0zm-2084 1c0,0 0,0 0,0 0,0 0,0 0,0 -11,6 -11,20 0,20 8,0 9,3 4,12 -5,11 -8,12 -16,8 -4,-3 -7,-3 -13,0 -12,5 -32,7 -43,2 -6,-2 -11,-5 -11,-7 0,-3 -15,-4 -23,-1 -4,1 -4,2 -1,4 2,1 6,2 9,2 3,0 2,-1 -2,-2 -5,-2 -5,-3 -1,-3 8,0 10,6 3,7 -5,2 -6,4 -6,9 1,10 -6,12 -9,3 -4,-9 -14,-12 -31,-10 -14,2 -23,-4 -14,-9 5,-2 5,-3 -1,-6 -5,-2 -8,-3 -11,0 -3,2 -7,2 -14,-2 -14,-6 -34,-10 -39,-6 -2,2 -6,1 -12,-2 -9,-4 -10,-4 -20,1 -24,14 -33,18 -36,15 -2,-1 2,-5 10,-10 7,-4 12,-7 9,-8 -2,0 -8,3 -13,6 -8,5 -11,5 -15,2 -4,-3 -4,-3 -1,1 4,5 8,22 5,24 -3,3 -10,-4 -10,-11 0,-4 -1,-7 -2,-7 -5,-1 -12,-3 -25,-7 -7,-3 -17,-5 -21,-5 -3,0 -7,-1 -8,-2 -1,-2 -10,-3 -20,-3 -10,0 -22,-2 -25,-3 -4,-2 -8,-3 -12,-1 -4,3 -6,2 -9,-1 -2,-2 -8,-4 -13,-4 -4,0 -9,-2 -10,-3 -2,-2 -3,-2 -6,0 -3,2 -5,2 -6,0 -1,-2 -5,-1 -10,2 -4,2 -7,3 -7,2 0,-1 -1,-1 -3,2 -1,2 -6,4 -11,5 -5,0 -11,4 -14,8 -4,4 -7,7 -8,6 -1,-1 -5,0 -10,3l-9 4 10 8c9,8 19,12 25,13 5,1 5,7 -1,10 -4,2 -8,2 -14,-1 -5,-3 -10,-3 -13,-2 -3,2 -8,4 -12,5 -6,2 -5,2 1,4 4,2 6,4 5,7 -2,6 27,9 31,3 5,-6 10,-3 9,5 0,6 -16,18 -20,15 -2,-1 -5,1 -9,5 -4,4 -6,8 -4,12 3,10 11,17 17,16 3,-1 7,0 8,3 4,6 23,12 29,9 6,-4 9,1 5,10 -3,8 -14,16 -32,23 -6,3 -11,5 -10,6 1,2 17,-5 27,-10 2,-2 9,-5 15,-8 13,-7 31,-24 29,-27 -1,-1 1,-3 3,-5 3,-2 5,-6 5,-8 0,-5 8,-11 14,-8 5,2 5,2 0,5 -4,4 -7,13 -4,13 7,0 18,-6 16,-9 -3,-8 11,-13 16,-6 4,5 17,9 33,11 9,1 22,5 30,9 10,5 16,6 19,4 2,-2 5,-1 8,4 3,4 5,8 5,9 0,3 14,13 18,13 6,0 13,19 9,25 -1,2 1,4 6,6 8,4 8,4 2,10 -3,4 -4,5 -1,3 5,-5 17,1 12,6 -4,5 -1,8 6,8 8,0 34,24 34,31 0,7 -5,11 -8,6 -4,-6 -6,-2 -6,15 0,10 -1,26 -2,36 -1,18 7,39 14,38 2,-1 3,2 3,5 1,10 14,27 22,30 4,2 7,4 6,6 -2,2 0,3 3,2 5,0 7,3 11,15 4,9 9,19 12,22 4,4 5,7 3,9 -3,2 -1,6 6,11 5,5 9,11 9,14 0,7 17,21 21,18 1,-1 0,-3 -3,-5 -3,-1 -6,-4 -6,-6 0,-1 -4,-9 -9,-16 -5,-7 -9,-13 -9,-14 0,-2 -3,-8 -7,-15 -5,-9 -6,-13 -3,-15 4,-4 13,1 13,7 0,2 6,12 14,22 7,9 13,18 13,20 0,1 5,7 11,13 13,15 17,23 15,30 -2,7 8,14 41,30 21,10 27,11 31,9 5,-3 8,-2 17,3 14,10 34,19 39,19 7,0 21,15 21,24 0,7 0,8 4,5 4,-3 5,-2 8,3 2,5 6,7 11,8 4,0 10,2 12,3 2,2 4,1 7,-3 8,-12 22,6 21,29 0,10 -2,16 -10,25 -6,6 -12,18 -14,25 -3,13 -3,15 2,17 5,3 5,3 -1,8l-7 5 11 21c5,12 13,31 17,43 6,18 9,23 19,29 6,4 17,12 23,17l11 9 -4 50c-2,27 -4,57 -5,66 0,10 -4,21 -9,31 -6,11 -8,18 -7,24 1,5 1,13 -1,18 -3,8 -3,11 0,17 4,7 3,38 -2,43 -3,2 -4,2 -6,-2 -1,-4 -2,-4 -4,-1 -4,5 -4,9 -1,7 4,-2 20,15 18,18 -1,2 -4,2 -6,1 -3,-1 -4,2 -3,13 0,7 -1,15 -3,17 -2,3 -2,4 1,3 7,-1 22,10 20,14 -3,7 3,4 7,-3 2,-4 5,-7 7,-7 1,0 3,-3 3,-7 0,-4 2,-9 6,-12 3,-3 5,-6 4,-7 0,0 3,-6 8,-11 10,-10 10,-10 4,-13 -13,-4 -12,-25 1,-25 3,0 4,-4 4,-9 0,-7 2,-10 6,-11 6,-1 6,-2 2,-4 -2,-2 -5,-6 -5,-9 -1,-5 0,-6 7,-6 9,0 12,-3 16,-14 1,-3 6,-5 17,-7 25,-3 31,-13 17,-29 -9,-10 -7,-13 4,-7 8,4 10,4 20,0 10,-5 18,-15 34,-45 6,-12 8,-17 5,-22 -2,-4 -2,-8 -1,-10 2,-3 24,-18 27,-18 1,0 3,-1 5,-4 2,-2 9,-5 16,-5 11,-1 12,-2 20,-20 7,-15 9,-22 9,-42 0,-16 1,-24 4,-26 2,-1 9,-9 15,-18 15,-20 16,-35 2,-42 -5,-2 -11,-6 -13,-9 -3,-4 -9,-6 -22,-7 -16,-1 -21,-3 -29,-11 -12,-11 -17,-11 -25,-1 -5,5 -9,7 -14,6 -10,-1 -10,-6 0,-8 4,-1 7,-4 8,-7 1,-7 -4,-6 -16,4 -6,5 -11,8 -12,7 -3,-3 16,-27 20,-25 2,1 1,-1 -2,-5 -4,-3 -6,-7 -6,-8 4,-11 -16,-27 -33,-27 -8,0 -13,-2 -22,-10 -6,-6 -14,-14 -19,-18 -4,-4 -6,-8 -5,-10 1,-2 -4,-2 -14,-1 -10,1 -16,1 -17,-1 -1,-2 -4,-3 -6,-2 -6,0 -20,-6 -20,-10 -1,-2 -2,-1 -3,3 -2,3 -5,6 -6,6 -2,0 -2,3 -1,6 2,7 -5,10 -9,3 -2,-5 -2,-8 2,-13 6,-9 1,-9 -8,0 -3,4 -8,6 -11,5 -4,-1 -5,1 -12,19 -1,3 -3,3 -9,-3 -7,-6 -9,-6 -20,-3 -11,3 -12,2 -20,-6 -7,-8 -8,-10 -6,-27 2,-17 2,-18 -6,-20 -5,-1 -14,-2 -20,-2 -10,-1 -10,-1 -9,-9 0,-5 2,-10 3,-12 1,-1 3,-8 5,-15 1,-11 1,-12 -4,-12 -14,0 -22,5 -23,15 -1,9 -2,9 -14,11 -17,3 -25,-1 -34,-18 -6,-12 -8,-37 -4,-41 1,-1 2,-6 1,-12 0,-8 1,-10 11,-16 14,-8 17,-9 28,-6 5,2 13,4 19,5 9,1 10,1 6,-3 -4,-4 -3,-6 2,-9 4,-3 9,-4 13,-2 5,1 12,2 16,1 9,0 18,9 19,22 1,10 8,21 14,21 5,0 4,-4 -3,-27 -3,-11 -6,-22 -6,-24 0,-2 7,-11 16,-20 9,-8 16,-16 15,-17 -1,-1 1,-2 4,-3 3,-1 4,-3 3,-4 -1,-1 0,-3 2,-4 2,-2 2,-4 0,-8 -4,-7 -3,-21 1,-21 2,0 4,3 5,7 2,6 2,6 3,1 0,-9 15,-27 21,-27 12,0 16,-3 12,-9 -3,-4 -2,-6 2,-12 2,-4 7,-8 9,-8 3,0 12,-3 19,-7 10,-4 17,-6 21,-4 3,1 4,2 2,2 -6,1 -16,9 -16,15 0,3 2,3 7,-2 4,-3 11,-7 17,-9 5,-2 10,-6 11,-8 1,-3 3,-4 5,-3 2,1 3,1 3,0 0,-6 -4,-6 -11,1 -6,6 -8,6 -12,4 -2,-2 -3,-5 -2,-7 1,-3 1,-3 -3,0 -3,2 -6,1 -12,-5 -9,-8 -9,-11 1,-11 3,0 5,-2 5,-5 0,-7 -20,-3 -31,6 -6,6 -9,7 -12,5 -4,-4 22,-25 35,-28 5,-1 16,-1 24,-1 9,0 18,-2 22,-4 4,-2 11,-4 16,-5 8,-2 9,-3 9,-11 0,-13 -4,-15 -18,-11 -7,3 -12,3 -13,1 -2,-4 7,-11 16,-11 4,0 5,-1 1,-2 -2,-1 -8,-4 -12,-7 -5,-3 -9,-4 -10,-4 -1,1 -4,-1 -6,-5 -3,-5 -5,-8 -3,-8 1,0 -1,-3 -5,-7 -4,-3 -7,-10 -8,-15 -3,-12 -5,-13 -14,-4 -5,5 -10,8 -13,7 -2,-1 -5,0 -7,2 -1,2 -4,1 -8,-3 -7,-8 -9,-14 -5,-16 4,-3 3,-10 -1,-10 -3,0 -9,-3 -13,-8 -7,-6 -12,-8 -24,-8 -14,-1 -15,0 -19,9 -2,5 -3,10 -1,14 2,3 2,6 -1,9 -2,2 -2,4 -1,4 1,0 1,2 -1,4 -3,3 -2,6 3,11 7,10 7,19 0,29 -3,4 -5,13 -5,24 -1,12 -2,18 -6,21 -5,3 -7,2 -18,-7 -11,-10 -11,-12 -10,-23l1 -12 -13 -1c-9,-1 -20,-6 -30,-12 -9,-6 -18,-10 -20,-9 -3,2 -8,-4 -8,-12 0,-4 -2,-5 -7,-5 -5,1 -7,-1 -10,-6 -4,-11 0,-18 19,-37 5,-5 8,-10 7,-11 -2,-3 10,-9 15,-7 2,1 8,-1 12,-4 8,-6 8,-6 -10,-11 -8,-2 2,-7 13,-6 9,1 10,2 11,12 1,7 0,11 -4,12 -4,2 -3,3 4,6 8,4 9,4 14,-3 5,-7 6,-7 13,-3 4,3 8,4 10,3 5,-3 -10,-16 -21,-18 -5,-1 -11,-5 -14,-9 -5,-7 -4,-7 7,-7 7,1 25,-7 25,-11 0,-1 -2,-4 -4,-7 -3,-4 -4,-7 -1,-10 4,-5 -6,-12 -17,-12 -7,0 -8,1 -6,5 3,4 1,8 -5,15 -7,9 -8,9 -12,4 -2,-2 -4,-8 -4,-11 0,-4 -2,-8 -4,-10 -4,-3 -5,-2 -10,4 -5,8 -10,8 -10,-1 0,-3 -3,-6 -7,-7 -5,-1 -6,-2 -3,-5 5,-6 -6,-17 -14,-18l0 0 -4 1zm68 1c-1,0 -1,1 -1,3 0,1 1,3 3,3 2,0 2,-2 1,-3 -1,-2 -2,-3 -3,-3zm1990 1c-6,0 -14,2 -17,5 -2,2 14,2 26,0 0,0 0,-2 -1,-4 -1,-1 -4,-1 -8,-1l0 0zm-2311 3c0,0 0,1 0,1 0,1 0,1 1,2 1,1 3,2 4,1 0,-1 -2,-2 -3,-2l-2 -2zm904 0c0,0 0,1 0,1 0,1 0,1 1,2 1,1 3,2 4,1 0,-1 -2,-2 -3,-2l-2 -2zm-9 6c0,0 0,0 0,1 0,0 0,1 0,2 1,1 4,2 5,1 -1,-1 -2,-2 -3,-2l-2 -2zm508 1c-2,0 -3,0 -4,1 -2,2 -1,4 3,7 7,5 10,5 13,1 2,-3 -7,-9 -12,-9zm-303 1c-1,1 -1,1 -1,2 0,0 1,1 1,2 1,1 3,2 5,1 1,-1 2,-3 1,-5 -1,-1 -2,-1 -4,-1l-2 1zm-874 7c-1,0 -3,1 -5,3 -5,5 -5,6 0,8 2,1 4,3 3,4 -1,2 2,2 8,0 5,-1 11,-4 12,-6 2,-3 2,-3 2,0 0,2 -2,4 -4,5 -3,1 -4,3 -3,5 3,4 7,2 12,-7l4 -9 -9 2c-7,1 -11,0 -15,-3 -2,-2 -4,-3 -5,-2l0 0zm1106 2c-5,0 -12,7 -9,10 1,2 4,3 8,0 6,-3 7,-7 2,-10 0,0 0,0 0,0 0,0 0,0 0,0l-1 0zm-771 2c-2,0 -4,2 -3,3 1,2 3,3 5,3 2,0 3,-1 3,-3 0,-1 -2,-3 -5,-3zm-196 1c0,1 0,1 0,2 0,0 0,1 1,2 1,1 3,1 5,1 1,-1 2,-3 1,-5 -1,-1 -2,-1 -4,-1l-3 1zm-382 2c-2,0 -5,1 -8,2 -2,2 -3,3 -1,3 1,0 5,-1 7,-3 3,-1 3,-2 2,-2zm1099 1c0,0 0,0 0,1 0,1 0,1 0,2 1,1 3,2 5,1 -1,-1 -2,-2 -3,-2l-2 -2zm-706 6c0,0 0,0 0,1 0,0 0,1 1,2 1,1 3,2 4,1 0,-2 -2,-2 -3,-2l-2 -2zm694 0c-1,0 -1,0 -1,1 0,0 1,1 1,2 1,1 3,2 5,1 -1,-2 -2,-2 -4,-2l-1 -2zm-671 4c-1,0 -1,1 -1,1 -8,1 -9,8 -2,8 4,0 7,-2 7,-5 0,-2 -2,-4 -4,-4zm37 17c-3,0 -5,2 -4,3 1,2 3,3 4,3 2,0 4,-1 5,-3 1,-1 -1,-3 -5,-3zm417 4c-2,0 -5,0 -10,1 -8,1 -17,2 -20,2 -3,0 -4,1 -4,2 3,3 -12,12 -21,12l-9 0 9 2c5,1 9,3 8,5 -2,2 8,7 17,7 4,0 14,-3 23,-6 18,-7 23,-12 16,-15 -2,-1 -4,-4 -4,-7 0,-2 -1,-3 -5,-3zm-49 2c-3,0 -7,1 -10,3 -4,2 -3,3 3,3 5,0 9,-1 10,-3 2,-2 0,-3 -3,-3zm238 22c0,0 0,0 0,1 0,0 0,1 0,2 1,1 4,2 5,1 2,-1 2,-3 1,-5 -1,-1 -2,-1 -3,-1l-3 2zm-588 8c4,0 15,4 17,7 1,2 1,4 0,3 -4,0 -20,-8 -19,-10 1,0 1,0 2,0l0 0zm-756 0c0,0 0,0 0,0 0,0 0,0 0,0 -1,0 -2,0 -2,1 -2,1 -1,3 1,5 4,5 20,5 19,0 -1,-3 -10,-6 -16,-6l-2 0zm697 0c-1,1 -1,1 -1,1 0,1 1,2 1,2 1,2 3,2 5,1 1,-1 2,-3 1,-4 -1,-1 -2,-2 -4,-2l-2 2zm-13 3c0,0 0,1 0,1 0,1 0,2 1,2 1,2 3,2 5,1 1,-1 2,-3 1,-4 -1,-1 -2,-2 -4,-2l-3 2zm-11 8c-1,0 -1,1 -2,2 -2,2 -3,5 -2,8 2,4 3,4 6,2 1,-2 2,-6 1,-8 -1,-3 -2,-4 -3,-4l0 0zm-23 1c-5,0 -10,4 -8,8 1,1 5,1 8,-1 5,-2 6,-4 3,-6 -1,-1 -2,-2 -3,-1l0 0zm569 3c-2,0 -4,3 -3,6 1,2 0,5 -1,5 -2,1 -3,3 -2,5 1,1 4,2 5,1 2,-1 3,-3 2,-3 -1,-1 -1,-4 1,-6 2,-2 3,-5 1,-7 0,-1 -1,-1 -2,-1l-1 0zm283 10c1,0 1,0 2,0 4,0 8,2 10,6 4,7 4,9 -1,7 -2,0 -5,0 -7,1 -1,2 -4,0 -6,-4 -2,-4 -3,-8 -2,-8 1,-1 3,-2 4,-2l0 0zm-240 7c-3,0 -5,4 -3,8 2,2 3,2 6,0 2,-3 2,-4 0,-7 -1,-1 -2,-1 -3,-1l0 0zm-501 3c0,0 0,0 0,1 0,1 0,1 0,2 1,1 3,2 5,1 1,-1 2,-3 1,-5 -1,-1 -2,-1 -3,-1l-3 2zm659 0c0,0 0,0 0,1 0,1 0,1 1,2 1,1 3,2 5,1 -1,-1 -2,-2 -4,-2l-2 -2zm-1392 3c0,0 0,0 0,1 0,0 0,1 0,2 1,1 3,2 5,1 1,-1 2,-3 1,-5 -1,-1 -2,-1 -3,-1l-3 2zm1222 11c-2,0 -5,3 -10,7 -10,8 -14,20 -10,23 2,1 2,3 1,5 -3,3 4,12 11,12 2,0 5,3 5,8 1,6 -1,8 -6,10 -3,2 -5,3 -4,3 2,0 1,2 -1,5 -3,3 -3,4 3,4 10,0 11,6 0,9 -12,5 -11,8 2,5 6,-2 12,-3 14,-2 14,1 22,-2 25,-11 2,-5 1,-7 -2,-7 -6,0 -8,-3 -10,-12 -1,-6 -12,-19 -19,-23 -3,-2 -2,-4 2,-10 5,-8 5,-8 -2,-6 -10,2 -11,-2 -4,-11 5,-6 6,-9 5,-9l0 0zm-1189 6c0,0 0,1 0,1 0,1 0,1 1,2 1,2 3,2 4,1 2,-1 2,-3 2,-4 -1,-1 -3,-2 -4,-2l-3 2zm1158 0c0,0 0,1 0,1 0,1 0,1 0,2 1,2 3,2 5,1 -1,-1 -2,-2 -3,-1l-2 -3zm220 0c0,0 0,1 0,1 0,1 0,1 0,2 1,2 3,2 5,1 1,-1 2,-3 1,-4 -1,-1 -2,-2 -3,-2l-3 2zm-1302 4c-5,0 -19,9 -19,12 0,1 1,3 2,4 3,3 20,-13 18,-16l0 0 0 0c0,0 0,0 0,0 -1,0 -1,0 -1,0l0 0zm118 5c0,0 0,1 0,1 0,1 0,1 0,2 1,2 3,2 5,1 2,-1 2,-3 1,-4 -1,-1 -2,-2 -3,-2l-3 2zm965 3c0,0 0,1 0,1 0,1 0,1 0,2 1,1 4,2 5,1 -1,-1 -2,-2 -3,-1l-2 -3zm189 0c-2,0 -4,4 -2,8 1,2 3,2 5,0 3,-3 3,-4 0,-7 -1,-1 -2,-1 -3,-1l0 0zm-1406 8c0,0 0,1 0,1 0,1 0,2 1,2 1,2 3,2 4,1 2,-1 2,-3 1,-4 0,-1 -2,-2 -3,-2l-3 2zm113 3c0,0 0,1 0,1 0,1 0,2 1,2 1,2 3,2 4,1 2,-1 2,-3 1,-4 0,-1 -2,-2 -3,-2l-3 2zm556 3c0,0 0,1 0,1 0,1 0,1 1,2 1,2 3,2 4,1 2,-1 2,-3 1,-4 0,-2 -2,-2 -3,-2l-3 2zm-396 4c0,0 0,0 0,0 0,0 0,0 0,0 -3,0 -4,6 -2,10 1,1 2,1 4,1 3,-2 2,-11 -1,-11l-1 0zm-166 2c0,0 0,0 0,1 0,0 0,1 1,2 1,1 3,2 4,1 2,-1 2,-3 1,-5 0,-1 -2,-1 -3,-1l-3 2zm2398 0c0,0 0,0 0,1 0,0 0,1 0,2 1,1 3,2 5,1 -1,-1 -2,-2 -4,-2l-1 -2zm-1152 3c-3,0 -4,4 -2,7 1,3 3,3 5,0 3,-2 3,-4 0,-6 -1,-1 -2,-1 -3,-1l0 0zm25 2c0,1 0,1 0,1 0,1 0,2 0,3 1,1 3,1 5,1 -1,-2 -2,-2 -3,-2l-2 -3zm-168 1c-2,0 -3,1 -4,2 -2,2 -2,5 -1,6 1,1 -1,3 -5,4 -5,1 -6,2 -3,5 2,3 2,4 0,6 -3,1 -5,13 -3,13 1,0 7,-3 14,-6 10,-5 12,-7 13,-16 2,-8 0,-10 -5,-12 -3,-2 -4,-2 -6,-2l0 0zm-1167 2c0,1 0,1 0,1 0,1 0,2 1,2 1,2 3,2 4,1 2,-1 2,-2 1,-4 0,-1 -2,-2 -3,-1l-3 1zm2293 2c-2,0 -3,1 -2,3 1,1 -1,6 -3,11 -4,8 -4,11 -1,18 2,6 4,18 3,31 0,19 0,23 4,23 3,0 5,-2 5,-4 0,-2 -2,-5 -3,-6 -4,-2 -4,-16 -1,-19 1,-1 4,-1 6,1 4,4 6,0 1,-5 -5,-5 -10,-32 -8,-43 2,-7 1,-10 -1,-10l0 0 0 0zm184 1c0,1 0,1 0,1 0,1 0,2 0,2 1,2 4,2 5,1 2,-1 2,-3 1,-4 -1,-1 -2,-2 -3,-2l-3 2zm-2496 3c-4,0 -6,2 -5,5 1,1 3,3 5,3 4,0 6,-6 3,-8 -1,0 -2,0 -3,0l0 0zm248 0c-3,0 -5,4 -2,8 1,2 3,2 5,0 2,-2 2,-4 0,-6 -1,-1 -2,-2 -3,-2l0 0zm-263 9c0,0 0,0 0,1 0,1 1,1 1,2 1,1 3,2 5,1 1,-1 2,-3 1,-5 -1,-1 -2,-1 -4,-1l-3 2zm2548 3c-1,0 -1,0 -2,0 -1,1 -2,3 -1,4 1,2 3,2 5,1 2,0 2,-2 1,-4 -1,-1 -2,-2 -3,-1l0 0zm-1902 0c-1,0 -2,0 -3,1 -2,2 -2,4 1,7 5,7 10,3 6,-4 -2,-3 -3,-4 -4,-4zm-379 5c0,0 0,0 0,0 -1,0 0,5 2,10 2,6 4,8 5,7 0,-1 -1,-6 -3,-11 -1,-3 -3,-6 -4,-6zm2152 18c-3,0 -4,4 -2,7 1,3 3,3 5,0 3,-2 3,-4 0,-6 -1,-1 -2,-1 -3,-1l0 0zm-2114 6c-2,0 -2,1 -2,1 1,2 5,3 8,3 3,0 7,3 9,6 2,3 5,6 6,6 6,0 -10,-14 -17,-16 -1,2 -1,4 -1,5 0,1 0,2 0,3l-3 -8zm538 1c-3,0 -8,3 -15,9 -11,9 -12,11 -8,16 4,5 10,5 25,0 4,-2 5,-1 3,1 -1,2 -1,6 0,9 2,4 2,4 6,-1 2,-3 5,-4 6,-2 1,2 3,2 5,2 -1,-2 -3,-2 -5,-1 -2,1 -3,-1 -1,-4 2,-8 -8,-17 -17,-14 -7,2 -7,2 -2,-4 5,-5 5,-7 2,-7l1 -4zm-244 3c2,0 3,2 3,3 0,2 -1,3 -3,3 -2,0 -3,-1 -3,-3 0,-1 1,-3 3,-3zm189 4c0,0 0,0 0,0 1,0 1,0 1,0 -5,2 -5,2 1,6 6,5 12,6 15,2 2,-4 -7,-9 -14,-8l-3 0zm1629 0c0,1 0,1 0,2 0,0 0,1 1,2 1,1 3,1 4,1 2,-1 2,-3 1,-5 0,-1 -2,-1 -3,-1l-3 1zm-9 9c0,0 0,1 0,1 0,1 0,2 0,2 1,2 3,2 5,1 -1,-1 -2,-1 -3,-1l-2 -3zm-1802 3c2,0 3,1 6,2 4,2 10,8 13,13 4,8 7,10 19,12 7,1 14,4 15,6 1,2 0,3 -2,3 -3,-1 -5,3 -6,8 -2,8 -2,8 -6,2 -2,-4 -5,-6 -6,-5 -2,0 -2,-1 -1,-4 1,-4 -1,-7 -5,-9 -5,-3 -7,-2 -12,5 -3,4 -6,13 -7,21 -1,8 -2,11 -4,9 -1,-2 -2,-7 -2,-12 1,-4 0,-9 -1,-10 -2,-4 5,-12 12,-14 17,-3 -10,-14 -30,-12 -11,1 -12,1 -5,-2 4,-2 10,-6 14,-9 3,-3 5,-4 8,-4l0 0zm81 8c1,0 3,0 4,1 3,2 1,7 -4,7 -1,0 -3,-1 -4,-3 -2,-2 1,-5 4,-5l0 0zm1712 1c0,0 0,0 0,1 0,0 0,1 0,2 1,1 3,2 5,1 -1,-1 -2,-2 -3,-2l-2 -2zm-1561 3c0,0 0,0 0,1 0,0 0,1 1,2 1,1 3,2 4,1 0,-1 -2,-2 -3,-2l-2 -2zm815 5c5,1 6,2 6,7 0,5 -2,7 -5,6 -2,-1 -6,0 -8,2 -2,2 -2,4 -1,4 1,0 1,2 -1,4 -3,3 -2,6 4,12 4,4 6,8 5,9 0,0 0,3 1,6 2,5 2,5 6,1 3,-5 4,-5 7,0 3,5 3,6 -2,6 -8,0 -11,5 -4,8 3,2 4,3 3,3 -1,0 0,5 1,12 2,10 1,11 -5,13 -11,3 -19,1 -24,-5 -6,-5 -6,-6 -1,-19 4,-10 4,-13 1,-14 -6,-2 -18,-32 -15,-39 2,-6 18,-15 29,-15 1,0 2,-1 3,-1l0 0zm-989 3c1,0 3,1 3,2 0,0 0,1 0,2 0,2 1,3 3,3 1,0 3,-1 3,-3 0,-1 -1,-2 -1,-2 -2,1 -4,0 -5,-1 1,-1 1,-1 1,-1l-4 0zm1720 2c0,0 0,0 0,1 0,0 0,1 0,2 1,1 3,2 5,1 -1,-1 -2,-2 -3,-2l-2 -2zm-667 4c4,0 4,13 -1,17 -5,5 -7,4 -9,-1 -2,-5 5,-16 10,-16zm657 4c-4,0 -7,2 -5,5 1,2 3,3 5,3 4,0 6,-5 3,-7 -1,-1 -2,-1 -3,-1l0 0zm-49 1l0 0c-2,1 -3,4 -3,10 0,5 -2,8 -5,8 -6,0 -8,5 -4,13 3,8 11,9 9,2 0,-2 2,-3 5,-2 4,1 8,0 10,-3 2,-2 6,-4 8,-4 5,0 11,-10 8,-13 -2,-1 -5,-1 -8,0 -2,1 -7,-2 -11,-5 -4,-5 -7,-6 -9,-6l0 0 0 0zm37 5c0,0 0,1 0,1 0,1 1,2 1,2 1,2 3,2 5,1 -1,-1 -2,-1 -4,-1l-2 -3zm-1669 8c1,0 1,0 1,0 1,0 1,1 1,1 -1,2 -6,5 -12,7 -6,1 -15,6 -21,10 -5,4 -12,7 -14,7 -6,0 8,-9 30,-19 8,-4 13,-6 15,-6l0 0zm1666 4c0,0 0,0 0,1 0,0 0,1 1,2 1,1 3,2 5,1 -1,-1 -2,-2 -4,-2l-2 -2zm-1033 7c-3,0 -5,4 -2,7 1,2 3,2 5,0 2,-2 2,-4 0,-6 -1,-1 -2,-1 -3,-1l0 0zm984 17c-4,0 -7,3 -7,7 -2,17 -4,21 -8,18 -3,-2 -5,-3 -6,-1 -1,2 -1,4 1,5 2,1 2,3 0,6 -3,3 -5,3 -8,1 -3,-3 -5,-2 -7,4 -2,5 -6,7 -16,8 -8,1 -15,5 -20,10 -6,5 -9,6 -11,4 -7,-5 -8,1 -2,9 4,5 5,10 4,11 -1,2 -1,5 0,8 3,7 8,4 13,-7 4,-9 6,-11 10,-10 3,0 7,-1 9,-4 4,-3 3,-5 -3,-7 -7,-3 -7,-3 0,-3 4,0 8,3 10,6 3,7 4,7 9,1 3,-4 8,-5 17,-6l12 0 4 -17c3,-10 6,-19 7,-20 4,-4 3,-18 -1,-21 -3,-1 -5,-2 -7,-2l0 0zm-984 2c-2,0 -4,2 -4,6 0,6 1,7 5,6 2,-1 4,-4 3,-6 0,-4 -2,-6 -4,-6zm-33 4c0,0 -1,1 -1,2 0,1 1,2 1,3 -2,1 -5,2 -6,2 -1,0 -2,1 -2,2l0 4c0,1 2,0 4,-1 2,-1 5,-2 6,-3 1,0 3,0 4,0 1,-1 1,-2 0,-4 -1,-1 -2,-1 -3,-1l-3 -4zm-22 11c0,0 0,1 0,1 0,1 0,2 0,2 1,2 4,2 5,1 2,-1 2,-3 1,-4 -1,-1 -2,-2 -3,-2l-3 2zm94 10c-11,0 -12,4 -3,8 10,5 12,5 12,-2 0,-4 -2,-6 -9,-6zm46 2c0,0 0,0 0,1 0,0 1,1 1,2 1,1 3,2 5,1 -1,-1 -2,-2 -4,-2l-2 -2zm-64 8c0,1 0,1 0,1 0,1 0,2 1,2 1,2 3,2 4,1 2,-1 3,-3 2,-4 -1,-1 -2,-2 -4,-2l-3 2zm110 0c0,1 0,1 0,1 0,1 0,2 1,2 1,2 3,2 4,1 2,-1 2,-3 1,-4 0,-1 -2,-2 -3,-2l-3 2zm-15 3c0,0 0,1 0,1 0,1 0,2 0,2 1,2 4,2 5,1 -1,-1 -2,-1 -3,-1l-2 -3zm64 8c-1,0 -3,0 -4,1 -2,1 -2,3 -1,5 2,3 9,3 12,-1 1,-2 -3,-5 -7,-5zm-143 1c0,0 -1,0 -1,1 0,1 1,1 1,2 1,1 3,2 5,1 1,-1 2,-3 1,-5 -1,-1 -2,-1 -4,-1l-2 2zm-13 3c0,0 0,0 0,1 0,0 0,1 1,2 1,1 3,2 5,1 -1,-1 -2,-2 -4,-2l-2 -2zm94 2c-1,0 -2,0 -2,1 -1,0 1,1 4,1 3,0 4,-1 2,-2 0,0 -1,0 -1,0 0,0 0,0 0,0l-3 0zm765 15c0,1 0,1 0,2 0,0 0,1 0,2 1,1 3,2 5,1 -1,-2 -2,-2 -3,-2l-2 -3zm-1436 6c0,1 0,1 0,1 0,1 1,2 1,2 1,2 3,2 5,1 1,-1 2,-3 1,-4 -1,-1 -2,-2 -4,-2l-3 2zm361 3c0,0 0,1 0,1 0,1 0,2 0,2 1,2 3,2 5,1 -1,-1 -2,-1 -3,-1l-2 -3zm1087 0c0,0 0,1 0,1 0,1 0,2 1,2 1,2 3,2 4,1 0,-1 -2,-1 -3,-1l-2 -3zm-1093 35c0,0 0,0 0,1 0,1 0,1 0,2 1,1 3,2 5,1 -1,-1 -2,-2 -3,-2l-2 -2zm27 3c0,0 0,0 0,1 0,0 0,1 1,2 1,1 3,2 4,1 0,-1 -2,-2 -3,-2l-2 -2zm1075 0c0,0 0,0 0,1 0,0 0,1 1,2 1,1 3,2 4,1 0,-1 -2,-2 -3,-2l-2 -2zm-1090 3c0,0 0,0 0,1 0,0 0,1 0,2 1,1 4,2 5,1 2,-1 2,-3 1,-5 -1,-1 -2,-1 -3,-1l-3 2zm-467 5c0,1 0,1 0,1 0,1 0,2 0,2 1,2 3,2 5,1 -1,-1 -2,-1 -4,-1l-1 -3zm455 0c0,1 0,1 0,1 0,1 0,2 0,2 1,2 3,2 5,1 1,-1 2,-3 1,-4 -1,-1 -2,-2 -3,-1l-3 1zm-443 3c0,0 0,1 0,1 0,1 0,2 0,2 1,2 3,2 5,1 -1,-1 -2,-1 -3,-1l-2 -3zm1534 1c-4,0 -9,6 -6,10 1,2 3,2 7,-2 3,-3 3,-5 1,-7 -1,-1 -1,-1 -2,-1l0 0zm-551 8c0,0 0,0 0,1 0,1 0,1 1,2 1,1 3,2 4,1 0,-1 -2,-2 -3,-2l-2 -2zm-995 3c0,0 0,0 0,1 0,0 0,1 0,2 1,1 3,2 5,1 -1,-1 -2,-2 -4,-2l-1 -2zm15 0c0,0 0,0 0,1 0,0 0,1 0,2 1,1 4,2 5,1 -1,-1 -2,-2 -3,-2l-2 -2zm1512 5c0,1 0,1 0,1 0,1 0,2 0,3 1,1 3,1 5,1 -1,-2 -2,-2 -3,-2l-2 -3zm-1521 3c0,1 0,1 0,1 0,1 0,2 0,2 1,2 3,2 5,1 -1,-1 -2,-1 -3,-1l-2 -3zm15 0c0,1 0,1 0,1 0,1 0,2 1,2 1,2 3,2 4,1 2,0 2,-2 1,-4 0,-1 -2,-2 -3,-1l-3 1zm1494 0c-1,1 -1,1 -1,1 0,1 1,2 1,2 1,2 3,2 5,1 1,0 2,-2 1,-4 -1,-1 -2,-2 -4,-1l-2 1zm-19 1c-1,0 -2,1 -3,1 -4,4 -6,18 -2,21 3,3 3,2 5,-12 1,-8 1,-10 0,-10zm-1481 8c0,0 -1,0 -1,0 0,1 1,1 2,1 1,0 1,0 2,-1 1,2 3,2 4,2 2,-1 4,-1 5,1 1,2 3,2 5,1 1,-1 2,-3 1,-4 -1,-2 -3,-2 -4,-1 -2,1 -4,0 -5,-2 0,0 -1,0 -1,0 0,0 0,0 -1,0l-7 3zm-34 2c-4,0 -8,2 -12,4 -5,4 -5,4 2,7 4,1 7,3 7,4 -2,4 -1,5 2,4 3,-2 2,-4 0,-6 -3,-3 -3,-4 0,-4 5,0 37,14 36,16 0,1 0,3 0,4 1,4 18,3 22,-1 3,-4 -1,-7 -21,-16 -17,-8 -28,-12 -36,-12l0 0zm64 4c0,0 0,1 0,1 0,1 0,1 1,2 1,2 3,2 4,1 2,-1 3,-3 2,-4 -1,-2 -3,-2 -4,-2l-3 2zm13 3c-1,0 -1,1 -1,1 0,1 1,1 1,2 1,1 3,2 5,1 1,-1 2,-3 1,-4 -1,-2 -2,-2 -4,-2l-2 2zm-7 8c0,1 0,1 0,2 0,0 1,1 1,2 1,1 3,1 5,1 1,-1 2,-3 1,-5 -1,-1 -2,-1 -4,-1l-3 1zm1367 14c-3,0 -6,2 -7,4 -1,3 0,4 4,4 2,-1 5,-3 6,-5 1,-2 -1,-3 -3,-3zm-1359 4c-5,0 -8,1 -7,2 1,1 -1,3 -4,4 -8,4 11,6 22,4 5,-2 10,-2 11,-1 2,1 3,0 3,-1 0,-2 -4,-4 -8,-5 -6,-2 -12,-3 -17,-3l0 0zm40 5c-3,0 -6,3 -4,5 1,2 3,3 4,3 5,0 7,-5 3,-7 -1,-1 -2,-1 -3,-1l0 0zm-84 3c-2,0 -3,0 -4,1 -2,1 -3,3 -2,4 3,4 10,4 12,0 2,-3 -2,-5 -6,-5zm1489 0c-5,0 -6,3 -7,14 -3,16 0,21 12,24 8,2 18,17 14,20 -1,2 0,2 2,1 2,-2 3,-4 2,-6l-1 0c-1,-2 1,-2 4,1 10,8 4,-1 -11,-15 -16,-15 -17,-17 -10,-22 7,-6 6,-16 -3,-17 -1,0 -1,0 -2,0l0 0zm-1392 3c0,1 0,1 0,1 0,1 1,2 1,2 1,2 3,2 5,1 1,-1 2,-3 1,-4 -1,-1 -2,-2 -4,-1l-3 1zm-152 3c0,1 0,1 0,1 0,1 0,2 0,2 1,2 3,2 5,1 -1,-1 -2,-1 -3,-1l-2 -3zm165 0c0,1 0,1 0,1 0,1 0,2 0,2 1,2 3,2 5,1 -1,-1 -2,-1 -3,-1l-2 -3zm12 3c0,0 0,1 0,1 0,1 0,2 0,2 1,2 3,2 5,1 -1,-1 -2,-1 -3,-1l-2 -3zm272 6c0,0 0,1 0,1 0,1 0,1 0,2 1,1 3,2 5,1 -1,-1 -2,-2 -3,-2l-2 -2zm18 3c0,0 0,0 0,1 0,0 0,1 1,2 1,1 3,2 4,1 2,-1 2,-3 1,-5 0,-1 -2,-1 -3,-1l-3 2zm-290 3c0,0 0,0 0,1 0,0 0,1 0,2 1,1 3,2 5,1 2,-1 2,-3 1,-5 -1,-1 -2,-1 -3,-1l-3 2zm278 8c0,1 0,1 0,1 0,1 0,2 0,2 1,2 3,2 5,1 2,-1 2,-3 1,-4 -1,-1 -2,-2 -3,-2l-3 2zm12 0c0,1 0,1 0,1 0,1 0,2 1,2 1,2 3,2 4,1 2,-1 2,-3 1,-4 0,-1 -2,-2 -3,-2l-3 2zm-287 3c0,0 0,0 0,0 0,0 0,0 0,0 -1,1 -2,3 -1,4 1,2 0,4 -1,5 -2,1 -3,3 -2,4 1,2 3,2 5,1 2,-1 2,-3 1,-4 -1,-1 0,-3 2,-4 2,-1 2,-3 1,-5 -1,-1 -2,-1 -3,-1l-2 0zm1390 0c0,0 -1,1 -1,1 0,1 1,2 1,2 1,2 3,2 5,1 -1,-1 -2,-1 -4,-1l-1 -3zm-1390 14c0,0 0,1 0,1 0,1 0,1 0,2 1,1 3,2 5,1 -1,-1 -2,-2 -3,-2l-2 -2zm1350 0c-3,0 -5,4 -3,8 2,2 3,2 6,0 2,-3 2,-4 0,-7 -1,-1 -2,-1 -3,-1l0 0zm-1417 3c0,0 0,0 0,1 0,0 0,1 0,2 1,1 3,2 5,1 1,-1 2,-3 1,-5 -1,-1 -2,-1 -4,-1l-2 2zm1203 0c0,0 0,0 0,1 0,0 0,1 0,2 1,1 4,2 5,1 -1,-1 -2,-2 -3,-2l-2 -2zm-1191 3c0,0 0,0 0,1 0,0 0,1 0,2 1,1 3,2 5,1 2,-1 2,-3 1,-5 -1,-1 -2,-1 -3,-1l-3 2zm901 0c0,0 0,0 0,1 0,0 0,1 0,2 1,1 3,2 5,1 -1,-1 -2,-2 -3,-2l-2 -2zm-864 2c-1,1 -1,1 -1,2 0,0 1,1 1,2 1,1 3,2 5,1 -1,-2 -2,-2 -4,-2l-1 -3zm1359 0c-1,1 -1,1 -1,2 0,0 1,1 1,2 1,1 3,2 5,1 -1,-2 -2,-2 -4,-2l-1 -3zm-205 6c0,1 0,1 0,1 0,1 0,2 0,2 1,2 3,2 5,1 -1,-1 -2,-1 -3,-1l-2 -3zm223 0c0,1 0,1 0,1 0,1 0,2 0,2 1,2 3,2 5,1 -1,-1 -2,-1 -3,-1l-2 -3zm-1368 3c0,0 0,1 0,1 0,1 0,2 0,2 1,2 3,2 5,1 1,-1 2,-3 1,-4 -1,-1 -2,-2 -4,-2l-2 2zm-85 2c0,0 0,0 0,0 -1,1 -1,4 0,7 1,2 3,4 3,3 1,-1 1,-3 0,-6 -1,-2 -2,-4 -3,-4l0 0zm1428 3c-2,0 -10,12 -10,16 0,3 4,0 8,-8 2,-4 3,-8 2,-8zm52 1c0,0 0,1 0,1 0,1 0,1 1,2 1,2 3,2 5,1 -1,-1 -3,-2 -4,-1l-2 -3zm-168 3c0,0 0,0 0,1 0,1 0,1 1,2 1,1 3,2 5,1 -1,-1 -3,-2 -4,-2l-2 -2zm167 11c-2,0 -5,1 -10,3 -6,3 -8,4 -8,1 0,-4 -9,6 -9,10 0,2 2,2 4,0 5,-4 11,-2 11,4 0,6 7,7 12,2 3,-3 5,-8 4,-13 -1,-5 -1,-7 -4,-7zm-339 0c-3,0 -4,3 -5,8 -2,12 2,17 11,12 3,-2 3,-5 0,-12 -2,-5 -4,-8 -6,-8zm-57 3c0,1 0,1 0,1 0,1 0,2 1,2 1,2 3,2 4,1 0,-1 -2,-1 -3,-1l-2 -3zm462 11c0,0 -1,1 -2,2 -2,2 -2,5 -1,8 1,4 3,4 5,2 2,-2 2,-6 1,-8 -1,-3 -1,-4 -3,-4l0 0zm-462 1c0,0 0,0 0,1 0,1 0,1 1,2 1,1 3,2 4,1 0,-1 -2,-2 -3,-2l-2 -2zm156 3c0,0 0,0 0,1 0,0 0,1 1,2 1,1 3,2 4,1 2,-1 2,-3 1,-5 0,-1 -2,-1 -3,-1l-3 2zm173 2l-16 15c-9,9 -19,16 -21,16 -3,0 -6,3 -6,6 -1,3 -5,6 -9,6 -6,1 -7,2 -6,10 0,4 4,13 9,20 7,10 10,11 19,11 6,0 12,1 14,3 1,1 3,0 5,-1 2,-2 5,-2 6,-1 1,1 1,-2 0,-7 -1,-5 0,-10 2,-11 2,-1 5,-6 8,-12 2,-5 6,-10 8,-10 2,0 2,-1 -1,-4 -2,-2 -2,-5 -1,-7 1,-1 -2,-3 -5,-4 -7,-2 -7,-2 1,-10l9 -8 -8 -6 -8 -6 0 0zm29 3c0,1 0,1 0,1 0,1 0,2 0,2 1,2 3,2 5,1 1,0 2,-2 1,-4 -1,-1 -2,-2 -3,-1l-3 1zm-355 3c0,1 0,1 0,1 0,1 0,2 1,2 1,2 3,2 5,1 -1,-1 -3,-1 -4,-1l-2 -3zm167 5l12 15c7,8 13,17 13,19 0,3 3,8 7,12 5,4 8,9 8,11 0,6 25,32 29,31 2,0 4,-4 4,-8 1,-3 3,-8 4,-10 4,-4 1,-10 -4,-8 -3,2 -21,-13 -19,-16 1,-2 -6,-9 -15,-18 -9,-8 -17,-17 -18,-19 0,-2 -5,-5 -11,-6l-10 -3 0 0zm-170 7c0,0 0,0 0,1 0,1 0,1 1,2 1,1 3,2 4,1 0,-1 -2,-2 -3,-2l-2 -2zm263 3c0,0 0,0 0,1 0,0 0,1 0,2 1,1 4,2 5,1 2,-1 2,-3 1,-5 -1,-1 -2,-1 -3,-1l-3 2zm-748 3c0,0 0,0 0,1 0,0 0,1 0,2 1,1 3,2 5,1 -1,-1 -2,-2 -3,-2l-2 -2zm656 5c0,1 0,1 0,1 0,1 0,2 1,2 1,2 3,2 5,1 1,0 2,-2 1,-4 -1,-1 -2,-2 -4,-1l-3 1zm245 0c0,1 0,1 0,1 0,1 0,2 0,2 1,2 3,2 5,1 1,0 2,-2 1,-4 -1,-1 -2,-2 -3,-1l-3 1zm-907 6c0,0 0,1 0,1 0,1 0,2 0,2 1,2 3,2 5,1 1,-1 2,-3 1,-4 -1,-1 -2,-2 -4,-2l-2 2zm-733 6c0,0 0,1 0,1 0,1 0,1 0,2 1,1 3,2 5,1 1,-1 2,-3 1,-4 -1,-2 -2,-2 -4,-2l-2 2zm1637 3c-3,0 -4,2 -4,9 1,11 4,10 7,-2 2,-6 1,-7 -3,-7zm-229 0c0,0 -1,0 -1,1 0,1 1,1 1,2 1,1 3,2 5,1 1,-1 2,-3 1,-5 -1,-1 -2,-1 -4,-1l-2 2zm198 2c0,0 0,0 0,0 0,0 0,0 0,0 -9,1 -19,2 -20,4 -5,5 -10,33 -6,37 1,3 2,6 1,7 -1,3 4,15 7,15 0,0 0,-5 -1,-12 -4,-22 6,-27 10,-5 3,12 8,13 9,1 0,-6 -3,-11 -8,-15 -9,-7 -6,-14 5,-11 4,1 7,0 7,-2 0,-1 -5,-2 -11,-2 -8,1 -12,0 -13,-3 -2,-6 8,-12 18,-10 5,1 11,0 14,-1 3,-2 2,-2 -4,-3l-8 0zm-883 1c0,0 0,0 0,1 0,0 1,1 1,2 1,1 3,2 5,1 1,-1 2,-3 1,-5 -1,-1 -2,-1 -4,-1l-3 2zm929 5c0,1 0,1 0,1 0,1 0,2 0,3 1,1 3,1 5,1 -1,-2 -2,-2 -3,-2l-2 -3zm-1652 3c0,1 0,1 0,1 0,1 0,2 0,2 1,2 3,2 5,1 1,-1 2,-3 1,-4 -1,-1 -2,-2 -4,-1l-2 1zm-13 0c-2,1 -4,4 -2,8 2,2 3,2 5,0 3,-2 3,-4 0,-6 -1,-1 -2,-2 -3,-2l0 0zm25 3c0,1 0,1 0,1 0,1 0,2 0,2 1,2 3,2 5,1 -1,-1 -2,-1 -3,-1l-2 -3zm1651 3c-4,0 -1,4 9,8 7,3 7,3 3,6 -3,3 -4,5 -3,8 2,2 3,2 5,0 2,-4 31,10 37,19 5,6 4,8 -1,13 -5,5 -5,6 -1,5 3,-1 10,0 16,4 13,6 24,7 23,2 -1,-2 3,-5 7,-7 7,-2 10,-1 15,3 3,3 6,7 6,9 0,2 5,5 10,6 16,5 17,4 6,-5 -6,-5 -11,-11 -11,-15 -2,0 -3,0 -5,0 -1,0 -2,0 -4,0 0,-5 -35,-24 -54,-30l-20 -7 -7 6c-7,6 -8,6 -14,1 -3,-3 -5,-7 -4,-9 2,-4 0,-5 -15,-8 -2,-1 -4,-1 -5,-1l7 -8zm-123 59c0,0 0,1 0,1 0,1 0,1 0,2 1,2 3,2 5,1 -1,-1 -2,-2 -3,-1l-2 -3zm275 0c0,0 0,1 0,1 0,1 0,1 0,2 1,2 3,2 5,1 -1,-1 -2,-2 -3,-1l-2 -3zm49 0c0,0 -1,1 -1,1 0,1 1,1 1,2 1,2 3,2 5,1 1,-1 2,-3 1,-4 -1,-2 -2,-2 -4,-2l-2 2zm58 0c0,0 0,1 0,1 0,1 0,1 0,2 1,2 3,2 5,1 -1,-1 -2,-2 -4,-1l-1 -3zm-150 0c-3,0 -5,4 -2,8 1,2 3,2 5,0 2,-3 2,-4 0,-7 -1,-1 -2,-1 -3,-1l0 0zm-935 3c0,0 0,0 0,1 0,1 0,1 1,2 1,1 3,2 5,1 -1,-1 -2,-2 -4,-2l-2 -2zm773 0c0,0 0,0 0,1 0,1 0,1 1,2 1,1 3,2 4,1 2,-1 2,-3 1,-5 0,-1 -2,-1 -3,-1l-3 2zm287 0c0,0 0,0 0,1 0,1 0,1 1,2 1,1 3,2 4,1 2,-1 2,-3 1,-5 0,-1 -2,-1 -3,-1l-3 2zm-165 3c0,0 0,0 0,1 0,0 0,1 1,2 1,1 3,2 4,1 0,-1 -2,-2 -3,-2l-2 -2zm13 0c-1,0 -1,0 -1,1 0,0 1,1 1,2 1,1 3,2 5,1 1,-1 2,-3 1,-5 -1,-1 -2,-1 -4,-1l-2 2zm-141 5c0,1 0,1 0,1 0,1 0,2 0,3 1,1 4,1 5,1 -1,-2 -2,-2 -3,-2l-2 -3zm336 1c-3,0 -3,3 1,9 3,5 6,6 8,4 2,-2 1,-5 -2,-9 -3,-3 -5,-4 -7,-4l0 0zm-394 1c-1,0 0,1 1,4 1,3 3,4 3,3 1,0 0,-3 -2,-5 -1,-1 -1,-1 -2,-2zm219 0c-2,1 -4,1 -5,1 -3,1 -4,3 -3,5 3,4 19,2 19,-2 0,-2 -6,-4 -11,-4l0 0zm-20 4c-1,1 -1,1 -1,1 0,1 1,2 1,2 1,2 3,2 5,1 1,-1 2,-3 1,-4 -1,-1 -2,-2 -4,-2l-2 2zm-529 6c0,0 0,1 0,1 0,1 0,1 1,2 1,2 3,2 4,1 0,-1 -2,-2 -3,-1l-2 -3zm719 0c-1,0 -3,1 -5,3 -3,2 -7,4 -9,4 -4,0 -7,6 -5,9 3,5 7,4 16,-4 6,-6 7,-12 3,-12zm-832 6c0,0 0,0 0,1 0,1 0,1 1,2 1,1 3,2 4,1 0,-1 -2,-2 -3,-2l-2 -2zm690 3c0,0 0,0 0,1 0,0 0,1 1,2 1,1 3,2 4,1 0,-1 -2,-2 -3,-2l-2 -2zm113 0c0,0 0,0 0,1 0,0 0,1 1,2 1,1 3,2 5,1 1,-1 2,-3 1,-5 -1,-1 -2,-1 -4,-1l-3 2zm-177 3c0,0 0,0 0,1 0,0 0,1 1,2 1,1 3,2 4,1 2,-1 2,-3 1,-5 0,-1 -2,-1 -3,-1l-3 2zm77 0c-1,0 -1,0 -1,1 0,0 1,1 1,2 1,1 3,2 5,1 1,-1 2,-3 1,-5 -1,-1 -2,-1 -4,-1l-2 2zm152 0c0,0 0,0 0,1 0,0 0,1 1,2 1,1 3,2 4,1 0,-2 -2,-2 -3,-2l-2 -2zm-757 2c0,1 0,1 0,1 0,1 0,2 0,2 1,2 3,2 5,1 -1,-1 -2,-1 -3,-1l-2 -3zm-101 3c0,1 0,1 0,1 0,1 0,2 1,2 1,2 3,2 4,1 -1,-1 -2,-1 -3,-1l-2 -3zm871 0c-1,1 -1,1 -1,1 0,1 1,2 1,2 1,2 3,2 5,1 -1,-1 -2,-1 -4,-1l-1 -3zm-378 1c-1,1 -2,1 -3,2 -2,4 9,9 24,12 24,3 30,4 31,6 3,2 7,1 7,-1 0,-5 -20,-15 -27,-13 -3,1 -12,-1 -19,-3 -6,-2 -10,-3 -13,-3l0 0zm59 2c-3,0 -6,2 -5,5 1,1 3,3 5,3 4,0 6,-6 3,-8 -1,0 -2,0 -3,0l0 0zm13 0c0,0 0,1 0,1 0,1 0,2 1,2 1,2 3,2 4,1 -1,-1 -2,-1 -3,-1l-2 -3zm320 3c-4,0 -6,2 -5,5 1,1 3,3 5,3 4,0 6,-6 3,-8 -1,0 -2,0 -3,0l0 0zm-274 0c0,0 0,1 0,1 0,1 0,2 0,2 1,2 3,2 5,1 2,-1 2,-3 1,-4 -1,-1 -2,-2 -3,-2l-3 2zm43 3c0,0 0,1 0,1 0,1 0,1 0,2 1,2 3,2 5,1 -1,-1 -2,-2 -4,-1l-1 -3zm26 2c-3,0 -6,3 -4,6 1,1 3,2 4,2 4,0 7,-5 3,-7 -1,-1 -2,-1 -3,-1l0 0zm194 1c-1,0 -1,0 -2,0 1,1 2,1 2,1 1,0 2,0 3,-1 1,2 3,2 4,1 2,-1 2,-3 1,-4 0,-1 -2,-2 -3,-2l-5 5zm25 3c0,0 0,0 0,0 0,0 0,0 0,0 -2,1 -2,3 1,6 2,3 4,3 6,1 4,-3 0,-8 -4,-8l-3 1zm-897 0c0,0 0,1 0,1 0,1 0,2 0,2 1,2 3,2 5,1 2,-1 2,-3 1,-4 -1,-1 -2,-2 -3,-2l-3 2zm663 0c-1,0 -1,1 -1,1 0,1 1,2 1,2 1,2 3,2 5,1 1,-1 2,-3 1,-4 -1,-1 -2,-2 -4,-2l-2 2zm-20 2c-8,1 -26,15 -23,20 1,2 5,1 12,-3 15,-8 18,-13 14,-17 -1,0 -2,0 -3,0zm-84 1c0,0 0,1 0,1 0,1 0,2 0,2 1,2 3,2 5,1 1,-1 2,-3 1,-4 -1,-1 -2,-2 -3,-2l-3 2zm61 0c0,0 0,1 0,1 0,1 0,2 0,2 1,2 3,2 5,1 -1,-1 -2,-2 -3,-1l-2 -3zm-22 2c-1,0 -2,0 -4,1 -1,1 -2,3 -1,5 2,3 10,3 12,0 2,-3 -3,-6 -7,-6zm-25 1c-1,0 -3,0 -4,1 -1,1 -2,2 -1,3 2,4 16,2 14,-1 -1,-2 -4,-3 -7,-3l-2 0zm316 3c-1,0 -1,0 -1,1 0,1 1,1 1,2 1,1 3,2 5,1 -1,-1 -2,-2 -4,-2l-1 -2zm-300 6c0,0 0,0 0,1 0,0 0,1 1,2 1,1 3,2 4,1 0,-1 -2,-2 -3,-2l-2 -2zm19 2c0,1 -1,1 -1,1 0,1 1,2 1,3 1,1 3,1 5,1 1,-1 2,-3 1,-5 -1,-1 -2,-2 -4,-1l-2 1zm296 0c0,1 0,1 0,1 0,1 0,2 0,3 1,1 3,1 5,1 2,-1 2,-3 1,-5 -1,-1 -2,-2 -3,-1l-3 1zm-67 6c0,1 0,1 0,1 0,1 0,2 0,2 1,2 3,2 5,1 -1,-1 -2,-1 -4,-1l-1 -3zm55 3c0,0 -1,1 -1,1 0,1 1,2 1,2 1,2 3,2 5,1 1,-1 2,-3 1,-4 -1,-1 -2,-2 -4,-2l-2 2zm-208 3c0,0 -1,0 0,1 1,2 -1,5 -6,8 -4,3 -7,6 -6,7 1,1 0,4 -3,6 -3,3 -4,5 -1,7 1,2 2,5 1,5 -5,3 -24,0 -26,-4 -2,-5 -9,-6 -9,-1 0,3 -3,6 -7,8 -5,2 -7,5 -6,7 1,2 0,5 -1,7 -2,2 -3,2 -6,-2 -4,-5 -4,-5 -5,0 0,4 0,8 0,9 1,4 -18,19 -23,19 -3,0 -17,6 -34,16 -11,6 -13,16 -5,24 3,4 5,8 3,11 -2,5 -2,5 -6,-1 -3,-3 -5,-4 -5,-2 0,2 3,8 7,13 7,9 16,46 14,56 -1,5 1,8 7,11 9,4 10,4 20,-3 7,-4 16,-7 22,-7 6,0 12,-3 18,-7 4,-4 11,-8 16,-8 4,0 12,-1 17,-3 14,-4 38,5 44,17 3,5 6,9 7,9 1,0 4,-4 7,-10 4,-8 6,-10 8,-7 3,2 3,5 0,10 -4,10 -4,12 1,8 3,-3 5,-3 6,0 1,1 2,4 1,4 -1,1 1,6 5,11 5,4 8,10 8,12 0,6 19,10 25,5 5,-4 6,-3 11,2 7,7 6,7 13,-1 4,-4 9,-7 13,-7 4,1 6,-1 7,-5 1,-7 6,-22 14,-37 7,-15 15,-75 9,-73 -3,1 -19,-10 -19,-13 0,-1 -3,-5 -7,-10 -4,-4 -7,-8 -6,-10 1,-1 -2,-3 -5,-4 -8,-2 -18,-22 -18,-35 0,-8 -2,-13 -6,-17 -4,-2 -7,-9 -8,-14 -1,-5 -3,-10 -4,-12 -2,-3 -9,15 -10,26 0,9 -10,33 -14,33 -1,0 -9,-5 -18,-11 -16,-11 -17,-13 -15,-21 1,-5 3,-11 5,-12 3,-4 3,-11 0,-9 1,0 3,-2 3,-3 0,-2 -2,-4 -4,-4 -2,0 -3,2 -3,4 0,1 1,3 3,3 -1,-2 -5,-3 -8,-3 -3,1 -8,0 -12,-1 -3,-1 -4,-2 -5,-1l-4 -1zm-637 9c0,1 0,1 0,1 0,1 0,2 1,2 1,2 3,2 4,1 2,-1 2,-3 2,-4 -1,-1 -3,-2 -4,-2l-3 2zm10 6c-1,0 -1,1 -1,1 0,1 1,2 1,2 1,2 3,2 5,1 -1,-1 -2,-2 -4,-1l-1 -3zm37 3c-1,0 -2,1 -2,3 0,8 -9,19 -20,24 -13,5 -17,15 -15,28 1,7 0,12 -3,17 -5,8 -5,15 2,31 3,7 5,8 11,6 5,-1 9,-3 11,-5 2,-4 6,-16 13,-46 2,-13 6,-25 7,-28 3,-5 1,-28 -3,-30 0,0 0,0 0,0 0,0 0,0 0,0l-1 0zm-27 6c0,0 0,1 0,1 0,1 0,1 0,2 1,1 3,2 5,1 -1,-1 -2,-2 -3,-1l-2 -3zm684 0c0,0 0,1 0,1 0,1 0,1 0,2 1,1 3,2 5,1 -1,-1 -2,-2 -3,-1l-2 -3zm-617 23c0,0 0,1 0,1 0,1 0,1 0,2 1,2 3,2 5,1 -1,-1 -2,-2 -3,-1l-2 -3zm21 37c0,1 0,1 0,1 0,1 0,2 1,3 1,1 3,1 4,1 0,-2 -2,-2 -3,-2l-2 -3zm-12 3c0,1 0,1 0,1 0,1 0,2 1,2 0,2 3,2 4,1 -1,-1 -2,-1 -3,-1l-2 -3zm-1011 113c0,0 0,0 0,1 0,1 0,1 1,2 1,1 3,2 4,1 2,-1 2,-3 1,-5 0,-1 -2,-1 -3,-1l-3 2zm1885 11c0,0 -1,0 -1,0 0,1 2,5 5,10 9,12 11,20 6,28 -5,6 -5,7 1,8 3,1 6,4 6,8 0,9 6,7 9,-4 1,-5 4,-9 6,-8 2,0 3,-1 3,-2 0,-2 1,-5 2,-8 2,-4 1,-5 -3,-3 -4,1 -6,0 -7,-4 -1,-5 -3,-5 -6,-3 -3,3 -5,3 -6,-2 -3,-7 -13,-20 -15,-20l0 0zm-269 6c0,0 0,1 0,1 0,1 0,2 0,2 1,2 3,2 5,1 -1,-1 -2,-1 -3,-1l-2 -3zm82 38c0,0 0,0 0,1 0,0 0,1 1,2 1,1 3,2 4,1 2,-1 2,-3 1,-5 0,-1 -2,-1 -3,-1l-3 2zm-27 2c0,1 0,1 0,1 0,1 0,2 0,3 1,1 3,1 5,1 1,-1 2,-3 1,-5 -1,-1 -2,-2 -3,-1l-3 1zm11 12c-5,0 -5,1 -3,6 2,5 15,5 16,0 0,-1 1,-5 2,-8 4,-7 1,-9 -13,-9 -3,0 -5,-1 -7,0l5 11zm205 1c-5,0 -13,7 -13,11 0,2 -3,6 -8,10 -13,9 -33,36 -22,30 1,-1 5,0 8,1 7,4 12,4 16,0 3,-4 3,-5 3,-12 0,-3 4,-8 8,-12 4,-4 7,-9 6,-10 -1,-2 0,-4 3,-5 6,-2 6,-11 0,-13 0,0 0,0 0,0l-1 0zm-1853 8c-3,0 -5,4 -3,7 2,3 3,3 6,0 2,-2 2,-4 0,-6 -1,-1 -2,-1 -3,-1l0 0zm1817 52c0,0 0,0 0,1 0,0 0,1 0,2 1,1 4,2 5,1 2,-1 2,-3 1,-5 -1,-1 -2,-1 -3,-1l-3 2zm-1823 2c0,1 0,1 0,1 0,1 0,2 0,2 1,2 3,2 5,1 -1,-1 -2,-1 -4,-1l-1 -3zm0 15c0,0 0,1 0,1 0,1 0,1 0,2 1,1 3,2 5,1 -1,-1 -2,-2 -4,-2l-1 -2zm1805 8c0,1 0,1 0,2 0,0 0,1 0,2 1,1 3,1 5,1 -1,-2 -2,-2 -4,-2l-1 -3zm-1805 6c0,1 0,1 0,1 0,1 0,2 0,2 1,2 3,2 5,1 -1,-1 -2,-1 -4,-1l-1 -3zm125 6c0,0 0,0 0,0 0,0 0,0 0,0 -1,1 -2,3 -1,4 1,2 0,3 -1,4 -2,1 -3,4 -2,5 1,2 3,2 5,1 2,-1 2,-3 1,-4 -1,-1 0,-3 2,-4 1,-1 2,-4 1,-5 -1,-1 -2,-2 -3,-1l-2 0zm-14 2c-3,1 -6,5 -4,8 2,3 3,3 7,0 3,-2 3,-4 1,-6 -1,-1 -2,-2 -4,-2zm-101 12c-1,0 -2,0 -2,1 -3,1 -3,3 2,6 3,2 5,5 5,5 -1,1 -1,2 -1,3 0,1 1,1 3,0 2,-1 2,-3 0,-6 -2,-2 -3,-4 -1,-4 1,0 1,-1 -1,-3 -1,-1 -3,-2 -5,-2l0 0zm35 6c-2,0 -2,2 -2,7 0,7 -1,8 -7,7 -4,0 -6,1 -5,2 1,2 6,3 10,3 5,0 10,1 11,3 2,3 7,2 13,-1 2,-1 0,-5 -7,-12 -7,-6 -11,-9 -13,-9l0 0zm34 15c0,0 0,0 0,1 0,0 0,1 1,2 1,1 3,2 4,1 2,-1 2,-3 1,-5 0,-1 -2,-1 -3,-1l-3 2zm-35 11c-3,0 -6,2 -4,5 1,1 3,3 4,3 5,0 7,-6 4,-8 -1,0 -3,0 -4,0l0 0z"/>
   <g filter="url(#prefix__filter0_d)">
    <circle fill="white" cx="2092" cy="924" r="27"/>
   </g>
   <circle fill="white" stroke="#1976D2" stroke-width="3.76645" cx="2092" cy="924" r="20"/>
   <circle fill="#1976D2" cx="2092" cy="924" r="10"/>
   <g filter="url(#prefix__filter1_d)">
    <circle fill="white" cx="2184" cy="1083" r="45"/>
   </g>
   <circle fill="white" stroke="#1976D2" stroke-width="6.36333" cx="2184" cy="1083" r="34"/>
   <circle fill="#1976D2" cx="2184" cy="1083" r="16"/>
   <g filter="url(#prefix__filter2_d)">
    <circle fill="white" cx="1462" cy="1018" r="47"/>
   </g>
   <circle fill="white" stroke="#1976D2" stroke-width="6.59905" cx="1462" cy="1018" r="35"/>
   <circle fill="#1976D2" cx="1462" cy="1018" r="17"/>
   <g filter="url(#prefix__filter3_d)">
    <circle fill="white" cx="1236" cy="716" r="33"/>
   </g>
   <circle fill="white" stroke="#1976D2" stroke-width="4.60315" cx="1236" cy="716" r="25"/>
   <circle fill="#1976D2" cx="1236" cy="716" r="12"/>
   <g filter="url(#prefix__filter4_d)">
    <circle fill="white" cx="1488" cy="761" r="55"/>
   </g>
   <circle fill="white" stroke="#1976D2" stroke-width="7.79452" cx="1488" cy="761" r="42"/>
   <circle fill="#1976D2" cx="1488" cy="761" r="20"/>
   <g filter="url(#prefix__filter5_d)">
    <circle fill="white" cx="1865" cy="657" r="45"/>
   </g>
   <circle fill="white" stroke="#1976D2" stroke-width="6.34519" cx="1865" cy="657" r="34"/>
   <circle fill="#1976D2" cx="1865" cy="657" r="16"/>
   <g filter="url(#prefix__filter6_d)">
    <circle fill="white" cx="2553" cy="247" r="33"/>
   </g>
   <circle fill="white" stroke="#1976D2" stroke-width="4.60315" cx="2553" cy="247" r="25"/>
   <circle fill="#1976D2" cx="2553" cy="247" r="12"/>
   <g filter="url(#prefix__filter7_d)">
    <circle fill="white" cx="1977" cy="389" r="55"/>
   </g>
   <circle fill="white" stroke="#1976D2" stroke-width="7.78157" cx="1977" cy="389" r="41"/>
   <circle fill="#1976D2" cx="1977" cy="389" r="20"/>
   <g filter="url(#prefix__filter8_d)">
    <circle fill="white" cx="1708" cy="334" r="43"/>
   </g>
   <circle fill="white" stroke="#1976D2" stroke-width="6.06802" cx="1708" cy="334" r="32"/>
   <circle fill="#1976D2" cx="1708" cy="334" r="15"/>
   <g filter="url(#prefix__filter9_d)">
    <circle fill="white" cx="1456" cy="452" r="44"/>
   </g>
   <circle fill="white" stroke="#1976D2" stroke-width="6.16905" cx="1456" cy="452" r="33"/>
   <circle fill="#1976D2" cx="1456" cy="452" r="16"/>
   <g filter="url(#prefix__filter10_d)">
    <circle fill="white" cx="1345" cy="296" r="33"/>
   </g>
   <circle fill="white" stroke="#1976D2" stroke-width="4.60315" cx="1345" cy="296" r="25"/>
   <circle fill="#1976D2" cx="1345" cy="296" r="12"/>
   <g filter="url(#prefix__filter11_d)">
    <circle fill="white" cx="1089" cy="69" r="27"/>
   </g>
   <circle fill="white" stroke="#1976D2" stroke-width="3.79753" cx="1089" cy="69" r="20"/>
   <circle fill="#1976D2" cx="1089" cy="69" r="10"/>
   <g filter="url(#prefix__filter12_d)">
    <circle fill="white" cx="931" cy="269" r="19"/>
   </g>
   <circle fill="white" stroke="#1976D2" stroke-width="2.74453" cx="931" cy="269" r="15"/>
   <circle fill="#1976D2" cx="931" cy="269" r="7"/>
   <g filter="url(#prefix__filter13_d)">
    <circle fill="white" cx="1884" cy="211" r="19"/>
   </g>
   <circle fill="white" stroke="#1976D2" stroke-width="2.74453" cx="1884" cy="211" r="15"/>
   <circle fill="#1976D2" cx="1884" cy="211" r="7"/>
   <g filter="url(#prefix__filter14_d)">
    <circle fill="white" cx="926" cy="102" r="33"/>
   </g>
   <circle fill="white" stroke="#1976D2" stroke-width="4.60315" cx="926" cy="102" r="25"/>
   <circle fill="#1976D2" cx="926" cy="102" r="12"/>
   <g filter="url(#prefix__filter15_d)">
    <circle fill="white" cx="709" cy="25" r="25"/>
   </g>
   <circle fill="white" stroke="#1976D2" stroke-width="3.51259" cx="709" cy="25" r="19"/>
   <circle fill="#1976D2" cx="709" cy="25" r="9"/>
   <g filter="url(#prefix__filter16_d)">
    <circle fill="white" cx="2229" cy="261" r="25"/>
   </g>
   <circle fill="white" stroke="#1976D2" stroke-width="3.51259" cx="2229" cy="261" r="19"/>
   <circle fill="#1976D2" cx="2229" cy="261" r="9"/>
   <g filter="url(#prefix__filter17_d)">
    <circle fill="white" cx="2052" cy="578" r="25"/>
   </g>
   <circle fill="white" stroke="#1976D2" stroke-width="3.51259" cx="2052" cy="578" r="19"/>
   <circle fill="#1976D2" cx="2052" cy="578" r="9"/>
   <g filter="url(#prefix__filter18_d)">
    <circle fill="white" cx="741" cy="377" r="33"/>
   </g>
   <circle fill="white" stroke="#1976D2" stroke-width="4.60315" cx="741" cy="377" r="25"/>
   <circle fill="#1976D2" cx="741" cy="377" r="12"/>
   <g filter="url(#prefix__filter19_d)">
    <circle fill="white" cx="774" cy="1156" r="33"/>
   </g>
   <circle fill="white" stroke="#1976D2" stroke-width="4.60315" cx="774" cy="1156" r="25"/>
   <circle fill="#1976D2" cx="774" cy="1156" r="12"/>
   <g filter="url(#prefix__filter20_d)">
    <circle fill="white" cx="845" cy="974" r="44"/>
   </g>
   <circle fill="white" stroke="#1976D2" stroke-width="6.2636" cx="845" cy="974" r="33"/>
   <circle fill="#1976D2" cx="845" cy="974" r="16"/>
   <g filter="url(#prefix__filter21_d)">
    <circle fill="white" cx="959" cy="945" r="22"/>
   </g>
   <circle fill="white" stroke="#1976D2" stroke-width="3.0489" cx="959" cy="945" r="16"/>
   <circle fill="#1976D2" cx="959" cy="945" r="8"/>
   <g filter="url(#prefix__filter22_d)">
    <circle fill="white" cx="740" cy="839" r="33"/>
   </g>
   <circle fill="white" stroke="#1976D2" stroke-width="4.60315" cx="740" cy="839" r="25"/>
   <circle fill="#1976D2" cx="740" cy="839" r="12"/>
   <g filter="url(#prefix__filter23_d)">
    <circle fill="white" cx="110" cy="263" r="22"/>
   </g>
   <circle fill="white" stroke="#1976D2" stroke-width="3.05927" cx="110" cy="263" r="16"/>
   <circle fill="#1976D2" cx="110" cy="263" r="8"/>
   <g filter="url(#prefix__filter24_d)">
    <circle fill="white" cx="526" cy="271" r="33"/>
   </g>
   <circle fill="white" stroke="#1976D2" stroke-width="4.60315" cx="526" cy="271" r="25"/>
   <circle fill="#1976D2" cx="526" cy="271" r="12"/>
   <g filter="url(#prefix__filter25_d)">
    <circle fill="white" cx="332" cy="247" r="33"/>
   </g>
   <circle fill="white" stroke="#1976D2" stroke-width="4.60315" cx="332" cy="247" r="25"/>
   <circle fill="#1976D2" cx="332" cy="247" r="12"/>
   <g filter="url(#prefix__filter26_d)">
    <circle fill="white" cx="451" cy="410" r="48"/>
   </g>
   <circle fill="white" stroke="#1976D2" stroke-width="6.73116" cx="451" cy="410" r="36"/>
   <circle fill="#1976D2" cx="451" cy="410" r="17"/>
   <g filter="url(#prefix__filter27_d)">
    <circle fill="white" cx="504" cy="630" r="27"/>
   </g>
   <circle fill="white" stroke="#1976D2" stroke-width="3.81178" cx="504" cy="630" r="20"/>
   <circle fill="#1976D2" cx="504" cy="630" r="10"/>
   <g filter="url(#prefix__filter28_d)">
    <circle fill="white" cx="641" cy="545" r="29"/>
   </g>
   <circle fill="white" stroke="#1976D2" stroke-width="4.0488" cx="641" cy="545" r="22"/>
   <circle fill="#1976D2" cx="641" cy="545" r="10"/>
   <g filter="url(#prefix__filter29_d)">
    <circle fill="white" cx="2361" cy="1135" r="25"/>
   </g>
   <circle fill="white" stroke="#1976D2" stroke-width="3.51" cx="2361" cy="1135" r="19"/>
   <circle fill="#1976D2" cx="2361" cy="1135" r="9"/>
  </g>
 </g>
</svg>
