<?xml version="1.0" encoding="UTF-8"?>
<!DOCTYPE svg PUBLIC "-//W3C//DTD SVG 1.1//EN" "http://www.w3.org/Graphics/SVG/1.1/DTD/svg11.dtd">
<!-- Creator: CorelDRAW X8 -->
<svg xmlns="http://www.w3.org/2000/svg" xml:space="preserve" width="45.0719mm" height="33.0348mm" version="1.1" style="shape-rendering:geometricPrecision; text-rendering:geometricPrecision; image-rendering:optimizeQuality; fill-rule:evenodd; clip-rule:evenodd"
viewBox="0 0 3180 2330"
 xmlns:xlink="http://www.w3.org/1999/xlink">
 <defs>
  <style type="text/css">
   <![CDATA[
    .fil2 {fill:#039FD1;fill-rule:nonzero}
    .fil1 {fill:white;fill-rule:nonzero}
    .fil0 {fill:url(#id0)}
   ]]>
  </style>
  <linearGradient id="id0" gradientUnits="userSpaceOnUse" x1="1392.74" y1="0" x2="1392.76" y2="1563.83">
   <stop offset="0" style="stop-opacity:1; stop-color:#49FCE6"/>
   <stop offset="1" style="stop-opacity:1; stop-color:#039FD1"/>
  </linearGradient>
 </defs>
 <g id="Capa_x0020_1">
  <metadata id="CorelCorpID_0Corel-Layer"/>
  <rect class="fil0" x="808" width="1564" height="1564" rx="585" ry="585"/>
  <path class="fil1" d="M1202 569l381 -381 394 394 -197 197 197 197 -394 395 -394 -395 13 -13 184 -184 -197 -197 13 -13zm419 369l264 0 -132 -132 -132 132zm302 38l-340 0 -170 -170 -170 170 340 341 340 -341zm-680 -394l340 0 170 170 170 -170 -340 -340 -340 340 0 0zm302 39l-264 0 132 131 132 -131zm38 15l-143 143 143 144 143 -144 -143 -143z"/>
  <path class="fil2" d="M155 1926c29,0 54,4 75,13 22,8 41,20 58,37l-42 49c-26,-21 -54,-32 -84,-32 -16,0 -29,3 -38,10 -9,6 -14,16 -14,28 0,8 2,15 6,21 4,5 11,10 22,15 10,5 26,10 47,17 39,13 68,28 86,47 19,18 28,44 28,78 0,24 -6,45 -18,63 -13,19 -30,33 -53,43 -23,10 -50,15 -82,15 -31,0 -59,-5 -83,-15 -25,-10 -46,-23 -63,-40l46 -50c15,12 30,22 46,28 16,6 33,10 51,10 19,0 34,-5 45,-13 11,-8 17,-20 17,-35 0,-9 -2,-17 -7,-24 -4,-6 -11,-12 -21,-17 -10,-6 -24,-11 -43,-17 -43,-13 -73,-29 -91,-48 -18,-19 -27,-43 -27,-72 0,-22 6,-41 18,-58 12,-17 28,-30 49,-39 22,-9 45,-14 72,-14z"/>
  <path id="1" class="fil2" d="M474 1936c50,0 90,10 118,31 28,22 42,53 42,94 0,44 -14,76 -41,98 -28,23 -65,34 -111,34l-42 0 0 128 -91 0 0 -385 125 0zm0 191c22,0 38,-5 49,-15 12,-11 17,-27 17,-51 0,-40 -22,-60 -68,-60l-32 0 0 126 34 0z"/>
  <polygon id="2" class="fil2" points="919,1936 909,2001 774,2001 774,2093 892,2093 892,2157 774,2157 774,2255 919,2255 919,2321 683,2321 683,1936 "/>
  <path id="3" class="fil2" d="M1178 2321l-20 -83 -112 0 -20 83 -94 0 116 -385 110 0 117 385 -97 0zm-117 -149l81 0 -40 -170 -41 170z"/>
  <path id="4" class="fil2" d="M1394 1936l0 385 -91 0 0 -385 91 0zm221 0l-122 173 132 212 -105 0 -123 -206 122 -179 96 0z"/>
  <path id="5" class="fil2" d="M1911 1926c28,0 54,4 75,13 21,8 41,20 58,37l-42 49c-27,-21 -55,-32 -85,-32 -16,0 -28,3 -38,10 -9,6 -14,16 -14,28 0,8 3,15 7,21 4,5 11,10 21,15 11,5 26,10 47,17 39,13 68,28 87,47 18,18 27,44 27,78 0,24 -6,45 -18,63 -12,19 -30,33 -53,43 -23,10 -50,15 -81,15 -32,0 -60,-5 -84,-15 -24,-10 -45,-23 -63,-40l47 -50c14,12 30,22 45,28 16,6 33,10 52,10 19,0 34,-5 45,-13 11,-8 16,-20 16,-35 0,-9 -2,-17 -6,-24 -4,-6 -11,-12 -21,-17 -10,-6 -25,-11 -44,-17 -42,-13 -73,-29 -90,-48 -18,-19 -27,-43 -27,-72 0,-22 5,-41 17,-58 12,-17 29,-30 50,-39 21,-9 45,-14 72,-14z"/>
  <polygon id="6" class="fil2" points="2196,1936 2196,2249 2346,2249 2336,2321 2105,2321 2105,1936 "/>
  <path id="7" class="fil2" d="M2522 1926c55,0 98,18 128,53 31,35 46,85 46,149 0,42 -7,78 -21,108 -14,31 -34,54 -60,70 -26,16 -57,24 -93,24 -36,0 -67,-8 -93,-23 -26,-16 -46,-39 -60,-70 -14,-30 -20,-66 -20,-109 0,-41 6,-77 20,-108 14,-30 34,-53 60,-70 26,-16 57,-24 93,-24zm0 67c-26,0 -46,11 -59,32 -12,21 -19,56 -19,103 0,48 7,82 20,103 13,22 32,33 58,33 27,0 46,-11 59,-32 13,-22 19,-56 19,-104 0,-48 -6,-82 -19,-103 -13,-21 -33,-32 -59,-32z"/>
  <polygon id="8" class="fil2" points="3180,1936 3115,2321 2997,2321 2949,2027 2898,2321 2783,2321 2719,1936 2810,1936 2849,2252 2902,1936 2998,1936 3048,2252 3093,1936 "/>
 </g>
</svg>
