<?xml version="1.0" encoding="UTF-8"?>
<!DOCTYPE svg PUBLIC "-//W3C//DTD SVG 1.1//EN" "http://www.w3.org/Graphics/SVG/1.1/DTD/svg11.dtd">
<!-- Creator: CorelDRAW X8 -->
<svg xmlns="http://www.w3.org/2000/svg" xml:space="preserve" width="681px" height="308px" version="1.1" shape-rendering="geometricPrecision" text-rendering="geometricPrecision" image-rendering="optimizeQuality" fill-rule="evenodd" clip-rule="evenodd"
viewBox="0 0 681 307"
 xmlns:xlink="http://www.w3.org/1999/xlink">
 <g id="Capa_x0020_1">
  <metadata id="CorelCorpID_0Corel-Layer"/>
  <g id="_2477349718432">
   <path fill="#FAC903" d="M381 18c52,0 94,29 94,64 0,29 -27,53 -65,62l0 0 0 37c0,2 -1,2 -2,1l-45 -36 0 0c-9,-2 -17,-4 -25,-7 11,-4 21,-10 30,-17 16,-13 26,-31 26,-50 0,-20 -12,-39 -31,-53 6,-1 12,-1 18,-1z"/>
   <path fill="#FAC903" d="M417 285l-27 0 0 0c-15,0 -27,-12 -27,-27 0,-15 12,-27 27,-27l27 0c6,0 11,-5 11,-11 0,-7 -5,-12 -11,-12l-27 0 0 0 0 0 -1 0 0 0c-27,1 -49,23 -49,50 0,27 22,49 50,49l0 0 27 0c6,0 11,-5 11,-11 0,-6 -5,-11 -11,-11l0 0z"/>
   <path fill="#FAC903" d="M550 231c21,0 38,17 38,38 0,21 -17,38 -38,38 -21,0 -38,-17 -38,-38l0 -38c-6,0 -11,-5 -11,-11 0,-7 5,-12 11,-12l0 0c17,0 23,10 23,23l0 3c5,-2 10,-3 15,-3l0 0zm0 23c9,0 16,7 16,15 0,9 -7,16 -16,16 -8,0 -15,-7 -15,-16 0,-8 7,-15 15,-15z"/>
   <path fill="#FAC903" d="M631 231c21,0 39,17 39,38l0 0 0 15c6,0 11,5 11,11 0,7 -5,12 -11,12l0 0c-9,0 -14,-2 -18,-6 -6,4 -13,6 -21,6 -21,0 -38,-17 -38,-38 0,-21 17,-38 38,-38l0 0zm0 23c9,0 16,7 16,15l0 0c0,9 -7,16 -16,16 -8,0 -15,-7 -15,-16 0,-8 7,-15 15,-15z"/>
   <path fill="#FAC903" d="M504 254c0,-13 -6,-23 -23,-23 -6,0 -11,5 -11,11 0,7 5,12 11,12l0 15c0,9 -7,16 -15,16 -9,0 -16,-7 -16,-16l0 -15c7,0 12,-5 12,-12 0,-6 -5,-11 -12,-11 -16,0 -22,10 -23,23l0 15c0,21 18,38 39,38 21,0 38,-17 38,-38l0 -15z"/>
   <path fill="#287AA2" d="M283 0c58,0 106,32 106,72 0,36 -37,65 -86,71l0 0 -62 45c-2,1 -3,0 -3,-2l11 -45c-42,-10 -72,-37 -72,-69 0,-40 47,-72 106,-72l0 0z"/>
   <path fill="#287AA2" d="M11 285l28 0 0 0c14,0 27,-12 27,-27 0,-15 -12,-27 -27,-27l-28 0c-6,0 -11,-5 -11,-11 0,-7 5,-12 11,-12l28 0 0 0 0 0 1 0 0 0c27,1 48,23 48,50 0,27 -22,49 -49,49l0 0 -28 0c-6,0 -11,-5 -11,-11 0,-6 5,-11 11,-11l0 0z"/>
   <path fill="#287AA2" d="M227 285l0 0c0,-7 0,-14 0,-21 0,-7 -6,-13 -13,-13 -7,0 -13,6 -13,13 0,7 0,14 0,21 6,0 11,5 11,11 0,6 -5,11 -11,11l0 0 0 0 0 0 -20 0 0 0 0 0 0 0c-6,0 -11,-5 -11,-11 0,-6 5,-11 11,-11 0,-7 0,-14 0,-21 0,-7 -6,-13 -13,-13 -7,0 -13,6 -13,13 0,7 0,14 0,21l0 0c6,0 12,5 12,11 0,6 -6,11 -12,11 -1,0 -2,0 -3,0 -12,-2 -16,-11 -16,-22l0 -20 0 0c0,0 0,-1 0,-1 0,-18 14,-32 32,-32 9,0 17,3 23,9 6,-6 14,-9 23,-9 18,0 32,14 32,32 0,0 0,1 0,1l0 0 0 20c0,11 -4,20 -16,22 -1,0 -2,0 -3,0 -6,0 -12,-5 -12,-11 0,-6 6,-11 12,-11l0 0z"/>
   <circle fill="#287AA2" cx="115" cy="218" r="11"/>
   <path fill="#287AA2" d="M309 281c5,0 10,4 10,10 0,8 -7,11 -9,12 -5,3 -11,4 -18,4 -21,0 -38,-17 -38,-38 0,-21 17,-38 38,-38 19,0 35,14 38,32 0,0 0,1 0,1l0 1 0 0c0,7 -5,12 -11,12l-9 0 -5 0 -26 0c2,4 7,8 13,8l6 0c3,-1 6,-4 11,-4l0 0zm-3 -18l-28 0c3,-5 8,-9 14,-9 6,0 12,4 14,9z"/>
   <path fill="#287AA2" d="M125 296c0,6 -5,11 -11,11 -3,0 -5,0 -8,0 -6,0 -12,-5 -12,-11 0,-6 6,-11 12,-11l0 -16 0 -13c-6,0 -12,-5 -12,-11 0,-6 6,-12 12,-12l8 0c6,1 11,6 11,12 0,4 0,7 0,11l0 13 0 16c0,4 0,7 0,11z"/>
  </g>
 </g>
</svg>
