<?xml version="1.0" encoding="UTF-8"?>
<!DOCTYPE svg PUBLIC "-//W3C//DTD SVG 1.1//EN" "http://www.w3.org/Graphics/SVG/1.1/DTD/svg11.dtd">
<!-- Creator: CorelDRAW X8 -->
<svg xmlns="http://www.w3.org/2000/svg" xml:space="preserve" width="50.0937mm" height="26.9512mm" version="1.1" style="shape-rendering:geometricPrecision; text-rendering:geometricPrecision; image-rendering:optimizeQuality; fill-rule:evenodd; clip-rule:evenodd"
viewBox="0 0 1636 880"
 xmlns:xlink="http://www.w3.org/1999/xlink">
 <defs>
  <style type="text/css">
   <![CDATA[
    .fil0 {fill:#006732}
    .fil1 {fill:#FF6434}
   ]]>
  </style>
 </defs>
 <g id="Capa_x0020_1">
  <metadata id="CorelCorpID_0Corel-Layer"/>
  <path class="fil0" d="M879 731c-10,50 7,53 33,43 -2,16 -14,46 -47,46 -19,0 -35,-8 -43,-24l0 0c-7,13 -26,22 -47,22 -26,0 -45,-14 -48,-42 -13,22 -34,43 -66,43 -16,0 -34,-7 -46,-21l0 1c-11,13 -27,20 -47,21 -34,1 -60,-25 -50,-75l17 -77c7,-33 -5,-43 -16,-42 -16,0 -28,14 -36,35l-33 155 -64 0 29 -137c-4,1 -9,2 -13,2 -10,84 -54,138 -111,139 -14,0 -27,-3 -38,-9 -25,39 -76,69 -137,69 -88,0 -119,-50 -116,-129 10,-194 89,-284 192,-285 46,0 85,31 85,71 0,24 -14,49 -37,50 -13,0 -22,-5 -28,-14 20,-12 27,-29 25,-50 -1,-18 -13,-37 -33,-37 -47,0 -109,83 -118,249 -4,64 22,99 69,99 26,0 61,-14 85,-34l0 0c-11,-12 -18,-29 -17,-52 6,-100 60,-163 125,-163 37,1 57,31 56,75 5,0 10,-1 15,-2l15 -68 63 0 -6 28c18,-18 38,-32 59,-32 32,0 54,26 44,76l-15 69c-9,43 0,55 24,46 -3,-8 -5,-18 -4,-29 5,-100 57,-160 122,-160 16,0 32,11 36,27l22 -105 60 -10c-16,77 -32,154 -48,231 -10,45 5,54 25,46 -1,-9 0,-20 2,-32 11,-52 22,-103 33,-155l58 0c-10,47 -20,94 -30,141zm-506 -95c-13,8 -19,18 -19,27 0,10 6,18 15,20 -9,64 -36,101 -58,101 -16,0 -28,-14 -27,-43 4,-66 38,-133 67,-133 11,0 20,12 22,28zm359 99l17 -83c6,-27 -2,-41 -17,-42 -37,0 -68,65 -72,131 -2,29 12,41 28,41 15,0 37,-17 44,-47z"/>
  <path class="fil1" d="M1538 548c-65,0 -120,63 -125,163 -13,23 -37,37 -67,37 -21,0 -35,-16 -34,-44 4,-66 35,-135 64,-135 13,0 17,10 17,17 0,11 -3,21 -13,27 4,6 11,9 20,9 16,0 25,-21 25,-33 0,-20 -16,-41 -49,-41 -65,0 -119,63 -125,163 0,10 1,19 3,26 -22,10 -42,6 -31,-43 9,-47 19,-94 29,-142l-58 0c-11,52 -22,104 -32,156 -11,49 12,74 46,74 25,0 45,-13 54,-27 12,19 33,28 57,27 34,0 73,-16 95,-48 8,32 35,49 66,48 58,0 101,-58 111,-141 24,-15 39,-38 44,-54 3,-13 -4,-16 -11,-7 -7,13 -16,20 -31,29 -3,-36 -22,-61 -55,-61zm-553 -121l70 -12 -26 125c54,1 87,-37 91,-102 3,-34 -28,-60 -73,-57 -64,4 -132,37 -138,132 -1,14 0,29 6,44 -36,-1 -53,-22 -54,-52 -4,-92 120,-141 184,-143 76,-2 129,32 130,82 1,43 -28,75 -63,98 29,3 46,28 40,57l-25 122c-6,26 0,38 20,44 -15,10 -35,17 -55,15 -33,-3 -43,-20 -33,-66l21 -99c9,-42 -10,-61 -55,-58l-41 198c-11,52 -46,73 -94,72 44,-12 52,-70 30,-89l65 -311zm252 27c20,0 35,16 35,35 0,19 -15,35 -35,35 -19,0 -35,-16 -35,-35 0,-19 16,-35 35,-35zm326 145c-13,7 -19,17 -19,27 0,10 5,18 15,20 -10,64 -36,101 -59,101 -15,0 -28,-15 -26,-43 4,-66 37,-133 66,-133 12,0 20,12 23,28z"/>
  <circle class="fil1" cx="776" cy="281" r="30"/>
  <circle class="fil1" cx="755" cy="449" r="18"/>
  <circle class="fil1" cx="458" cy="336" r="12"/>
  <path class="fil0" d="M649 315c12,10 22,21 29,33 -32,21 -57,55 -58,97 0,14 0,28 13,42 12,14 27,19 51,18 -7,12 -15,23 -24,33 -13,14 -32,14 -48,1 -12,-10 -22,-7 -33,5 -7,7 -18,11 -29,12 35,3 55,18 68,37 63,-36 100,-85 100,-157 -1,-32 -8,-60 -20,-84 8,-5 17,-8 25,-9 18,-2 31,1 39,6 -16,7 -29,19 -29,33 -1,18 12,29 25,30 28,3 41,-27 56,-26 20,2 31,18 33,37 1,14 -3,22 -15,25 0,-13 -10,-20 -20,-20 -12,0 -22,10 -22,24 0,13 13,24 28,25 28,0 43,-27 43,-55 0,-45 -45,-97 -113,-96 -19,0 -39,5 -57,15 -9,-14 -20,-27 -33,-38 -8,-8 -10,-20 -1,-22 11,-3 23,7 34,7 28,0 44,-14 45,-44 1,-23 -24,-52 -52,-65 1,9 3,18 1,25 -1,10 -15,11 -15,0 -1,-9 -4,-18 -13,-23 -13,-9 -31,-12 -51,-12 -2,9 -4,19 -2,29 1,8 7,12 14,13 12,12 4,24 -10,19 18,33 -9,45 -16,28 -8,-20 -15,-41 -38,-54 -15,-9 -34,-8 -54,3 28,27 1,52 -24,13 -6,8 -15,17 -25,23 -9,5 -18,8 -27,14 -12,7 -24,16 -24,33 0,15 7,28 26,28 13,1 23,-9 23,-21 1,-11 -4,-17 -14,-21 3,-8 10,-14 24,-18 10,4 18,13 23,27 4,-4 10,-9 16,-15 10,-2 14,3 12,11 -15,14 -19,28 -19,46 21,-9 52,-27 75,-29 16,-1 23,2 28,10 -9,8 -37,13 -48,41 -13,-1 -28,5 -29,16 0,8 5,14 13,18 -14,9 -18,20 -17,31 8,-7 15,-11 28,-13 17,6 48,8 65,-10 17,-19 21,-41 20,-70 -1,-12 10,-14 23,-6zm36 44c11,21 17,44 17,69 1,9 0,17 -1,25 -3,18 -11,30 -30,30 -19,0 -30,-18 -30,-42 -1,-32 19,-63 44,-82z"/>
  <path class="fil0" d="M816 0c308,0 564,224 612,518 -15,-15 -41,-19 -60,-19 -56,-253 -282,-443 -552,-443 -251,0 -464,164 -538,391 -9,-10 -29,-21 -50,-26 83,-245 315,-421 588,-421z"/>
 </g>
</svg>
