<?xml version="1.0" encoding="UTF-8"?>
<!DOCTYPE svg PUBLIC "-//W3C//DTD SVG 1.1//EN" "http://www.w3.org/Graphics/SVG/1.1/DTD/svg11.dtd">
<!-- Creator: CorelDRAW X8 -->
<svg xmlns="http://www.w3.org/2000/svg" xml:space="preserve" width="472px" height="371px" version="1.1" shape-rendering="geometricPrecision" text-rendering="geometricPrecision" image-rendering="optimizeQuality" fill-rule="evenodd" clip-rule="evenodd"
viewBox="0 0 633 497"
 xmlns:xlink="http://www.w3.org/1999/xlink">
 <defs>
    <linearGradient id="id0" gradientUnits="userSpaceOnUse" x1="477.445" y1="157.15" x2="105.398" y2="157.15">
     <stop offset="0" stop-opacity="1" stop-color="#003399"/>
     <stop offset="1" stop-opacity="1" stop-color="#00CCFF"/>
    </linearGradient>
 </defs>
 <g id="Capa_x0020_1">
  <metadata id="CorelCorpID_0Corel-Layer"/>
  <g id="_2477349734080">
   <g id="_2148717194736">
    <polygon fill="#003399" fill-rule="nonzero" points="16,482 67,482 67,495 0,495 0,392 66,392 66,405 16,405 16,437 16,450 "/>
    <path fill="#003399" fill-rule="nonzero" d="M110 443l-31 -51 18 0 22 37c1,-2 4,-8 11,-19 6,-11 10,-17 11,-18l19 0 -32 51 35 52 -19 0 -25 -38c-1,1 -5,8 -12,19 -7,12 -10,18 -11,19l-19 0 33 -52z"/>
    <path fill="#003399" fill-rule="nonzero" d="M276 482l16 0c12,0 21,-4 27,-11 6,-7 9,-17 9,-28 0,-11 -3,-20 -10,-27 -7,-7 -15,-11 -27,-11l-15 0 0 77 0 0zm-17 -90l33 0c15,0 28,5 38,14 10,10 15,22 15,37 0,15 -5,28 -14,38 -10,10 -23,14 -39,14l-33 0 0 -103z"/>
    <polygon fill="#003399" fill-rule="nonzero" points="361,495 361,392 376,392 376,495 "/>
    <polygon fill="#003399" fill-rule="nonzero" points="435,405 435,495 419,495 419,405 390,405 390,392 465,392 465,405 "/>
    <path fill="#003399" fill-rule="nonzero" d="M633 396l0 16c-5,-3 -9,-4 -12,-5 -4,-1 -9,-2 -14,-2 -11,0 -19,4 -26,11 -7,7 -11,16 -11,28 0,11 4,21 10,28 7,7 16,10 28,10 10,0 18,-2 25,-7l0 16c-6,4 -15,6 -27,6 -15,0 -28,-5 -38,-15 -10,-9 -14,-22 -14,-38 0,-16 4,-29 14,-39 10,-10 23,-15 38,-15 11,0 20,2 27,6l0 0z"/>
    <polygon fill="#003399" fill-rule="nonzero" points="192,482 243,482 243,495 176,495 176,392 242,392 242,405 192,405 192,437 192,450 "/>
    <polygon fill="#003399" fill-rule="nonzero" points="494,482 545,482 545,495 478,495 478,392 544,392 544,405 494,405 494,437 494,450 "/>
   </g>
   <g id="_2148717199376">
    <polygon fill="#009EE1" fill-rule="nonzero" points="19,437 54,437 67,450 32,450 "/>
    <polygon fill="#0098DC" fill-rule="nonzero" points="194,437 230,437 243,450 208,450 "/>
    <polygon fill="#009EE1" fill-rule="nonzero" points="497,437 532,437 545,450 510,450 "/>
   </g>
   <path fill="url(#id0)" d="M225 87l94 0 -35 -35 -24 0 46 -47c7,-7 19,-7 26,0l139 139c7,7 7,19 0,26l-139 139c-7,7 -19,7 -26,0l-81 -81 129 0 -35 -36 -130 0 0 0 -48 0 -36 -35 57 0 124 0 117 0 -35 -35 -179 0 0 0 -35 -35 71 0 0 0z"/>
  </g>
 </g>
</svg>
