<?xml version="1.0" encoding="UTF-8"?>
<!DOCTYPE svg PUBLIC "-//W3C//DTD SVG 1.1//EN" "http://www.w3.org/Graphics/SVG/1.1/DTD/svg11.dtd">
<!-- Creator: CorelDRAW X8 -->
<svg xmlns="http://www.w3.org/2000/svg" xml:space="preserve" width="532px" height="390px" version="1.1" shape-rendering="geometricPrecision" text-rendering="geometricPrecision" image-rendering="optimizeQuality" fill-rule="evenodd" clip-rule="evenodd"
viewBox="0 0 945 692"
 xmlns:xlink="http://www.w3.org/1999/xlink">
 <defs>
    <linearGradient id="id0" gradientUnits="userSpaceOnUse" x1="413.564" y1="0.00209617" x2="413.564" y2="464.369">
     <stop offset="0" stop-opacity="1" stop-color="#49FCE6"/>
     <stop offset="1" stop-opacity="1" stop-color="#039FD1"/>
    </linearGradient>
 </defs>
 <g id="Capa_x0020_1">
  <metadata id="CorelCorpID_0Corel-Layer"/>
  <g id="_2477356822480">
   <path fill="url(#id0)" d="M414 0l117 0c96,0 174,78 174,174l0 117c0,96 -78,174 -174,174l-117 0c-96,0 -174,-78 -174,-174l0 -117c0,-96 78,-174 174,-174z"/>
   <path fill="white" fill-rule="nonzero" d="M357 169l113 -113 117 117 -58 58 58 59 -117 117 -117 -117 4 -4 55 -55 -59 -58 4 -4zm125 110l78 0 -39 -40 -39 40zm89 11l-101 0 -50 -51 -51 51 101 101 101 -101zm-202 -117l101 0 51 50 50 -50 -101 -101 -101 101 0 0zm90 12l-78 0 39 38 39 -38zm11 4l-42 42 42 43 43 -43 -43 -42z"/>
   <path fill="#039FD1" fill-rule="nonzero" d="M46 572c9,0 16,1 22,4 7,2 13,6 18,11l-13 15c-8,-7 -16,-10 -25,-10 -5,0 -8,1 -11,3 -3,2 -4,5 -4,8 0,3 0,5 1,7 2,1 4,3 7,4 3,2 8,3 14,5 12,4 20,8 26,14 5,5 8,13 8,23 0,7 -2,14 -6,19 -3,6 -8,10 -15,13 -7,3 -15,4 -25,4 -9,0 -17,-1 -24,-4 -8,-3 -14,-7 -19,-12l14 -15c4,4 9,7 13,8 5,2 10,3 15,3 6,0 11,-1 14,-4 3,-2 5,-5 5,-10 0,-3 -1,-5 -2,-7 -1,-2 -3,-4 -6,-5 -3,-2 -8,-3 -13,-5 -13,-4 -22,-9 -27,-14 -6,-6 -8,-13 -8,-22 0,-6 2,-12 5,-17 4,-5 8,-9 15,-12 6,-2 13,-4 21,-4l0 0z"/>
   <path id="_1" fill="#039FD1" fill-rule="nonzero" d="M141 575c15,0 27,3 35,9 8,7 12,16 12,28 0,13 -4,23 -12,29 -8,7 -19,11 -33,11l-12 0 0 38 -27 0 0 -115 37 0zm0 57c6,0 11,-2 14,-5 4,-3 5,-8 5,-15 0,-12 -6,-18 -20,-18l-9 0 0 38 10 0z"/>
   <polygon id="_2" fill="#039FD1" fill-rule="nonzero" points="273,575 270,594 230,594 230,622 265,622 265,641 230,641 230,670 273,670 273,690 203,690 203,575 "/>
   <path id="_3" fill="#039FD1" fill-rule="nonzero" d="M350 690l-6 -25 -33 0 -6 25 -28 0 34 -115 33 0 35 115 -29 0zm-35 -45l24 0 -12 -50 -12 50 0 0z"/>
   <path id="_4" fill="#039FD1" fill-rule="nonzero" d="M414 575l0 115 -27 0 0 -115 27 0zm66 0l-36 52 39 63 -31 0 -37 -62 36 -53 29 0 0 0z"/>
   <path id="_5" fill="#039FD1" fill-rule="nonzero" d="M568 572c8,0 16,1 22,4 6,2 12,6 17,11l-12 15c-8,-7 -17,-10 -25,-10 -5,0 -9,1 -12,3 -2,2 -4,5 -4,8 0,3 1,5 2,7 1,1 3,3 6,4 4,2 8,3 14,5 12,4 21,8 26,14 6,5 8,13 8,23 0,7 -2,14 -5,19 -4,6 -9,10 -16,13 -7,3 -15,4 -24,4 -9,0 -18,-1 -25,-4 -7,-3 -13,-7 -19,-12l14 -15c5,4 9,7 14,8 4,2 10,3 15,3 6,0 10,-1 14,-4 3,-2 4,-5 4,-10 0,-3 0,-5 -1,-7 -2,-2 -4,-4 -7,-5 -3,-2 -7,-3 -13,-5 -12,-4 -21,-9 -27,-14 -5,-6 -8,-13 -8,-22 0,-6 2,-12 6,-17 3,-5 8,-9 14,-12 7,-2 14,-4 22,-4l0 0z"/>
   <polygon id="_6" fill="#039FD1" fill-rule="nonzero" points="652,575 652,668 697,668 694,690 625,690 625,575 "/>
   <path id="_7" fill="#039FD1" fill-rule="nonzero" d="M749 572c17,0 29,6 38,16 10,10 14,25 14,44 0,13 -2,23 -6,32 -4,10 -10,16 -18,21 -8,5 -17,7 -28,7 -10,0 -20,-2 -27,-7 -8,-4 -14,-11 -18,-20 -4,-9 -6,-20 -6,-33 0,-12 2,-23 6,-32 4,-9 10,-16 18,-21 7,-4 17,-7 27,-7l0 0zm0 20c-7,0 -13,3 -17,10 -4,6 -6,16 -6,30 0,14 2,25 6,31 4,6 10,10 17,10 8,0 14,-4 18,-10 4,-6 5,-17 5,-31 0,-14 -1,-24 -5,-30 -4,-7 -10,-10 -18,-10l0 0z"/>
   <polygon id="_8" fill="#039FD1" fill-rule="nonzero" points="945,575 925,690 890,690 876,602 861,690 827,690 808,575 835,575 846,669 862,575 891,575 906,669 919,575 "/>
  </g>
 </g>
</svg>
