<?xml version="1.0" encoding="UTF-8"?>
<!DOCTYPE svg PUBLIC "-//W3C//DTD SVG 1.1//EN" "http://www.w3.org/Graphics/SVG/1.1/DTD/svg11.dtd">
<!-- Creator: CorelDRAW X8 -->
<svg xmlns="http://www.w3.org/2000/svg" xml:space="preserve" width="39.9802mm" height="31.3861mm" version="1.1" style="shape-rendering:geometricPrecision; text-rendering:geometricPrecision; image-rendering:optimizeQuality; fill-rule:evenodd; clip-rule:evenodd"
viewBox="0 0 3999 3140"
 xmlns:xlink="http://www.w3.org/1999/xlink">
 <defs>
  <style type="text/css">
   <![CDATA[
    .fil0 {fill:#003399;fill-rule:nonzero}
    .fil2 {fill:#0098DC;fill-rule:nonzero}
    .fil1 {fill:#009EE1;fill-rule:nonzero}
    .fil3 {fill:url(#id0)}
   ]]>
  </style>
  <linearGradient id="id0" gradientUnits="userSpaceOnUse" x1="3028.93" y1="993.398" x2="666.217" y2="993.488">
   <stop offset="0" style="stop-opacity:1; stop-color:#003399"/>
   <stop offset="1" style="stop-opacity:1; stop-color:#00CCFF"/>
  </linearGradient>
 </defs>
 <g id="Capa_x0020_1">
  <metadata id="CorelCorpID_0Corel-Layer"/>
  <g id="_2148717194736">
   <polygon class="fil0" points="100,3048 424,3048 424,3131 0,3131 0,2475 419,2475 419,2559 100,2559 100,2762 100,2845 "/>
   <path class="fil0" d="M695 2800l-198 -325 115 0 140 236c5,-10 28,-51 69,-120 41,-70 64,-108 68,-116l120 0 -199 325 217 331 -118 0 -156 -246c-5,11 -30,53 -74,125 -45,72 -69,112 -74,121l-120 0 210 -331z"/>
   <path class="fil0" d="M1742 3047l103 0c74,0 131,-24 170,-70 39,-47 59,-107 59,-180 0,-68 -22,-124 -64,-169 -42,-45 -98,-67 -168,-67l-100 0 0 486zm-103 -572l205 0c97,0 177,31 239,91 63,60 94,137 94,231 0,97 -30,177 -88,240 -59,63 -140,94 -243,94l-207 0 0 -656z"/>
   <polygon class="fil0" points="2280,3131 2280,2475 2379,2475 2379,3131 "/>
   <polygon class="fil0" points="2750,2559 2750,3131 2649,3131 2649,2559 2464,2559 2464,2475 2936,2475 2936,2559 "/>
   <path class="fil0" d="M3998 2503l0 98c-28,-15 -54,-26 -77,-32 -23,-6 -52,-9 -88,-9 -66,0 -120,22 -164,66 -44,45 -66,104 -66,177 0,75 22,134 65,178 44,44 101,66 173,66 63,0 116,-16 158,-48l0 101c-40,26 -96,40 -167,40 -98,0 -178,-31 -240,-92 -63,-61 -94,-143 -94,-245 0,-99 31,-180 94,-242 63,-63 142,-94 238,-94 70,0 126,12 168,36z"/>
   <polygon class="fil0" points="1211,3048 1535,3048 1535,3131 1111,3131 1111,2475 1530,2475 1530,2559 1211,2559 1211,2762 1211,2845 "/>
   <polygon class="fil0" points="3121,3048 3445,3048 3445,3131 3021,3131 3021,2475 3440,2475 3440,2559 3121,2559 3121,2762 3121,2845 "/>
  </g>
  <g id="_2148717199376">
   <polygon class="fil1" points="118,2762 340,2762 424,2845 202,2845 "/>
   <polygon class="fil2" points="1229,2762 1451,2762 1535,2845 1313,2845 "/>
   <polygon class="fil1" points="3139,2762 3361,2762 3445,2845 3222,2845 "/>
  </g>
  <path class="fil3" d="M1419 549l596 0 -222 -222 -152 0 294 -294c44,-44 116,-44 160,0l880 880c44,44 44,117 0,161l-880 880c-44,44 -116,44 -160,0l-516 -516 818 0 -222 -222 -819 0 0 0 -308 0 -222 -223 355 0 785 0 740 0 -222 -222 -1128 0 0 0 -222 -222 445 0z"/>
 </g>
</svg>
