<?xml version="1.0" encoding="UTF-8"?>
<!DOCTYPE svg PUBLIC "-//W3C//DTD SVG 1.1//EN" "http://www.w3.org/Graphics/SVG/1.1/DTD/svg11.dtd">
<!-- Creator: CorelDRAW X8 -->
<svg xmlns="http://www.w3.org/2000/svg" xml:space="preserve" width="57.6785mm" height="26.0358mm" version="1.1" style="shape-rendering:geometricPrecision; text-rendering:geometricPrecision; image-rendering:optimizeQuality; fill-rule:evenodd; clip-rule:evenodd"
viewBox="0 0 7169 3236"
 xmlns:xlink="http://www.w3.org/1999/xlink">
 <defs>
  <style type="text/css">
   <![CDATA[
    .fil1 {fill:#287AA2}
    .fil0 {fill:#FAC903}
   ]]>
  </style>
 </defs>
 <g id="Capa_x0020_1">
  <metadata id="CorelCorpID_0Corel-Layer"/>
  <path class="fil0" d="M4014 188c545,0 987,304 987,678 0,302 -286,558 -682,646l1 0 0 391c0,21 -13,28 -30,14l-472 -385 0 0c-92,-13 -179,-35 -259,-64 119,-47 225,-109 313,-182 170,-141 273,-324 273,-524 0,-218 -122,-416 -321,-561 61,-9 125,-13 190,-13z"/>
  <path class="fil0" d="M4390 2996l-288 0 0 0c-155,0 -281,-126 -281,-282 0,-155 125,-281 280,-282l289 0c66,0 120,-53 120,-120 0,-66 -54,-120 -120,-120l-288 0 0 0 -1 0 -8 0 0 0c-284,6 -513,237 -513,522 0,288 234,522 522,522l0 0 288 0c66,0 120,-54 120,-120 0,-66 -54,-120 -120,-120z"/>
  <path class="fil0" d="M5793 2432c222,0 401,180 401,402 0,222 -179,402 -401,402 -222,0 -402,-180 -402,-402l0 -402c-67,0 -120,-53 -120,-120 0,-66 53,-120 120,-120l0 0c174,0 237,99 240,240l0 34c49,-22 104,-34 162,-34zm0 240c89,0 161,73 161,162 0,90 -72,162 -161,162 -90,0 -162,-72 -162,-162 0,-89 72,-162 162,-162z"/>
  <path class="fil0" d="M6647 2432c222,0 402,180 402,402l0 0 0 156c66,0 120,54 120,120 0,66 -54,120 -120,120l0 6c-86,0 -144,-24 -182,-65 -63,41 -139,65 -220,65 -222,0 -402,-180 -402,-402 0,-222 180,-402 402,-402zm0 240c90,0 162,73 162,162l0 0c0,90 -72,162 -162,162 -89,0 -162,-72 -162,-162 0,-89 73,-162 162,-162z"/>
  <path class="fil0" d="M5304 2672c-3,-140 -66,-240 -240,-240 -66,0 -120,54 -120,120 0,67 54,120 120,120l0 162c0,90 -72,162 -162,162 -89,0 -162,-72 -162,-162l0 -162c67,0 120,-53 120,-120 0,-66 -53,-120 -120,-120 -174,0 -237,100 -240,240l0 162c0,222 180,402 402,402 222,0 402,-180 402,-402l0 -162z"/>
  <path class="fil1" d="M2976 0c617,0 1117,341 1117,762 0,371 -389,680 -903,748l0 0 -656 467c-18,12 -33,1 -27,-21l111 -472c-441,-101 -759,-386 -759,-722 0,-421 500,-762 1117,-762z"/>
  <path class="fil1" d="M120 2996l288 0 0 0c155,0 282,-126 282,-282 0,-155 -126,-281 -281,-282l-289 0c-66,0 -120,-53 -120,-120 0,-66 54,-120 120,-120l288 0 0 0 1 0 9 0 0 0c283,6 512,237 512,522 0,288 -234,522 -522,522l0 0 -288 0c-66,0 -120,-54 -120,-120 0,-66 54,-120 120,-120z"/>
  <path class="fil1" d="M2388 2996l1 0c0,-72 0,-144 0,-216 0,-76 -62,-137 -138,-137 -75,0 -137,61 -137,137 0,69 -1,144 -1,216 66,0 120,54 120,120 0,66 -54,120 -120,120l-1 0 0 0 0 0 -203 0 0 0 0 0 -1 0c-66,0 -120,-54 -120,-120 0,-66 54,-120 120,-120 0,-72 -1,-147 -1,-216 0,-76 -62,-137 -137,-137 -76,0 -138,61 -138,137 0,72 0,144 0,216l1 0c66,0 120,54 120,120 0,66 -54,120 -120,120 -11,0 -23,-2 -33,-5 -122,-23 -168,-113 -171,-233l0 -206 1 0c-1,-4 -1,-8 -1,-12 0,-188 153,-340 341,-340 94,0 179,38 240,100 62,-62 147,-100 241,-100 188,0 341,152 341,340 0,4 0,8 -1,12l1 0 0 206c-3,120 -49,210 -171,233 -10,3 -22,5 -33,5 -66,0 -120,-54 -120,-120 0,-66 54,-120 120,-120z"/>
  <circle class="fil1" cx="1206" cy="2296" r="120"/>
  <path class="fil1" d="M3252 2955c54,0 103,44 104,110 1,82 -73,112 -93,124 -56,30 -120,47 -188,47 -222,0 -402,-180 -402,-402 0,-222 180,-402 402,-402 198,0 363,144 396,333 1,6 2,13 3,19l1 8 -1 0c0,67 -54,121 -120,121l-91 0 -47 0 -283 0c28,49 81,83 142,83l62 0c32,-10 62,-41 115,-41zm-30 -189l-294 0c26,-55 82,-94 147,-94 65,0 121,39 147,94z"/>
  <path class="fil1" d="M1318 3116c0,66 -54,120 -120,120 -29,0 -55,0 -84,0 -66,0 -120,-54 -120,-120 0,-66 54,-120 120,-120l0 -160 0 -139c-66,0 -120,-54 -120,-120 0,-66 54,-120 120,-120l84 1c66,2 120,54 120,120 0,42 -1,74 0,118l0 140 0 162c-1,44 0,76 0,118z"/>
 </g>
</svg>
