<?xml version="1.0" encoding="UTF-8"?>
<!DOCTYPE svg PUBLIC "-//W3C//DTD SVG 1.1//EN" "http://www.w3.org/Graphics/SVG/1.1/DTD/svg11.dtd">
<!-- Creator: CorelDRAW X8 -->
<svg xmlns="http://www.w3.org/2000/svg" xml:space="preserve" width="30.6873mm" height="32.3707mm" version="1.1" style="shape-rendering:geometricPrecision; text-rendering:geometricPrecision; image-rendering:optimizeQuality; fill-rule:evenodd; clip-rule:evenodd"
viewBox="0 0 727 767"
 xmlns:xlink="http://www.w3.org/1999/xlink">
 <defs>
  <style type="text/css">
   <![CDATA[
    .fil0 {fill:white}
    .fil2 {fill:#007EB8;fill-rule:nonzero}
    .fil1 {fill:url(#id0)}
   ]]>
  </style>
  <linearGradient id="id0" gradientUnits="userSpaceOnUse" x1="176.878" y1="173.413" x2="536.773" y2="173.402">
   <stop offset="0" style="stop-opacity:1; stop-color:#007EB8"/>
   <stop offset="1" style="stop-opacity:1; stop-color:#03B7C6"/>
  </linearGradient>
 </defs>
 <g id="Capa_x0020_1">
  <metadata id="CorelCorpID_0Corel-Layer"/>
  <circle class="fil0" cx="363" cy="317" r="317"/>
  <path class="fil1" d="M255 467c0,21 -17,39 -39,39 -22,0 -39,-18 -39,-39l0 -294c0,-21 17,-39 39,-39l250 0 -79 79 -132 0 0 254zm280 -32c16,15 16,40 0,56 -15,15 -40,15 -55,0l-139 -139c-11,-7 -18,-19 -18,-33 0,-10 4,-19 10,-26l0 0 0 0c1,-1 2,-3 3,-4l145 -145c16,-15 41,-15 56,0 15,15 15,40 0,56l-119 118 117 117z"/>
  <path class="fil2" d="M22 731l-6 0 0 26c0,3 -1,6 -2,7 -2,2 -4,3 -6,3 -3,0 -5,-1 -6,-3 -1,-2 -2,-4 -2,-7l0 -61c0,-3 1,-6 2,-7 2,-2 4,-3 8,-3l26 0c3,0 6,0 9,1 3,0 5,1 7,2 2,1 5,2 6,4 2,2 4,4 5,7 1,2 1,5 1,8 0,6 -1,11 -5,14 -3,4 -8,6 -15,8 3,1 6,3 8,6 3,3 5,6 7,10 2,3 4,6 5,9 1,2 2,4 2,5 0,1 -1,2 -1,3 -1,1 -2,2 -3,3 -1,0 -3,1 -4,1 -2,0 -3,-1 -5,-2 -1,-1 -2,-2 -3,-3 -1,-1 -2,-3 -3,-6l-7 -10c-2,-4 -4,-7 -6,-9 -2,-2 -4,-4 -5,-4 -2,-1 -5,-2 -7,-2zm9 -33l-15 0 0 22 14 0c4,0 7,0 10,-1 3,-1 5,-2 6,-3 1,-2 2,-4 2,-7 0,-2 0,-4 -2,-6 -1,-1 -2,-3 -4,-4 -2,0 -6,-1 -11,-1z"/>
  <path id="1" class="fil2" d="M131 699l-36 0 0 19 34 0c2,0 4,1 5,2 1,1 2,2 2,4 0,2 -1,3 -2,4 -1,1 -3,2 -5,2l-34 0 0 23 38 0c2,0 4,0 5,1 2,1 2,3 2,5 0,2 0,3 -2,4 -1,2 -3,2 -5,2l-44 0c-3,0 -6,-1 -7,-2 -2,-2 -3,-4 -3,-8l0 -59c0,-2 1,-4 1,-6 1,-1 2,-2 4,-3 1,0 3,-1 5,-1l42 0c3,0 5,1 6,2 1,1 2,3 2,4 0,2 -1,4 -2,5 -1,1 -3,2 -6,2z"/>
  <path id="2" class="fil2" d="M220 740c0,3 0,5 -2,8 -1,3 -3,6 -6,9 -2,3 -6,5 -10,7 -4,2 -9,3 -14,3 -4,0 -8,-1 -11,-2 -4,0 -7,-2 -10,-3 -3,-2 -5,-4 -7,-7 -3,-2 -4,-5 -6,-8 -1,-3 -2,-7 -3,-10 -1,-4 -1,-7 -1,-11 0,-6 1,-12 3,-17 1,-5 4,-10 8,-13 3,-4 7,-6 12,-8 4,-2 9,-3 14,-3 7,0 13,1 18,4 4,2 8,5 11,9 3,4 4,7 4,11 0,2 -1,3 -2,5 -1,1 -3,2 -5,2 -2,0 -3,-1 -4,-2 -1,-1 -2,-2 -4,-5 -2,-4 -4,-7 -7,-8 -3,-2 -6,-3 -10,-3 -7,0 -12,2 -16,7 -4,5 -6,12 -6,21 0,7 1,12 3,16 1,4 4,7 7,9 3,2 7,3 11,3 5,0 8,-1 12,-4 3,-2 5,-5 7,-10 1,-2 1,-3 2,-5 1,-1 3,-2 5,-2 2,0 4,1 5,2 1,2 2,3 2,5z"/>
  <path id="3" class="fil2" d="M285 756l-4 -10 -32 0 -4 10c-1,4 -2,7 -3,8 -1,2 -3,3 -5,3 -2,0 -4,-1 -6,-3 -1,-1 -2,-3 -2,-5 0,-1 0,-2 0,-3 1,-1 1,-3 2,-5l20 -51c1,-2 2,-3 2,-5 1,-2 2,-4 3,-5 1,-2 2,-3 4,-4 1,-1 3,-1 5,-1 2,0 4,0 6,1 1,1 2,2 3,3 1,2 2,3 3,5 0,1 1,3 2,6l21 51c1,4 2,6 2,8 0,2 -1,4 -2,5 -2,2 -4,3 -6,3 -1,0 -2,-1 -3,-1 -1,-1 -2,-1 -2,-2 -1,-1 -1,-2 -2,-4 -1,-1 -1,-3 -2,-4zm-32 -22l24 0 -12 -32 -12 32z"/>
  <path id="4" class="fil2" d="M335 731l-5 0 0 26c0,3 -1,6 -3,7 -1,2 -3,3 -5,3 -3,0 -5,-1 -6,-3 -2,-2 -2,-4 -2,-7l0 -61c0,-3 0,-6 2,-7 2,-2 4,-3 7,-3l26 0c4,0 7,0 10,1 2,0 4,1 7,2 2,1 4,2 6,4 2,2 3,4 4,7 1,2 2,5 2,8 0,6 -2,11 -5,14 -3,4 -8,6 -15,8 3,1 5,3 8,6 3,3 5,6 7,10 2,3 3,6 5,9 1,2 1,4 1,5 0,1 0,2 -1,3 0,1 -1,2 -2,3 -2,0 -3,1 -4,1 -2,0 -4,-1 -5,-2 -1,-1 -2,-2 -3,-3 -1,-1 -2,-3 -4,-6l-6 -10c-2,-4 -4,-7 -6,-9 -2,-2 -4,-4 -6,-4 -2,-1 -4,-2 -7,-2zm9 -33l-14 0 0 22 14 0c4,0 7,0 10,-1 2,-1 4,-2 6,-3 1,-2 2,-4 2,-7 0,-2 -1,-4 -2,-6 -1,-1 -3,-3 -5,-4 -1,0 -5,-1 -11,-1z"/>
  <path id="5" class="fil2" d="M464 733l0 15c0,2 -1,4 -1,5 0,1 -1,2 -2,3 -1,1 -3,2 -4,3 -5,3 -10,5 -14,6 -4,1 -9,2 -14,2 -6,0 -12,-1 -17,-3 -5,-2 -9,-5 -13,-8 -3,-4 -6,-8 -8,-13 -2,-5 -3,-11 -3,-17 0,-6 1,-12 3,-17 2,-5 5,-10 8,-13 4,-4 8,-6 13,-8 5,-2 11,-3 18,-3 5,0 10,1 14,2 4,1 7,3 10,5 2,3 4,5 5,7 2,3 2,5 2,7 0,2 -1,3 -2,5 -1,1 -3,2 -5,2 -1,0 -3,0 -4,-1 -1,0 -2,-1 -2,-2 -2,-3 -4,-6 -5,-7 -2,-2 -4,-3 -6,-4 -2,-1 -5,-2 -9,-2 -3,0 -7,1 -10,2 -2,1 -5,3 -7,6 -2,2 -4,5 -5,9 -1,3 -1,7 -1,11 0,10 2,17 6,22 4,5 10,7 18,7 3,0 7,0 10,-1 3,-1 7,-3 10,-4l0 -13 -12 0c-3,0 -6,-1 -7,-2 -2,0 -2,-2 -2,-4 0,-2 0,-3 2,-5 1,-1 3,-1 5,-1l18 0c2,0 4,0 6,0 1,1 2,2 3,3 1,1 2,3 2,6z"/>
  <path id="6" class="fil2" d="M479 733l0 -38c0,-4 1,-6 2,-8 2,-1 4,-2 6,-2 2,0 4,1 6,2 1,2 2,4 2,8l0 38c0,5 0,9 1,12 1,2 3,5 6,6 2,2 6,3 10,3 6,0 11,-2 13,-5 3,-3 4,-8 4,-15l0 -39c0,-4 1,-6 3,-8 1,-1 3,-2 5,-2 3,0 5,1 6,2 2,2 2,4 2,8l0 38c0,6 0,11 -1,15 -2,4 -4,8 -7,11 -3,3 -6,4 -10,6 -4,1 -9,2 -14,2 -6,0 -11,-1 -15,-2 -5,-2 -8,-4 -11,-7 -3,-2 -5,-6 -6,-10 -1,-4 -2,-9 -2,-15z"/>
  <path id="7" class="fil2" d="M563 757l0 -62c0,-4 1,-6 3,-8 1,-1 3,-2 5,-2 3,0 5,1 6,2 2,2 2,4 2,8l0 62c0,3 0,5 -2,7 -1,2 -3,3 -6,3 -2,0 -4,-1 -5,-3 -2,-2 -3,-4 -3,-7z"/>
  <path id="8" class="fil2" d="M648 699l-17 0 0 58c0,3 -1,6 -2,7 -2,2 -4,3 -6,3 -2,0 -4,-1 -6,-3 -1,-2 -2,-4 -2,-7l0 -58 -17 0c-3,0 -5,0 -7,-1 -1,-2 -2,-3 -2,-5 0,-2 1,-4 3,-5 1,-1 3,-2 6,-2l50 0c3,0 5,1 7,2 1,1 2,3 2,5 0,2 -1,3 -2,5 -2,1 -4,1 -7,1z"/>
  <path id="9" class="fil2" d="M710 756l-4 -10 -32 0 -4 10c-1,4 -3,7 -4,8 -1,2 -3,3 -5,3 -2,0 -4,-1 -5,-3 -2,-1 -3,-3 -3,-5 0,-1 1,-2 1,-3 0,-1 1,-3 2,-5l20 -51c1,-2 1,-3 2,-5 1,-2 2,-4 3,-5 1,-2 2,-3 3,-4 2,-1 4,-1 6,-1 2,0 4,0 5,1 2,1 3,2 4,3 1,2 2,3 2,5 1,1 2,3 3,6l20 51c2,4 3,6 3,8 0,2 -1,4 -3,5 -1,2 -3,3 -5,3 -1,0 -2,-1 -3,-1 -1,-1 -2,-1 -3,-2 0,-1 -1,-2 -2,-4 0,-1 -1,-3 -1,-4zm-32 -22l24 0 -12 -32 -12 32z"/>
 </g>
</svg>
