<?xml version="1.0" encoding="UTF-8"?>
<!DOCTYPE svg PUBLIC "-//W3C//DTD SVG 1.1//EN" "http://www.w3.org/Graphics/SVG/1.1/DTD/svg11.dtd">
<!-- Creator: CorelDRAW X8 -->
<svg xmlns="http://www.w3.org/2000/svg" xml:space="preserve" width="592px" height="318px" version="1.1" shape-rendering="geometricPrecision" text-rendering="geometricPrecision" image-rendering="optimizeQuality" fill-rule="evenodd" clip-rule="evenodd"
viewBox="0 0 975 525"
 xmlns:xlink="http://www.w3.org/1999/xlink">
 <g id="Capa_x0020_1">
  <metadata id="CorelCorpID_0Corel-Layer"/>
  <g id="_2477352348992">
   <path fill="#006732" d="M524 436c-6,30 4,31 20,26 -1,9 -8,27 -28,27 -11,0 -21,-5 -26,-14l0 0c-4,7 -15,13 -28,13 -15,0 -27,-9 -28,-25 -8,13 -21,25 -40,25 -9,0 -20,-4 -27,-12l0 0c-7,8 -16,12 -28,13 -20,1 -36,-15 -30,-45l10 -46c4,-19 -3,-25 -9,-25 -10,0 -17,9 -22,21l-20 93 -38 0 18 -82c-3,0 -6,1 -8,1 -6,50 -32,82 -66,83 -9,0 -16,-2 -23,-5 -15,23 -45,41 -82,41 -52,0 -71,-30 -69,-77 6,-116 53,-170 115,-170 27,0 50,18 50,42 0,15 -8,29 -22,30 -8,0 -13,-3 -16,-8 11,-7 16,-18 14,-30 0,-11 -7,-22 -19,-22 -28,0 -65,49 -71,148 -2,38 14,59 42,59 15,0 36,-8 50,-20l0 0c-6,-7 -10,-17 -10,-31 4,-60 36,-97 75,-97 22,0 34,18 33,45 3,0 6,-1 9,-2l9 -40 37 0 -3 17c11,-11 23,-20 35,-20 19,0 32,16 26,46l-9 41c-5,26 0,33 15,27 -2,-4 -3,-10 -3,-17 3,-60 34,-95 73,-95 10,0 19,6 22,16l13 -63 35 -6c-9,46 -19,92 -28,138 -6,27 3,32 15,27 -1,-5 0,-12 1,-19 6,-31 13,-61 20,-92l34 0c-6,28 -12,56 -18,84l0 0zm-301 -57c-8,5 -12,11 -12,16 0,6 4,11 9,12 -5,38 -21,60 -34,60 -10,0 -17,-8 -17,-25 3,-40 23,-79 40,-79 7,0 12,7 14,16zm214 59l10 -49c3,-16 -1,-25 -10,-25 -22,0 -41,39 -43,78 -2,17 7,24 16,24 9,0 22,-10 27,-28l0 0z"/>
   <path fill="#FF6434" d="M917 327c-39,0 -71,37 -74,97 -8,14 -22,22 -40,22 -13,0 -21,-10 -21,-26 3,-40 21,-81 39,-81 7,0 10,6 10,10 0,7 -2,13 -8,17 2,3 7,5 12,5 9,0 15,-13 15,-20 0,-12 -10,-24 -29,-24 -39,0 -71,37 -75,97 0,6 1,11 2,15 -13,6 -25,4 -19,-25 6,-28 12,-56 18,-85l-35 0c-6,31 -13,62 -19,93 -7,29 7,44 27,44 15,0 27,-7 33,-16 7,12 19,17 34,16 20,0 43,-9 56,-28 5,19 21,29 40,28 34,0 60,-34 66,-84 14,-9 23,-22 26,-32 2,-8 -2,-10 -6,-4 -5,8 -10,12 -19,17 -2,-21 -13,-36 -33,-36l0 0zm-330 -72l42 -8 -15 75c32,1 52,-22 54,-61 2,-20 -17,-36 -44,-34 -38,3 -78,22 -82,79 0,8 0,17 4,26 -22,0 -32,-13 -32,-31 -3,-55 71,-84 109,-85 46,-1 77,19 78,49 0,25 -17,44 -38,58 17,2 28,17 24,34l-15 73c-3,15 0,23 12,26 -9,6 -21,10 -33,9 -19,-2 -25,-12 -19,-39l12 -59c5,-25 -6,-37 -33,-35l-24 118c-7,31 -28,44 -56,43 26,-7 31,-42 18,-53l38 -185 0 0zm151 16c12,0 21,9 21,21 0,11 -9,20 -21,20 -12,0 -21,-9 -21,-20 0,-12 9,-21 21,-21zm194 86c-8,4 -11,10 -11,16 0,6 3,11 9,12 -6,38 -22,60 -35,60 -9,0 -17,-9 -16,-25 2,-40 22,-80 39,-80 8,0 12,8 14,17z"/>
   <circle fill="#FF6434" cx="463" cy="168" r="18"/>
   <circle fill="#FF6434" cx="450" cy="268" r="11"/>
   <circle fill="#FF6434" cx="273" cy="200" r="7"/>
   <path fill="#006732" d="M387 188c7,6 13,12 17,20 -19,12 -34,32 -34,57 0,9 0,17 8,25 7,9 16,12 30,11 -4,7 -9,14 -14,20 -8,8 -19,8 -29,0 -7,-6 -13,-4 -20,3 -4,5 -10,7 -17,8 21,1 33,10 41,22 37,-22 59,-51 59,-94 0,-19 -5,-36 -12,-50 5,-3 10,-5 15,-5 11,-2 19,0 23,3 -9,4 -17,11 -17,20 0,11 7,17 15,18 17,1 25,-16 34,-16 11,1 18,11 19,22 1,9 -2,13 -9,15 0,-8 -6,-12 -12,-12 -7,0 -13,6 -13,15 0,7 8,14 17,14 17,0 26,-16 26,-32 0,-27 -27,-58 -68,-58 -11,0 -23,3 -34,9 -5,-8 -12,-16 -20,-22 -4,-5 -5,-12 0,-13 6,-2 14,4 20,4 17,0 26,-9 27,-27 1,-13 -14,-31 -31,-38 1,5 2,10 1,15 -1,6 -9,6 -9,0 -1,-6 -3,-11 -8,-14 -8,-5 -19,-7 -31,-7 -1,5 -2,11 -1,17 1,5 4,7 9,8 7,7 2,14 -6,11 10,20 -6,27 -10,17 -5,-12 -9,-25 -23,-32 -8,-6 -20,-5 -32,1 17,17 1,31 -14,8 -4,5 -9,10 -15,14 -5,3 -11,5 -16,8 -7,4 -14,10 -14,20 0,9 4,17 15,17 8,0 14,-6 14,-13 0,-6 -3,-10 -8,-12 1,-5 5,-9 14,-11 6,2 11,8 14,16 2,-2 6,-5 9,-9 6,-1 8,2 7,7 -9,8 -11,16 -11,27 12,-5 31,-16 45,-17 9,-1 13,1 16,6 -5,4 -22,7 -28,24 -8,0 -17,3 -18,10 0,4 3,8 8,10 -8,6 -11,12 -10,19 5,-4 9,-7 17,-8 10,4 28,5 38,-6 11,-11 13,-24 12,-42 0,-7 6,-8 14,-3l0 0zm22 26c6,13 10,26 10,41 0,6 0,10 -1,15 -2,11 -6,18 -18,18 -11,0 -18,-11 -18,-25 0,-19 12,-38 27,-49l0 0z"/>
   <path fill="#006732" d="M487 0c183,0 336,134 365,309 -9,-9 -25,-11 -36,-11 -34,-151 -168,-265 -329,-265 -150,0 -277,98 -321,234 -5,-6 -17,-13 -30,-16 50,-146 188,-251 351,-251l0 0z"/>
  </g>
 </g>
</svg>
