<?xml version="1.0" encoding="UTF-8"?>
<!DOCTYPE svg PUBLIC "-//W3C//DTD SVG 1.1//EN" "http://www.w3.org/Graphics/SVG/1.1/DTD/svg11.dtd">
<!-- Creator: CorelDRAW X8 -->
<svg xmlns="http://www.w3.org/2000/svg" xml:space="preserve" width="362px" height="382px" version="1.1" shape-rendering="geometricPrecision" text-rendering="geometricPrecision" image-rendering="optimizeQuality" fill-rule="evenodd" clip-rule="evenodd"
viewBox="0 0 362 382"
 xmlns:xlink="http://www.w3.org/1999/xlink">
 <defs>
    <linearGradient id="id0" gradientUnits="userSpaceOnUse" x1="87.6413" y1="87.7911" x2="265.107" y2="87.7911">
     <stop offset="0" stop-opacity="1" stop-color="#007EB8"/>
     <stop offset="1" stop-opacity="1" stop-color="#03B7C6"/>
    </linearGradient>
 </defs>
 <g id="Capa_x0020_1">
  <metadata id="CorelCorpID_0Corel-Layer"/>
  <g id="_2477349727296">
   <circle fill="white" cx="181" cy="158" r="158"/>
   <path fill="url(#id0)" d="M127 233c0,10 -8,19 -19,19 -11,0 -20,-9 -20,-19l0 -147c0,-10 9,-19 20,-19l124 0 -39 39 -66 0 0 127 0 0zm139 -16c8,7 8,20 0,27 -7,8 -20,8 -27,0l-69 -69c-6,-3 -9,-9 -9,-16 0,-5 2,-10 5,-13l0 0 0 0c0,-1 1,-2 1,-2l73 -72c7,-8 20,-8 27,0 8,7 8,20 0,28l-59 58 58 59 0 0z"/>
   <path fill="#007EB8" fill-rule="nonzero" d="M11 364l-3 0 0 13c0,1 -1,3 -1,3 -1,1 -2,2 -3,2 -2,0 -3,-1 -3,-2 -1,-1 -1,-2 -1,-3l0 -30c0,-2 0,-3 1,-4 1,-1 2,-1 4,-1l13 0c1,0 3,0 4,0 2,0 3,1 4,1 1,1 2,1 3,2 1,1 2,2 2,4 1,1 1,2 1,4 0,3 -1,5 -3,7 -1,2 -4,2 -7,3 1,1 3,2 4,3 1,2 2,3 3,5 1,2 2,3 3,5 0,1 1,2 1,2 0,1 -1,1 -1,2 0,0 -1,1 -1,1 -1,0 -2,1 -2,1 -1,0 -2,-1 -3,-1 0,-1 -1,-1 -1,-2 -1,0 -1,-1 -2,-3l-3 -5c-1,-2 -2,-3 -3,-4 -1,-1 -2,-2 -3,-2 -1,-1 -2,-1 -3,-1l0 0zm4 -16l-7 0 0 11 7 0c2,0 3,0 5,-1 1,0 2,-1 3,-1 0,-1 1,-2 1,-4 0,-1 0,-2 -1,-3 -1,0 -1,-1 -2,-2 -1,0 -3,0 -6,0l0 0z"/>
   <path id="_1" fill="#007EB8" fill-rule="nonzero" d="M65 348l-18 0 0 10 17 0c1,0 2,0 3,1 0,0 1,1 1,2 0,1 -1,1 -1,1 -1,1 -2,1 -3,1l-17 0 0 12 19 0c1,0 2,0 3,0 1,1 1,2 1,3 0,1 0,1 -1,2 -1,1 -2,1 -3,1l-22 0c-1,0 -3,-1 -3,-1 -1,-1 -2,-2 -2,-4l0 -29c0,-1 1,-2 1,-3 0,-1 1,-1 2,-2 0,0 1,0 2,0l21 0c2,0 3,0 3,1 1,0 1,1 1,2 0,1 0,2 -1,2 0,1 -1,1 -3,1l0 0z"/>
   <path id="_2" fill="#007EB8" fill-rule="nonzero" d="M110 368c0,2 0,3 -1,4 -1,2 -2,3 -3,5 -1,1 -3,2 -5,3 -2,1 -5,2 -7,2 -2,0 -4,-1 -6,-1 -2,0 -3,-1 -5,-2 -1,-1 -2,-2 -3,-3 -2,-1 -2,-3 -3,-4 -1,-2 -1,-4 -2,-5 0,-2 0,-4 0,-5 0,-3 0,-6 1,-9 1,-2 2,-5 4,-6 2,-2 4,-3 6,-4 2,-1 5,-2 7,-2 4,0 7,1 9,2 2,1 4,3 6,5 1,2 2,3 2,5 0,1 -1,2 -1,3 -1,0 -2,1 -3,1 -1,0 -1,-1 -2,-1 0,-1 -1,-1 -2,-3 -1,-2 -2,-3 -3,-4 -2,-1 -3,-1 -5,-1 -4,0 -6,1 -8,3 -2,3 -3,6 -3,11 0,3 0,5 1,7 1,2 2,4 4,5 1,1 3,1 5,1 3,0 4,0 6,-2 2,-1 3,-2 4,-5 0,-1 0,-1 1,-2 0,-1 1,-1 2,-1 1,0 2,0 3,1 0,1 1,1 1,2l0 0z"/>
   <path id="_3" fill="#007EB8" fill-rule="nonzero" d="M142 376l-2 -5 -16 0 -2 5c-1,2 -1,4 -1,4 -1,1 -2,2 -3,2 -1,0 -2,-1 -3,-2 0,0 -1,-1 -1,-2 0,-1 0,-1 0,-2 1,0 1,-1 1,-2l10 -25c0,-1 1,-2 1,-3 0,-1 1,-2 1,-2 1,-1 1,-2 2,-2 1,-1 2,-1 3,-1 1,0 2,0 3,1 0,0 1,1 1,1 1,1 1,2 2,3 0,0 0,1 1,3l10 25c1,2 1,3 1,4 0,1 0,2 -1,2 -1,1 -2,2 -3,2 0,0 -1,-1 -1,-1 -1,0 -1,0 -1,-1 -1,0 -1,-1 -1,-2 -1,0 -1,-1 -1,-2l0 0zm-16 -11l12 0 -6 -15 -6 15 0 0z"/>
   <path id="_4" fill="#007EB8" fill-rule="nonzero" d="M167 364l-3 0 0 13c0,1 0,3 -1,3 -1,1 -2,2 -3,2 -1,0 -2,-1 -3,-2 -1,-1 -1,-2 -1,-3l0 -30c0,-2 0,-3 1,-4 1,-1 2,-1 4,-1l13 0c2,0 3,0 5,0 1,0 2,1 3,1 1,1 2,1 3,2 1,1 2,2 2,4 1,1 1,2 1,4 0,3 -1,5 -2,7 -2,2 -4,2 -8,3 2,1 3,2 4,3 2,2 3,3 4,5 1,2 1,3 2,5 1,1 1,2 1,2 0,1 0,1 -1,2 0,0 0,1 -1,1 -1,0 -1,1 -2,1 -1,0 -2,-1 -2,-1 -1,-1 -1,-1 -2,-2 0,0 -1,-1 -2,-3l-3 -5c-1,-2 -2,-3 -3,-4 -1,-1 -2,-2 -3,-2 -1,-1 -2,-1 -3,-1l0 0zm4 -16l-7 0 0 11 7 0c2,0 4,0 5,-1 1,0 2,-1 3,-1 1,-1 1,-2 1,-4 0,-1 0,-2 -1,-3 0,0 -1,-1 -2,-2 -1,0 -3,0 -6,0l0 0z"/>
   <path id="_5" fill="#007EB8" fill-rule="nonzero" d="M231 365l0 7c0,1 0,2 0,3 0,0 -1,1 -1,1 -1,1 -2,1 -2,2 -3,1 -5,2 -7,3 -2,0 -5,1 -7,1 -3,0 -6,-1 -9,-2 -2,-1 -4,-2 -6,-4 -2,-2 -3,-4 -4,-6 -1,-3 -2,-6 -2,-8 0,-3 1,-6 2,-9 1,-2 2,-5 4,-6 2,-2 4,-3 6,-4 3,-1 6,-2 9,-2 3,0 5,1 7,1 2,1 4,2 5,3 1,1 2,2 3,3 1,2 1,3 1,4 0,1 -1,1 -1,2 -1,1 -2,1 -3,1 0,0 -1,0 -2,0 0,0 -1,-1 -1,-1 -1,-2 -2,-3 -2,-4 -1,-1 -2,-1 -3,-2 -1,0 -3,-1 -5,-1 -1,0 -3,1 -5,1 -1,1 -2,2 -3,3 -1,1 -2,3 -3,5 0,1 0,3 0,5 0,5 1,8 3,11 2,2 5,3 9,3 1,0 3,0 5,0 1,-1 3,-2 5,-2l0 -7 -6 0c-2,0 -3,0 -4,-1 -1,0 -1,-1 -1,-2 0,-1 0,-1 1,-2 1,0 2,0 3,0l9 0c1,0 2,0 3,0 0,0 1,0 1,1 1,0 1,1 1,3l0 0z"/>
   <path id="_6" fill="#007EB8" fill-rule="nonzero" d="M239 365l0 -19c0,-2 0,-3 1,-4 1,0 1,-1 2,-1 1,0 2,1 3,1 1,1 1,2 1,4l0 19c0,2 0,4 1,6 0,1 1,2 3,3 1,1 3,1 5,1 3,0 5,-1 6,-2 2,-2 2,-4 2,-8l0 -19c0,-2 1,-3 2,-4 0,0 1,-1 2,-1 2,0 3,1 3,1 1,1 1,2 1,4l0 19c0,3 0,5 0,7 -1,2 -2,4 -4,6 -1,1 -3,2 -5,3 -2,0 -4,1 -7,1 -3,0 -5,-1 -7,-1 -3,-1 -4,-2 -6,-4 -1,-1 -2,-3 -2,-5 -1,-2 -1,-4 -1,-7l0 0z"/>
   <path id="_7" fill="#007EB8" fill-rule="nonzero" d="M280 377l0 -31c0,-2 1,-3 2,-4 0,0 1,-1 2,-1 2,0 3,1 3,1 1,1 1,2 1,4l0 31c0,1 0,2 -1,3 0,1 -1,2 -3,2 -1,0 -2,-1 -2,-2 -1,-1 -2,-2 -2,-3z"/>
   <path id="_8" fill="#007EB8" fill-rule="nonzero" d="M323 348l-9 0 0 29c0,1 0,3 -1,3 -1,1 -2,2 -3,2 -1,0 -2,-1 -3,-2 0,-1 -1,-2 -1,-3l0 -29 -8 0c-2,0 -3,0 -4,0 0,-1 -1,-2 -1,-3 0,-1 1,-2 2,-2 0,-1 1,-1 3,-1l25 0c1,0 2,0 3,1 1,0 1,1 1,2 0,1 0,2 -1,3 -1,0 -2,0 -3,0z"/>
   <path id="_9" fill="#007EB8" fill-rule="nonzero" d="M354 376l-2 -5 -16 0 -2 5c-1,2 -2,4 -2,4 -1,1 -2,2 -3,2 -1,0 -2,-1 -2,-2 -1,0 -2,-1 -2,-2 0,-1 1,-1 1,-2 0,0 0,-1 1,-2l10 -25c0,-1 0,-2 1,-3 0,-1 1,-2 1,-2 1,-1 1,-2 2,-2 1,-1 2,-1 3,-1 1,0 2,0 2,1 1,0 2,1 2,1 1,1 1,2 1,3 1,0 1,1 2,3l10 25c1,2 1,3 1,4 0,1 0,2 -1,2 -1,1 -2,2 -3,2 0,0 -1,-1 -1,-1 -1,0 -1,0 -2,-1 0,0 0,-1 -1,-2 0,0 0,-1 0,-2l0 0zm-16 -11l12 0 -6 -15 -6 15 0 0z"/>
  </g>
 </g>
</svg>
