<?xml version="1.0" encoding="UTF-8"?>
<!DOCTYPE svg PUBLIC "-//W3C//DTD SVG 1.1//EN" "http://www.w3.org/Graphics/SVG/1.1/DTD/svg11.dtd">
<!-- Creator: CorelDRAW X8 -->
<svg xmlns="http://www.w3.org/2000/svg" xml:space="preserve" width="2375px" height="2101px" version="1.1" style="shape-rendering:geometricPrecision; text-rendering:geometricPrecision; image-rendering:optimizeQuality; fill-rule:evenodd; clip-rule:evenodd"
viewBox="0 0 2221 1965"
 xmlns:xlink="http://www.w3.org/1999/xlink">
 <defs>
  <style type="text/css">
   <![CDATA[
    .fil5 {fill:#E95056}
    .fil25 {fill:#E94D6C}
    .fil24 {fill:#E73A5C}
    .fil37 {fill:#F4AA0E}
    .fil2 {fill:#EB748D}
    .fil33 {fill:#F8D85B}
    .fil36 {fill:#F4BA12}
    .fil28 {fill:#F6D30E}
    .fil35 {fill:#F5C917}
    .fil32 {fill:#F4C836}
    .fil27 {fill:#F3C219}
    .fil31 {fill:#F4D300}
    .fil34 {fill:#EEC800}
    .fil30 {fill:#E6B30C}
    .fil26 {fill:#DC951D}
    .fil29 {fill:#DD9C1B}
    .fil43 {fill:#DBAE15}
    .fil23 {fill:#BB273C}
    .fil22 {fill:#B5283A}
    .fil58 {fill:#BCA7D1}
    .fil53 {fill:#B49AC9}
    .fil56 {fill:#A07FB8}
    .fil21 {fill:#86CBC9}
    .fil44 {fill:#819BC1}
    .fil54 {fill:#8560A5}
    .fil49 {fill:#68ACDE}
    .fil19 {fill:#5ABDB3}
    .fil14 {fill:#59BCBF}
    .fil13 {fill:#47B8BA}
    .fil57 {fill:#734F98}
    .fil48 {fill:#4C99D3}
    .fil51 {fill:#4596D1}
    .fil55 {fill:#653F7E}
    .fil41 {fill:#4E7BAB}
    .fil52 {fill:#3C8BCA}
    .fil16 {fill:#22A0A3}
    .fil17 {fill:#319A96}
    .fil15 {fill:#329899}
    .fil20 {fill:#398C83}
    .fil50 {fill:#2E7FC1}
    .fil18 {fill:#2A7773}
    .fil38 {fill:#3670A3}
    .fil47 {fill:#2775B3}
    .fil45 {fill:#2466A0}
    .fil39 {fill:#315D8A}
    .fil42 {fill:#31547D}
    .fil40 {fill:#30405F}
    .fil46 {fill:#265C8E}
    .fil6 {fill:#EC646D;fill-rule:nonzero}
    .fil10 {fill:#E85259;fill-rule:nonzero}
    .fil1 {fill:#E55057;fill-rule:nonzero}
    .fil0 {fill:#E03138;fill-rule:nonzero}
    .fil9 {fill:#DD3137;fill-rule:nonzero}
    .fil12 {fill:#DD464B;fill-rule:nonzero}
    .fil8 {fill:#D3272A;fill-rule:nonzero}
    .fil11 {fill:#CA2627;fill-rule:nonzero}
    .fil3 {fill:#C62727;fill-rule:nonzero}
    .fil7 {fill:#C02A2A;fill-rule:nonzero}
    .fil4 {fill:#BF2728;fill-rule:nonzero}
    .fil59 {fill:#2E7FC1;fill-rule:nonzero}
   ]]>
  </style>
 </defs>
 <g id="Capa_x0020_1">
  <metadata id="CorelCorpID_0Corel-Layer"/>
  <g id="_2521273950048">
   <path class="fil0" d="M1161 433c-42,-134 -165,-268 -258,-289 -39,-8 -75,-8 -103,17 -13,12 -32,31 -35,54 148,-47 319,102 364,229 9,1 32,8 32,-11l0 0z"/>
   <path class="fil1" d="M1087 290c-55,-75 -125,-133 -184,-146 -4,-1 -8,-2 -12,-2 -24,19 -39,43 -37,67 68,10 135,50 187,101 18,-3 32,-11 46,-20l0 0z"/>
   <path class="fil2" d="M960 168c-8,-4 -16,-9 -24,-12 -27,9 -38,34 -44,61 9,3 19,7 28,11 1,-4 3,-8 5,-11 9,-17 21,-33 35,-49l0 0z"/>
   <path class="fil3" d="M1064 460c-158,-5 -272,-72 -315,-148 -25,-45 -9,-103 59,-157 -34,39 -9,98 15,130 64,88 218,152 327,160 -21,4 -65,12 -86,15l0 0z"/>
   <path class="fil4" d="M786 359c-15,-14 -28,-31 -37,-47 -25,-45 -9,-103 59,-157 -34,39 -9,98 15,130 0,1 1,2 2,2 -14,27 -26,52 -39,72l0 0z"/>
   <path class="fil5" d="M1153 455c46,-13 92,-35 134,-60 86,-55 152,-132 155,-191 1,-37 -6,-70 -41,-96 -16,-12 -43,-30 -70,-33 69,61 22,160 -45,232 -42,45 -100,103 -152,119 1,8 -3,29 19,29l0 0z"/>
   <path class="fil6" d="M1223 430c22,-11 43,-22 64,-35 46,-30 86,-65 113,-101 -10,-19 -34,-37 -64,-55 -13,24 -31,47 -50,68 -26,28 -57,59 -89,84 7,18 16,30 26,39l0 0z"/>
   <path class="fil2" d="M1312 377c19,-12 34,-25 49,-40 -16,-14 -38,-33 -57,-51 -6,7 -13,14 -18,21 -5,5 -10,11 -16,16 10,21 27,40 42,54l0 0z"/>
   <path class="fil7" d="M1100 434c-10,-54 -8,-132 5,-195 10,-46 26,-85 40,-109 19,-30 44,-54 72,-69 47,-24 118,-10 193,54 -52,-32 -114,-8 -147,15 -86,60 -129,206 -115,309 -5,11 -40,15 -48,-5l0 0z"/>
   <path class="fil3" d="M1171 96c14,-14 30,-26 46,-35 47,-24 118,-10 193,54 -52,-32 -114,-8 -147,15 -1,1 -2,1 -2,1 -33,-12 -64,-23 -90,-35l0 0z"/>
   <path class="fil4" d="M1205 68c4,-2 8,-5 12,-7 12,-6 26,-10 41,-11 34,17 59,35 77,51 -12,2 -24,5 -35,10 -28,-17 -60,-30 -95,-43l0 0z"/>
   <path class="fil8" d="M1125 433c-1,-42 37,-85 78,-106 37,-20 77,-29 113,-24 73,12 137,49 191,114l-77 54c0,0 -69,-95 -152,-104 -19,-2 -36,0 -52,5 -60,17 -72,66 -72,66l-29 -5z"/>
   <path class="fil9" d="M1244 309c24,-7 49,-9 72,-6 54,9 104,32 147,69 -19,15 -51,35 -83,47 -27,-24 -63,-47 -102,-52 -11,-1 -22,-1 -32,0 -9,-17 -12,-36 -2,-58l0 0z"/>
   <path class="fil10" d="M1375 319c21,8 42,19 60,33 -22,14 -52,36 -75,50 -11,-8 -25,-16 -38,-22 11,-17 31,-38 53,-61l0 0z"/>
   <path class="fil7" d="M959 17l85 -17c-26,151 -45,256 84,449l-51 -14c-64,-61 -101,-137 -123,-216 -19,-70 -14,-140 5,-202l0 0z"/>
   <path class="fil11" d="M959 17l85 -17c-16,93 -29,168 -8,256 -16,13 -36,28 -55,38 -11,-25 -19,-50 -27,-75 -19,-70 -14,-140 5,-202l0 0z"/>
   <path class="fil8" d="M1033 67c-7,46 -10,90 -6,136 -21,7 -48,16 -71,22l-2 -6c-12,-46 -15,-91 -9,-135l88 -17z"/>
   <path class="fil12" d="M1028 104c-1,15 -2,29 -2,44 -19,7 -52,20 -80,28 -3,-18 -4,-36 -3,-53l85 -19z"/>
   <polygon class="fil13" points="1119,493 1582,576 1542,1803 1119,1904 "/>
   <path class="fil14" d="M1119 493l30 6 425 354 -3 54 -452 -379 0 -35zm172 31l85 15 202 170 -2 54 -285 -239zm278 480l-2 54 -448 -374 0 -56 450 376zm-5 152l-2 54 -443 -371 0 -56 445 373zm-5 149l-2 54 -438 -365 0 -55 440 366zm-5 152l-2 54 -433 -362 0 -56 435 364zm-5 151l-2 54 -428 -358 0 -56 430 360zm-5 151l-2 44 -9 2 -414 -346 0 -56 425 356zm-155 81l-270 -226 0 -56 322 269 -52 13zm-144 34l-126 -105 0 -55 178 148 -52 12z"/>
   <polygon class="fil15" points="1119,493 679,563 711,1805 1119,1904 "/>
   <path class="fil16" d="M1119 493l-32 5 -401 335 1 55 432 -362 0 -33zm-170 27l-82 13 -184 155 1 54 265 -222zm-259 465l2 55 427 -359 0 -55 -429 359zm4 153l1 54 424 -356 0 -55 -425 357zm3 151l2 54 420 -351 0 -56 -422 353zm5 152l1 54 416 -348 0 -56 -417 350zm3 151l2 55 412 -346 0 -55 -414 346zm4 152l2 54 408 -341 0 -56 -410 343zm139 95l271 -228 0 -55 -323 270 52 13zm144 34l127 -106 0 -56 -179 150 52 12z"/>
   <polygon class="fil17" points="1119,493 1582,576 1581,623 1119,554 "/>
   <polygon class="fil18" points="1119,493 679,563 681,610 1119,554 "/>
   <polygon class="fil19" points="1119,428 1592,513 1590,614 1119,542 "/>
   <polygon class="fil20" points="1119,428 663,502 668,603 674,602 1119,542 "/>
   <path class="fil21" d="M1113 429l2 114 4 -1 4 0 1 -113 -5 -1 -6 1zm2 126l2 1349 2 0 3 -1350 -3 0 -4 1z"/>
   <polygon class="fil22" points="822,475 891,465 924,1857 856,1841 "/>
   <polygon class="fil23" points="891,465 893,573 825,582 822,476 "/>
   <polygon class="fil24" points="1417,481 1350,469 1317,1857 1383,1841 "/>
   <polygon class="fil25" points="1350,469 1348,576 1414,587 1417,481 "/>
   <path class="fil26" d="M1676 783c-34,-18 -181,-98 -142,-166 22,-37 66,-73 94,-68 -61,75 16,165 104,244l-56 -10z"/>
   <path class="fil27" d="M1773 796c-6,-154 -41,-214 -95,-252 -15,-10 -29,-16 -51,-6 -22,9 -45,24 -64,43 -12,10 -21,22 -29,36 34,-44 91,-31 130,20 30,40 75,99 68,156l41 3z"/>
   <path class="fil28" d="M1668 538c-12,-6 -24,-8 -41,0 -22,9 -45,24 -64,43 -12,10 -21,22 -29,36 13,-17 28,-25 45,-27 32,-24 67,-48 89,-52l0 0z"/>
   <path class="fil29" d="M1775 808c14,-5 102,-37 152,-74 55,-39 71,-68 58,-96 -18,-40 -67,-79 -98,-73 27,33 51,51 30,90 -24,45 -71,90 -164,137l22 16z"/>
   <path class="fil30" d="M1729 797c-6,-56 53,-208 111,-247 36,-24 78,6 105,30 10,10 28,36 35,49 -41,-51 -86,-44 -143,35 -25,35 -64,92 -86,150l-22 -17z"/>
   <path class="fil31" d="M1861 542c15,-3 31,2 45,10 6,12 15,26 25,39 2,3 4,5 6,7 -13,-3 -27,-1 -41,7l-35 -63z"/>
   <path class="fil26" d="M1813 803c36,8 187,40 202,-26 1,-5 2,-11 2,-17 0,-7 -1,-14 -2,-22 -5,-26 -17,-51 -34,-60 18,96 -93,107 -216,98l48 27z"/>
   <path class="fil32" d="M1734 796c17,-36 149,-153 199,-158 19,-2 33,2 46,21 13,17 26,39 32,62 4,12 6,27 6,39 -9,-60 -42,-63 -117,-25 -30,16 -87,35 -122,65l-44 -4z"/>
   <path class="fil33" d="M1926 639c3,0 5,-1 7,-1 5,-1 11,-1 16,0 11,17 22,48 28,72 -13,-1 -28,4 -49,12 -1,-31 -4,-64 -2,-83l0 0z"/>
   <path class="fil29" d="M1734 796c11,-24 73,-83 128,-122 -8,20 -28,65 -53,104 -11,7 -22,14 -31,22l-44 -4z"/>
   <path class="fil29" d="M1678 823c-26,4 -143,-1 -186,-36 -4,-3 -8,-8 -12,-12 -5,-8 -8,-17 -7,-24 5,-42 33,-91 61,-101 -13,41 -20,55 8,84 12,14 46,31 72,40 30,12 49,22 92,26l-28 23z"/>
   <path class="fil30" d="M1743 790c-8,-32 -49,-92 -93,-133 -38,-35 -81,-56 -108,-30 -20,19 -42,48 -56,79 -6,13 -10,27 -12,42 26,-89 103,-73 229,57l40 -15z"/>
   <path class="fil34" d="M1609 627c-13,-7 -25,-11 -36,-11l-58 79c14,-5 31,-4 50,4 1,-5 2,-11 5,-15 14,-25 26,-44 39,-57l0 0z"/>
   <path class="fil29" d="M1727 793c-7,-12 -61,-111 -76,-169 -17,-65 5,-89 27,-102 33,-18 87,-24 106,-1 -50,-6 -56,-4 -62,39 -6,48 31,173 44,238l-39 -5z"/>
   <path class="fil35" d="M1772 799c0,-16 11,-38 20,-65 19,-60 42,-140 28,-187 -12,-39 -56,-43 -86,-42 -12,1 -36,9 -49,13 54,-12 69,16 68,111 0,41 -5,107 -5,169l24 1z"/>
   <path class="fil33" d="M1807 526c-18,-20 -49,-22 -73,-21 -12,1 -36,9 -49,13 19,-4 32,-3 43,2 27,-3 58,-5 75,4 1,0 3,2 4,2l0 0z"/>
   <path class="fil36" d="M1772 799c0,-16 11,-38 20,-65 17,-50 35,-117 32,-164 -13,-15 -44,-23 -76,-15 4,18 6,42 5,74 0,41 -5,107 -5,169l24 1z"/>
   <path class="fil37" d="M1772 799c0,-16 11,-38 20,-65 13,-39 27,-88 31,-130 0,-1 0,-2 -1,-3 -3,-18 -36,-31 -71,-25 2,14 2,32 2,53 0,41 -5,107 -5,169l24 1z"/>
   <path class="fil33" d="M1633 643c-9,-8 -18,-13 -28,-18 -16,22 -35,52 -46,72 13,4 26,10 40,19 10,-17 24,-47 34,-73l0 0z"/>
   <polygon class="fil38" points="1730,916 2204,988 2163,1857 1732,1962 "/>
   <polygon class="fil39" points="1730,916 1280,984 1316,1855 1732,1962 "/>
   <polygon class="fil40" points="1730,916 2204,988 2202,1014 1730,971 "/>
   <polygon class="fil40" points="1730,916 1280,984 1282,1015 1730,971 "/>
   <polygon class="fil41" points="1729,774 2221,849 2213,1003 1731,960 1729,960 "/>
   <polygon class="fil42" points="1729,774 1263,855 1268,1008 1275,1007 1729,960 "/>
   <polygon class="fil43" points="1521,810 1426,827 1452,1889 1549,1915 "/>
   <polygon class="fil35" points="1961,808 2056,823 2028,1890 1936,1913 "/>
   <path class="fil44" d="M1723 775l3 186 4 -1 3 0 0 -186 -4 0 -6 1zm4 197l5 692 0 -693 -2 0 -3 1z"/>
   <path class="fil45" d="M413 1195c-117,12 -241,-111 -230,-227 2,-25 39,-84 59,-85 -29,25 -26,75 -9,113 37,84 112,142 209,174l-29 25z"/>
   <path class="fil46" d="M458 1201c-42,4 -129,-15 -166,-38 24,-10 46,-21 59,-35 28,17 58,31 91,42l16 31z"/>
   <path class="fil47" d="M475 1198c-9,-34 -21,-127 -34,-157 -23,-53 -51,-98 -80,-126 -51,-48 -104,-46 -132,-26 -15,10 -43,54 -45,74 -1,2 -1,4 -1,6 41,-57 103,-33 140,-3 30,23 54,61 75,103 17,32 36,102 52,133l25 -4z"/>
   <path class="fil48" d="M411 980c-16,-26 -33,-48 -50,-65 -51,-48 -104,-46 -132,-26 -15,10 -43,54 -45,74 -1,2 -1,4 -1,6 41,-57 103,-33 140,-3 22,17 41,43 58,72 10,-14 19,-35 30,-58l0 0z"/>
   <path class="fil49" d="M309 882c-17,-6 -33,-8 -46,-6 -8,22 -14,43 -18,58 18,0 38,7 54,16 3,-21 6,-43 10,-68l0 0z"/>
   <path class="fil48" d="M480 1205c-29,-156 -182,-252 -363,-165 12,25 -6,47 21,65 111,-60 219,-55 318,94l24 6z"/>
   <path class="fil49" d="M237 1007c-19,2 -39,5 -58,10l12 65c21,-8 43,-12 64,-13 -5,-19 -11,-40 -18,-62l0 0z"/>
   <path class="fil50" d="M480 1205c-10,-54 -35,-101 -70,-135 -11,10 -24,23 -38,37 28,21 56,51 84,92l8 16 16 -10z"/>
   <path class="fil45" d="M453 1158c-31,-121 65,-265 180,-268 25,0 87,31 92,51 -29,-26 -77,-18 -111,5 -74,49 -126,151 -140,256l-21 -44z"/>
   <path class="fil46" d="M454 1199c-11,-43 -7,-130 10,-172 13,25 27,46 42,58 -16,35 -27,79 -31,114l-21 0z"/>
   <path class="fil47" d="M484 1206c78,-10 182,-33 251,-129 41,-56 32,-98 -17,-149 -13,-13 -60,-37 -80,-38 -2,0 -5,0 -6,0 62,36 72,98 49,140 -48,91 -146,113 -209,159l12 17z"/>
   <path class="fil45" d="M586 900c15,-6 31,-9 47,-10 25,0 87,31 92,51 -29,-26 -77,-18 -111,5 -6,4 -13,8 -19,14l-9 -60z"/>
   <path class="fil51" d="M718 1099c6,-7 11,-14 17,-22 41,-56 32,-98 -17,-149 -13,-13 -60,-37 -80,-38 -2,0 -5,0 -6,0 62,36 72,98 49,140 -8,15 -18,29 -29,42 20,11 43,20 66,27l0 0z"/>
   <path class="fil45" d="M666 926c-18,2 -36,9 -52,20 -1,1 -3,2 -5,3l-11 -37c0,0 27,3 68,14l0 0z"/>
   <path class="fil49" d="M760 1017c2,-25 -8,-48 -28,-72 -21,-7 -40,-13 -58,-17 16,22 21,48 17,71 24,7 48,13 69,18l0 0z"/>
   <path class="fil48" d="M533 1132c7,-9 12,-22 16,-35 6,-22 14,-52 14,-73 0,-43 -18,-76 -33,-115 -15,-41 -33,-81 -45,-122 -24,19 -37,70 -57,83 31,83 77,92 93,177 3,17 4,43 -9,78l21 7z"/>
   <path class="fil49" d="M529 904c-7,-19 -15,-38 -23,-57 -16,30 -33,72 -39,89 0,1 0,2 -1,3 8,11 16,21 24,31l39 -66z"/>
   <path class="fil52" d="M468 1202c79,-51 97,-131 95,-187 -1,-11 -3,-23 -5,-31 -6,22 -21,44 -38,59 6,31 1,59 -8,82 -13,34 -34,60 -44,77l0 0z"/>
   <polygon class="fil53" points="471,1147 935,1242 927,1855 471,1965 "/>
   <polygon class="fil54" points="471,1147 6,1231 13,1854 471,1965 "/>
   <polygon class="fil55" points="471,1147 935,1242 934,1357 471,1298 "/>
   <polygon class="fil55" points="471,1147 6,1231 7,1348 471,1298 "/>
   <polygon class="fil56" points="471,1145 941,1242 938,1349 471,1284 "/>
   <polygon class="fil57" points="471,1145 0,1231 3,1342 471,1284 "/>
   <path class="fil58" d="M466 1147l1 138 4 -1 2 1 1 -138 -3 -1 -5 1zm2 151l3 667 1 -667 -1 0 -3 0z"/>
   <polygon class="fil59" points="254,1188 176,1199 175,1893 253,1913 "/>
   <polygon class="fil59" points="683,1189 760,1204 760,1896 682,1914 "/>
  </g>
 </g>
</svg>
