<?xml version="1.0" encoding="UTF-8"?>
<!DOCTYPE svg PUBLIC "-//W3C//DTD SVG 1.1//EN" "http://www.w3.org/Graphics/SVG/1.1/DTD/svg11.dtd">
<!-- Creator: CorelDRAW X8 -->
<svg xmlns="http://www.w3.org/2000/svg" xml:space="preserve" width="7421px" height="6566px" version="1.1" shape-rendering="geometricPrecision" text-rendering="geometricPrecision" image-rendering="optimizeQuality" fill-rule="evenodd" clip-rule="evenodd"
viewBox="0 0 7207 6377"
 xmlns:xlink="http://www.w3.org/1999/xlink">
 <g id="Capa_x0020_1">
  <metadata id="CorelCorpID_0Corel-Layer"/>
  <g id="_2477378318624">
   <g id="_2521273950048">
    <path fill="#E03138" fill-rule="nonzero" d="M3768 1405c-137,-435 -536,-870 -838,-938 -126,-26 -243,-26 -334,55 -42,39 -104,101 -114,176 481,-153 1036,331 1182,743 29,3 104,26 104,-36l0 0 0 0z"/>
    <path fill="#E55057" fill-rule="nonzero" d="M3527 941c-178,-243 -405,-432 -597,-474 -13,-3 -26,-6 -39,-6 -78,61 -126,139 -120,217 221,33 438,162 607,328 59,-10 104,-36 149,-65l0 0 0 0z"/>
    <path fill="#EB748D" d="M3115 545c-26,-13 -52,-29 -78,-39 -87,29 -123,111 -142,198 29,10 61,23 90,36 4,-13 10,-26 17,-36 29,-55 68,-107 113,-159l0 0z"/>
    <path fill="#C62727" fill-rule="nonzero" d="M3453 1493c-513,-16 -883,-234 -1022,-481 -82,-146 -30,-334 191,-509 -110,127 -29,318 49,422 207,285 707,493 1061,519 -68,13 -211,39 -279,49l0 0 0 0z"/>
    <path fill="#BF2728" fill-rule="nonzero" d="M2551 1165c-49,-45 -91,-101 -120,-153 -82,-146 -30,-334 191,-509 -110,127 -29,318 49,422 0,3 3,6 6,6 -45,88 -84,169 -126,234l0 0z"/>
    <path fill="#E95056" d="M3742 1477c149,-43 298,-114 434,-195 280,-179 494,-429 503,-620 4,-120 -19,-227 -133,-312 -52,-38 -139,-97 -227,-107 224,198 72,520 -146,753 -136,146 -324,334 -493,386 3,26 -10,95 62,95l0 0z"/>
    <path fill="#EC646D" fill-rule="nonzero" d="M3969 1395c71,-35 139,-71 207,-113 150,-98 280,-211 367,-328 -32,-62 -110,-120 -208,-178 -42,77 -100,152 -162,220 -84,91 -185,192 -289,273 23,58 52,97 85,126l0 0z"/>
    <path fill="#EB748D" d="M4258 1223c61,-39 110,-81 159,-129 -52,-46 -124,-107 -185,-166 -20,23 -43,46 -59,68 -16,16 -32,36 -52,52 33,68 88,130 137,175l0 0 0 0z"/>
    <path fill="#C02A2A" fill-rule="nonzero" d="M3570 1408c-33,-175 -26,-428 16,-632 32,-150 84,-276 130,-354 61,-97 142,-175 233,-224 153,-78 383,-33 627,175 -169,-104 -370,-26 -477,49 -280,195 -419,668 -374,1003 -16,35 -129,48 -155,-17l0 0z"/>
    <path fill="#C62727" fill-rule="nonzero" d="M3800 312c45,-46 97,-85 149,-114 153,-78 383,-33 627,175 -169,-104 -370,-26 -477,49 -4,3 -7,3 -7,3 -107,-39 -208,-75 -292,-113l0 0 0 0z"/>
    <path fill="#BF2728" fill-rule="nonzero" d="M3910 221c13,-7 26,-17 39,-23 39,-20 85,-33 133,-36 111,55 192,114 250,166 -39,6 -78,16 -113,32 -91,-55 -195,-97 -309,-139l0 0z"/>
    <path fill="#D3272A" fill-rule="nonzero" d="M3651 1405c-4,-136 120,-276 253,-344 120,-65 250,-94 367,-78 236,39 444,159 619,370l-250 175c0,0 -223,-308 -493,-337 -61,-7 -117,0 -169,16 -194,55 -233,214 -233,214l-94 -16 0 0z"/>
    <path fill="#DD3137" fill-rule="nonzero" d="M4037 1003c78,-23 159,-29 234,-20 175,29 337,104 477,224 -62,49 -166,114 -270,153 -87,-78 -204,-153 -331,-169 -35,-3 -71,-3 -104,0 -29,-55 -39,-117 -6,-188l0 0z"/>
    <path fill="#E85259" fill-rule="nonzero" d="M4462 1035c68,26 136,62 195,107 -72,46 -169,117 -244,163 -35,-26 -81,-52 -123,-72 36,-55 101,-123 172,-198l0 0 0 0z"/>
    <path fill="#C02A2A" fill-rule="nonzero" d="M3112 55l276 -55c-85,490 -146,831 272,1457l-165 -45c-208,-198 -328,-445 -399,-701 -62,-227 -46,-455 16,-656l0 0 0 0z"/>
    <path fill="#CA2627" fill-rule="nonzero" d="M3112 55l276 -55c-52,302 -94,545 -26,831 -52,42 -117,91 -179,123 -35,-81 -61,-162 -87,-243 -62,-227 -46,-455 16,-656l0 0 0 0z"/>
    <path fill="#D3272A" fill-rule="nonzero" d="M3352 217c-23,150 -32,292 -19,442 -68,22 -156,52 -231,71l-6 -19c-39,-150 -49,-296 -29,-438l285 -56 0 0z"/>
    <path fill="#DD464B" fill-rule="nonzero" d="M3336 337c-3,49 -7,95 -7,143 -61,23 -168,65 -259,91 -10,-58 -13,-117 -10,-172l276 -62z"/>
    <polygon fill="#47B8BA" points="3631,1600 5134,1869 5004,5851 3631,6179 "/>
    <path fill="#59BCBF" d="M3631 1600l98 19 1379 1149 -10 175 -1467 -1230 0 -113 0 0zm558 100l276 49 656 552 -7 175 -925 -776zm903 1558l-7 175 -1454 -1213 0 -182 1461 1220 0 0zm-17 493l-6 176 -1438 -1204 0 -182 1444 1210 0 0zm-16 484l-6 175 -1422 -1184 0 -179 1428 1188zm-16 493l-7 175 -1405 -1174 0 -182 1412 1181zm-16 490l-7 175 -1389 -1161 0 -182 1396 1168 0 0zm-17 490l-6 143 -29 6 -1344 -1122 0 -182 1379 1155 0 0zm-503 263l-876 -733 0 -182 1045 873 -169 42 0 0zm-467 110l-409 -340 0 -179 578 480 -169 39 0 0z"/>
    <polygon fill="#329899" points="3631,1600 2203,1827 2307,5857 3631,6179 "/>
    <path fill="#22A0A3" d="M3631 1600l-104 16 -1301 1087 3 179 1402 -1175 0 -107 0 0zm-551 87l-267 43 -597 503 4 175 860 -721zm-841 1509l7 179 1385 -1165 0 -179 -1392 1165zm13 497l3 175 1376 -1155 0 -179 -1379 1159zm10 490l6 175 1363 -1139 0 -182 -1369 1146 0 0zm16 493l3 175 1350 -1129 0 -182 -1353 1136 0 0zm10 490l6 179 1337 -1123 0 -179 -1343 1123zm13 493l6 176 1324 -1107 0 -182 -1330 1113zm451 309l879 -740 0 -179 -1048 877 169 42 0 0zm467 110l412 -344 0 -182 -581 487 169 39z"/>
    <polygon fill="#319A96" points="3631,1600 5134,1869 5130,2022 3631,1798 "/>
    <polygon fill="#2A7773" points="3631,1600 2203,1827 2210,1980 3631,1798 "/>
    <polygon fill="#5ABDB3" points="3631,1389 5166,1665 5160,1992 3631,1759 "/>
    <polygon fill="#398C83" points="3631,1389 2151,1629 2168,1957 2187,1954 3631,1759 "/>
    <path fill="#86CBC9" d="M3612 1392l6 370 13 -3 13 0 3 -367 -16 -3 -19 3zm6 409l7 4378 6 0 10 -4381 -10 0 -13 3z"/>
    <polygon fill="#B5283A" points="2667,1541 2891,1509 2998,6026 2778,5974 "/>
    <polygon fill="#BB273C" points="2891,1509 2898,1859 2677,1889 2667,1545 "/>
    <polygon fill="#E73A5C" points="4598,1561 4381,1522 4274,6026 4488,5974 "/>
    <polygon fill="#E94D6C" points="4381,1522 4374,1869 4589,1905 4598,1561 "/>
    <path fill="#DC951D" d="M5439 2541c-111,-59 -588,-318 -461,-539 71,-120 214,-237 305,-220 -198,243 52,535 337,791l-181 -32z"/>
    <path fill="#F3C219" d="M5754 2583c-20,-500 -134,-694 -309,-818 -48,-32 -94,-52 -165,-19 -72,29 -146,78 -208,139 -39,33 -68,72 -94,117 110,-143 295,-100 422,65 97,130 243,321 220,506l134 10 0 0z"/>
    <path fill="#F6D30E" d="M5413 1746c-39,-20 -78,-26 -133,0 -72,29 -146,78 -208,139 -39,33 -68,72 -94,117 42,-55 91,-81 146,-87 104,-78 217,-156 289,-169l0 0 0 0z"/>
    <path fill="#DD9C1B" d="M5760 2622c45,-16 331,-120 493,-240 179,-127 231,-221 188,-312 -58,-129 -217,-256 -318,-237 88,108 166,166 98,293 -78,146 -231,292 -532,444l71 52 0 0z"/>
    <path fill="#E6B30C" d="M5611 2586c-20,-181 172,-675 360,-801 117,-78 253,19 341,97 32,33 91,117 113,159 -133,-165 -279,-143 -464,114 -81,113 -207,298 -279,486l-71 -55 0 0z"/>
    <path fill="#F4D300" d="M6039 1759c49,-10 101,6 146,32 20,39 49,85 81,127 7,10 13,16 20,23 -42,-10 -88,-4 -133,22l-114 -204 0 0z"/>
    <path fill="#DC951D" d="M5883 2606c117,26 607,130 656,-85 3,-16 6,-35 6,-55 0,-22 -3,-45 -6,-71 -16,-84 -55,-166 -110,-195 58,312 -302,347 -701,318l155 88 0 0z"/>
    <path fill="#F4C836" d="M5627 2583c55,-117 483,-496 646,-513 61,-6 107,7 149,69 42,55 84,126 104,201 13,39 19,87 19,126 -29,-194 -136,-204 -379,-81 -98,52 -283,114 -396,211l-143 -13 0 0z"/>
    <path fill="#F8D85B" d="M6250 2074c10,0 16,-4 23,-4 16,-3 35,-3 52,0 35,56 71,156 91,234 -43,-3 -91,13 -159,39 -4,-101 -13,-208 -7,-269l0 0z"/>
    <path fill="#DD9C1B" d="M5627 2583c36,-78 237,-269 415,-396 -26,65 -91,211 -172,338 -35,22 -71,45 -100,71l-143 -13 0 0z"/>
    <path fill="#DD9C1B" d="M5445 2671c-84,13 -464,-4 -603,-117 -13,-10 -26,-26 -39,-39 -16,-26 -26,-55 -23,-78 16,-136 107,-295 198,-328 -42,133 -65,179 26,273 39,45 149,100 234,130 97,39 159,71 298,84l-91 75 0 0z"/>
    <path fill="#E6B30C" d="M5656 2564c-26,-104 -159,-299 -302,-432 -123,-114 -262,-182 -350,-97 -65,61 -136,155 -182,256 -19,42 -32,88 -39,136 85,-288 335,-237 743,185l130 -48 0 0z"/>
    <path fill="#EEC800" d="M5221 2035c-42,-23 -81,-36 -116,-36l-189 256c46,-16 101,-13 163,13 3,-16 6,-35 16,-48 45,-81 84,-143 126,-185l0 0 0 0z"/>
    <path fill="#DD9C1B" d="M5604 2573c-22,-39 -198,-360 -246,-548 -56,-211 16,-289 87,-331 107,-58 283,-78 344,-3 -162,-20 -181,-13 -201,126 -19,156 101,562 143,773l-127 -17z"/>
    <path fill="#F5C917" d="M5750 2593c0,-52 36,-123 65,-211 62,-195 136,-454 91,-607 -39,-126 -182,-139 -279,-136 -39,3 -117,29 -159,42 175,-39 224,52 221,360 0,133 -17,347 -17,549l78 3 0 0z"/>
    <path fill="#F8D85B" d="M5864 1707c-59,-65 -159,-71 -237,-68 -39,3 -117,29 -159,42 62,-13 104,-10 140,6 87,-9 188,-16 243,13 3,0 10,7 13,7l0 0z"/>
    <path fill="#F4BA12" d="M5750 2593c0,-52 36,-123 65,-211 55,-162 114,-380 104,-532 -42,-49 -143,-75 -247,-49 13,58 20,136 17,240 0,133 -17,347 -17,549l78 3z"/>
    <path fill="#F4AA0E" d="M5750 2593c0,-52 36,-123 65,-211 42,-127 88,-286 101,-422 0,-3 0,-6 -3,-10 -10,-58 -117,-100 -231,-81 7,46 7,104 7,172 0,133 -17,347 -17,549l78 3z"/>
    <path fill="#F8D85B" d="M5299 2087c-29,-26 -58,-43 -91,-59 -52,72 -113,169 -149,234 42,13 84,32 130,61 32,-55 78,-152 110,-236l0 0 0 0z"/>
    <polygon fill="#3670A3" points="5614,2972 7152,3206 7019,6026 5620,6367 "/>
    <polygon fill="#315D8A" points="5614,2972 4154,3193 4271,6020 5620,6367 "/>
    <polygon fill="#30405F" points="5614,2972 7152,3206 7146,3291 5614,3151 "/>
    <polygon fill="#30405F" points="5614,2972 4154,3193 4160,3294 5614,3151 "/>
    <polygon fill="#4E7BAB" points="5611,2512 7207,2755 7181,3255 5617,3115 5611,3115 "/>
    <polygon fill="#31547D" points="5611,2512 4099,2775 4115,3271 4137,3268 5611,3115 "/>
    <polygon fill="#DBAE15" points="4936,2629 4627,2684 4712,6130 5027,6214 "/>
    <polygon fill="#F5C917" points="6364,2622 6672,2671 6581,6133 6282,6208 "/>
    <path fill="#819BC1" d="M5591 2515l10 604 13 -4 10 0 0 -603 -13 0 -20 3zm13 639l16 2246 0 -2249 -6 0 -10 3z"/>
    <path fill="#2466A0" d="M1340 3878c-379,39 -782,-360 -746,-737 6,-81 126,-272 191,-276 -94,82 -84,244 -29,367 120,273 364,461 678,565l-94 81 0 0z"/>
    <path fill="#265C8E" d="M1486 3897c-136,13 -418,-48 -538,-123 77,-32 149,-68 191,-114 91,56 188,101 295,137l52 100 0 0z"/>
    <path fill="#2775B3" d="M1541 3888c-29,-111 -68,-413 -110,-510 -75,-172 -165,-318 -260,-409 -165,-156 -337,-149 -428,-84 -49,32 -139,175 -146,240 -3,7 -3,13 -3,19 133,-184 334,-107 454,-9 98,74 175,198 244,334 55,104 116,331 168,432l81 -13 0 0z"/>
    <path fill="#4C99D3" d="M1334 3180c-52,-84 -107,-156 -163,-211 -165,-156 -337,-149 -428,-84 -49,32 -139,175 -146,240 -3,7 -3,13 -3,19 133,-184 334,-107 454,-9 72,55 133,139 188,233 33,-45 62,-113 98,-188l0 0 0 0z"/>
    <path fill="#68ACDE" d="M1003 2862c-55,-19 -107,-26 -150,-19 -26,71 -45,139 -58,188 58,0 123,23 175,52 10,-68 20,-140 33,-221l0 0 0 0z"/>
    <path fill="#4C99D3" d="M1558 3910c-94,-506 -591,-817 -1178,-535 39,81 -20,152 68,211 360,-195 710,-179 1032,305l78 19z"/>
    <path fill="#68ACDE" d="M769 3268c-62,6 -126,16 -188,32l39 211c68,-26 139,-39 207,-42 -16,-62 -35,-130 -58,-201l0 0 0 0z"/>
    <path fill="#2E7FC1" d="M1558 3910c-33,-175 -114,-327 -228,-438 -35,33 -77,75 -123,120 91,68 182,166 273,299l26 52 52 -33 0 0z"/>
    <path fill="#2466A0" d="M1470 3758c-101,-393 211,-860 584,-870 81,0 282,101 299,166 -94,-85 -250,-59 -361,16 -240,159 -408,490 -454,831l-68 -143z"/>
    <path fill="#265C8E" d="M1473 3891c-35,-140 -22,-422 33,-558 42,81 87,149 136,188 -52,113 -88,256 -101,370l-68 0z"/>
    <path fill="#2775B3" d="M1571 3914c253,-33 590,-108 814,-419 133,-182 104,-318 -55,-484 -42,-42 -195,-120 -260,-123 -6,0 -16,0 -19,0 201,117 234,318 159,454 -156,296 -474,367 -678,516l39 56 0 0z"/>
    <path fill="#2466A0" d="M1902 2921c48,-20 100,-30 152,-33 81,0 282,101 299,166 -94,-85 -250,-59 -361,16 -19,13 -42,26 -61,45l-29 -194z"/>
    <path fill="#4596D1" d="M2330 3566c19,-22 36,-45 55,-71 133,-182 104,-318 -55,-484 -42,-42 -195,-120 -260,-123 -6,0 -16,0 -19,0 201,117 234,318 159,454 -26,49 -59,95 -94,137 65,35 139,65 214,87l0 0 0 0z"/>
    <path fill="#2466A0" d="M2161 3005c-58,6 -117,29 -169,65 -3,3 -9,6 -16,10l-35 -120c0,0 87,9 220,45l0 0 0 0z"/>
    <path fill="#68ACDE" d="M2466 3300c7,-81 -26,-156 -91,-233 -68,-23 -129,-43 -188,-56 52,72 68,156 55,231 78,23 156,42 224,58l0 0z"/>
    <path fill="#4C99D3" d="M1730 3673c22,-29 39,-71 52,-113 19,-72 45,-169 45,-237 0,-140 -58,-247 -107,-373 -49,-133 -107,-263 -146,-396 -78,62 -120,227 -185,269 100,270 250,299 302,575 9,55 13,139 -30,253l69 22 0 0z"/>
    <path fill="#68ACDE" d="M1717 2934c-23,-62 -49,-124 -75,-185 -52,97 -107,233 -127,288 0,4 0,7 -3,10 26,36 52,68 78,101l127 -214 0 0z"/>
    <path fill="#3C8BCA" d="M1519 3901c256,-166 314,-426 308,-607 -3,-36 -10,-75 -16,-101 -20,72 -68,143 -124,192 20,100 4,191 -26,266 -42,110 -110,194 -142,250l0 0 0 0z"/>
    <polygon fill="#B49AC9" points="1528,3722 3034,4030 3008,6020 1528,6377 "/>
    <polygon fill="#8560A5" points="1528,3722 19,3995 42,6016 1528,6377 "/>
    <polygon fill="#653F7E" points="1528,3722 3034,4030 3031,4404 1528,4212 "/>
    <polygon fill="#653F7E" points="1528,3722 19,3995 23,4374 1528,4212 "/>
    <polygon fill="#A07FB8" points="1528,3716 3054,4030 3044,4378 1528,4167 "/>
    <polygon fill="#734F98" points="1528,3716 0,3995 10,4355 1528,4167 "/>
    <path fill="#BCA7D1" d="M1512 3722l3 448 13 -3 7 3 3 -448 -10 -3 -16 3zm7 490l9 2165 4 -2165 -4 0 -9 0z"/>
    <polygon fill="#2E7FC1" fill-rule="nonzero" points="824,3855 571,3891 568,6143 821,6208 "/>
    <polygon fill="#2E7FC1" fill-rule="nonzero" points="2216,3858 2466,3907 2466,6153 2213,6211 "/>
   </g>
  </g>
 </g>
</svg>
