<?xml version="1.0" encoding="UTF-8"?>
<!DOCTYPE svg PUBLIC "-//W3C//DTD SVG 1.1//EN" "http://www.w3.org/Graphics/SVG/1.1/DTD/svg11.dtd">
<!-- Creator: CorelDRAW X8 -->
<svg xmlns="http://www.w3.org/2000/svg" xml:space="preserve" width="1006px" height="1260px" version="1.1" style="shape-rendering:geometricPrecision; text-rendering:geometricPrecision; image-rendering:optimizeQuality; fill-rule:evenodd; clip-rule:evenodd"
viewBox="0 0 1177 1474"
 xmlns:xlink="http://www.w3.org/1999/xlink">
 <defs>
  <style type="text/css">
   <![CDATA[
    .fil13 {fill:#BCA7D1}
    .fil8 {fill:#B49AC9}
    .fil11 {fill:#A07FB8}
    .fil9 {fill:#8560A5}
    .fil4 {fill:#68ACDE}
    .fil12 {fill:#734F98}
    .fil3 {fill:#4C99D3}
    .fil6 {fill:#4596D1}
    .fil10 {fill:#653F7E}
    .fil7 {fill:#3C8BCA}
    .fil5 {fill:#2E7FC1}
    .fil2 {fill:#2775B3}
    .fil0 {fill:#2466A0}
    .fil1 {fill:#265C8E}
    .fil14 {fill:#2E7FC1;fill-rule:nonzero}
   ]]>
  </style>
 </defs>
 <g id="Capa_x0020_1">
  <metadata id="CorelCorpID_0Corel-Layer"/>
  <g id="_2521284609952">
   <path class="fil0" d="M517 510c-146,14 -302,-138 -288,-284 3,-31 48,-105 73,-106 -36,31 -32,94 -11,141 47,105 141,178 262,218l-36 31z"/>
   <path class="fil1" d="M572 517c-52,6 -160,-18 -207,-47 31,-12 58,-26 74,-44 35,22 72,39 114,53l19 38z"/>
   <path class="fil2" d="M594 513c-11,-42 -26,-158 -43,-196 -28,-66 -63,-122 -100,-158 -63,-60 -130,-57 -165,-32 -18,13 -53,68 -56,93 -1,2 -1,5 -1,7 51,-71 129,-41 175,-4 37,30 67,77 94,130 21,39 45,127 65,166l31 -6z"/>
   <path class="fil3" d="M514 242c-20,-33 -41,-61 -63,-83 -63,-60 -130,-57 -165,-32 -18,13 -53,68 -56,93 -1,2 -1,5 -1,7 51,-71 129,-41 175,-4 28,22 52,55 73,91 12,-18 23,-44 37,-72l0 0z"/>
   <path class="fil4" d="M386 118c-20,-7 -40,-9 -58,-7 -9,28 -16,54 -22,73 24,0 47,8 68,19 4,-25 8,-54 12,-85l0 0z"/>
   <path class="fil3" d="M600 522c-36,-195 -227,-315 -453,-205 15,31 -8,58 25,81 140,-76 274,-69 398,117l30 7z"/>
   <path class="fil4" d="M296 275c-23,2 -48,6 -73,12l15 81c28,-9 54,-14 81,-15 -7,-25 -14,-51 -23,-78l0 0z"/>
   <path class="fil5" d="M600 522c-13,-67 -43,-125 -87,-168 -14,12 -30,29 -47,46 35,26 70,63 104,115l10 20 20 -13z"/>
   <path class="fil0" d="M567 463c-39,-151 81,-331 225,-334 31,-1 109,38 116,63 -37,-33 -97,-22 -139,6 -94,62 -159,189 -176,321l-26 -56z"/>
   <path class="fil1" d="M568 515c-14,-53 -8,-162 12,-215 17,31 34,58 53,72 -20,44 -34,100 -39,143l-26 0z"/>
   <path class="fil2" d="M605 523c97,-12 228,-41 314,-161 51,-69 40,-122 -21,-185 -17,-17 -75,-47 -100,-48 -3,0 -5,-1 -7,0 78,45 89,122 61,174 -59,114 -183,142 -262,199l15 21z"/>
   <path class="fil0" d="M733 141c19,-7 39,-11 59,-12 31,-1 109,38 116,63 -37,-33 -97,-22 -139,6 -8,5 -17,11 -24,17l-12 -74z"/>
   <path class="fil6" d="M898 390c7,-9 14,-18 21,-28 51,-69 40,-122 -21,-185 -17,-17 -75,-47 -100,-48 -3,0 -5,-1 -7,0 78,45 89,122 61,174 -10,20 -23,37 -37,53 26,14 54,26 83,34l0 0z"/>
   <path class="fil0" d="M833 173c-22,3 -45,12 -64,25 -3,2 -5,3 -7,5l-14 -47c0,0 34,4 85,17l0 0z"/>
   <path class="fil4" d="M951 287c2,-30 -10,-59 -35,-90 -26,-9 -51,-16 -73,-22 20,29 26,61 22,90 29,9 59,17 86,22l0 0z"/>
   <path class="fil3" d="M667 432c8,-12 15,-29 19,-44 9,-28 19,-66 19,-92 -1,-54 -23,-95 -41,-144 -20,-52 -42,-101 -57,-152 -31,23 -47,87 -72,104 40,103 97,115 116,221 4,22 6,54 -10,98l26 9z"/>
   <path class="fil4" d="M661 146c-8,-24 -18,-47 -28,-71 -21,37 -41,89 -48,111 -1,2 -1,3 -2,4 10,13 20,25 29,39l49 -83z"/>
   <path class="fil7" d="M585 519c99,-64 122,-164 119,-234 0,-14 -3,-28 -6,-39 -8,27 -26,55 -47,74 7,39 1,73 -10,103 -16,42 -44,74 -56,96l0 0z"/>
   <polygon class="fil8" points="589,449 1170,569 1160,1336 589,1474 "/>
   <polygon class="fil9" points="589,449 7,555 17,1335 589,1474 "/>
   <polygon class="fil10" points="589,449 1170,569 1168,712 589,639 "/>
   <polygon class="fil10" points="589,449 7,555 9,701 589,639 "/>
   <polygon class="fil11" points="589,448 1177,569 1174,703 589,622 "/>
   <polygon class="fil12" points="589,448 0,555 3,694 589,622 "/>
   <path class="fil13" d="M583 449l2 173 4 0 3 0 1 -173 -4 0 -6 0zm2 190l4 835 2 -835 -2 0 -4 0z"/>
   <polygon class="fil14" points="318,501 221,516 219,1384 316,1408 "/>
   <polygon class="fil14" points="854,502 951,522 951,1386 854,1410 "/>
  </g>
 </g>
</svg>
