<?xml version="1.0" encoding="UTF-8"?>
<!DOCTYPE svg PUBLIC "-//W3C//DTD SVG 1.1//EN" "http://www.w3.org/Graphics/SVG/1.1/DTD/svg11.dtd">
<!-- Creator: CorelDRAW X8 -->
<svg xmlns="http://www.w3.org/2000/svg" xml:space="preserve" width="1799px" height="1599px" version="1.1" style="shape-rendering:geometricPrecision; text-rendering:geometricPrecision; image-rendering:optimizeQuality; fill-rule:evenodd; clip-rule:evenodd"
viewBox="0 0 1933 1717"
 xmlns:xlink="http://www.w3.org/1999/xlink">
 <defs>
  <style type="text/css">
   <![CDATA[
    .fil11 {fill:#F4AA0E}
    .fil7 {fill:#F8D85B}
    .fil10 {fill:#F4BA12}
    .fil2 {fill:#F6D30E}
    .fil9 {fill:#F5C917}
    .fil6 {fill:#F4C836}
    .fil1 {fill:#F3C219}
    .fil5 {fill:#F4D300}
    .fil8 {fill:#EEC800}
    .fil4 {fill:#E6B30C}
    .fil0 {fill:#DC951D}
    .fil3 {fill:#DD9C1B}
    .fil17 {fill:#DBAE15}
    .fil32 {fill:#BCA7D1}
    .fil27 {fill:#B49AC9}
    .fil30 {fill:#A07FB8}
    .fil18 {fill:#819BC1}
    .fil28 {fill:#8560A5}
    .fil23 {fill:#68ACDE}
    .fil31 {fill:#734F98}
    .fil22 {fill:#4C99D3}
    .fil25 {fill:#4596D1}
    .fil29 {fill:#653F7E}
    .fil15 {fill:#4E7BAB}
    .fil26 {fill:#3C8BCA}
    .fil24 {fill:#2E7FC1}
    .fil12 {fill:#3670A3}
    .fil21 {fill:#2775B3}
    .fil19 {fill:#2466A0}
    .fil13 {fill:#315D8A}
    .fil16 {fill:#31547D}
    .fil14 {fill:#30405F}
    .fil20 {fill:#265C8E}
    .fil33 {fill:#2E7FC1;fill-rule:nonzero}
   ]]>
  </style>
 </defs>
 <g id="Capa_x0020_1">
  <metadata id="CorelCorpID_0Corel-Layer"/>
  <g id="_2521273965056">
   <path class="fil0" d="M1307 319c-39,-20 -208,-112 -163,-190 24,-43 75,-84 107,-79 -69,86 19,190 120,280l-64 -11z"/>
   <path class="fil1" d="M1418 334c-7,-176 -47,-246 -109,-289 -17,-12 -34,-19 -59,-7 -25,11 -51,28 -74,49 -12,12 -23,26 -32,42 39,-50 104,-36 149,23 34,45 86,114 78,179l47 3z"/>
   <path class="fil2" d="M1298 38c-14,-7 -28,-9 -48,0 -25,11 -51,28 -74,49 -12,12 -23,26 -32,42 14,-19 32,-29 51,-31 37,-28 77,-55 103,-60l0 0z"/>
   <path class="fil3" d="M1420 349c16,-6 118,-43 175,-85 63,-46 81,-80 66,-111 -20,-46 -77,-91 -112,-84 31,38 58,59 35,104 -28,52 -82,103 -189,156l25 20z"/>
   <path class="fil4" d="M1368 335c-7,-64 60,-238 127,-284 41,-27 89,8 120,36 12,11 32,41 41,56 -47,-59 -99,-51 -165,40 -28,40 -73,105 -98,172l-25 -20z"/>
   <path class="fil5" d="M1519 42c17,-3 35,3 52,12 7,14 17,30 29,45 2,3 4,5 7,8 -15,-4 -31,-2 -48,8l-40 -73z"/>
   <path class="fil0" d="M1464 342c41,9 214,47 232,-29 1,-6 3,-13 3,-20 0,-8 -2,-16 -4,-25 -5,-30 -19,-59 -38,-70 21,111 -107,124 -248,114l55 30z"/>
   <path class="fil6" d="M1373 335c20,-42 172,-177 229,-182 22,-3 38,2 53,24 14,20 29,45 37,71 4,14 7,31 7,45 -11,-68 -49,-72 -135,-29 -35,19 -100,40 -140,75l-51 -4z"/>
   <path class="fil7" d="M1594 154c3,-1 5,-1 8,-1 6,-1 12,-1 18,0 12,19 25,55 32,83 -14,-1 -32,4 -56,13 -1,-35 -5,-74 -2,-95l0 0z"/>
   <path class="fil3" d="M1373 335c13,-28 84,-96 147,-141 -9,23 -32,74 -61,120 -13,7 -24,16 -35,25l-51 -4z"/>
   <path class="fil3" d="M1309 366c-30,4 -164,-2 -214,-42 -4,-4 -9,-9 -13,-14 -6,-9 -10,-19 -8,-28 6,-47 37,-104 70,-116 -16,48 -23,64 9,97 14,16 53,35 82,46 35,13 57,26 106,30l-32 27z"/>
   <path class="fil4" d="M1384 327c-9,-36 -56,-105 -107,-152 -44,-40 -93,-64 -124,-34 -23,22 -49,54 -65,90 -6,15 -11,31 -14,48 30,-102 119,-84 263,66l47 -18z"/>
   <path class="fil8" d="M1230 140c-15,-8 -29,-12 -42,-12l-66 90c16,-5 35,-4 57,5 1,-6 3,-12 6,-18 16,-28 30,-50 45,-65l0 0z"/>
   <path class="fil3" d="M1365 331c-8,-14 -70,-128 -87,-195 -20,-74 6,-102 31,-117 38,-20 100,-27 121,0 -57,-8 -64,-5 -71,44 -6,55 36,199 51,274l-45 -6z"/>
   <path class="fil9" d="M1416 338c0,-19 14,-44 24,-74 22,-70 48,-162 32,-215 -14,-46 -64,-51 -99,-49 -14,1 -42,10 -56,15 62,-13 79,19 78,128 0,46 -6,123 -5,193l26 2z"/>
   <path class="fil7" d="M1457 25c-20,-23 -56,-26 -84,-25 -14,1 -42,10 -56,15 22,-4 37,-4 49,2 32,-3 67,-5 86,5 2,0 4,2 5,3l0 0z"/>
   <path class="fil10" d="M1416 338c0,-19 14,-44 24,-74 19,-59 40,-135 37,-190 -16,-16 -51,-25 -88,-16 5,21 7,48 6,85 0,46 -6,123 -5,193l26 2z"/>
   <path class="fil11" d="M1416 338c0,-19 14,-44 24,-74 15,-46 31,-102 35,-150 0,-1 0,-2 0,-4 -4,-20 -42,-36 -82,-29 2,17 2,37 2,62 0,46 -6,123 -5,193l26 2z"/>
   <path class="fil7" d="M1258 158c-11,-8 -21,-15 -32,-20 -19,25 -41,59 -54,82 15,5 30,13 46,23 11,-20 28,-55 40,-85l0 0z"/>
   <polygon class="fil12" points="1369,473 1913,555 1866,1552 1371,1673 "/>
   <polygon class="fil13" points="1369,473 852,550 893,1550 1371,1673 "/>
   <polygon class="fil14" points="1369,473 1913,555 1911,584 1369,535 "/>
   <polygon class="fil14" points="1369,473 852,550 854,586 1369,535 "/>
   <polygon class="fil15" points="1368,309 1933,395 1923,572 1370,523 1368,523 "/>
   <polygon class="fil16" points="1368,309 833,402 838,577 846,577 1368,523 "/>
   <polygon class="fil17" points="1129,350 1019,370 1050,1590 1161,1620 "/>
   <polygon class="fil9" points="1633,348 1743,365 1711,1590 1605,1617 "/>
   <path class="fil18" d="M1361 310l3 214 5 -1 4 0 0 -214 -5 0 -7 1zm4 226l6 795 0 -796 -2 0 -4 1z"/>
   <path class="fil19" d="M475 832c-135,14 -277,-127 -265,-260 3,-29 45,-96 68,-98 -34,29 -30,86 -11,130 44,97 129,163 241,199l-33 29z"/>
   <path class="fil20" d="M525 839c-48,5 -147,-17 -190,-44 28,-11 53,-24 68,-40 32,20 66,36 105,48l17 36z"/>
   <path class="fil21" d="M545 835c-10,-39 -23,-145 -39,-180 -26,-60 -58,-112 -92,-145 -58,-55 -119,-53 -151,-29 -17,12 -49,62 -52,85 -1,2 -1,5 -1,7 47,-66 119,-38 161,-4 34,27 62,71 86,119 19,36 42,116 59,153l29 -6z"/>
   <path class="fil22" d="M472 586c-19,-30 -38,-56 -58,-76 -58,-55 -119,-53 -151,-29 -17,12 -49,62 -52,85 -1,2 -1,5 -1,7 47,-66 119,-38 161,-4 25,20 47,50 67,84 11,-18 21,-41 34,-67l0 0z"/>
   <path class="fil23" d="M354 472c-18,-6 -37,-8 -53,-6 -8,26 -15,50 -20,67 22,0 43,7 63,18 3,-24 7,-50 10,-79l0 0z"/>
   <path class="fil22" d="M551 843c-34,-179 -208,-289 -416,-188 13,28 -8,54 23,74 128,-69 252,-63 365,107l28 7z"/>
   <path class="fil23" d="M272 617c-22,1 -44,5 -67,11l14 74c25,-8 49,-13 73,-14 -5,-23 -12,-47 -20,-71l0 0z"/>
   <path class="fil24" d="M551 843c-12,-61 -40,-115 -81,-154 -12,12 -27,26 -43,42 33,24 65,59 96,105l9 20 19 -13z"/>
   <path class="fil19" d="M521 790c-37,-139 74,-305 206,-308 28,0 100,35 106,59 -34,-31 -89,-21 -127,5 -86,57 -146,174 -161,294l-24 -50z"/>
   <path class="fil20" d="M521 837c-13,-49 -7,-149 11,-197 16,28 31,53 49,66 -18,40 -31,91 -35,131l-25 0z"/>
   <path class="fil21" d="M555 844c90,-11 209,-37 289,-147 47,-64 36,-113 -20,-171 -15,-15 -68,-43 -92,-44 -2,0 -5,0 -6,0 71,42 82,112 56,160 -55,105 -168,131 -240,183l13 19z"/>
   <path class="fil19" d="M673 493c17,-6 35,-10 54,-11 28,0 100,35 106,59 -34,-31 -89,-21 -127,5 -8,5 -15,10 -22,16l-11 -69z"/>
   <path class="fil25" d="M824 722c7,-8 13,-16 20,-25 47,-64 36,-113 -20,-171 -15,-15 -68,-43 -92,-44 -2,0 -5,0 -6,0 71,42 82,112 56,160 -9,19 -21,35 -34,49 24,13 50,23 76,31l0 0z"/>
   <path class="fil19" d="M765 523c-21,3 -42,11 -59,23 -3,2 -5,3 -7,4l-12 -42c0,0 31,3 78,15l0 0z"/>
   <path class="fil23" d="M873 628c2,-28 -9,-55 -32,-83 -24,-8 -47,-15 -67,-20 18,26 24,56 20,82 27,8 54,16 79,21l0 0z"/>
   <path class="fil22" d="M612 760c8,-10 14,-26 18,-40 8,-25 17,-60 17,-84 -1,-50 -21,-87 -38,-132 -18,-48 -38,-93 -52,-140 -28,21 -43,80 -66,96 37,94 89,105 107,202 4,20 5,50 -10,90l24 8z"/>
   <path class="fil23" d="M607 498c-8,-22 -17,-43 -26,-65 -19,34 -37,82 -44,102 -1,1 -1,2 -1,3 9,13 18,24 26,36l45 -76z"/>
   <path class="fil26" d="M537 840c91,-58 112,-150 109,-215 0,-12 -3,-25 -5,-35 -7,25 -24,50 -44,68 7,36 1,67 -9,94 -15,39 -40,68 -51,88l0 0z"/>
   <polygon class="fil27" points="540,777 1074,886 1065,1591 540,1717 "/>
   <polygon class="fil28" points="540,777 7,873 15,1589 540,1717 "/>
   <polygon class="fil29" points="540,777 1074,886 1072,1018 540,950 "/>
   <polygon class="fil29" points="540,777 7,873 8,1008 540,950 "/>
   <polygon class="fil30" points="540,775 1080,886 1077,1009 540,935 "/>
   <polygon class="fil31" points="540,775 0,873 3,1002 540,935 "/>
   <path class="fil32" d="M536 777l1 158 3 0 3 0 2 -158 -5 -1 -4 1zm1 174l3 766 2 -766 -2 -1 -3 1z"/>
   <polygon class="fil33" points="292,824 202,837 201,1634 290,1656 "/>
   <polygon class="fil33" points="784,825 873,843 873,1637 784,1658 "/>
  </g>
 </g>
</svg>
