<?xml version="1.0" encoding="UTF-8"?>
<!DOCTYPE svg PUBLIC "-//W3C//DTD SVG 1.1//EN" "http://www.w3.org/Graphics/SVG/1.1/DTD/svg11.dtd">
<!-- Creator: CorelDRAW X8 -->
<svg xmlns="http://www.w3.org/2000/svg" xml:space="preserve" width="5622px" height="4995px" version="1.1" shape-rendering="geometricPrecision" text-rendering="geometricPrecision" image-rendering="optimizeQuality" fill-rule="evenodd" clip-rule="evenodd"
viewBox="0 0 5392 4790"
 xmlns:xlink="http://www.w3.org/1999/xlink">
 <g id="Capa_x0020_1">
  <metadata id="CorelCorpID_0Corel-Layer"/>
  <g id="_2477351155296">
   <g id="_2521273965056">
    <path fill="#DC951D" d="M3646 891c-109,-56 -581,-313 -455,-530 67,-120 209,-234 298,-221 -192,240 53,530 335,781l-178 -30z"/>
    <path fill="#F3C219" d="M3955 933c-19,-491 -131,-687 -304,-806 -47,-34 -95,-53 -164,-20 -70,31 -143,78 -207,137 -33,33 -64,72 -89,117 109,-140 290,-101 416,64 94,126 240,318 217,499l131 9z"/>
    <path fill="#F6D30E" d="M3621 107c-39,-20 -79,-25 -134,0 -70,31 -143,78 -207,137 -33,33 -64,72 -89,117 39,-53 89,-81 142,-87 103,-78 215,-153 288,-167l0 0z"/>
    <path fill="#DD9C1B" d="M3961 974c45,-16 329,-119 488,-237 176,-128 226,-223 184,-309 -56,-129 -215,-254 -312,-235 86,106 161,165 97,291 -78,145 -228,287 -527,435l70 55 0 0z"/>
    <path fill="#E6B30C" d="M3816 935c-20,-178 167,-663 354,-792 114,-75 248,23 335,101 33,30 89,114 114,156 -131,-165 -276,-142 -460,111 -78,112 -204,293 -273,480l-70 -56z"/>
    <path fill="#F4D300" d="M4237 118c47,-8 98,9 145,34 20,39 47,83 81,125 6,9 11,14 19,22 -41,-11 -86,-5 -133,23l-112 -204 0 0z"/>
    <path fill="#DC951D" d="M4084 955c114,25 597,131 647,-81 3,-17 8,-36 8,-56 0,-22 -5,-44 -11,-69 -14,-84 -53,-165 -106,-196 59,310 -299,346 -692,318l154 84 0 0z"/>
    <path fill="#F4C836" d="M3830 935c56,-117 480,-493 639,-507 61,-9 106,5 147,67 39,56 81,125 104,198 11,39 19,86 19,125 -31,-189 -137,-201 -376,-81 -98,53 -279,112 -391,210l-142 -12z"/>
    <path fill="#F8D85B" d="M4446 431c9,-3 14,-3 23,-3 16,-3 33,-3 50,0 33,53 69,153 89,231 -39,-2 -89,11 -156,37 -3,-98 -14,-207 -6,-265l0 0z"/>
    <path fill="#DD9C1B" d="M3830 935c36,-78 234,-267 410,-393 -25,64 -89,207 -170,335 -37,19 -67,44 -98,70l-142 -12 0 0z"/>
    <path fill="#DD9C1B" d="M3651 1022c-83,11 -457,-6 -597,-117 -11,-11 -25,-25 -36,-39 -17,-25 -28,-53 -22,-78 17,-131 103,-290 195,-324 -45,134 -64,179 25,271 39,44 148,97 229,128 97,36 159,72 296,84l-90 75 0 0z"/>
    <path fill="#E6B30C" d="M3860 913c-25,-100 -156,-293 -298,-424 -123,-111 -259,-178 -346,-95 -64,62 -137,151 -181,251 -17,42 -31,87 -39,134 83,-284 332,-234 733,184l131 -50z"/>
    <path fill="#EEC800" d="M3431 392c-42,-23 -81,-34 -117,-34l-184 251c44,-14 97,-11 159,14 2,-17 8,-33 16,-50 45,-78 84,-140 126,-181l0 0z"/>
    <path fill="#DD9C1B" d="M3807 924c-22,-39 -195,-357 -242,-544 -56,-206 17,-284 86,-326 106,-56 279,-75 338,0 -159,-22 -179,-14 -198,123 -17,153 100,555 142,764l-126 -17 0 0z"/>
    <path fill="#F5C917" d="M3950 944c0,-53 39,-123 67,-207 61,-195 134,-451 89,-599 -39,-129 -179,-143 -276,-137 -39,3 -117,28 -156,42 173,-36 220,53 217,357 0,128 -17,343 -14,538l73 6 0 0z"/>
    <path fill="#F8D85B" d="M4064 71c-56,-64 -156,-73 -234,-70 -39,3 -117,28 -156,42 61,-11 103,-11 136,5 90,-8 187,-14 240,14 6,0 11,6 14,9l0 0z"/>
    <path fill="#F4BA12" d="M3950 944c0,-53 39,-123 67,-207 53,-164 111,-376 103,-530 -45,-44 -142,-69 -246,-44 14,58 20,134 17,237 0,128 -17,343 -14,538l73 6 0 0z"/>
    <path fill="#F4AA0E" d="M3950 944c0,-53 39,-123 67,-207 42,-128 86,-284 97,-418 0,-3 0,-6 0,-11 -11,-56 -117,-101 -228,-81 5,47 5,103 5,173 0,128 -17,343 -14,538l73 6 0 0z"/>
    <path fill="#F8D85B" d="M3509 442c-31,-23 -59,-42 -89,-56 -53,70 -115,165 -151,229 42,14 84,36 128,64 31,-56 79,-154 112,-237l0 0z"/>
    <polygon fill="#3670A3" points="3819,1320 5336,1549 5205,4330 3824,4668 "/>
    <polygon fill="#315D8A" points="3819,1320 2377,1535 2491,4325 3824,4668 "/>
    <polygon fill="#30405F" points="3819,1320 5336,1549 5330,1630 3819,1493 "/>
    <polygon fill="#30405F" points="3819,1320 2377,1535 2382,1636 3819,1493 "/>
    <polygon fill="#4E7BAB" points="3816,863 5392,1103 5364,1597 3821,1460 3816,1460 "/>
    <polygon fill="#31547D" points="3816,863 2324,1122 2337,1610 2360,1610 3816,1460 "/>
    <polygon fill="#DBAE15" points="3149,977 2842,1033 2929,4436 3238,4520 "/>
    <polygon fill="#F5C917" points="4555,972 4862,1019 4773,4436 4477,4511 "/>
    <path fill="#819BC1" d="M3796 866l9 597 14 -3 11 0 0 -597 -14 0 -20 3zm11 630l17 2218 0 -2221 -5 0 -12 3 0 0z"/>
    <path fill="#2466A0" d="M1325 2322c-377,39 -773,-354 -739,-725 8,-81 125,-268 189,-274 -94,81 -83,240 -30,363 122,270 360,454 672,555l-92 81 0 0z"/>
    <path fill="#265C8E" d="M1464 2341c-133,14 -410,-47 -530,-122 79,-31 148,-67 190,-112 89,56 184,100 293,134l47 100z"/>
    <path fill="#2775B3" d="M1520 2330c-28,-109 -64,-404 -109,-502 -72,-167 -161,-312 -256,-404 -162,-154 -332,-148 -421,-81 -48,33 -137,173 -145,237 -3,5 -3,14 -3,19 131,-184 332,-106 449,-11 95,75 173,198 240,332 53,100 117,324 164,427l81 -17 0 0z"/>
    <path fill="#4C99D3" d="M1317 1636c-53,-84 -106,-157 -162,-212 -162,-154 -332,-148 -421,-81 -48,33 -137,173 -145,237 -3,5 -3,14 -3,19 131,-184 332,-106 449,-11 70,56 131,140 187,234 30,-50 58,-114 95,-186l0 0z"/>
    <path fill="#68ACDE" d="M987 1318c-50,-17 -103,-23 -147,-17 -23,72 -42,139 -56,187 61,0 120,19 176,50 8,-67 19,-140 27,-220l0 0z"/>
    <path fill="#4C99D3" d="M1537 2352c-95,-499 -580,-806 -1160,-524 36,78 -23,151 64,206 357,-192 703,-175 1018,299l78 19 0 0z"/>
    <path fill="#68ACDE" d="M759 1722c-62,3 -123,14 -187,31l39 206c70,-22 137,-36 203,-39 -13,-64 -33,-131 -55,-198l0 0 0 0z"/>
    <path fill="#2E7FC1" d="M1537 2352c-34,-170 -112,-320 -226,-429 -33,33 -75,72 -120,117 92,67 181,165 268,293l25 56 53 -37 0 0z"/>
    <path fill="#2466A0" d="M1453 2205c-103,-388 207,-851 575,-860 78,0 279,98 296,165 -95,-86 -249,-59 -355,14 -240,159 -407,485 -449,820l-67 -139z"/>
    <path fill="#265C8E" d="M1453 2336c-36,-137 -19,-416 31,-550 45,78 86,148 137,184 -51,112 -87,254 -98,366l-70 0 0 0z"/>
    <path fill="#2775B3" d="M1548 2355c251,-30 583,-103 806,-410 131,-178 101,-315 -56,-477 -41,-42 -189,-120 -256,-123 -6,0 -14,0 -17,0 198,118 229,313 156,447 -153,293 -468,365 -669,510l36 53 0 0z"/>
    <path fill="#2466A0" d="M1877 1376c48,-17 98,-28 151,-31 78,0 279,98 296,165 -95,-86 -249,-59 -355,14 -22,14 -42,28 -61,45l-31 -193z"/>
    <path fill="#4596D1" d="M2298 2015c20,-22 37,-45 56,-70 131,-178 101,-315 -56,-477 -41,-42 -189,-120 -256,-123 -6,0 -14,0 -17,0 198,118 229,313 156,447 -25,53 -58,97 -95,136 67,37 140,65 212,87l0 0 0 0z"/>
    <path fill="#2466A0" d="M2134 1460c-59,8 -117,31 -165,64 -8,6 -14,8 -19,11l-34 -117c0,0 87,8 218,42l0 0z"/>
    <path fill="#68ACDE" d="M2435 1753c6,-78 -25,-154 -89,-232 -67,-22 -131,-42 -187,-56 50,73 67,157 56,229 75,22 150,45 220,59l0 0z"/>
    <path fill="#4C99D3" d="M1707 2121c22,-28 39,-73 50,-112 23,-69 48,-167 48,-234 -3,-139 -59,-243 -106,-368 -50,-134 -106,-260 -145,-391 -78,59 -120,223 -184,268 103,262 248,293 298,564 11,55 14,139 -28,251l67 22 0 0z"/>
    <path fill="#68ACDE" d="M1693 1390c-22,-61 -47,-120 -72,-181 -53,95 -104,229 -123,284 -3,3 -3,6 -3,9 25,36 50,67 73,100l125 -212 0 0z"/>
    <path fill="#3C8BCA" d="M1498 2344c254,-162 312,-418 304,-600 0,-33 -8,-69 -14,-97 -20,69 -67,139 -123,189 20,101 3,187 -25,263 -42,108 -111,189 -142,245l0 0 0 0z"/>
    <polygon fill="#B49AC9" points="1506,2168 2996,2472 2971,4439 1506,4790 "/>
    <polygon fill="#8560A5" points="1506,2168 20,2436 42,4433 1506,4790 "/>
    <polygon fill="#653F7E" points="1506,2168 2996,2472 2990,2841 1506,2651 "/>
    <polygon fill="#653F7E" points="1506,2168 20,2436 22,2813 1506,2651 "/>
    <polygon fill="#A07FB8" points="1506,2163 3013,2472 3004,2815 1506,2609 "/>
    <polygon fill="#734F98" points="1506,2163 0,2436 8,2796 1506,2609 "/>
    <path fill="#BCA7D1" d="M1495 2168l3 441 8 0 9 0 5 -441 -14 -2 -11 2 0 0zm3 486l8 2136 6 -2136 -6 -3 -8 3z"/>
    <polygon fill="#2E7FC1" fill-rule="nonzero" points="814,2299 563,2336 561,4559 809,4620 "/>
    <polygon fill="#2E7FC1" fill-rule="nonzero" points="2187,2302 2435,2352 2435,4567 2187,4626 "/>
   </g>
  </g>
 </g>
</svg>
