<?xml version="1.0" encoding="UTF-8"?>
<!DOCTYPE svg PUBLIC "-//W3C//DTD SVG 1.1//EN" "http://www.w3.org/Graphics/SVG/1.1/DTD/svg11.dtd">
<!-- Creator: CorelDRAW X8 -->
<svg xmlns="http://www.w3.org/2000/svg" xml:space="preserve" width="3144px" height="3937px" version="1.1" shape-rendering="geometricPrecision" text-rendering="geometricPrecision" image-rendering="optimizeQuality" fill-rule="evenodd" clip-rule="evenodd"
viewBox="0 0 3825 4791"
 xmlns:xlink="http://www.w3.org/1999/xlink">
 <g id="Capa_x0020_1">
  <metadata id="CorelCorpID_0Corel-Layer"/>
  <g id="_2477349743200">
   <g id="_2521284609952">
    <path fill="#2466A0" d="M1680 1658c-474,45 -981,-449 -936,-923 10,-101 156,-342 238,-345 -117,101 -104,306 -36,458 153,342 458,579 851,709l-117 101z"/>
    <path fill="#265C8E" d="M1859 1680c-169,20 -520,-58 -673,-152 101,-39 189,-85 241,-143 114,71 234,126 370,172l62 123 0 0z"/>
    <path fill="#2775B3" d="M1931 1667c-36,-136 -85,-513 -140,-637 -91,-214 -205,-396 -325,-513 -205,-195 -423,-185 -536,-104 -59,42 -173,221 -182,302 -4,7 -4,16 -4,23 166,-231 420,-133 569,-13 120,97 218,250 306,422 68,127 146,413 211,540l101 -20 0 0z"/>
    <path fill="#4C99D3" d="M1671 787c-65,-108 -134,-199 -205,-270 -205,-195 -423,-185 -536,-104 -59,42 -173,221 -182,302 -4,7 -4,16 -4,23 166,-231 420,-133 569,-13 91,71 169,179 237,296 39,-59 75,-143 121,-234l0 0 0 0z"/>
    <path fill="#68ACDE" d="M1255 384c-65,-23 -130,-30 -189,-23 -29,91 -52,175 -71,237 78,0 152,26 221,62 13,-81 26,-176 39,-276l0 0z"/>
    <path fill="#4C99D3" d="M1950 1697c-117,-634 -738,-1024 -1472,-667 49,101 -26,189 81,264 455,-247 891,-225 1294,380l97 23z"/>
    <path fill="#68ACDE" d="M962 894c-75,6 -156,19 -237,39l49 263c91,-29 175,-45 263,-49 -23,-81 -46,-165 -75,-253l0 0 0 0z"/>
    <path fill="#2E7FC1" d="M1950 1697c-42,-218 -140,-407 -283,-546 -45,39 -97,94 -152,149 113,85 227,205 338,374l32 65 65 -42z"/>
    <path fill="#2466A0" d="M1843 1505c-127,-491 263,-1076 731,-1086 101,-3 354,124 377,205 -120,-107 -315,-71 -452,20 -305,201 -516,614 -572,1043l-84 -182 0 0z"/>
    <path fill="#265C8E" d="M1846 1674c-45,-172 -26,-527 39,-699 55,101 111,189 172,234 -65,143 -110,325 -126,465l-85 0z"/>
    <path fill="#2775B3" d="M1966 1700c316,-39 741,-133 1021,-523 166,-225 130,-397 -68,-602 -56,-55 -244,-152 -325,-156 -10,0 -17,-3 -23,0 253,147 289,397 198,566 -192,370 -595,461 -851,647l48 68 0 0z"/>
    <path fill="#2466A0" d="M2382 458c62,-22 127,-35 192,-39 101,-3 354,124 377,205 -120,-107 -315,-71 -452,20 -26,16 -55,35 -78,55l-39 -241 0 0z"/>
    <path fill="#4596D1" d="M2919 1268c22,-30 45,-59 68,-91 166,-225 130,-397 -68,-602 -56,-55 -244,-152 -325,-156 -10,0 -17,-3 -23,0 253,147 289,397 198,566 -32,65 -75,120 -120,172 84,46 175,85 270,111l0 0 0 0z"/>
    <path fill="#2466A0" d="M2707 562c-71,10 -146,39 -208,82 -9,6 -16,9 -22,16l-46 -153c0,0 111,13 276,55l0 0z"/>
    <path fill="#68ACDE" d="M3091 933c6,-98 -33,-192 -114,-293 -84,-29 -166,-52 -237,-71 65,94 84,198 71,292 95,30 192,56 280,72l0 0z"/>
    <path fill="#4C99D3" d="M2168 1404c26,-39 49,-94 62,-143 29,-91 61,-214 61,-299 -3,-175 -74,-309 -133,-468 -65,-169 -136,-328 -185,-494 -101,75 -153,283 -234,338 130,335 315,374 377,718 13,72 19,176 -33,319l85 29 0 0z"/>
    <path fill="#68ACDE" d="M2148 475c-26,-78 -58,-153 -91,-231 -68,120 -133,289 -156,361 -3,6 -3,9 -6,13 32,42 65,81 94,126l159 -269z"/>
    <path fill="#3C8BCA" d="M1901 1687c322,-208 397,-533 387,-761 0,-45 -10,-91 -19,-126 -26,87 -85,178 -153,240 23,127 3,237 -33,335 -52,136 -143,240 -182,312l0 0 0 0z"/>
    <polygon fill="#B49AC9" points="1914,1459 3803,1849 3770,4342 1914,4791 "/>
    <polygon fill="#8560A5" points="1914,1459 23,1804 55,4339 1914,4791 "/>
    <polygon fill="#653F7E" points="1914,1459 3803,1849 3796,2314 1914,2077 "/>
    <polygon fill="#653F7E" points="1914,1459 23,1804 29,2278 1914,2077 "/>
    <polygon fill="#A07FB8" points="1914,1456 3825,1849 3816,2285 1914,2022 "/>
    <polygon fill="#734F98" points="1914,1456 0,1804 10,2256 1914,2022 "/>
    <path fill="#BCA7D1" d="M1895 1459l6 563 13 0 10 0 3 -563 -13 0 -19 0 0 0zm6 618l13 2714 7 -2714 -7 0 -13 0z"/>
    <polygon fill="#2E7FC1" fill-rule="nonzero" points="1034,1628 718,1677 712,4498 1027,4576 "/>
    <polygon fill="#2E7FC1" fill-rule="nonzero" points="2776,1632 3091,1697 3091,4505 2776,4583 "/>
   </g>
  </g>
 </g>
</svg>
