<?xml version="1.0" encoding="UTF-8"?>
<!DOCTYPE svg PUBLIC "-//W3C//DTD SVG 1.1//EN" "http://www.w3.org/Graphics/SVG/1.1/DTD/svg11.dtd">
<!-- Creator: CorelDRAW X8 -->
<svg xmlns="http://www.w3.org/2000/svg" xml:space="preserve" width="1535px" height="332px" version="1.1" shape-rendering="geometricPrecision" text-rendering="geometricPrecision" image-rendering="optimizeQuality" fill-rule="evenodd" clip-rule="evenodd"
viewBox="0 0 1507 326"
 xmlns:xlink="http://www.w3.org/1999/xlink">
 <g id="Capa_x0020_1">
  <metadata id="CorelCorpID_0Corel-Layer"/>
  <g id="_3113672209040">
   <g id="_2196876483808">
    <path fill="#008DD2" d="M0 163c0,-56 16,-96 40,-120 26,-29 73,-43 140,-43l62 0c67,0 114,14 140,43 24,24 40,64 40,120 0,56 -16,96 -40,120 -26,28 -73,43 -140,43l-62 0c-67,0 -114,-15 -140,-43 -24,-24 -40,-64 -40,-120zm252 -111c11,0 20,9 20,20l0 160 14 0c4,-1 8,-4 8,-8l0 -5 0 -5 0 -15 0 -75c0,-5 3,-8 8,-8l4 0c5,0 8,3 8,8l0 75 0 15 0 19c0,9 -6,18 -15,20l-27 0 0 1c0,11 -8,20 -19,20l0 0 -1 0c-55,0 -27,0 -82,0l-1 0 0 0c-11,0 -20,-9 -20,-20l0 -160 -13 0c-4,0 -8,4 -8,8l0 5 0 6 0 14 0 75c0,4 -4,9 -8,9l-4 0c-5,0 -8,-5 -8,-9l0 -75 0 -14 0 -19c0,-10 6,-19 15,-21l26 0 0 -1c0,-11 9,-20 20,-20l83 0 0 0zm42 34l0 -5c0,-4 3,-8 8,-8l4 0c5,0 8,4 8,8l0 5c0,5 -3,8 -8,8l-4 0c-5,0 -8,-3 -8,-8zm-186 159l0 -5c0,-4 3,-8 8,-8l4 0c4,0 8,4 8,8l0 5c0,5 -4,8 -8,8l-4 0c-5,0 -8,-3 -8,-8zm123 -8c0,1 -1,2 -1,3l0 5c0,1 1,2 1,3 -1,3 -4,5 -7,5l-8 0c-1,0 -2,0 -2,0l-6 0c0,0 -1,0 -2,0l-8 0c-4,0 -8,-4 -8,-9l0 -4c0,-4 4,-8 8,-8l9 0c1,0 1,0 1,0l6 0c0,0 0,0 0,0l10 0c3,0 6,2 7,5zm-40 -148c0,-1 0,-2 0,-3l0 -5c0,-1 0,-2 0,-3 0,-3 3,-5 7,-5l4 0 17 0 5 0c4,0 8,4 8,8l0 5c0,5 -4,8 -8,8l-5 0 -17 0 -4 0c-4,0 -7,-2 -7,-5zm0 27c56,-1 -16,0 40,0l1 0 0 0 11 0 9 0 0 8 0 12 0 54 0 12 0 9 -9 0 -11 0 0 0 -1 0c-56,0 16,0 -40,0l-1 0 0 0 -12 0 -8 0 0 -9 0 -12 0 -54 0 -12 0 -8 8 0 12 0 0 0 1 0z"/>
    <path fill="#008DD2" fill-rule="nonzero" d="M531 166l24 0c11,0 19,-4 25,-10 6,-6 9,-13 9,-22 0,-22 -12,-33 -37,-33l-21 0 0 65 0 0zm81 73l-17 0 -37 -62 -4 0 -23 0 0 62 -13 0 0 -150 33 0c17,0 31,4 39,12 9,8 13,19 13,33 0,10 -3,19 -8,27 -6,7 -13,11 -23,14l40 64 0 0z"/>
    <polygon id="_1" fill="#008DD2" fill-rule="nonzero" points="649,225 716,225 716,239 635,239 635,89 714,89 714,102 649,102 649,158 707,158 707,170 649,170 "/>
    <path id="_2" fill="#008DD2" fill-rule="nonzero" d="M849 95l0 14c-7,-3 -12,-5 -17,-7 -5,-1 -12,-2 -21,-2 -17,0 -31,6 -43,17 -11,12 -17,27 -17,46 0,19 6,35 17,46 11,12 26,18 45,18 15,0 27,-4 37,-11l0 14c-9,7 -22,10 -38,10 -22,0 -40,-7 -54,-21 -14,-14 -21,-32 -21,-56 0,-23 7,-41 21,-55 14,-14 32,-21 53,-21 15,0 28,3 38,8l0 0z"/>
    <path id="_3" fill="#008DD2" fill-rule="nonzero" d="M901 185l57 0 -3 -10 -25 -75c-2,6 -11,31 -27,75l-2 10 0 0zm75 54l-14 -42 -66 0 -14 42 -15 0 53 -150 20 0 51 150 -15 0 0 0z"/>
    <path id="_4" fill="#008DD2" fill-rule="nonzero" d="M1031 166l24 0c11,0 19,-4 25,-10 6,-6 9,-13 9,-22 0,-22 -12,-33 -36,-33l-22 0 0 65 0 0zm81 73l-16 0 -38 -62 -4 0 -23 0 0 62 -13 0 0 -150 33 0c17,0 31,4 40,12 8,8 12,19 12,33 0,10 -3,19 -8,27 -6,7 -13,11 -23,14l40 64 0 0z"/>
    <path id="_5" fill="#008DD2" fill-rule="nonzero" d="M1248 156l0 72c-12,8 -26,12 -44,12 -23,0 -41,-7 -55,-21 -14,-13 -21,-32 -21,-56 0,-22 7,-41 21,-55 13,-14 31,-22 51,-22 18,0 32,4 44,10l0 16c-12,-8 -26,-12 -42,-12 -18,0 -32,6 -43,17 -11,12 -16,27 -16,46 0,20 5,35 16,47 11,11 26,16 45,16 12,0 22,-2 31,-7l0 -50 -36 0 0 -13 49 0 0 0z"/>
    <path id="_6" fill="#008DD2" fill-rule="nonzero" d="M1306 185l58 0 -4 -10 -25 -75c-2,6 -10,31 -26,75l-3 10 0 0zm75 54l-14 -42 -66 0 -14 42 -15 0 53 -150 20 0 52 150 -16 0 0 0z"/>
    <path id="_7" fill="#008DD2" fill-rule="nonzero" d="M1498 94l0 16c-3,-2 -8,-5 -14,-6 -5,-2 -11,-3 -16,-3 -10,0 -18,2 -24,7 -6,5 -9,11 -9,19 0,3 1,7 2,10 2,4 5,6 8,9 4,2 7,4 10,6 3,1 7,3 13,6 5,2 8,3 11,5 3,1 6,3 11,6 4,2 7,5 9,7 2,3 4,7 6,10 2,5 2,9 2,14 0,13 -4,22 -13,30 -9,6 -20,10 -33,10 -16,0 -29,-4 -39,-10l0 -15c4,3 9,6 17,8 6,2 14,4 21,4 10,0 19,-2 24,-8 6,-4 9,-11 9,-19 0,-6 -2,-11 -6,-16 -5,-4 -11,-8 -19,-12 -2,0 -4,-1 -9,-3 -3,-2 -6,-3 -8,-3 -1,-1 -4,-3 -7,-5 -4,-1 -6,-3 -7,-4 -3,-2 -4,-3 -6,-5 -3,-3 -5,-5 -5,-7 -2,-2 -3,-5 -3,-8 -1,-3 -2,-6 -2,-10 0,-12 5,-22 13,-29 10,-7 20,-10 34,-10 12,0 22,2 30,6l0 0z"/>
   </g>
  </g>
 </g>
</svg>
