<?xml version="1.0" encoding="UTF-8"?>
<!DOCTYPE svg PUBLIC "-//W3C//DTD SVG 1.1//EN" "http://www.w3.org/Graphics/SVG/1.1/DTD/svg11.dtd">
<!-- Creator: CorelDRAW X8 -->
<svg xmlns="http://www.w3.org/2000/svg" xml:space="preserve" width="403px" height="311px" version="1.1" shape-rendering="geometricPrecision" text-rendering="geometricPrecision" image-rendering="optimizeQuality" fill-rule="evenodd" clip-rule="evenodd"
viewBox="0 0 234 181"
 xmlns:xlink="http://www.w3.org/1999/xlink">
 <g id="Capa_x0020_1">
  <metadata id="CorelCorpID_0Corel-Layer"/>
  <path fill="#ffffff" d="M0 90c0,-31 9,-53 22,-66 15,-16 41,-24 78,-24l34 0c37,0 63,8 78,24 13,13 22,35 22,66 0,31 -9,54 -22,67 -15,16 -41,24 -78,24l-34 0c-37,0 -63,-8 -78,-24 -13,-13 -22,-36 -22,-67zm139 -61c6,0 12,5 12,11l0 88 7 0c3,0 5,-1 5,-4l0 -3 0 -3 0 -8 0 -41c0,-3 2,-5 4,-5l3 0c2,0 5,2 5,5l0 41 0 8 0 11c0,5 -4,10 -9,11l-15 0 0 1c0,6 -5,11 -11,11l0 0 0 0c-31,0 -15,0 -46,0l0 0 0 0c-6,0 -11,-5 -11,-11l0 -89 -8 0c-2,0 -4,2 -4,5l0 2 0 3 0 8 0 42c0,3 -2,5 -4,5l-3 0c-3,0 -5,-2 -5,-5l0 -42 0 -8 0 -10c0,-6 4,-11 9,-12l15 0 0 0c0,-6 5,-11 11,-11l45 0zm24 18l0 -2c0,-3 2,-5 4,-5l3 0c2,0 5,2 5,5l0 2c0,3 -3,5 -5,5l-3 0c-2,0 -4,-2 -4,-5zm-104 89l0 -3c0,-2 2,-5 5,-5l3 0c2,0 4,3 4,5l0 3c0,2 -2,4 -4,4l-3 0c-3,0 -5,-2 -5,-4zm69 -5c0,1 0,1 0,2l0 3c0,0 0,1 0,1 0,2 -2,3 -4,3l-5 0c0,0 -1,0 -1,0l-2 0c-1,0 -1,0 -2,0l-4 0c-3,0 -5,-2 -5,-5l0 -2c0,-2 2,-5 5,-5l5 0c0,0 0,0 1,0l2 0c0,0 1,0 1,0l5 0c2,0 4,2 4,3l0 0zm-22 -82c0,0 0,-1 0,-2l0 -2c0,-1 0,-1 0,-2 0,-2 2,-3 4,-3l2 0 9 0 3 0c3,0 4,2 4,5l0 2c0,3 -1,5 -4,5l-3 0 -9 0 -2 0c-2,0 -4,-1 -4,-3zm0 15c31,0 -9,0 22,0l0 0 0 0 7 0 4 0 0 5 0 6 0 30 0 7 0 5 -4 0 -7 0 0 0 0 0c-31,0 9,0 -22,0l-1 0 0 0 -6 0 -5 0 0 -5 0 -7 0 -30 0 -6 0 -5 5 0 6 0 0 0 1 0z"/>
 </g>
</svg>
